<svg id="Layer_1" data-name="Layer 1" xmlns="http://www.w3.org/2000/svg" viewBox="0 0 32 32"><defs><style>.cls-1{fill:#74acdf;}.cls-2{fill:#fff;}.cls-3{fill:#f6b40e;}</style></defs><title>Argentina</title><g id="_Group_" data-name="&lt;Group&gt;"><rect id="_Rectangle_" data-name="&lt;Rectangle&gt;" class="cls-1" width="32" height="10.57"/><rect id="_Rectangle_2" data-name="&lt;Rectangle&gt;" class="cls-2" y="10.57" width="32" height="10.87"/><rect id="_Rectangle_3" data-name="&lt;Rectangle&gt;" class="cls-1" y="21.44" width="32" height="10.57"/></g><path id="_Path_" data-name="&lt;Path&gt;" class="cls-3" d="M16,20.65a.23.23,0,0,1,0-.11s0-.37,0-.77,0-.81,0-.93,0-.34,0-.49,0-.3,0-.33V18l0,.06a.9.9,0,0,0-.07.39,1.24,1.24,0,0,1-.19.69,1.76,1.76,0,0,0-.16.4.87.87,0,0,0,0,.36.73.73,0,0,1,0,.26.62.62,0,0,1-.22.4.12.12,0,0,1-.17,0s0,0,0-.1a.39.39,0,0,0,.1-.19,1.42,1.42,0,0,0,0-.4,1.36,1.36,0,0,1,0-.21,1,1,0,0,1,.14-.5,1.6,1.6,0,0,0,.18-.91v-.24l0,0-.91,1.95a2.68,2.68,0,0,1-.17.33.09.09,0,0,1-.14,0,.12.12,0,0,1,0-.07,4,4,0,0,1,.27-.74L15,17.86l0-.12a1.07,1.07,0,0,0-.15.18.69.69,0,0,0-.09.16,1.3,1.3,0,0,1-.48.62A1.79,1.79,0,0,0,14,19a.76.76,0,0,0-.13.3.9.9,0,0,1-.16.31c-.14.17-.35.26-.43.16a.06.06,0,0,1,0-.08l.08-.05c.13-.07.21-.21.28-.5a1,1,0,0,1,.13-.32,1.26,1.26,0,0,1,.28-.31,1.59,1.59,0,0,0,.28-.3,2.16,2.16,0,0,0,.21-.43l.08-.18a.28.28,0,0,0,0-.06s-.16.13-.34.3l-.95.86c-.33.31-.62.56-.64.57a.09.09,0,0,1-.14-.05c0-.06-.09,0,1.64-1.78l.2-.21-.12.06a1.08,1.08,0,0,0-.22.15,1.24,1.24,0,0,1-.44.32l-.25.09A1.94,1.94,0,0,0,13,18a1,1,0,0,0-.24.22,1.13,1.13,0,0,1-.18.19.67.67,0,0,1-.39.14.19.19,0,0,1-.17-.06s0-.06,0-.09,0,0,.08,0,.31-.11.49-.36l.15-.17A1,1,0,0,1,13,17.7l.34-.14.14,0a2.14,2.14,0,0,0,.45-.37l.19-.17s0,0,0,0l-.22.08-2,.72a1.08,1.08,0,0,1-.33.09.09.09,0,0,1-.07-.08c0-.06,0-.09.18-.15l.5-.22.82-.36,1-.43s0,0-.06,0a.83.83,0,0,0-.29.06,1.43,1.43,0,0,1-.79.13,1.52,1.52,0,0,0-.44,0,1,1,0,0,0-.32.09.8.8,0,0,1-.49.16.42.42,0,0,1-.18,0c-.11,0-.16-.08-.16-.15s0-.07.06-.07l.08,0a.21.21,0,0,0,.14,0,1,1,0,0,0,.47-.18,1.06,1.06,0,0,1,.33-.14,2,2,0,0,1,.4,0,1.35,1.35,0,0,0,.52,0l.35-.13.18-.07.08,0s0,0-.05,0l-2.2-.07c-.4,0-.42,0-.45-.06s0-.11,0-.13l1.35-.06,1.34,0a.77.77,0,0,0-.22-.07h-.16a2.17,2.17,0,0,1-.38,0,2.22,2.22,0,0,1-.41-.16,1.15,1.15,0,0,0-.43-.16.9.9,0,0,0-.37,0,.75.75,0,0,1-.47-.08c-.16-.08-.24-.21-.17-.28s.06,0,.12,0a.48.48,0,0,0,.32.11l.27,0a1.15,1.15,0,0,1,.41,0,1.43,1.43,0,0,1,.42.15,1.56,1.56,0,0,0,.81.15H14l-1.46-.65-.32-.14-.39-.18c-.23-.09-.25-.11-.26-.17s0-.1.12-.09l.61.22,1.23.44.67.24s0,0,0,0L14,14.93l-.17-.08a1.38,1.38,0,0,1-.63-.45,1.2,1.2,0,0,0-.28-.28,1.34,1.34,0,0,0-.38-.18.78.78,0,0,1-.33-.16.43.43,0,0,1-.19-.35.11.11,0,0,1,.08-.07s0,0,.08.08a.34.34,0,0,0,.08.09.86.86,0,0,0,.45.2,1.15,1.15,0,0,1,.68.42,1.74,1.74,0,0,0,.25.23,3.67,3.67,0,0,0,.44.21l.21.09.07,0-.84-.87-.73-.76a2.6,2.6,0,0,1-.23-.25.09.09,0,0,1,0-.1.07.07,0,0,1,.06,0c.06,0,0,0,.49.4.13.12.53.47.88.8l.65.58s0-.12-.09-.18l-.14-.16a1.23,1.23,0,0,1-.39-.63,1.35,1.35,0,0,0-.21-.45.84.84,0,0,0-.21-.22.69.69,0,0,1-.26-.29.51.51,0,0,1-.05-.35.12.12,0,0,1,.1-.07s.06,0,.07.1a.3.3,0,0,0,.05.16,1,1,0,0,0,.37.35,1.09,1.09,0,0,1,.33.4l.08.2a1.51,1.51,0,0,0,.15.33,3,3,0,0,0,.3.33l.16.15.07.07L15,14l-.23-.59-.38-1c-.13-.32-.23-.59-.24-.62a.12.12,0,0,1,0-.12.1.1,0,0,1,.14,0s.1.19.2.4L15,13.32l.37.78a.82.82,0,0,0,0-.21s0-.12-.08-.21a1.29,1.29,0,0,1-.1-.73,1.56,1.56,0,0,0,0-.45,1,1,0,0,0-.12-.31.73.73,0,0,1-.13-.42.39.39,0,0,1,.1-.29c0-.05.11-.05.14,0s0,0,0,.06,0,.14,0,.2a1,1,0,0,0,.18.41.8.8,0,0,1,.13.27,1.51,1.51,0,0,1,0,.52v.3l0,.13c0,.12.1.27.13.34l.07.16c0,.06.05.11.05.1s0-.19,0-.41,0-.71,0-1.09,0-.75,0-.84a1.8,1.8,0,0,1,0-.2c0-.09.13-.12.17,0a4,4,0,0,1,.05.82c0,.15,0,.47,0,.71s0,.58,0,.75,0,.31,0,.33,0,0,0-.07a1,1,0,0,0,.05-.38,1.35,1.35,0,0,1,.06-.38l.14-.29a1.54,1.54,0,0,0,.17-.48.6.6,0,0,0,0-.27.92.92,0,0,1,0-.16.64.64,0,0,1,.23-.49c.07,0,.16,0,.17,0s0,.06,0,.11a.46.46,0,0,0-.1.37,1.5,1.5,0,0,0,0,.22.84.84,0,0,1,0,.35,1.19,1.19,0,0,1-.14.4,1.38,1.38,0,0,0-.17.8v.31l0,0,.4-.86c.21-.46.44-.93.49-1.06.19-.4.2-.41.27-.41s.08,0,.08.08,0,.08-.25.71c-.14.37-.28.72-.3.77l-.38,1,0,0a1.07,1.07,0,0,0,.19-.28,1.37,1.37,0,0,1,.46-.62,1.15,1.15,0,0,0,.47-.62.88.88,0,0,1,.11-.27.6.6,0,0,1,.38-.26.11.11,0,0,1,.1,0s0,.08-.07.12a.42.42,0,0,0-.19.22,1,1,0,0,0-.1.28,1.16,1.16,0,0,1-.11.31,1.6,1.6,0,0,1-.35.39,1.21,1.21,0,0,0-.25.27,3.18,3.18,0,0,0-.18.37l-.08.18,0,.09.35-.31.69-.63c.19-.17.47-.42.6-.55a2.63,2.63,0,0,1,.29-.24.09.09,0,0,1,.13,0,.09.09,0,0,1,0,.1s-.33.37-.92,1l-.9.94a.86.86,0,0,0,.21-.11l.15-.12a1.3,1.3,0,0,1,.67-.38,1.69,1.69,0,0,0,.42-.19.8.8,0,0,0,.24-.22,1.08,1.08,0,0,1,.14-.15.66.66,0,0,1,.41-.16c.08,0,.12,0,.15.05a.07.07,0,0,1,0,.1l-.09,0c-.17,0-.3.11-.49.35a.83.83,0,0,1-.28.28,1.54,1.54,0,0,1-.42.19,1.25,1.25,0,0,0-.35.18,2.87,2.87,0,0,0-.3.26l-.18.18s0,0,0,0l.21-.08,2.16-.78c.1,0,.16,0,.2,0a.09.09,0,0,1,0,.14l-.59.27-.86.38-.61.27-.35.16s0,0,.06,0a1.42,1.42,0,0,0,.35-.08,1.32,1.32,0,0,1,.73-.11,2,2,0,0,0,.51,0l.28-.1a1.34,1.34,0,0,1,.25-.12.87.87,0,0,1,.36,0q.16,0,.18.15a0,0,0,0,1,0,0s-.05,0-.13,0a.27.27,0,0,0-.13,0,1,1,0,0,0-.48.2l-.2.09a1.29,1.29,0,0,1-.52,0,1.18,1.18,0,0,0-.51.05,2.52,2.52,0,0,0-.36.12c-.07,0-.17.07-.21.09l-.07,0h0l1.29,0,1.28,0c.08,0,.12,0,.12.11s0,.07-.09.08l-.31,0-1,0-.78,0-.58,0,.06,0a.84.84,0,0,0,.31.05,2.17,2.17,0,0,1,.38,0,2.22,2.22,0,0,1,.41.16,1.58,1.58,0,0,0,.4.15,1,1,0,0,0,.39,0,.8.8,0,0,1,.47.07.59.59,0,0,1,.2.17c0,.06,0,.12,0,.13s-.07,0-.11,0a.55.55,0,0,0-.32-.1.72.72,0,0,0-.24,0,1.38,1.38,0,0,1-.4,0,1,1,0,0,1-.33-.09l-.2-.09a1.5,1.5,0,0,0-.74-.12c-.3,0-.3,0-.27,0l1.23.54,1.09.48a.15.15,0,0,1,.08.1.08.08,0,0,1,0,.08s-.1,0-.23,0l-.94-.34-1.41-.51s.07.08.14.12a.72.72,0,0,0,.18.1,1.31,1.31,0,0,1,.46.27s.1.11.18.19l.17.19a1.13,1.13,0,0,0,.44.24.93.93,0,0,1,.24.09.61.61,0,0,1,.29.28.18.18,0,0,1,0,.12s0,.06,0,.08-.09,0-.13,0a.42.42,0,0,0-.14-.16,1.35,1.35,0,0,0-.45-.16.87.87,0,0,1-.34-.15,1.59,1.59,0,0,1-.27-.25l-.26-.23a3.45,3.45,0,0,0-.43-.21l-.2-.08s-.08,0-.08,0,.12.13.51.54l.31.32.53.55.44.47a.09.09,0,0,1,0,.1s0,0-.06,0l-.07,0-.17-.14-.27-.25-.39-.35-1-.87-.18-.16a2,2,0,0,0,.1.18,1.37,1.37,0,0,0,.15.18,1.34,1.34,0,0,1,.38.61,1.35,1.35,0,0,0,.18.41.69.69,0,0,0,.25.26c0,.05.12.1.14.13.19.21.24.53.09.58s-.09,0-.09-.09-.12-.3-.37-.47a1,1,0,0,1-.3-.29,1.12,1.12,0,0,1-.16-.33,1.84,1.84,0,0,0-.15-.33,2.76,2.76,0,0,0-.36-.4A1,1,0,0,0,17,17.8l.18.46c.09.24.25.64.33.87s.22.55.28.72a2,2,0,0,1,.12.33.09.09,0,0,1,0,.1s-.1,0-.14,0-.16-.34-.34-.72-.37-.78-.41-.88-.14-.3-.22-.46l-.14-.3v.05a.84.84,0,0,0,.09.38,1.21,1.21,0,0,1,.1.73,1.2,1.2,0,0,0,.11.71A1.24,1.24,0,0,1,17,20a.63.63,0,0,1,0,.45.23.23,0,0,1-.11.11s-.08,0-.09,0a.11.11,0,0,1,0-.06.39.39,0,0,0,0-.2,1.15,1.15,0,0,0-.17-.4.91.91,0,0,1-.15-.32l0-.1v-.65a3.26,3.26,0,0,0-.18-.52l-.08-.18s0-.06,0-.06,0,.13,0,.29c0,.52-.06,1.69-.07,2s0,.28,0,.31A.09.09,0,0,1,16,20.65Z"/></svg>