<svg id="Layer_1" data-name="Layer 1" xmlns="http://www.w3.org/2000/svg" viewBox="0 0 32 32"><defs><style>.cls-1{fill:#00008b;}.cls-2{fill:#fff;}.cls-3{fill:red;}</style></defs><title>Australia</title><rect id="_Rectangle_" data-name="&lt;Rectangle&gt;" class="cls-1" width="32" height="32"/><path id="_Path_" data-name="&lt;Path&gt;" class="cls-2" d="M8.81,19.17c.18-.56.35-1.13.54-1.68.2.55.37,1.12.55,1.68.56-.2,1.1-.43,1.66-.62l-1,1.47c.5.31,1,.6,1.52.91l-1.76.16c.08.59.17,1.18.24,1.77-.41-.43-.81-.87-1.23-1.29-.41.42-.81.86-1.23,1.29.08-.59.17-1.18.24-1.77C7.78,21,7.19,21,6.6,20.93c.5-.31,1-.6,1.52-.91l-1-1.47C7.71,18.74,8.25,19,8.81,19.17Z"/><g id="_Group_" data-name="&lt;Group&gt;"><path id="_Path_2" data-name="&lt;Path&gt;" class="cls-2" d="M24.75,10.14c0,.27-.09.54-.12.82.2-.19.38-.4.58-.6.2.2.38.41.59.6l-.12-.82c.27,0,.56,0,.83-.08-.23-.16-.47-.29-.7-.43.14-.24.3-.47.45-.71-.27.09-.52.21-.79.29-.08-.26-.16-.52-.26-.78-.09.26-.17.52-.25.78-.27-.08-.53-.2-.79-.29.14.24.31.47.45.71-.23.14-.48.27-.7.43C24.19,10.1,24.47,10.1,24.75,10.14Z"/><path id="_Path_3" data-name="&lt;Path&gt;" class="cls-2" d="M25.8,22.23c.15-.22.31-.45.46-.69l-.79.29a5.37,5.37,0,0,0-.26-.74c-.11.21-.16.5-.26.74l-.78-.29a8.27,8.27,0,0,0,.46.69c-.23.17-.49.29-.72.44l.83.08c0,.27-.08.55-.11.82.2-.18.38-.4.58-.59.2.19.38.41.59.59,0-.27-.08-.55-.11-.82l.83-.08C26.29,22.52,26,22.4,25.8,22.23Z"/><path id="_Path_4" data-name="&lt;Path&gt;" class="cls-2" d="M30.73,13.92c-.23-.16-.49-.28-.72-.44l.46-.69-.79.29a4.89,4.89,0,0,0-.27-.76c-.09.25-.17.51-.25.76l-.79-.29.46.69c-.22.16-.48.28-.71.44L29,14c0,.28-.08.55-.11.83.2-.19.39-.4.58-.59.2.19.38.4.58.59,0-.27-.08-.55-.11-.83Z"/><path id="_Path_5" data-name="&lt;Path&gt;" class="cls-2" d="M27.31,16.57c-.08-.14-.1-.34-.2-.45a2.07,2.07,0,0,0-.21.45l-.52,0a4.64,4.64,0,0,0,.4.36c-.05.17-.09.34-.13.52l.46-.28.46.28c0-.18-.08-.35-.13-.52a4.49,4.49,0,0,0,.39-.36Z"/><path id="_Path_6" data-name="&lt;Path&gt;" class="cls-2" d="M21.07,14.75c.14-.24.32-.46.45-.7l-.77.29c-.1-.26-.16-.53-.27-.78-.1.25-.16.52-.26.78l-.78-.29c.14.24.3.46.45.7-.23.15-.48.28-.71.43.28,0,.55.05.83.08,0,.28-.08.55-.11.83.2-.19.38-.41.58-.6.2.19.38.41.58.6,0-.28-.07-.55-.11-.83.28,0,.55,0,.83-.08C21.55,15,21.31,14.9,21.07,14.75Z"/></g><g id="_Group_2" data-name="&lt;Group&gt;"><polygon id="_Path_7" data-name="&lt;Path&gt;" class="cls-2" points="17.89 5.22 15.89 5.22 10.43 7.95 10.43 5.22 7.45 5.22 7.45 7.95 2 5.22 0 5.22 0 6.22 3.96 8.2 0 8.2 0 11.18 3.96 11.18 0 13.16 0 14.16 2 14.16 7.45 11.44 7.45 14.16 10.43 14.16 10.43 11.44 15.89 14.16 17.89 14.16 17.89 13.16 13.92 11.18 17.89 11.18 17.89 8.2 13.92 8.2 17.89 6.22 17.89 5.22"/><polyline id="_Path_8" data-name="&lt;Path&gt;" class="cls-3" points="17.89 8.8 9.84 8.8 9.84 5.22 8.05 5.22 8.05 8.8 0 8.8 0 10.59 8.05 10.59 8.05 14.16 9.84 14.16 9.84 10.59 17.89 10.59"/><path id="_Compound_Path_" data-name="&lt;Compound Path&gt;" class="cls-3" d="M11.92,11.18h1.34l4.63,2.32v.66M6,8.2H4.63L0,5.89V5.22Zm0,3H7.3l-6,3H0Zm6-3H10.59l6-3h1.34Z"/></g></svg>