<svg id="Layer_1" data-name="Layer 1" xmlns="http://www.w3.org/2000/svg" viewBox="0 0 32 32"><defs><style>.cls-1{fill:#009a3c;}.cls-2{fill:#f6fbfd;}.cls-3{fill:#fdde19;}.cls-4{fill:#032775;}.cls-5{fill:#fff;}</style></defs><title>Brazil</title><rect id="_Rectangle_" data-name="&lt;Rectangle&gt;" class="cls-1" width="32" height="32"/><g id="_Group_" data-name="&lt;Group&gt;"><polygon id="_Path_" data-name="&lt;Path&gt;" class="cls-2" points="10.92 17.79 10.96 17.95 11.12 17.95 11 18.05 11.04 18.2 10.92 18.11 10.79 18.2 10.84 18.05 10.71 17.95 10.87 17.95 10.92 17.79"/><path id="_Path_2" data-name="&lt;Path&gt;" class="cls-3" d="M3.5,16,16.25,6.74,29,16,16.25,25.26Z"/><path id="_Path_3" data-name="&lt;Path&gt;" class="cls-4" d="M22.37,16a6.12,6.12,0,1,1-6.12-6.12A6.12,6.12,0,0,1,22.37,16Z"/><path id="_Path_4" data-name="&lt;Path&gt;" class="cls-5" d="M22.34,17l-.25,1S18,13.63,10.25,14.54l.35-1S17.44,12.39,22.34,17Z"/><polygon id="_Path_5" data-name="&lt;Path&gt;" class="cls-2" points="18.22 13.85 18.28 14.03 18.48 14.03 18.32 14.15 18.38 14.34 18.22 14.22 18.07 14.34 18.12 14.15 17.97 14.03 18.16 14.03 18.22 13.85"/><polygon id="_Path_6" data-name="&lt;Path&gt;" class="cls-2" points="20.64 17.94 20.7 18.13 20.9 18.13 20.74 18.24 20.8 18.43 20.64 18.32 20.48 18.43 20.55 18.24 20.39 18.13 20.58 18.13 20.64 17.94"/><polygon id="_Path_7" data-name="&lt;Path&gt;" class="cls-2" points="16.4 18.51 16.46 18.7 16.66 18.7 16.5 18.81 16.56 19 16.4 18.89 16.25 19 16.31 18.81 16.15 18.7 16.34 18.7 16.4 18.51"/><polygon id="_Path_8" data-name="&lt;Path&gt;" class="cls-2" points="19.59 19.73 19.64 19.89 19.81 19.89 19.68 19.99 19.73 20.15 19.59 20.05 19.46 20.15 19.51 19.99 19.38 19.89 19.54 19.89 19.59 19.73"/><polygon id="_Path_9" data-name="&lt;Path&gt;" class="cls-2" points="20.47 18.89 20.52 19.05 20.68 19.05 20.55 19.15 20.6 19.31 20.47 19.21 20.33 19.31 20.39 19.15 20.25 19.05 20.42 19.05 20.47 18.89"/><polygon id="_Path_10" data-name="&lt;Path&gt;" class="cls-2" points="20.74 18.54 20.79 18.7 20.96 18.7 20.82 18.8 20.88 18.96 20.74 18.86 20.61 18.96 20.66 18.8 20.53 18.7 20.69 18.7 20.74 18.54"/><polygon id="_Path_11" data-name="&lt;Path&gt;" class="cls-2" points="17.89 15.6 17.93 15.73 18.07 15.73 17.96 15.81 18 15.95 17.89 15.87 17.78 15.95 17.82 15.81 17.71 15.73 17.85 15.73 17.89 15.6"/><polygon id="_Path_12" data-name="&lt;Path&gt;" class="cls-2" points="16.32 16.7 16.37 16.85 16.52 16.85 16.4 16.95 16.44 17.1 16.32 17.01 16.19 17.1 16.24 16.95 16.11 16.85 16.27 16.85 16.32 16.7"/><polygon id="_Path_13" data-name="&lt;Path&gt;" class="cls-2" points="14.11 16.01 14.16 16.16 14.31 16.16 14.19 16.26 14.24 16.42 14.11 16.32 13.98 16.42 14.03 16.26 13.9 16.16 14.06 16.16 14.11 16.01"/><polygon id="_Path_14" data-name="&lt;Path&gt;" class="cls-2" points="11.85 17.15 11.91 17.35 12.11 17.35 11.95 17.47 12.01 17.66 11.85 17.54 11.69 17.66 11.75 17.47 11.59 17.35 11.79 17.35 11.85 17.15"/><polygon id="_Path_15" data-name="&lt;Path&gt;" class="cls-2" points="11.27 14.6 11.33 14.79 11.53 14.79 11.37 14.92 11.43 15.11 11.27 14.99 11.11 15.11 11.17 14.92 11.01 14.79 11.21 14.79 11.27 14.6"/><polygon id="_Path_16" data-name="&lt;Path&gt;" class="cls-2" points="13.99 19.04 14.05 19.23 14.24 19.23 14.09 19.34 14.15 19.53 13.99 19.42 13.84 19.53 13.89 19.34 13.74 19.23 13.93 19.23 13.99 19.04"/><polygon id="_Path_17" data-name="&lt;Path&gt;" class="cls-2" points="17.05 17.34 17.1 17.5 17.25 17.5 17.13 17.59 17.18 17.75 17.05 17.65 16.92 17.75 16.97 17.59 16.84 17.5 17 17.5 17.05 17.34"/><polygon id="_Path_18" data-name="&lt;Path&gt;" class="cls-2" points="18.3 20.05 18.35 20.18 18.48 20.18 18.37 20.26 18.41 20.4 18.3 20.31 18.2 20.4 18.24 20.26 18.13 20.18 18.26 20.18 18.3 20.05"/><polygon id="_Path_19" data-name="&lt;Path&gt;" class="cls-2" points="18.68 19.2 18.72 19.34 18.86 19.34 18.75 19.42 18.79 19.55 18.68 19.47 18.57 19.55 18.61 19.42 18.5 19.34 18.63 19.34 18.68 19.2"/><polygon id="_Path_20" data-name="&lt;Path&gt;" class="cls-2" points="15.77 17.32 15.81 17.45 15.95 17.45 15.84 17.53 15.88 17.67 15.77 17.59 15.66 17.67 15.7 17.53 15.59 17.45 15.73 17.45 15.77 17.32"/><polygon id="_Path_21" data-name="&lt;Path&gt;" class="cls-2" points="12.44 16.87 12.47 16.98 12.59 16.98 12.49 17.05 12.53 17.16 12.44 17.09 12.34 17.16 12.38 17.05 12.29 16.98 12.4 16.98 12.44 16.87"/><polygon id="_Path_22" data-name="&lt;Path&gt;" class="cls-2" points="19.59 19.2 19.63 19.34 19.77 19.34 19.66 19.42 19.7 19.55 19.59 19.47 19.48 19.55 19.52 19.42 19.41 19.34 19.55 19.34 19.59 19.2"/><polygon id="_Path_23" data-name="&lt;Path&gt;" class="cls-2" points="19.59 20.25 19.63 20.36 19.75 20.36 19.65 20.43 19.69 20.55 19.59 20.48 19.5 20.55 19.53 20.43 19.44 20.36 19.55 20.36 19.59 20.25"/><polygon id="_Path_24" data-name="&lt;Path&gt;" class="cls-2" points="13.09 17.74 13.13 17.89 13.29 17.89 13.16 17.98 13.21 18.14 13.09 18.04 12.96 18.14 13.01 17.98 12.89 17.89 13.04 17.89 13.09 17.74"/><polygon id="_Path_25" data-name="&lt;Path&gt;" class="cls-2" points="16.2 17.81 16.24 17.93 16.36 17.93 16.26 18 16.3 18.11 16.2 18.04 16.11 18.11 16.14 18 16.05 17.93 16.17 17.93 16.2 17.81"/><polygon id="_Path_26" data-name="&lt;Path&gt;" class="cls-2" points="12.93 18.54 12.96 18.66 13.08 18.66 12.98 18.73 13.02 18.85 12.93 18.77 12.83 18.85 12.87 18.73 12.77 18.66 12.89 18.66 12.93 18.54"/><polygon id="_Path_27" data-name="&lt;Path&gt;" class="cls-2" points="21.46 18.06 21.5 18.17 21.61 18.17 21.52 18.24 21.55 18.36 21.46 18.29 21.36 18.36 21.4 18.24 21.3 18.17 21.42 18.17 21.46 18.06"/><polygon id="_Path_28" data-name="&lt;Path&gt;" class="cls-2" points="20.05 19.2 20.09 19.34 20.23 19.34 20.12 19.42 20.16 19.55 20.05 19.47 19.94 19.55 19.98 19.42 19.87 19.34 20.01 19.34 20.05 19.2"/><polygon id="_Path_29" data-name="&lt;Path&gt;" class="cls-2" points="17.79 19.17 17.83 19.3 17.96 19.3 17.85 19.38 17.9 19.52 17.79 19.43 17.68 19.52 17.72 19.38 17.61 19.3 17.74 19.3 17.79 19.17"/><polygon id="_Path_30" data-name="&lt;Path&gt;" class="cls-2" points="16.37 20.5 16.39 20.56 16.45 20.56 16.4 20.6 16.42 20.67 16.37 20.63 16.32 20.67 16.34 20.6 16.29 20.56 16.35 20.56 16.37 20.5"/><g id="_Group_2" data-name="&lt;Group&gt;"><path id="_Compound_Path_" data-name="&lt;Compound Path&gt;" class="cls-1" d="M11.25,13.92a.2.2,0,0,0,0,.14.16.16,0,0,0,.12,0,.15.15,0,0,0,.11,0,.21.21,0,0,0,.05-.15.2.2,0,0,0-.05-.14.15.15,0,0,0-.11,0,.16.16,0,0,0-.12,0A.22.22,0,0,0,11.25,13.92Zm-.13,0a.29.29,0,0,1,0-.14.35.35,0,0,1,0-.08l.08,0,.12,0a.27.27,0,0,1,.29.29.26.26,0,0,1-.08.2.28.28,0,0,1-.2.08.29.29,0,0,1-.21-.08A.25.25,0,0,1,11.12,13.92Z"/><path id="_Compound_Path_2" data-name="&lt;Compound Path&gt;" class="cls-1" d="M17.51,14.87a.2.2,0,0,0,0,.14.17.17,0,0,0,.12.05.13.13,0,0,0,.11-.05.2.2,0,0,0,0-.14.23.23,0,0,0,0-.14.17.17,0,0,0-.24,0A.2.2,0,0,0,17.51,14.87Zm-.12,0a.32.32,0,0,1,0-.14.12.12,0,0,1,0-.07l.07-.05a.36.36,0,0,1,.33.05.32.32,0,0,1,0,.42.26.26,0,0,1-.2.07.25.25,0,0,1-.28-.28Z"/><path id="_Compound_Path_3" data-name="&lt;Compound Path&gt;" class="cls-1" d="M12.05,13.85h.22l0,0,0,0a.08.08,0,0,0,0,0l-.05,0h-.21Zm-.14.33v-.57h.45a.16.16,0,0,1,.08.06.14.14,0,0,1,0,.19.23.23,0,0,1-.13.06.18.18,0,0,1,.07.05.24.24,0,0,1,.08.09l.08.11h-.16l-.1-.13L12.19,14l0,0h-.1v.24Z"/><path id="_Compound_Path_4" data-name="&lt;Compound Path&gt;" class="cls-1" d="M16.87,14.54l.1,0,.12,0h0l0,0V14.5l-.05,0-.09,0-.1,0Zm-.23.26.18-.54.27.09.15.07a.16.16,0,0,1,.05.08.1.1,0,0,1,0,.09.13.13,0,0,1-.07.09.25.25,0,0,1-.15,0l.06.07a.55.55,0,0,1,0,.12l0,.13L17.06,15l0-.15a.61.61,0,0,0-.05-.11l0,0-.06,0h0l-.07.23Z"/><path id="_Compound_Path_5" data-name="&lt;Compound Path&gt;" class="cls-1" d="M19,15.38l.09,0,.11.05h0s0,0,0,0,0,0,0,0a.05.05,0,0,0,0,0l-.09,0-.1-.05Zm-.28.23L19,15.1l.25.14a.75.75,0,0,1,.14.08.18.18,0,0,1,0,.09.15.15,0,0,1-.1.17.28.28,0,0,1-.15,0,.35.35,0,0,1,0,.08s0,.06,0,.12l0,.13-.14-.07,0-.16a.39.39,0,0,0,0-.11.08.08,0,0,0,0,0l-.06,0h0l-.1.21Z"/><path id="_Compound_Path_6" data-name="&lt;Compound Path&gt;" class="cls-1" d="M12.81,13.71v.38H13l.06,0,0-.06a.34.34,0,0,0,0-.11.31.31,0,0,0,0-.1.1.1,0,0,0,0-.05.05.05,0,0,0,0,0h-.17Zm-.13-.09H13a.19.19,0,0,1,.09,0l.07.09a.59.59,0,0,1,0,.14.37.37,0,0,1,0,.12.26.26,0,0,1-.07.1.19.19,0,0,1-.09,0h-.36Z"/><polygon id="_Path_31" data-name="&lt;Path&gt;" class="cls-1" points="13.42 14.21 13.45 13.64 13.92 13.66 13.92 13.75 13.57 13.74 13.57 13.87 13.89 13.88 13.88 13.98 13.56 13.96 13.56 14.12 13.92 14.13 13.91 14.23 13.42 14.21"/><polygon id="_Path_32" data-name="&lt;Path&gt;" class="cls-1" points="19.37 15.95 19.63 15.44 20.05 15.66 20.01 15.75 19.7 15.59 19.64 15.7 19.93 15.85 19.88 15.94 19.6 15.79 19.53 15.92 19.84 16.09 19.8 16.18 19.37 15.95"/><polygon id="_Path_33" data-name="&lt;Path&gt;" class="cls-1" points="15.18 14.45 15.27 13.98 15.66 14.05 15.65 14.13 15.36 14.08 15.34 14.18 15.61 14.23 15.59 14.31 15.33 14.26 15.3 14.39 15.6 14.44 15.58 14.52 15.18 14.45"/><polygon id="_Path_34" data-name="&lt;Path&gt;" class="cls-1" points="14.12 14.28 14.19 13.71 14.36 13.73 14.42 14.13 14.57 13.75 14.75 13.77 14.68 14.35 14.57 14.33 14.62 13.88 14.46 14.32 14.34 14.31 14.28 13.84 14.23 14.29 14.12 14.28"/><path id="_Compound_Path_7" data-name="&lt;Compound Path&gt;" class="cls-1" d="M21.33,16.92a.14.14,0,0,0,0,.14c0,.05,0,.07.09.09a.13.13,0,0,0,.12,0,.27.27,0,0,0,.1-.11.27.27,0,0,0,0-.15.18.18,0,0,0-.1-.09.13.13,0,0,0-.12,0A.19.19,0,0,0,21.33,16.92Zm-.12,0a.32.32,0,0,1,.08-.13l.08-.05h.09l.12,0a.34.34,0,0,1,.16.15.28.28,0,0,1,0,.22.32.32,0,0,1-.15.17.34.34,0,0,1-.22,0,.26.26,0,0,1-.16-.15A.26.26,0,0,1,21.21,16.88Z"/><path id="_Path_35" data-name="&lt;Path&gt;" class="cls-1" d="M20.6,16.44l.11.06a.28.28,0,0,0,0,.09.17.17,0,0,0,.07.08.16.16,0,0,0,.09,0,.05.05,0,0,0,.05,0,0,0,0,0,0,0,0,.17.17,0,0,0,0-.05l-.07-.07a.5.5,0,0,1-.09-.13.15.15,0,0,1,0-.13.18.18,0,0,1,.07-.05.17.17,0,0,1,.1,0l.11.06a.22.22,0,0,1,.12.14.14.14,0,0,1,0,.14L21,16.48a.22.22,0,0,0,0-.08.17.17,0,0,0-.06-.06.16.16,0,0,0-.09,0s0,0,0,0a0,0,0,0,0,0,0,.22.22,0,0,0,.07.1.53.53,0,0,1,.09.11.15.15,0,0,1,0,.18.16.16,0,0,1-.18.06.33.33,0,0,1-.13-.07.22.22,0,0,1-.12-.14A.18.18,0,0,1,20.6,16.44Z"/><path id="_Path_36" data-name="&lt;Path&gt;" class="cls-1" d="M20,16.08l.11.06a.1.1,0,0,0,0,.09.16.16,0,0,0,.06.08l.09,0,.06,0a.06.06,0,0,0,0,0s0,0,0,0l-.07-.08a.5.5,0,0,1-.09-.13.15.15,0,0,1,0-.13.13.13,0,0,1,.07-.05h.09l.12.06a.22.22,0,0,1,.12.14.14.14,0,0,1,0,.14l-.1-.07a.08.08,0,0,0,0-.07A.19.19,0,0,0,20.4,16a.13.13,0,0,0-.08,0l0,0v0a.44.44,0,0,0,.08.09l.09.12a.13.13,0,0,1,0,.08.16.16,0,0,1,0,.09.16.16,0,0,1-.08.06.2.2,0,0,1-.11,0,.34.34,0,0,1-.12-.06.35.35,0,0,1-.13-.15A.18.18,0,0,1,20,16.08Z"/><path id="_Path_37" data-name="&lt;Path&gt;" class="cls-1" d="M18.35,15.23l0-.09.24.11-.1.21h-.12a.26.26,0,0,1-.15,0,.27.27,0,0,1-.13-.1.19.19,0,0,1-.05-.14.21.21,0,0,1,0-.15.27.27,0,0,1,.1-.13.24.24,0,0,1,.15,0l.14,0a.24.24,0,0,1,.14.12.17.17,0,0,1,0,.14l-.12,0a.11.11,0,0,0,0-.08s0,0-.07-.06a.15.15,0,0,0-.13,0,.2.2,0,0,0-.11.11.28.28,0,0,0,0,.15.17.17,0,0,0,.1.1l.07,0h.08l0-.06Z"/><path id="_Compound_Path_8" data-name="&lt;Compound Path&gt;" class="cls-1" d="M16.26,14.2l-.05.15.06,0a.18.18,0,0,0,.09,0h0l0,0v-.06s0,0,0,0l-.08,0Zm-.27.41.19-.54.18.06.13,0a.22.22,0,0,1,.05.08s0,.07,0,.12a.13.13,0,0,1-.05.07s0,0-.06,0h-.07l-.11,0-.07,0-.07.21Z"/></g></g></svg>