<svg id="Layer_1" data-name="Layer 1" xmlns="http://www.w3.org/2000/svg" viewBox="0 0 32 32"><defs><style>.cls-1{fill:red;}.cls-2{fill:#fff;}.cls-3{fill:#171796;}.cls-4{fill:#0093dd;}.cls-5{fill:#f0e938;}.cls-6{fill:#f0c223;}.cls-7{fill:#d0d1d2;}.cls-8{fill:#258fce;}.cls-9{fill:#c86c37;}.cls-10{fill:#231f20;}.cls-11{fill:#b39673;}.cls-12{fill:#fdc25b;}</style></defs><title>Croatia</title><g id="_Group_" data-name="&lt;Group&gt;"><rect id="_Rectangle_" data-name="&lt;Rectangle&gt;" class="cls-1" width="32" height="10.57"/><rect id="_Rectangle_2" data-name="&lt;Rectangle&gt;" class="cls-2" y="10.57" width="32" height="10.87"/><rect id="_Rectangle_3" data-name="&lt;Rectangle&gt;" class="cls-3" y="21.44" width="32" height="10.57"/></g><g id="_Group_2" data-name="&lt;Group&gt;"><path id="_Path_" data-name="&lt;Path&gt;" class="cls-2" d="M10.61,11.93a15.43,15.43,0,0,1,10.8,0L22.75,9l-1-1.75L20.08,8,18.89,6.62l-1.52,1L16,6.44,14.58,7.58,13,6.62,11.88,8.06l-1.71-.77L9.26,9l1.35,2.89Z"/><path id="_Path_2" data-name="&lt;Path&gt;" class="cls-4" d="M22.17,10a.3.3,0,0,0,0,.08c.16-.34.31-.69.47-1l-.87-1.59-1.68.71-.27,1A12.28,12.28,0,0,1,22.17,10Z"/><path id="_Path_3" data-name="&lt;Path&gt;" class="cls-4" d="M10.26,7.48,9.44,9c.41.92.81,1.85,1.22,2.77a16,16,0,0,1,2-.64L12,8.28l-1.71-.8Z"/><polygon id="_Path_4" data-name="&lt;Path&gt;" class="cls-5" points="10.61 8.39 10.85 8.61 11.18 8.5 11.11 8.84 11.33 9.1 11.05 9.2 10.99 9.54 10.73 9.31 10.39 9.43 10.46 9.06 10.21 8.82 10.54 8.71 10.61 8.39 10.61 8.39"/><polygon id="_Path_5" data-name="&lt;Path&gt;" class="cls-6" points="10.55 8.72 10.79 8.97 10.61 8.4 10.55 8.72 10.55 8.72"/><polygon id="_Path_6" data-name="&lt;Path&gt;" class="cls-6" points="10.79 8.97 10.85 8.61 11.18 8.51 10.79 8.97 10.79 8.97"/><polygon id="_Path_7" data-name="&lt;Path&gt;" class="cls-6" points="10.79 8.97 11.32 9.1 11.05 9.2 10.79 8.97 10.79 8.97"/><polygon id="_Path_8" data-name="&lt;Path&gt;" class="cls-6" points="10.79 8.97 10.99 9.54 10.73 9.31 10.79 8.97 10.79 8.97"/><polygon id="_Path_9" data-name="&lt;Path&gt;" class="cls-6" points="10.79 8.97 10.39 9.43 10.46 9.06 10.22 8.83 10.79 8.97 10.79 8.97"/><path id="_Path_10" data-name="&lt;Path&gt;" class="cls-2" d="M10.36,10.3A1.38,1.38,0,0,0,12,9.73a.86.86,0,0,1-1.59.57Z"/><path id="_Path_11" data-name="&lt;Path&gt;" class="cls-3" d="M13.06,6.83l1.58,1c.09,1,.17,2,.26,3a14.4,14.4,0,0,0-2.21.33L12,8.26l1.1-1.43Z"/><path id="_Path_12" data-name="&lt;Path&gt;" class="cls-1" d="M12,8.27a5.19,5.19,0,0,1,2.67-.46c0,.24,0,.48,0,.71a6.8,6.8,0,0,0-2.51.42c-.06-.22-.11-.44-.18-.67Z"/><path id="_Path_13" data-name="&lt;Path&gt;" class="cls-1" d="M12.32,9.62a5.93,5.93,0,0,1,2.43-.37l.06.8a8.88,8.88,0,0,0-2.29.34c-.07-.26-.14-.52-.2-.77Z"/><path id="_Path_14" data-name="&lt;Path&gt;" class="cls-4" d="M16,6.66l1.4,1.13c-.09,1-.16,2-.24,3a18.6,18.6,0,0,0-2.24,0l-.28-3L16,6.66Z"/><path id="_Path_15" data-name="&lt;Path&gt;" class="cls-3" d="M18.88,6.85l1.17,1.34-.78,3a13.28,13.28,0,0,0-2.14-.32l.25-3.05,1.5-.92Z"/><path id="_Path_16" data-name="&lt;Path&gt;" class="cls-7" d="M19.4,10.63c.73.24,1.43.46,2.14.76l.13-.27a13.94,13.94,0,0,0-2.2-.76Z"/><path id="_Path_17" data-name="&lt;Path&gt;" class="cls-2" d="M19.7,9.49A12.41,12.41,0,0,1,22,10.3l.13-.27a12.28,12.28,0,0,0-2.39-.84Z"/><path id="_Path_18" data-name="&lt;Path&gt;" class="cls-1" d="M19.48,10.35a14.91,14.91,0,0,1,2.19.76c.13-.27.25-.54.37-.81a12.41,12.41,0,0,0-2.34-.81l0-.14Z"/><path id="_Path_19" data-name="&lt;Path&gt;" class="cls-8" d="M19.4,10.64l-.13.5a11.47,11.47,0,0,1,2.08.67l.19-.42C20.83,11.1,20.13,10.87,19.4,10.64Z"/><path id="_Path_20" data-name="&lt;Path&gt;" class="cls-2" d="M21.67,11.11a14.48,14.48,0,0,0-2.19-.75l-.08.28c.73.23,1.43.46,2.14.75C21.58,11.3,21.63,11.21,21.67,11.11Z"/><polygon id="_Path_21" data-name="&lt;Path&gt;" class="cls-5" points="21.48 8.18 21.53 8.49 21.85 8.62 21.59 8.83 21.61 9.16 21.33 9.08 21.08 9.3 21.02 8.96 20.68 8.85 20.97 8.61 20.91 8.28 21.24 8.39 21.48 8.18 21.48 8.18"/><g id="_Group_3" data-name="&lt;Group&gt;"><polygon id="_Path_22" data-name="&lt;Path&gt;" class="cls-6" points="21.24 8.4 21.27 8.74 21.48 8.19 21.24 8.4 21.24 8.4"/><polygon id="_Path_23" data-name="&lt;Path&gt;" class="cls-6" points="21.27 8.74 21.53 8.5 21.85 8.62 21.27 8.74 21.27 8.74"/><polygon id="_Path_24" data-name="&lt;Path&gt;" class="cls-6" points="21.27 8.74 21.6 9.16 21.34 9.08 21.27 8.74 21.27 8.74"/><polygon id="_Path_25" data-name="&lt;Path&gt;" class="cls-6" points="21.27 8.74 21.08 9.3 21.02 8.96 21.27 8.74 21.27 8.74"/><polygon id="_Path_26" data-name="&lt;Path&gt;" class="cls-6" points="21.27 8.74 20.69 8.85 20.97 8.61 20.92 8.28 21.27 8.74 21.27 8.74"/></g><path id="_Path_27" data-name="&lt;Path&gt;" class="cls-9" d="M17.68,10.28s0,.08,0,.12l0,0-.12,0h0v0l0,0h0l0,0,0,0h0v0h0a.22.22,0,0,1,.07-.06l.14,0Z"/><path id="_Path_28" data-name="&lt;Path&gt;" class="cls-9" d="M18.05,10.49h0v.1c0,.05-.1,0-.15.05h0l0,0h0v0l.05-.06h0l0,0,.15,0Z"/><path id="_Path_29" data-name="&lt;Path&gt;" class="cls-6" d="M18.19,8.65v0h.19v0l-.09.1h0l0,0-.1,0h0l0,0h0v0h0l0,0V9l0,0h0l.05,0h0v0h0l0,0h.39l.08,0h.48l.12-.1h0v.11a.22.22,0,0,1,0,.16l0,.05h0v0h0v0h0l0,0v0h0l0,0h0v.1l0,0v0h0v.1l0,0v.1l0,0v.11l0,0-.11.11v0h0v0l0,0v.09l0,0h0l0,0h0l0,0L19,10.41v0h0l0,0v0h0a.35.35,0,0,0,.05-.13v0h0V10h0v0h0l0,0v0h0v0h0v0h0l0,0v0l0,0h0l0,0h0l0,0v0l0,0h-.06l0,0v.05h0v0l-.13-.06,0,0v-.07l0,0h0l0-.06h0l0-.06s0,0,0,0v0l-.06,0h-.07v0l0,0h0l0,0h0v0h-.05l0,0h0l0,0h0v0h0l0,0v0l0,0v0h0l0,0,0,.08v.1h0v.08l0,0H18l-.13,0h0l0-.09,0,0,0-.05v-.21h0v0h0v0l0,0v0h0V9.92h0V9.87H18v0h-.06v0h0l-.05.08h0l0,0,0,.06h0v.1h0v0h0l0,0,0,0-.14,0v0l0-.07v0l.06-.07,0-.05h0V10l0,0h0V9.87h0v0l0,0v0h0v0h0l0,0h0l0,0v0h0v0h0v0h-.05l0-.07,0,0,0,0,0,0,0,0,0,0v0h0l0,0h0l0,0v0h0v0l0,0,0,0h0v0h-.1v0l-.09,0,0,0,0-.12h0l0-.09v0h0v0h0v0h0v0l-.06,0,0,0h0v0h0v0h0V8.47h0l.17.08h0l0,0h0v0l0,0h0l.32.21Z"/><path id="_Path_30" data-name="&lt;Path&gt;" class="cls-9" d="M18.19,8.64h.1a.32.32,0,0,1,.14,0l.19.08.16,0h.28l0,0,.06,0h0l0,0,.07,0h0v0h-.47l0,0h-.13l0,0,0,0h.28l.05,0h0l0,0h0l0,0,0,0,0,0v0l0,0h0l0,0H19l0,0h-.29l-.06,0-.1,0h-.43v0H18v0l-.05,0,0,0,0,0,.31.2Z"/><polygon id="_Path_31" data-name="&lt;Path&gt;" class="cls-9" points="19.08 10.48 18.95 10.42 18.94 10.42 18.93 10.43 18.89 10.43 18.89 10.45 18.82 10.54 18.82 10.56 18.82 10.56 18.85 10.59 18.87 10.59 18.9 10.61 18.95 10.61 19.07 10.59 19.09 10.56 19.1 10.56 19.1 10.5 19.08 10.49 19.08 10.48 19.08 10.48"/><polygon id="_Path_32" data-name="&lt;Path&gt;" class="cls-9" points="18.65 10.32 18.53 10.27 18.5 10.28 18.49 10.3 18.47 10.31 18.43 10.34 18.41 10.37 18.41 10.4 18.43 10.42 18.44 10.44 18.48 10.45 18.56 10.44 18.63 10.43 18.65 10.39 18.66 10.34 18.65 10.32 18.65 10.32"/><path id="_Path_33" data-name="&lt;Path&gt;" class="cls-10" d="M21.34,10.86h0a.17.17,0,0,1,0-.12.34.34,0,0,0-.05-.11l0,0h0l-.12,0v0l0,0h0v0h0l0,0,0,0h-.08a.85.85,0,0,1-.22,0l-.05,0v0h0c.06,0,.12,0,.18,0h0l0,0h0v0a1.36,1.36,0,0,1-.47-.15h-.05a.91.91,0,0,1-.49.05l0,0v-.05h.24v0h0c-.12,0-.23,0-.34-.06h0v0a.09.09,0,0,1,.1,0c.08,0,.14,0,.22,0v0L20,10h0c-.05,0-.1,0-.15,0h0l0,0v0l0,0h0l.06,0h0l0,0h.21s0,.05,0,.07l.1.08.07,0h0l.08,0h0a2.46,2.46,0,0,1,.26,0h.08l.22,0,0,0h0l.12.09s0,0,0,0v0s0,0,0,0l0,0a1.9,1.9,0,0,0,.46.07h.11l0,0v0l-.05.06-.08,0h-.12l-.11,0-.11,0-.09-.05,0,0v0a.27.27,0,0,0,.12.14l.05,0v.21l-.05.06h0Z"/><path id="_Path_34" data-name="&lt;Path&gt;" class="cls-2" d="M20.91,10.39a.66.66,0,0,1-.31-.06l-.18-.07v0l.2,0h0a.55.55,0,0,1,.22,0l0,0,0,0,0,.06v0Z"/><path id="_Path_35" data-name="&lt;Path&gt;" class="cls-11" d="M16,10.25l0,0h-.09v-.05h0l-.07,0v-.07h-.09l-.07,0v0a0,0,0,0,0,0-.05h-.1l0-.06,0,0h-.07l.05-.11h-.05l.06-.07v0l0,0h0v0h.09V9.52a.15.15,0,0,1,0-.09l0,0h.09V9.34l0,0h0v0l0,0,0-.06,0,0h0v0h0l.06,0,0,0,0,0,0,0h.07l0,.07h.07v0l0,0h0l0,0h0l0,0h.06l0,0v.07h.06V9.13h0l0,0v0l0,0h.1l0,0h0s0,0,0,.06v0h0v0l0,0h0l0,0h.06l0,0v.13l0,0h.07l0,.06.07,0v0s0,0,0,0h0s0,0,0,0l0,0V9.8h0v0H16.5s0,.07,0,.11-.05,0-.08,0v0h0v.07h-.14l0,0v.07h0l-.07,0h0a0,0,0,0,0,0,0h0l0,0h0l0,0Z"/><path id="_Path_36" data-name="&lt;Path&gt;" class="cls-6" d="M16.18,10.23h0Z"/><path id="_Path_37" data-name="&lt;Path&gt;" class="cls-6" d="M16.09,10.19h0v0s0,0,0,0v0l0,0h0v0h0v0h0v0h.08v0h0v.09l0,0Z"/><polygon id="_Path_38" data-name="&lt;Path&gt;" class="cls-6" points="15.9 10.16 15.89 10.16 15.89 10.13 15.9 10.13 15.92 10.13 15.9 10.16 15.9 10.16"/><path id="_Path_39" data-name="&lt;Path&gt;" class="cls-6" d="M16.22,10.15l0,0,0-.06h.05v0h0v0h0v0h0V10h0l0,0v.07h0Z"/><path id="_Path_40" data-name="&lt;Path&gt;" class="cls-6" d="M16,10.11h0Z"/><polygon id="_Path_41" data-name="&lt;Path&gt;" class="cls-6" points="15.79 10.07 15.8 10.05 15.82 10.05 15.82 10.07 15.79 10.07 15.79 10.07"/><polygon id="_Path_42" data-name="&lt;Path&gt;" class="cls-6" points="16.03 10.03 16.03 10.02 16.01 10.02 15.99 10.02 15.97 10 15.96 9.99 15.96 9.96 15.99 9.96 15.99 9.95 16 9.93 16.02 9.93 16.02 9.94 16.04 9.93 16.06 9.94 16.07 9.94 16.12 9.95 16.12 9.97 16.12 9.97 16.13 9.99 16.13 10 16.11 10.01 16.03 10.03 16.03 10.03"/><polygon id="_Path_43" data-name="&lt;Path&gt;" class="cls-6" points="15.68 10.01 15.67 10 15.66 9.97 15.69 9.99 15.69 10 15.68 10.01 15.68 10.01"/><path id="_Path_44" data-name="&lt;Path&gt;" class="cls-6" d="M16.37,10h-.05v0h0v0s0,0,0,0h0V9.83h0V9.75h0s0,0,0,0h0V9.7h0v.08h0v0h0v0h0l0,0h0v0h0l0,0v0h0v0h0v0h0a.64.64,0,0,1,0,.07v0h0v0h0v0h0Z"/><path id="_Path_45" data-name="&lt;Path&gt;" class="cls-6" d="M15.7,10h0Z"/><path id="_Path_46" data-name="&lt;Path&gt;" class="cls-6" d="M15.68,10h0V9.9h0v0h0v-.1h0v0h0s0,0,0,0v0h0v0h0v0h0V10Z"/><polygon id="_Path_47" data-name="&lt;Path&gt;" class="cls-6" points="16.32 9.94 16.32 9.94 16.32 9.91 16.34 9.91 16.34 9.94 16.32 9.94 16.32 9.94"/><path id="_Path_48" data-name="&lt;Path&gt;" class="cls-6" d="M16.11,9.91h-.06l0,0v0l0,0h0l0,0,0,0h0v0l-.12,0a.28.28,0,0,1,0-.13v0l0,0h0l0,.05v0h0v0s0,0,0,0l0,0,.05,0,0,0,0,0h0v0h0l0,.07,0,0h0v0h0l0,0h0v0a.31.31,0,0,0,0,.09v0h0l0,0Z"/><path id="_Path_49" data-name="&lt;Path&gt;" class="cls-6" d="M15.93,9.9h0l0,0s0,0,0,0V9.73h0l0,0v0h0v0h0v0h0l0,0v0h0l0,0h0l0,0,0,0V9.8h0l0,0h0V9.9h-.06Z"/><path id="_Path_50" data-name="&lt;Path&gt;" class="cls-6" d="M15.64,9.88s0,0,0,0Z"/><polygon id="_Path_51" data-name="&lt;Path&gt;" class="cls-6" points="15.91 9.88 15.91 9.86 15.92 9.88 15.91 9.88 15.91 9.88"/><polygon id="_Path_52" data-name="&lt;Path&gt;" class="cls-6" points="15.56 9.88 15.55 9.87 15.55 9.87 15.55 9.82 15.57 9.82 15.59 9.82 15.59 9.85 15.58 9.87 15.56 9.87 15.56 9.88 15.56 9.88"/><path id="_Path_53" data-name="&lt;Path&gt;" class="cls-6" d="M15.56,9.81v0h0s0,0,0,0Z"/><path id="_Path_54" data-name="&lt;Path&gt;" class="cls-6" d="M16.41,9.8s0,0,0,0Z"/><polygon id="_Path_55" data-name="&lt;Path&gt;" class="cls-6" points="15.53 9.77 15.53 9.75 15.55 9.75 15.54 9.77 15.53 9.77 15.53 9.77"/><polygon id="_Path_56" data-name="&lt;Path&gt;" class="cls-6" points="16.48 9.76 16.47 9.75 16.46 9.74 16.46 9.72 16.49 9.73 16.5 9.75 16.48 9.76 16.48 9.76"/><polygon id="_Path_57" data-name="&lt;Path&gt;" class="cls-6" points="15.89 9.64 15.88 9.63 15.87 9.62 15.88 9.61 15.91 9.61 15.9 9.64 15.89 9.64 15.89 9.64"/><polygon id="_Path_58" data-name="&lt;Path&gt;" class="cls-6" points="16.13 9.62 16.15 9.61 16.13 9.62 16.13 9.62"/><path id="_Path_59" data-name="&lt;Path&gt;" class="cls-6" d="M15.93,9.57l-.11,0,0,0v0l0-.05h0l0,0h0l.05,0H16a.37.37,0,0,1,.18,0v0h0v0h0V9.5l0,0,0,0H16V9.5l0,0H16l0,0v.09Z"/><polygon id="_Path_60" data-name="&lt;Path&gt;" class="cls-6" points="15.71 9.5 15.7 9.46 15.69 9.43 15.73 9.45 15.71 9.5 15.71 9.5"/><polygon id="_Path_61" data-name="&lt;Path&gt;" class="cls-6" points="16.21 9.42 16.19 9.42 16.22 9.43 16.21 9.42 16.21 9.42"/><path id="_Path_62" data-name="&lt;Path&gt;" class="cls-6" d="M16.28,9.42h0s0,0,0,0Z"/><path id="_Path_63" data-name="&lt;Path&gt;" class="cls-6" d="M15.76,9.36v0h0l0,0,0,0h0v0h0l0,0h.34s0,0,0,0v.05h-.08a1.06,1.06,0,0,0-.31,0h0Z"/><path id="_Path_64" data-name="&lt;Path&gt;" class="cls-6" d="M16.24,9.32s0,0,0,0h0v0Z"/><polygon id="_Path_65" data-name="&lt;Path&gt;" class="cls-6" points="15.99 9.31 15.98 9.31 15.97 9.27 15.99 9.27 16.02 9.27 16.03 9.29 16.02 9.31 15.99 9.31 15.99 9.31"/><polygon id="_Path_66" data-name="&lt;Path&gt;" class="cls-6" points="15.72 9.27 15.71 9.25 15.7 9.21 15.73 9.22 15.73 9.24 15.75 9.25 15.76 9.26 15.76 9.25 15.79 9.26 15.72 9.27 15.72 9.27"/><path id="_Path_67" data-name="&lt;Path&gt;" class="cls-6" d="M15.9,9.24l0,0h0Z"/><polygon id="_Path_68" data-name="&lt;Path&gt;" class="cls-6" points="16.24 9.24 16.23 9.24 16.24 9.22 16.24 9.21 16.23 9.19 16.23 9.18 16.21 9.18 16.21 9.16 16.23 9.16 16.25 9.18 16.26 9.19 16.28 9.19 16.31 9.17 16.3 9.21 16.27 9.24 16.24 9.24 16.24 9.24"/><path id="_Path_69" data-name="&lt;Path&gt;" class="cls-6" d="M16,9.22h0s0,0,0,0Z"/><polygon id="_Path_70" data-name="&lt;Path&gt;" class="cls-6" points="16.01 9.22 16.01 9.21 16.04 9.21 16.01 9.22 16.01 9.22"/><path id="_Path_71" data-name="&lt;Path&gt;" class="cls-6" d="M16.05,9.22h0Z"/><polygon id="_Path_72" data-name="&lt;Path&gt;" class="cls-6" points="15.93 9.18 15.93 9.18 15.9 9.16 15.89 9.13 15.92 9.13 15.94 9.14 15.94 9.15 15.97 9.14 15.97 9.16 15.93 9.18 15.93 9.18"/><path id="_Path_73" data-name="&lt;Path&gt;" class="cls-6" d="M16,9.16l0,0h0V9.09h0v0h.07v0H16Z"/><path id="_Path_74" data-name="&lt;Path&gt;" class="cls-11" d="M15.35,9.1l0,0h-.06V9l0,0-.05.05h0V9h0V9H15v0l0,0V8.83h-.11v0a.08.08,0,0,0,0,0h-.07l0-.07.05-.08h-.05a.16.16,0,0,1,.05-.11h0l0,0v0H15a.23.23,0,0,1,0-.14l0,0h0l.06,0,0,0V8.21h0v0l0,0a.06.06,0,0,0,0-.06h0V8A.06.06,0,0,1,15,8l0,0h.08l0,0v.07h.06v0h0V8h.07V8h0l0,0h0l.05,0V8h0l0,0s0,.05,0,.07h.09l0,0V8l0,0h.05l0,0V8l0-.05h.07V8a.15.15,0,0,0-.07.11v0h0l0,0h0v0h0v0h0v0l0,0h.07l0,0v0l0,.09v0h.11l0,0v0h0l0,0h0l0,0,0,0,0,0h0v0h0v0s0,0,0,.06v0h-.07v.11h0l-.05,0h0v.13h0a.23.23,0,0,1-.11,0c-.05,0,0,.08-.05.12h0l-.06,0h0v.07l-.09,0h0l0,0h0Z"/><path id="_Path_75" data-name="&lt;Path&gt;" class="cls-6" d="M15.36,9.06h0V9h0V9h0s0,0,0,0V9h0l0,0h0V9l0,0V9s0,0-.05,0h-.06Z"/><path id="_Path_76" data-name="&lt;Path&gt;" class="cls-11" d="M16.57,9.05h-.08V9H16.4V9l0-.05v0h0a.14.14,0,0,1-.11,0h0l0,0V8.79a.1.1,0,0,1-.09,0V8.71h-.08v0h0l0-.07,0,0v0a.14.14,0,0,1,.07-.09v0h.11l0,0v0a.17.17,0,0,1,0-.07l0,0h0l0,0h0v0l0,0h0l0,0v0A.14.14,0,0,0,16.19,8h0V8h0l.05,0,0,0h.05l0,0V8a.2.2,0,0,1,0,.05h.08s0,0,0,0h0l0,0h0v0l0,0v0h0l.05.06h.06v.09h.08l0,0h0V8h0l0,0h.09v0h.07l0,0V8s0,0-.06.07l0,.05h0v0h0v0l0,0h.05v.09h0l0,0h0l.06,0V8.4h0l.08.05v0l0,0h0v0a.61.61,0,0,1,.07.1v0h-.09l0,.12h0v0l-.09,0v.06h0v0s-.08,0-.12,0l0,0,0,.11H16.7v0h-.07l0,0Z"/><polygon id="_Path_77" data-name="&lt;Path&gt;" class="cls-6" points="15.28 9.05 15.29 9.03 15.28 9.05 15.28 9.05"/><path id="_Path_78" data-name="&lt;Path&gt;" class="cls-6" d="M15.17,9h0l0,0V9h0v0h0l0,0V9s0,0,0,0Z"/><path id="_Path_79" data-name="&lt;Path&gt;" class="cls-6" d="M16.57,9l0,0,.05,0h0Z"/><path id="_Path_80" data-name="&lt;Path&gt;" class="cls-6" d="M16.67,9l0,0h0l0,0V9a0,0,0,0,1,0,0Z"/><polygon id="_Path_81" data-name="&lt;Path&gt;" class="cls-6" points="15.56 8.99 15.56 8.98 15.54 8.91 15.56 8.86 15.57 8.84 15.61 8.83 15.61 8.84 15.61 8.89 15.6 8.91 15.6 8.94 15.57 8.99 15.56 8.99 15.56 8.99"/><polygon id="_Path_82" data-name="&lt;Path&gt;" class="cls-6" points="16.81 8.97 16.81 8.95 16.78 8.95 16.77 8.94 16.76 8.89 16.78 8.86 16.8 8.84 16.82 8.82 16.84 8.81 16.86 8.81 16.85 8.82 16.85 8.83 16.84 8.87 16.84 8.92 16.83 8.95 16.81 8.97 16.81 8.97"/><path id="_Path_83" data-name="&lt;Path&gt;" class="cls-6" d="M16.41,9l-.06-.07v0h.05l0,0v.05h0V9Z"/><path id="_Path_84" data-name="&lt;Path&gt;" class="cls-6" d="M16.62,9h0Z"/><path id="_Path_85" data-name="&lt;Path&gt;" class="cls-6" d="M15.71,8.9l0,0h0v0l0,0h0V8.75h0l0,0h0V8.65a.3.3,0,0,0,0-.11l0,0h0v0h0l0,0h0l0,0h0v0l0,0,.06,0,0,0h0v0l0,0v0s0,0,0,0h0v.06h0v.1l0,0h0l0,0,0,0h0v0h0v0l0,.06v0h0v0h0v0Z"/><polygon id="_Path_86" data-name="&lt;Path&gt;" class="cls-6" points="15.38 8.89 15.34 8.88 15.31 8.88 15.31 8.87 15.31 8.84 15.34 8.83 15.36 8.81 15.38 8.8 15.39 8.82 15.4 8.82 15.4 8.81 15.44 8.82 15.44 8.83 15.45 8.83 15.46 8.86 15.44 8.86 15.44 8.89 15.4 8.88 15.38 8.89 15.38 8.89"/><path id="_Path_87" data-name="&lt;Path&gt;" class="cls-6" d="M15,8.88h0V8.82s0,0,0,0V8.73h0v0l0,0v.13h0Z"/><polygon id="_Path_88" data-name="&lt;Path&gt;" class="cls-6" points="16.21 8.88 16.21 8.87 16.24 8.87 16.21 8.88 16.21 8.88"/><path id="_Path_89" data-name="&lt;Path&gt;" class="cls-6" d="M16.61,8.87s0,0-.06,0v0h0l0,0,.09,0,0,0v0h0v0h-.05s0,0,0,0Z"/><path id="_Path_90" data-name="&lt;Path&gt;" class="cls-6" d="M16.24,8.86V8.79h0v0h0v0s0,0,0,0l0,0v.06h0l0,0Z"/><path id="_Path_91" data-name="&lt;Path&gt;" class="cls-6" d="M16.94,8.84h0s0,0,0,0h0v0h0V8.62h0l0,0h0V8.51h0s0,0,0,0v0l.08,0v0l0,.05v0s0,0,0,0v0h0v0h0v.05h0s0,.06,0,.09v0l0,0v0h0v.05l0,0,0,.06v0Z"/><path id="_Path_92" data-name="&lt;Path&gt;" class="cls-6" d="M15.3,8.78h0v0l0,0v-.1h-.09v0h0v0h0V8.42s0,0,.06.07l.07.08,0,0v0h0v.08h0l0,0h0v0h0v0h0v0Z"/><path id="_Path_93" data-name="&lt;Path&gt;" class="cls-6" d="M15.45,8.77l-.07,0v0l0,0h0s0,0,0,0h0v0h0a.33.33,0,0,1-.14,0h0l0,0h0l0,0s0,0,0,0h0v0h.07l0,0h0a.07.07,0,0,1,0,.05h0l.07-.08v0l0,0h.05v0h0v0h0v.07h0l0,0h0v0h0v.08h0v0h0l0,.06h-.06Z"/><polygon id="_Path_94" data-name="&lt;Path&gt;" class="cls-6" points="14.94 8.76 14.94 8.75 14.95 8.75 14.95 8.73 14.93 8.72 14.93 8.69 14.91 8.67 14.92 8.65 14.92 8.62 14.94 8.62 14.95 8.63 14.95 8.65 14.96 8.66 14.97 8.66 14.97 8.7 14.98 8.73 14.97 8.73 14.95 8.76 14.94 8.76 14.94 8.76"/><path id="_Path_95" data-name="&lt;Path&gt;" class="cls-6" d="M16.23,8.75s0,0,0,0Z"/><path id="_Path_96" data-name="&lt;Path&gt;" class="cls-12" d="M16.51,8.74s0,0,0,0V8.67h0v0l0,0h0v0h0v0h0l0,0v0l0,0v0l0,0v0h0v0h0v0h0l0,0v0h0v0l.05,0h.05v.07h0l0,0h.06v.05l-.07,0Z"/><polygon id="_Path_97" data-name="&lt;Path&gt;" class="cls-6" points="16.52 8.73 16.51 8.73 16.53 8.72 16.52 8.73 16.52 8.73"/><path id="_Path_98" data-name="&lt;Path&gt;" class="cls-6" d="M16.69,8.73h-.08v0l0,0h0l0,0h0v0l0,0v0h-.14v0h0l0,0,0-.06v0h.08l0,.06h0l0,0,0,0h0v0l0,0v0l0,0h.05v.1h0v0l0,0h0l0,0h0v.05l0,0h0v0h0v0h0Z"/><polygon id="_Path_99" data-name="&lt;Path&gt;" class="cls-6" points="16.15 8.72 16.15 8.71 16.15 8.7 16.16 8.65 16.18 8.61 16.17 8.59 16.14 8.62 16.13 8.62 16.18 8.57 16.19 8.57 16.21 8.59 16.21 8.6 16.21 8.63 16.22 8.67 16.19 8.67 16.18 8.69 16.16 8.73 16.15 8.72 16.15 8.72"/><polygon id="_Path_100" data-name="&lt;Path&gt;" class="cls-6" points="15.54 8.68 15.54 8.66 15.55 8.69 15.54 8.68 15.54 8.68"/><path id="_Path_101" data-name="&lt;Path&gt;" class="cls-6" d="M16.24,8.67h0Z"/><polygon id="_Path_102" data-name="&lt;Path&gt;" class="cls-6" points="16.85 8.67 16.86 8.65 16.85 8.67 16.85 8.67"/><path id="_Path_103" data-name="&lt;Path&gt;" class="cls-6" d="M16.93,8.65s0,0,0,0Z"/><path id="_Path_104" data-name="&lt;Path&gt;" class="cls-6" d="M15.31,8.61h0s0,0,0,0Z"/><path id="_Path_105" data-name="&lt;Path&gt;" class="cls-6" d="M16.93,8.61v0s0,0,0,0Z"/><polygon id="_Path_106" data-name="&lt;Path&gt;" class="cls-6" points="15.75 8.57 15.74 8.56 15.74 8.54 15.77 8.54 15.77 8.57 15.75 8.57 15.75 8.57"/><path id="_Path_107" data-name="&lt;Path&gt;" class="cls-6" d="M16.84,8.52h0s0,0,0,0Z"/><polygon id="_Path_108" data-name="&lt;Path&gt;" class="cls-6" points="16.12 8.53 16.12 8.52 16.13 8.5 16.14 8.5 16.12 8.53 16.12 8.53"/><polygon id="_Path_109" data-name="&lt;Path&gt;" class="cls-6" points="15.31 8.5 15.32 8.47 15.31 8.5 15.31 8.5"/><polygon id="_Path_110" data-name="&lt;Path&gt;" class="cls-6" points="15.23 8.5 15.22 8.48 15.23 8.47 15.26 8.48 15.23 8.5 15.23 8.5"/><polygon id="_Path_111" data-name="&lt;Path&gt;" class="cls-6" points="15.48 8.48 15.47 8.47 15.48 8.46 15.5 8.46 15.48 8.48 15.48 8.48"/><path id="_Path_112" data-name="&lt;Path&gt;" class="cls-6" d="M15.11,8.48s0,0,0,0Z"/><polygon id="_Path_113" data-name="&lt;Path&gt;" class="cls-6" points="16.45 8.48 16.45 8.47 16.45 8.45 16.45 8.43 16.47 8.44 16.45 8.48 16.45 8.48"/><polygon id="_Path_114" data-name="&lt;Path&gt;" class="cls-6" points="16.7 8.45 16.7 8.43 16.73 8.43 16.7 8.45 16.7 8.45"/><polygon id="_Path_115" data-name="&lt;Path&gt;" class="cls-6" points="16.96 8.44 16.96 8.43 16.94 8.41 16.98 8.42 16.96 8.44 16.96 8.44"/><path id="_Path_116" data-name="&lt;Path&gt;" class="cls-6" d="M15.24,8.43l-.06,0-.06,0V8.32h0v0h0l0,0h.24a.31.31,0,0,1,.13,0v0h0l0,0v0h0l0,0h0s-.09,0-.13,0l0,0v0l0,0h-.05v0l0,0v0h0a.1.1,0,0,1-.1,0Z"/><path id="_Path_117" data-name="&lt;Path&gt;" class="cls-6" d="M16.5,8.39l-.13,0h0V8.28l0,0h0v0h0l0,0h.31l0,0h0l0,0h0l0,0v0a.34.34,0,0,1-.12,0H16.6V8.29l0,0h0v0h-.1l0,0,0,0v.07h0a.06.06,0,0,1-.06,0Z"/><polygon id="_Path_118" data-name="&lt;Path&gt;" class="cls-6" points="15.67 8.37 15.67 8.35 15.67 8.32 15.69 8.28 15.7 8.3 15.7 8.32 15.68 8.37 15.67 8.37 15.67 8.37"/><path id="_Path_119" data-name="&lt;Path&gt;" class="cls-6" d="M15,8.32s0,0,0,0Z"/><polygon id="_Path_120" data-name="&lt;Path&gt;" class="cls-6" points="15.61 8.32 15.59 8.27 15.61 8.27 15.65 8.26 15.62 8.3 15.61 8.32 15.61 8.32"/><path id="_Path_121" data-name="&lt;Path&gt;" class="cls-6" d="M16.3,8.31v0s0,0,0,0Z"/><polygon id="_Path_122" data-name="&lt;Path&gt;" class="cls-6" points="16.85 8.27 16.85 8.26 16.85 8.25 16.86 8.24 16.88 8.25 16.85 8.27 16.85 8.27"/><path id="_Path_123" data-name="&lt;Path&gt;" class="cls-6" d="M16.93,8.26h0Z"/><path id="_Path_124" data-name="&lt;Path&gt;" class="cls-6" d="M15.08,8.24V8.18h0l0,0h0l0,0,.06,0,.1,0v.05h0v0h0v0h.2v0h0l0,0h-.12a.71.71,0,0,0-.2,0h0l-.06,0Z"/><path id="_Path_125" data-name="&lt;Path&gt;" class="cls-6" d="M16.34,8.2h0v0h0l0,0h.11a.12.12,0,0,0,.08,0h0l0,0h.1v0h0l0,0h0v0h-.3a.47.47,0,0,1-.16,0h0Z"/><polygon id="_Path_126" data-name="&lt;Path&gt;" class="cls-6" points="15.57 8.19 15.57 8.18 15.6 8.18 15.59 8.19 15.57 8.19 15.57 8.19"/><path id="_Path_127" data-name="&lt;Path&gt;" class="cls-6" d="M16.86,8.17h0s0,0,0,0Z"/><path id="_Path_128" data-name="&lt;Path&gt;" class="cls-6" d="M15,8.16v0h0s0,0,0,0l0,0,0,0Z"/><path id="_Path_129" data-name="&lt;Path&gt;" class="cls-6" d="M15.59,8.16s0,0,0,0v0Z"/><polygon id="_Path_130" data-name="&lt;Path&gt;" class="cls-6" points="16.52 8.14 16.51 8.13 16.53 8.1 16.56 8.11 16.58 8.12 16.57 8.14 16.55 8.14 16.53 8.14 16.52 8.14 16.52 8.14"/><polygon id="_Path_131" data-name="&lt;Path&gt;" class="cls-6" points="15.58 8.12 15.56 8.11 15.55 8.11 15.56 8.09 15.58 8.09 15.58 8.03 15.6 8.03 15.6 8.05 15.62 8.04 15.61 8.12 15.58 8.12 15.58 8.12"/><polygon id="_Path_132" data-name="&lt;Path&gt;" class="cls-6" points="16.3 8.12 16.3 8.1 16.27 8.05 16.3 8.05 16.31 8.05 16.31 8.01 16.32 8.01 16.32 8.05 16.32 8.09 16.37 8.09 16.35 8.11 16.3 8.12 16.3 8.12"/><polygon id="_Path_133" data-name="&lt;Path&gt;" class="cls-6" points="15.23 8.11 15.22 8.11 15.23 8.1 15.24 8.1 15.28 8.1 15.38 8.08 15.4 8.11 15.34 8.11 15.3 8.11 15.23 8.11 15.23 8.11"/><polygon id="_Path_134" data-name="&lt;Path&gt;" class="cls-6" points="16.82 8.09 16.8 8.08 16.78 8.08 16.79 8.06 16.8 8.06 16.81 8.05 16.77 8 16.78 7.99 16.78 7.99 16.82 8.01 16.84 8.02 16.85 8.02 16.85 7.98 16.86 7.95 16.89 7.93 16.91 7.93 16.89 7.95 16.89 7.96 16.87 8 16.85 8.05 16.84 8.08 16.83 8.1 16.82 8.09 16.82 8.09"/><polygon id="_Path_135" data-name="&lt;Path&gt;" class="cls-6" points="15.07 8.08 15.08 8.08 15.1 8.07 15.08 8.08 15.07 8.08 15.07 8.08"/><polygon id="_Path_136" data-name="&lt;Path&gt;" class="cls-6" points="15.24 8.08 15.24 8.05 15.23 8.03 15.26 8.03 15.27 8.02 15.29 8.02 15.3 7.99 15.29 7.98 15.31 7.95 15.33 7.93 15.34 7.93 15.34 7.95 15.36 7.96 15.35 7.97 15.34 8 15.36 8.01 15.38 8.01 15.42 8.02 15.4 8.05 15.39 8.06 15.37 8.06 15.34 8.02 15.34 8.02 15.32 8.02 15.31 8.05 15.28 8.05 15.28 8.06 15.26 8.08 15.24 8.08 15.24 8.08"/><polygon id="_Path_137" data-name="&lt;Path&gt;" class="cls-6" points="16.5 8.07 16.5 8.06 16.52 8.05 16.52 8.07 16.5 8.07 16.5 8.07"/><polygon id="_Path_138" data-name="&lt;Path&gt;" class="cls-6" points="16.6 8.07 16.6 8.05 16.62 8.05 16.62 8.05 16.64 8.06 16.6 8.07 16.6 8.07"/><polygon id="_Path_139" data-name="&lt;Path&gt;" class="cls-6" points="15.57 8.05 15.56 8.04 15.55 8.02 15.58 8.03 15.57 8.05 15.57 8.05"/><polygon id="_Path_140" data-name="&lt;Path&gt;" class="cls-6" points="16.26 8.03 16.25 8.03 16.25 8 16.26 8.01 16.27 8.02 16.26 8.03 16.26 8.03"/><polygon id="_Path_141" data-name="&lt;Path&gt;" class="cls-6" points="16.51 8.03 16.5 8.02 16.48 8.02 16.49 8 16.5 7.99 16.53 8 16.55 7.98 16.55 8.01 16.53 8.02 16.51 8.03 16.51 8.03"/><path id="_Path_142" data-name="&lt;Path&gt;" class="cls-6" d="M16.6,8l0,0,0,0V7.93h0V8h.09V8H16.6Z"/><polygon id="_Path_143" data-name="&lt;Path&gt;" class="cls-6" points="16.47 8.01 16.46 8.01 16.48 8 16.47 8.01 16.47 8.01"/><polygon id="_Path_144" data-name="&lt;Path&gt;" class="cls-6" points="15.63 7.99 15.65 7.96 15.67 7.97 15.65 8 15.63 7.99 15.63 7.99"/><g id="_Group_4" data-name="&lt;Group&gt;"><path id="_Path_145" data-name="&lt;Path&gt;" class="cls-1" d="M21.64,12.15v8.12h0v.07a5.81,5.81,0,0,1-1,2.67,5.91,5.91,0,0,1-1.22,1.32,5.4,5.4,0,0,1-2.35,1.13,3.87,3.87,0,0,1-.95.09h-.06a4.42,4.42,0,0,1-1.35-.2,6.4,6.4,0,0,1-2.36-1.29,5.76,5.76,0,0,1-1-1.05h0a5.14,5.14,0,0,1-1-2.74h0V12.15Z"/><path id="_Path_146" data-name="&lt;Path&gt;" class="cls-1" d="M21.51,20.24v0H19.37V17.53h2.14V14.84H19.37V12.32H17.06v2.52h-2.3V12.32H12.45v2.52H10.5v2.69h1.95v2.69H10.5v0h0a5.08,5.08,0,0,0,1,2.66h1v1h0a6.47,6.47,0,0,0,2.27,1.25h0a4.56,4.56,0,0,0,1.32.2h.05a4.88,4.88,0,0,0,.93-.09h0a5.42,5.42,0,0,0,2.27-1.09v0h0a6,6,0,0,0,1.2-1.3h0a5.81,5.81,0,0,0,1-2.59Z"/></g><path id="_Path_147" data-name="&lt;Path&gt;" class="cls-2" d="M12.48,22.9v1a6.22,6.22,0,0,0,2.31,1.27V22.9Z"/><path id="_Path_148" data-name="&lt;Path&gt;" class="cls-2" d="M19.4,22.9h1.2a5.78,5.78,0,0,0,1-2.61v-.07H19.4Z"/><path id="_Path_149" data-name="&lt;Path&gt;" class="cls-2" d="M17.09,22.9v2.41A5.56,5.56,0,0,0,19.4,24.2V22.9Z"/><rect id="_Path_150" data-name="&lt;Path&gt;" class="cls-2" x="17.09" y="17.53" width="2.31" height="2.69"/><path id="_Path_151" data-name="&lt;Path&gt;" class="cls-2" d="M14.79,14.84V12.29H12.48v2.55Z"/><path id="_Path_152" data-name="&lt;Path&gt;" class="cls-2" d="M19.4,14.84V12.29H17.1v2.55Z"/><rect id="_Path_153" data-name="&lt;Path&gt;" class="cls-2" x="14.79" y="20.22" width="2.31" height="2.69"/><path id="_Path_154" data-name="&lt;Path&gt;" class="cls-2" d="M12.48,20.22h-2a5.07,5.07,0,0,0,1,2.68h1Z"/><rect id="_Path_155" data-name="&lt;Path&gt;" class="cls-2" x="10.51" y="14.84" width="1.96" height="2.69"/><rect id="_Path_156" data-name="&lt;Path&gt;" class="cls-2" x="14.79" y="14.84" width="2.31" height="2.69"/><rect id="_Path_157" data-name="&lt;Path&gt;" class="cls-2" x="12.48" y="17.53" width="2.31" height="2.69"/><rect id="_Path_158" data-name="&lt;Path&gt;" class="cls-2" x="19.4" y="14.84" width="2.15" height="2.69"/><rect id="_Path_159" data-name="&lt;Path&gt;" class="cls-1" x="17.09" y="20.22" width="2.31" height="2.69"/><rect id="_Path_160" data-name="&lt;Path&gt;" class="cls-1" x="12.48" y="14.84" width="2.31" height="2.69"/><path id="_Path_161" data-name="&lt;Path&gt;" class="cls-1" d="M19.4,24.19a5.73,5.73,0,0,0,1.18-1.27v0H19.4Z"/><rect id="_Path_162" data-name="&lt;Path&gt;" class="cls-1" x="12.48" y="20.22" width="2.31" height="2.69"/><path id="_Path_163" data-name="&lt;Path&gt;" class="cls-1" d="M14.79,25.2a4.92,4.92,0,0,0,1.32.2h.05a4.88,4.88,0,0,0,.93-.09V22.9h-2.3Z"/><rect id="_Path_164" data-name="&lt;Path&gt;" class="cls-1" x="17.09" y="14.84" width="2.31" height="2.69"/><rect id="_Path_165" data-name="&lt;Path&gt;" class="cls-1" x="14.79" y="17.53" width="2.31" height="2.69"/></g></svg>