<svg id="Layer_1" data-name="Layer 1" xmlns="http://www.w3.org/2000/svg" viewBox="0 0 32 32"><defs><style>.cls-1{fill:#ce1126;}.cls-2{fill:#fff;}.cls-3{fill:#c09300;}.cls-4{fill:#bd932e;}</style></defs><title>Egypt</title><g id="_Group_" data-name="&lt;Group&gt;"><rect id="_Rectangle_" data-name="&lt;Rectangle&gt;" class="cls-1" width="32" height="10.57"/><rect id="_Rectangle_2" data-name="&lt;Rectangle&gt;" class="cls-2" y="10.57" width="32" height="10.87"/><rect id="_Rectangle_3" data-name="&lt;Rectangle&gt;" y="21.44" width="32" height="10.57"/></g><g id="_Group_2" data-name="&lt;Group&gt;"><polygon id="_Path_" data-name="&lt;Path&gt;" class="cls-3" points="16.17 16.68 15.83 16.68 15.38 18.77 15.55 18.94 15.73 18.81 15.9 17.59 15.83 18.8 16 19.02 16.18 18.8 16.1 17.59 16.27 18.81 16.45 18.94 16.63 18.77 16.17 16.68"/><g id="_Group_3" data-name="&lt;Group&gt;"><g id="_Group_4" data-name="&lt;Group&gt;"><path id="_Path_2" data-name="&lt;Path&gt;" class="cls-3" d="M15.51,13.61v0l0,0Z"/><path id="_Path_3" data-name="&lt;Path&gt;" class="cls-3" d="M19.05,13.68c0-.51-.3-.62-.53-.62a1.75,1.75,0,0,0-.78.26,1.69,1.69,0,0,1-.91.26h0l0,.06a1.72,1.72,0,0,0,.94-.27,1.65,1.65,0,0,1,.75-.25c.3,0,.46.19.47.56L19.22,19l-3.16-2.93a0,0,0,0,0,0,0L12.78,19,13,13.68c0-.37.17-.56.47-.56a1.65,1.65,0,0,1,.75.25,1.68,1.68,0,0,0,.93.27l0-.06h0a1.69,1.69,0,0,1-.91-.26,1.71,1.71,0,0,0-.78-.26c-.23,0-.51.11-.53.62l-.23,5.41s0,0,0,0h0l3.27-3,3.19,3h0s0,0,0,0Z"/></g><g id="w"><path id="_Path_4" data-name="&lt;Path&gt;" class="cls-3" d="M13.35,13.49l-.22,5.27-.38.34L13,13.68a1,1,0,0,1,.37-.19Z"/><path id="_Path_5" data-name="&lt;Path&gt;" class="cls-3" d="M13.8,13.87l-.19,4.41-.38.38.23-5.09.34.3Z"/><path id="_Path_6" data-name="&lt;Path&gt;" class="cls-3" d="M14.21,14.2l-.15,3.68-.3.3L14,14c.07.08.22.18.26.22Z"/><path id="_Path_7" data-name="&lt;Path&gt;" class="cls-3" d="M14.66,14.39l-.15,3.14-.3.24.15-3.49a1.08,1.08,0,0,0,.3.11Z"/><path id="_Path_8" data-name="&lt;Path&gt;" class="cls-3" d="M15.07,14.39,15,17l-.3.3.11-2.87c.07,0,.26,0,.3,0Z"/></g></g><g id="_Group_5" data-name="&lt;Group&gt;"><g id="w-2" data-name="w"><path id="_Path_9" data-name="&lt;Path&gt;" class="cls-3" d="M18.65,13.49l.23,5.27.37.34L19,13.68a.93.93,0,0,0-.37-.19Z"/><path id="_Path_10" data-name="&lt;Path&gt;" class="cls-3" d="M18.2,13.87l.19,4.41.38.38-.23-5.09-.34.3Z"/><path id="_Path_11" data-name="&lt;Path&gt;" class="cls-3" d="M17.79,14.2l.15,3.68.3.3L18.05,14c-.07.08-.22.18-.26.22Z"/><path id="_Path_12" data-name="&lt;Path&gt;" class="cls-3" d="M17.35,14.39l.15,3.14.29.24-.15-3.49a1.15,1.15,0,0,1-.29.11Z"/><path id="_Path_13" data-name="&lt;Path&gt;" class="cls-3" d="M16.94,14.39,17,17l.31.3-.12-2.87c-.07,0-.26,0-.29,0Z"/></g></g><g id="_Group_6" data-name="&lt;Group&gt;"><path id="_Path_14" data-name="&lt;Path&gt;" class="cls-2" d="M17,15.8l.9,3.18-1.24.19-.52-2.39.86-1Z"/><path id="_Compound_Path_" data-name="&lt;Compound Path&gt;" class="cls-4" d="M16.67,19.2a0,0,0,0,1,0,0l-.53-2.39a0,0,0,0,1,0,0l.86-1h0a0,0,0,0,1,0,0L17.93,19s0,0,0,0h0l-1.23.19Zm-.49-2.41.52,2.35L17.87,19,17,15.86Z"/></g><g id="_Group_7" data-name="&lt;Group&gt;"><path id="_Compound_Path_2" data-name="&lt;Compound Path&gt;" class="cls-3" d="M16.59,18.77l-.06,0,.13-.6-.41-.62.05,0,.37.57.11-.56s0,0,0,0h0l.24.33.1-.37a0,0,0,0,1,0,0h0l.38.4s0,0,0,0l-.19.71,0,0h0l-.23-.39-.13.39s0,0,0,0,0,0,0,0l-.24-.38Zm.13-.64.24.37.13-.39s0,0,0,0,0,0,0,0l.24.39.17-.63-.34-.35-.1.38s0,0,0,0,0,0,0,0l-.24-.32Z"/></g><path id="_Path_15" data-name="&lt;Path&gt;" class="cls-2" d="M15,15.8,14.1,19l1.23.19.52-2.39-.86-1Z"/><path id="_Compound_Path_3" data-name="&lt;Compound Path&gt;" class="cls-3" d="M15.33,19.2h0L14.09,19h0v0L15,15.8l0,0h0l.86,1a0,0,0,0,1,0,0l-.52,2.39ZM14.13,19l1.18.18.51-2.35L15,15.86Z"/><g id="_Group_8" data-name="&lt;Group&gt;"><path id="_Path_16" data-name="&lt;Path&gt;" class="cls-4" d="M14.8,17.18h0a0,0,0,0,1,0,0l-.11-.26.05,0,.09.22.55-.53.05.05-.59.55Z"/></g><g id="_Group_9" data-name="&lt;Group&gt;"><path id="_Path_17" data-name="&lt;Path&gt;" class="cls-3" d="M15.22,17.4h0a0,0,0,0,1,0,0l-.12-1.15h.06l.11,1.07.33-.43,0,0-.37.48Z"/></g><g id="_Group_10" data-name="&lt;Group&gt;"><rect id="_Path_18" data-name="&lt;Path&gt;" class="cls-3" x="15.51" y="17.06" width="0.06" height="0.73" transform="translate(-4.24 5.01) rotate(-16.16)"/></g><g id="_Group_11" data-name="&lt;Group&gt;"><path id="_Compound_Path_4" data-name="&lt;Compound Path&gt;" class="cls-3" d="M15.41,18.77l-.11-.56-.24.38h0l0,0-.12-.39-.24.39h0a0,0,0,0,1,0,0l-.2-.71s0,0,0,0l.38-.4h0l0,0,.11.37.23-.33h0s0,0,0,0l.1.56.37-.57.05,0-.41.62.13.6Zm-.53-.68h0a0,0,0,0,1,0,0l.13.39.24-.37-.1-.55L15,17.9h0l0,0-.1-.38-.34.35.18.63.23-.39Z"/></g><g id="_Group_12" data-name="&lt;Group&gt;"><path id="_Path_19" data-name="&lt;Path&gt;" class="cls-3" d="M15.11,19.18,15,18.79l-.19.32a0,0,0,0,1,0,0s0,0,0,0l-.14-.47-.22.3-.05,0,.25-.35h0l0,0,.14.47L15,18.7h0s0,0,0,0l.15.45Z"/></g><g id="_Group_13" data-name="&lt;Group&gt;"><path id="_Path_20" data-name="&lt;Path&gt;" class="cls-4" d="M17.2,17.18h0l-.58-.55,0-.05.55.53.09-.22,0,0-.1.26,0,0Z"/></g><g id="_Group_14" data-name="&lt;Group&gt;"><path id="_Path_21" data-name="&lt;Path&gt;" class="cls-4" d="M16.78,17.4h0l-.37-.48.05,0,.32.43.11-1.07h.06l-.12,1.15a0,0,0,0,1,0,0Z"/></g><g id="_Group_15" data-name="&lt;Group&gt;"><rect id="_Path_22" data-name="&lt;Path&gt;" class="cls-4" x="16.1" y="17.4" width="0.73" height="0.06" transform="translate(-4.86 28.39) rotate(-73.85)"/></g><g id="_Group_16" data-name="&lt;Group&gt;"><path id="_Path_23" data-name="&lt;Path&gt;" class="cls-3" d="M16.89,19.18l-.06,0,.15-.45,0,0h0l.18.32.15-.47a0,0,0,0,1,0,0h0l.25.35-.05,0-.21-.3-.15.47s0,0,0,0,0,0,0,0L17,18.79Z"/></g><path id="_Compound_Path_5" data-name="&lt;Compound Path&gt;" class="cls-3" d="M16,20.46a9.29,9.29,0,0,1-2.36-.23.27.27,0,0,1-.27-.32.29.29,0,0,1-.16-.23.22.22,0,0,0,0-.08h0a0,0,0,0,1,0-.06.05.05,0,0,1,.05-.05h0s.06,0,.1-.09a.28.28,0,0,1,.2-.14.29.29,0,0,1,.33-.25A.83.83,0,0,1,14,19a6.9,6.9,0,0,0,1.56.17H16A7.07,7.07,0,0,0,18,19l.22,0a.31.31,0,0,1,.34.25.32.32,0,0,1,.2.14s.06.08.09.09h0s.05,0,.06.05,0,.06,0,.06h0a.22.22,0,0,0,0,.08.28.28,0,0,1-.15.23c0,.14,0,.28-.27.32A9.44,9.44,0,0,1,16,20.46Zm-2.71-.9,0,.09c0,.08,0,.14.12.17a.07.07,0,0,1,0,.06c0,.14,0,.21.18.24h0a10.13,10.13,0,0,0,2.33.22,9.69,9.69,0,0,0,2.34-.22h0c.17,0,.17-.09.17-.24a.07.07,0,0,1,0-.06c.09,0,.11-.09.13-.17a.29.29,0,0,1,0-.09.34.34,0,0,1-.08-.09c-.06-.07-.09-.11-.15-.1a0,0,0,0,1-.05,0,.05.05,0,0,1,0,0c0-.17-.13-.2-.23-.2a.57.57,0,0,0-.18,0,7.42,7.42,0,0,1-2,.18h-.4a7.37,7.37,0,0,1-1.6-.17.57.57,0,0,0-.18,0c-.1,0-.23,0-.23.2,0,0,0,0,0,0s0,0,0,0-.1,0-.16.1A.34.34,0,0,1,13.29,19.56Z"/><path id="_Path_24" data-name="&lt;Path&gt;" class="cls-2" d="M14.73,19a3.47,3.47,0,0,0,.9,0c.15,0,.26.26,0,.3a3.7,3.7,0,0,1-.89,0c-.19,0-.6-.11-.87-.18s-.07-.34.08-.31a4.31,4.31,0,0,0,.82.19Z"/><path id="_Compound_Path_6" data-name="&lt;Compound Path&gt;" class="cls-3" d="M15.34,19.36a5.23,5.23,0,0,1-.65-.05c-.16,0-.59-.11-.86-.19s-.16-.16-.15-.2a.2.2,0,0,1,.2-.16h0a5.37,5.37,0,0,0,.82.19h0a4.23,4.23,0,0,0,.65.06l.24,0h0a.19.19,0,0,1,.18.17s0,.16-.22.19Zm-1.46-.54a.16.16,0,0,0-.15.11c0,.05,0,.1.12.14.26.07.69.15.85.18a3.69,3.69,0,0,0,.64.05h.25c.1,0,.16-.06.16-.13a.14.14,0,0,0-.12-.11l-.24,0a4.37,4.37,0,0,1-.66-.06,4.76,4.76,0,0,1-.83-.19Z"/><path id="_Path_25" data-name="&lt;Path&gt;" class="cls-2" d="M17.27,19a3.41,3.41,0,0,1-.89,0c-.16,0-.26.26,0,.3a3.78,3.78,0,0,0,.9,0c.19,0,.6-.11.86-.18s.07-.34-.08-.31a4.14,4.14,0,0,1-.82.19Z"/><path id="_Compound_Path_7" data-name="&lt;Compound Path&gt;" class="cls-3" d="M16.67,19.36h-.26c-.21,0-.22-.15-.21-.19a.18.18,0,0,1,.18-.17l.24,0a4.35,4.35,0,0,0,.65-.06,5.08,5.08,0,0,0,.82-.19h0a.21.21,0,0,1,.2.16s0,.14-.15.2-.71.16-.87.19A5,5,0,0,1,16.67,19.36Zm-.3-.31a.14.14,0,0,0-.12.12c0,.06.06.1.17.12h.25a3.56,3.56,0,0,0,.63-.05c.16,0,.59-.11.86-.18.08,0,.12-.09.11-.14a.16.16,0,0,0-.17-.11,4.83,4.83,0,0,1-.82.19,4.49,4.49,0,0,1-.66.06Z"/><path id="_Path_26" data-name="&lt;Path&gt;" class="cls-2" d="M13.8,18.83a.26.26,0,0,0-.26.37c0-.07.19-.07.22-.14s0-.12,0-.23Z"/><path id="_Compound_Path_8" data-name="&lt;Compound Path&gt;" class="cls-3" d="M13.54,19.23h0a.33.33,0,0,1,0-.29.26.26,0,0,1,.28-.13l0,0a0,0,0,0,1,0,0s0,.07,0,.1a.28.28,0,0,1,0,.12c0,.05-.08.07-.13.09a.17.17,0,0,0-.1.06s0,0,0,0Zm.21-.37a.21.21,0,0,0-.17.1.31.31,0,0,0,0,.19l.09,0s.08,0,.09-.06a.12.12,0,0,0,0-.08A.12.12,0,0,1,13.75,18.86Z"/><path id="_Path_27" data-name="&lt;Path&gt;" class="cls-2" d="M14.7,19.52c0-.15.14-.13.14-.28s0-.18-.11-.18a.16.16,0,0,0-.15.14C14.55,19.35,14.7,19.37,14.7,19.52Z"/><path id="_Compound_Path_9" data-name="&lt;Compound Path&gt;" class="cls-3" d="M14.7,19.55a0,0,0,0,1,0,0,.2.2,0,0,0-.06-.13.2.2,0,0,1-.06-.19.18.18,0,0,1,.18-.17c.09,0,.14.12.14.21a.21.21,0,0,1-.08.17.11.11,0,0,0-.06.11A0,0,0,0,1,14.7,19.55Zm0-.46a.13.13,0,0,0-.12.11h0a.14.14,0,0,0,.05.14l0,.06.05-.05a.13.13,0,0,0,.06-.12C14.81,19.18,14.78,19.09,14.73,19.09Z"/><path id="_Path_28" data-name="&lt;Path&gt;" class="cls-2" d="M15.76,19.1c.22,0,.2.29.09.44,0-.11-.19-.15-.19-.22s.17-.12.1-.22Z"/><path id="_Compound_Path_10" data-name="&lt;Compound Path&gt;" class="cls-3" d="M15.85,19.57h0s0,0,0,0,0-.08-.09-.11-.1-.06-.1-.11,0-.1.08-.13,0,0,0-.08a0,0,0,0,1,0,0h0a.17.17,0,0,1,.17.1.42.42,0,0,1,0,.39Zm0-.44c0,.05,0,.08-.06.11s-.06,0-.06.08,0,0,.07.06.08.05.1.09a.35.35,0,0,0,0-.28A.11.11,0,0,0,15.81,19.13Z"/><path id="_Path_29" data-name="&lt;Path&gt;" class="cls-2" d="M18.2,18.83a.26.26,0,0,1,.26.37c0-.07-.18-.07-.22-.14s0-.12,0-.23Z"/><path id="_Compound_Path_11" data-name="&lt;Compound Path&gt;" class="cls-3" d="M18.46,19.23h0s0,0,0,0-.06,0-.1-.06a.19.19,0,0,1-.12-.09.2.2,0,0,1,0-.12s0-.05,0-.1a0,0,0,0,1,0,0l0,0a.25.25,0,0,1,.27.13.33.33,0,0,1,0,.29S18.48,19.23,18.46,19.23Zm-.21-.37a.12.12,0,0,1,0,.1.39.39,0,0,0,0,.09.15.15,0,0,0,.09.05.19.19,0,0,1,.09,0,.25.25,0,0,0,0-.19A.19.19,0,0,0,18.25,18.86Z"/><path id="_Path_30" data-name="&lt;Path&gt;" class="cls-2" d="M17.31,19.52c0-.15-.15-.13-.15-.28s0-.18.11-.18a.15.15,0,0,1,.15.14c0,.15-.11.17-.11.32Z"/><path id="_Compound_Path_12" data-name="&lt;Compound Path&gt;" class="cls-3" d="M17.31,19.55a0,0,0,0,1,0,0c0-.06,0-.08-.07-.11a.25.25,0,0,1-.08-.17c0-.09.05-.21.14-.21a.18.18,0,0,1,.18.17.2.2,0,0,1-.06.19.19.19,0,0,0-.05.13A0,0,0,0,1,17.31,19.55Zm0-.46c-.05,0-.08.09-.08.15a.16.16,0,0,0,.06.12l.05.05.05-.06a.14.14,0,0,0,0-.14h0A.13.13,0,0,0,17.27,19.09Z"/><path id="_Path_31" data-name="&lt;Path&gt;" class="cls-2" d="M16.24,19.1c-.22,0-.2.29-.09.44,0-.11.19-.15.19-.22S16.17,19.2,16.24,19.1Z"/><path id="_Compound_Path_13" data-name="&lt;Compound Path&gt;" class="cls-3" d="M16.15,19.57s0,0,0,0a.4.4,0,0,1-.06-.39.17.17,0,0,1,.17-.1h0v0s0,.05,0,.08.08.06.08.13-.05.08-.1.11-.09.07-.09.11,0,0,0,0Zm0-.44a.13.13,0,0,0-.07.06.35.35,0,0,0,0,.28.81.81,0,0,1,.1-.09s.07,0,.07-.06,0-.06-.06-.08A.15.15,0,0,1,16.19,19.13Z"/><g id="_Group_17" data-name="&lt;Group&gt;"><g id="_Group_18" data-name="&lt;Group&gt;"><path id="_Path_32" data-name="&lt;Path&gt;" class="cls-3" d="M13.87,18.91a.39.39,0,0,1,.23.07l-.23-.07Z"/><path id="_Path_33" data-name="&lt;Path&gt;" class="cls-3" d="M14.1,19h0l-.22-.07h0a0,0,0,0,1,0,0h0a.42.42,0,0,1,.23.07s0,0,0,0l0,0Z"/></g><g id="_Group_19" data-name="&lt;Group&gt;"><path id="_Path_34" data-name="&lt;Path&gt;" class="cls-3" d="M14.24,19a1,1,0,0,1,.27.08L14.24,19Z"/><path id="_Path_35" data-name="&lt;Path&gt;" class="cls-3" d="M14.51,19.12h0L14.24,19h0a0,0,0,0,1,0,0s0,0,0,0a.83.83,0,0,1,.26.08,0,0,0,0,1,0,0,0,0,0,0,1,0,0Z"/></g><g id="_Group_20" data-name="&lt;Group&gt;"><path id="_Path_36" data-name="&lt;Path&gt;" class="cls-3" d="M15.59,19.17a.69.69,0,0,0-.26,0l.26,0Z"/><path id="_Path_37" data-name="&lt;Path&gt;" class="cls-3" d="M15.33,19.22h0v0a.55.55,0,0,1,.28,0h0v0h0l-.26,0Z"/></g><g id="_Group_21" data-name="&lt;Group&gt;"><path id="_Path_38" data-name="&lt;Path&gt;" class="cls-3" d="M15.18,19.17a.29.29,0,0,0-.26,0Z"/><path id="_Path_39" data-name="&lt;Path&gt;" class="cls-3" d="M15.18,19.19H14.9a0,0,0,0,1,0,0,.33.33,0,0,1,.15,0s.1,0,.13,0,0,0,0,0S15.19,19.19,15.18,19.19Z"/></g><g id="_Group_22" data-name="&lt;Group&gt;"><path id="_Path_40" data-name="&lt;Path&gt;" class="cls-3" d="M18.13,18.91a.36.36,0,0,0-.22.07Z"/><path id="_Path_41" data-name="&lt;Path&gt;" class="cls-3" d="M17.91,19s0,0,0,0,0,0,0,0a.38.38,0,0,1,.24-.08h0s0,0,0,0l-.23.07Z"/></g><g id="_Group_23" data-name="&lt;Group&gt;"><path id="_Path_42" data-name="&lt;Path&gt;" class="cls-3" d="M17.76,19a.83.83,0,0,0-.26.08l.26-.08Z"/><path id="_Path_43" data-name="&lt;Path&gt;" class="cls-3" d="M17.5,19.12a0,0,0,0,1,0,0s0,0,0,0a.81.81,0,0,1,.27-.08h0a0,0,0,0,1,0,0h0l-.26.08Z"/></g><g id="_Group_24" data-name="&lt;Group&gt;"><path id="_Path_44" data-name="&lt;Path&gt;" class="cls-3" d="M16.41,19.17a.66.66,0,0,1,.26,0l-.26,0Z"/><path id="_Path_45" data-name="&lt;Path&gt;" class="cls-3" d="M16.67,19.22h0l-.26,0a0,0,0,0,1,0,0s0,0,0,0h0a.64.64,0,0,1,.27,0l0,0s0,0,0,0Z"/></g><g id="_Group_25" data-name="&lt;Group&gt;"><path id="_Path_46" data-name="&lt;Path&gt;" class="cls-3" d="M16.82,19.17a.29.29,0,0,1,.26,0Z"/><path id="_Path_47" data-name="&lt;Path&gt;" class="cls-3" d="M17.08,19.19h-.26a0,0,0,0,1,0,0s0,0,0,0a.21.21,0,0,1,.13,0,.31.31,0,0,1,.15,0l0,0Z"/></g></g><g id="_Group_26" data-name="&lt;Group&gt;"><g id="_Group_27" data-name="&lt;Group&gt;"><path id="_Path_48" data-name="&lt;Path&gt;" class="cls-3" d="M13.81,19.5s0,0,0-.05a.05.05,0,0,1,.05,0l0,0s0,0,0,0h0s0,0,0,0Z"/></g><g id="_Group_28" data-name="&lt;Group&gt;"><path id="_Path_49" data-name="&lt;Path&gt;" class="cls-3" d="M16.39,19.68s0,0,0,0,0,0,0,0l0,0a0,0,0,0,1,0,.06,0,0,0,0,1-.05,0Z"/></g><g id="_Group_29" data-name="&lt;Group&gt;"><path id="_Path_50" data-name="&lt;Path&gt;" class="cls-3" d="M16.41,19.8s0,0,0,0,0,0,0,0h0s0,0,0,0a.05.05,0,0,1,0,0Z"/></g><g id="_Group_30" data-name="&lt;Group&gt;"><path id="_Compound_Path_14" data-name="&lt;Compound Path&gt;" class="cls-3" d="M14,19.29l0,0s-.07,0-.1,0-.07,0-.07,0a.06.06,0,0,0,.08,0s.07,0,.07,0,0,.08,0,.11,0,0,0,.06h-.06a.14.14,0,0,0-.08.05.59.59,0,0,0,0,.08.07.07,0,0,0,.08,0l.09,0,.15,0,.23.05h0a.05.05,0,0,0,.05-.05,1,1,0,0,0,0-.17s0-.07,0-.06a.1.1,0,0,1-.07,0s0,0,0,.06a.11.11,0,0,1,0,.08s-.05,0-.08,0-.08,0-.05-.05,0-.05,0-.08,0-.06,0-.09-.05,0-.07,0-.07,0,0,0,0,.06,0,.08,0,.05-.07,0-.07,0-.05-.06a.19.19,0,0,0,0-.08s0-.06,0-.09a.16.16,0,0,1,0-.09s0-.06,0-.09,0,0,0,0Zm-.17.34h0s0,0,0,0h0s0,0,0,0v0Z"/></g><g id="_Group_31" data-name="&lt;Group&gt;"><path id="_Path_51" data-name="&lt;Path&gt;" class="cls-3" d="M13.8,19.86s0,0,0-.06,0,0,0,0a0,0,0,0,1,0,.06h0s0,0,0,0Z"/></g><g id="_Group_32" data-name="&lt;Group&gt;"><path id="_Path_52" data-name="&lt;Path&gt;" class="cls-3" d="M13.94,19.91a0,0,0,0,1,0-.05,0,0,0,0,1,0,0s0,0,.05,0,0,0,0,0Z"/></g><g id="_Group_33" data-name="&lt;Group&gt;"><path id="_Path_53" data-name="&lt;Path&gt;" class="cls-3" d="M18.13,19.91l0,0a.05.05,0,0,1,0-.05s0,0,.05,0,0,0,0,.06h-.07Z"/></g><g id="_Group_34" data-name="&lt;Group&gt;"><path id="_Path_54" data-name="&lt;Path&gt;" class="cls-3" d="M14.13,20a.05.05,0,0,1,0,0s0,0,0,0h.05s0,0,0,.05,0,0-.06,0Z"/></g><g id="_Group_35" data-name="&lt;Group&gt;"><path id="_Path_55" data-name="&lt;Path&gt;" class="cls-3" d="M15.16,20h0a.22.22,0,0,1,0-.08s0-.05,0-.07,0-.09,0-.14a.13.13,0,0,1,0-.06s0-.07,0-.1,0-.05,0,0a.46.46,0,0,0,.07.07s0,0,0,0a0,0,0,0,0,0,0s0,0,0,.06v.09a.28.28,0,0,0,0,.09s0,0,0,.05,0,.05,0,.06,0,0-.05,0Z"/></g><g id="_Group_36" data-name="&lt;Group&gt;"><path id="_Compound_Path_15" data-name="&lt;Compound Path&gt;" class="cls-3" d="M16.56,19.55l-.07.06s0,0,0,.05a.28.28,0,0,1,0,.09.19.19,0,0,1,0,.08s0,0-.06,0,0,0,0,0a.12.12,0,0,0,0,.08s0,0,0,.06h0s0,0,0,0,.05,0,.07,0l.17,0s.07,0,.1,0,0,0,0,0,0-.07,0-.1a.34.34,0,0,1,0-.1s0,0,0,0l-.06,0s0,0,0,.05a.2.2,0,0,1,0,.07s0,0-.05,0-.06,0-.07,0a.17.17,0,0,1,0-.07s0-.08,0-.12a1,1,0,0,1,0-.16s0-.05,0-.05Zm0,.39h0v0H16.5a0,0,0,0,1,0,0Z"/></g><g id="_Group_37" data-name="&lt;Group&gt;"><path id="_Compound_Path_16" data-name="&lt;Compound Path&gt;" class="cls-3" d="M15.12,19.5s0,0-.06,0,0,0,0,.05v0s0,.07,0,.11a.5.5,0,0,0,0,.12S15,20,15,20s0,0-.06,0V20s0-.05,0-.05-.05,0,0,0,.05,0,.07,0,0,0,0-.07-.06,0-.07-.07a.11.11,0,0,0-.05-.11.13.13,0,0,0-.11.09l-.06,0s-.09.06,0,.09.1,0,.07.06a.08.08,0,0,1-.09,0s-.07,0-.07-.05,0-.08,0-.11,0,0-.06,0a.06.06,0,0,0,0,.09.15.15,0,0,1,0,.11s0,0-.08.05-.08,0-.06,0a.17.17,0,0,0,.12,0,.15.15,0,0,0,.09-.07s.07,0,.1,0,.07,0,.11,0,.06-.07.07,0a.06.06,0,0,0,.07.06s0,0,0,.05a.1.1,0,0,0,.06.09h0a.11.11,0,0,0,.09-.07s0-.07,0-.1a.78.78,0,0,0,0-.16c0-.05,0-.1,0-.15a.37.37,0,0,0,0-.11s0,0,0,0Zm-.32.2s0,0,0,0,0,0,0,0h0s0,0,0,0a.11.11,0,0,1-.06,0h0s0,0,0,0l0,0Z"/></g><g id="_Group_38" data-name="&lt;Group&gt;"><path id="_Compound_Path_17" data-name="&lt;Compound Path&gt;" class="cls-3" d="M17.9,19.33h-.08s-.07.05,0,.07.07,0,.11,0,.08.09.09.15a.8.8,0,0,0,0,.15c0,.05,0,.09-.06.05s-.09-.07-.13,0,0,.07-.08.09-.06,0-.09-.08-.08,0-.12-.06,0-.11-.06-.13-.1.08,0,.11,0,.06-.05.09a.23.23,0,0,0,0,.14c-.06,0-.07,0-.08-.08s-.05,0-.08,0-.07.06-.1.1V20s.06,0,.09,0,.06,0,0,.06-.11,0-.1.06a.11.11,0,0,0,.08,0,.14.14,0,0,0,.11-.1c0-.05.08,0,.11-.06s.11,0,.12.05.11.07.15,0a.16.16,0,0,0,0-.11s.06,0,.08,0,.1,0,.13,0,.05-.08.11-.08l.25-.07c.07,0,0-.06,0-.08s-.09.07-.15,0,0-.09-.06-.14,0-.14-.05-.19-.07,0-.12,0Zm-.32.44h0a.05.05,0,0,1,0,0s0,0,0,0h0s0,0,0,0v0s0,0,0,0Zm.31,0s0,0,0,0,0,0,0,0h0l0,0S17.87,19.79,17.89,19.79Zm-.42,0h0s0,0,0,0v0s0,0,0,0,0,0,0,0,0,0,0,0Zm-.26.07,0,0s0,0,0,0,0,0,0,0h0Zm.43.06h0a0,0,0,0,1,0,0s0,0-.05,0h0s0,0,0,0Z"/></g><g id="_Group_39" data-name="&lt;Group&gt;"><path id="_Path_56" data-name="&lt;Path&gt;" class="cls-3" d="M16.84,20.14s0,0,0,0l0,0a.18.18,0,0,0,.07-.05s0,0,0,0A.15.15,0,0,0,17,20a.07.07,0,0,0,0-.05s0,0,0,0,0,0,0,0l0-.06a0,0,0,0,1,0,0s0,0,0,0a.1.1,0,0,1,0,.05,746328127394.54,746328127394.54,0,0,1,0,.1v.08l0,0-.05,0s0,0,0,0h-.08Z"/></g><g id="_Group_40" data-name="&lt;Group&gt;"><path id="_Path_57" data-name="&lt;Path&gt;" class="cls-3" d="M16.52,20.16l0,0s0,0,0,0,0,0,.06,0,.05,0,.05,0,0,0,0,0h0s0,0,0,0,0,0,0,0,0,0,0,0l0,0s0,0,0,0h0l0,0h0s0,0,0,0Z"/></g><g id="_Group_41" data-name="&lt;Group&gt;"><path id="_Compound_Path_18" data-name="&lt;Compound Path&gt;" class="cls-3" d="M15.59,19.75s-.07,0-.07.05,0,.07,0,.11a0,0,0,0,1-.07,0,.59.59,0,0,0-.06-.14s-.06.05-.08.07.05.07.05.11a.11.11,0,0,1-.05.12s-.08,0-.12,0,0,0,.06,0a.15.15,0,0,0,.14,0s0-.07.07-.08h.23s.1,0,.12,0,.05.08.09.1.05,0,.07,0,0-.07.06-.09h.23s0,0,0,0V20s0-.09,0-.12-.07,0-.11,0a.13.13,0,0,0-.08.1c0,.05-.07,0-.05,0s0,0,0,0-.06,0-.09,0h-.15a.48.48,0,0,1-.12,0c-.05,0,0-.05-.05-.08Zm.09.17h.25l0,0v.1a0,0,0,0,1,0,0h0l0,0s0,0,0-.05v0h-.25l0,0a0,0,0,0,1,0,0Zm.53,0s0,0,0,0v0s0,0,0,0h0s0,0,0,0l0,0Z"/></g></g><path id="_Path_58" data-name="&lt;Path&gt;" class="cls-2" d="M16,17.28a3.59,3.59,0,0,0,1.4-2.91l-.12,0A2.26,2.26,0,0,1,16,14a2.67,2.67,0,0,1-1.3.42l-.12,0A3.59,3.59,0,0,0,16,17.28Z"/><path id="_Compound_Path_19" data-name="&lt;Compound Path&gt;" class="cls-3" d="M16,17.31h0a3.59,3.59,0,0,1-1.4-2.93v0h.14A2.62,2.62,0,0,0,16,14l0,0,0,0a2.21,2.21,0,0,0,1.24.41h.15v0A3.65,3.65,0,0,1,16,17.3Zm-1.37-2.9A3.53,3.53,0,0,0,16,17.24a3.53,3.53,0,0,0,1.37-2.83h-.09A2.44,2.44,0,0,1,16,14a2.68,2.68,0,0,1-1.29.4Z"/><path id="_Path_59" data-name="&lt;Path&gt;" class="cls-2" d="M17.28,14.5h0A2.55,2.55,0,0,1,16,14.13a2.77,2.77,0,0,1-1.25.37h0c0,.06,0,.13,0,.19a3.87,3.87,0,0,0,.12.68A3.3,3.3,0,0,0,16,17.12a3.3,3.3,0,0,0,1.15-1.75,2.62,2.62,0,0,0,.12-.68,1.21,1.21,0,0,0,0-.19Z"/><path id="_Compound_Path_20" data-name="&lt;Compound Path&gt;" class="cls-3" d="M16,17.15h0a3.38,3.38,0,0,1-1.16-1.76,2.78,2.78,0,0,1-.12-.69s0-.12,0-.19v0h.06A2.86,2.86,0,0,0,16,14.11h0a2.5,2.5,0,0,0,1.22.37h.06v0a1.09,1.09,0,0,1,0,.19,3.3,3.3,0,0,1-.11.69A3.46,3.46,0,0,1,16,17.14Zm-1.25-2.63v.17a4,4,0,0,0,.12.68A3.28,3.28,0,0,0,16,17.09a3.28,3.28,0,0,0,1.13-1.72,2.78,2.78,0,0,0,.12-.68s0-.11,0-.17h0A2.63,2.63,0,0,1,16,14.16a2.89,2.89,0,0,1-1.25.36Z"/><path id="_Path_60" data-name="&lt;Path&gt;" class="cls-3" d="M15.5,14.36a2.69,2.69,0,0,1-.74.14h0c0,.06,0,.13,0,.19a3.87,3.87,0,0,0,.12.68,3.36,3.36,0,0,0,.65,1.26V14.36Z"/><path id="_Path_61" data-name="&lt;Path&gt;" class="cls-3" d="M16.47,14.36v2.31a3.47,3.47,0,0,0,.69-1.3,3.11,3.11,0,0,0,.11-.68,1.21,1.21,0,0,0,0-.19h0a2.87,2.87,0,0,1-.77-.14Z"/><path id="_Compound_Path_21" data-name="&lt;Compound Path&gt;" class="cls-3" d="M15.41,13.9l.06-.25a1,1,0,0,1-.4.14H15l0,0a3.09,3.09,0,0,0,.46-.82,1.27,1.27,0,0,0,.05-.83c-.06-.08-.14-.17-.23-.17a.21.21,0,0,0-.12.05h0s0,0,0,0a.38.38,0,0,1,.09-.32.69.69,0,0,1,.5,0l0,0a.11.11,0,0,1,.1,0,1.13,1.13,0,0,1,.61.2c.09.08.18.28.16.79a1.64,1.64,0,0,0,.33,1.18v.06a2,2,0,0,1-.34-.07c0,.09,0,.1,0,.11l0,0h0a.71.71,0,0,1-.4-.18s-.12.12-.16.18l0,0-.19-.2a1.89,1.89,0,0,1-.34.23Zm.15-.37-.06.27a1.75,1.75,0,0,0,.29-.21l0,0,.18.19.17-.17,0,0,0,0a.71.71,0,0,0,.36.18l0-.13,0,0c0,.05.18.07.28.09a2,2,0,0,1-.29-1.17c0-.51-.08-.69-.14-.75a1.1,1.1,0,0,0-.57-.18h0s0,0-.05,0a0,0,0,0,0,0,0v0h0a.8.8,0,0,0-.49,0,.26.26,0,0,0-.06.13.24.24,0,0,0,0,.12c.14-.11.28-.06.41.14a1.2,1.2,0,0,1,0,.87,2.52,2.52,0,0,1-.43.79,1.33,1.33,0,0,0,.37-.15Z"/><g id="_Group_42" data-name="&lt;Group&gt;"><path id="_Path_62" data-name="&lt;Path&gt;" class="cls-4" d="M15.54,13.61l0,0a2.89,2.89,0,0,0,.29-1h.06A2.86,2.86,0,0,1,15.54,13.61Z"/></g><g id="_Group_43" data-name="&lt;Group&gt;"><path id="_Path_63" data-name="&lt;Path&gt;" class="cls-4" d="M15.83,13.63l-.05,0a4.44,4.44,0,0,0,.18-1H16A3.66,3.66,0,0,1,15.83,13.63Z"/></g><g id="_Group_44" data-name="&lt;Group&gt;"><path id="_Path_64" data-name="&lt;Path&gt;" class="cls-4" d="M16.16,13.62a6.36,6.36,0,0,1-.06-1h.06a7,7,0,0,0,.05,1Z"/></g><g id="_Group_45" data-name="&lt;Group&gt;"><path id="_Path_65" data-name="&lt;Path&gt;" class="cls-4" d="M16.51,13.65a2.65,2.65,0,0,1-.22-1h.06a2.75,2.75,0,0,0,.21,1Z"/></g><g id="_Group_46" data-name="&lt;Group&gt;"><path id="_Path_66" data-name="&lt;Path&gt;" class="cls-4" d="M15.36,11.78c-.08,0-.13.1-.15.14a.28.28,0,0,1,.12,0c.09,0,.17.07.26.19a.51.51,0,0,1,0,.1l0,0a.08.08,0,0,1,.06,0h.09c-.2-.34-.42-.35-.44-.35Z"/><path id="_Compound_Path_22" data-name="&lt;Compound Path&gt;" class="cls-4" d="M15.83,12.14c-.16-.28-.35-.37-.46-.37h0c-.12,0-.17.17-.17.17v0l0,0c.12-.1.25,0,.37.13a.33.33,0,0,1,0,.12s0,0,0,0h0v0l0,0h.17Zm-.17,0,0,.06v0h0s0,0,0,0a.39.39,0,0,0-.05-.13c-.09-.13-.23-.25-.39-.12,0,0,.06-.17.17-.17s.29.06.47.36C15.83,12.14,15.7,12.11,15.66,12.14Z"/><polygon id="_Path_67" data-name="&lt;Path&gt;" class="cls-4" points="15.63 12.23 15.63 12.23 15.63 12.23 15.63 12.23"/><path id="_Path_68" data-name="&lt;Path&gt;" class="cls-4" d="M15.63,12.23v0S15.63,12.23,15.63,12.23Z"/><path id="_Compound_Path_23" data-name="&lt;Compound Path&gt;" class="cls-4" d="M15.36,11.78c-.11,0-.17.17-.17.17.16-.13.3,0,.39.12a.39.39,0,0,1,.05.13l0-.06s.17,0,.17,0C15.65,11.84,15.45,11.77,15.36,11.78Zm.45.35h-.09a.08.08,0,0,0-.06,0l0,0a.51.51,0,0,0,0-.1c-.09-.12-.17-.19-.26-.19a.28.28,0,0,0-.12,0s.07-.13.15-.14h0S15.61,11.79,15.81,12.13Z"/></g><path id="_Compound_Path_24" data-name="&lt;Compound Path&gt;" class="cls-4" d="M16.51,11.87a.47.47,0,0,0-.07-.12,1.25,1.25,0,0,0-.6-.19.12.12,0,0,0-.09,0,.13.13,0,0,0,0,.06,1.1,1.1,0,0,0-.33-.05.3.3,0,0,0-.18,0,.21.21,0,0,0-.06.1h0a.2.2,0,0,1,.17-.09h.05a.32.32,0,0,1,.23.1c.11.08.19.12.24.11l0,0,0,0h0s0,0,.06,0,0,0,.06-.05,0,0,0,0a.14.14,0,0,1,.09,0h.19s.13,0,.16.06h0Zm-.56,0a.06.06,0,0,1-.06,0,.06.06,0,0,1,.06-.06.06.06,0,0,1,.05.06A0,0,0,0,1,16,11.86Z"/></g></svg>