<svg id="Layer_1" data-name="Layer 1" xmlns="http://www.w3.org/2000/svg" viewBox="0 0 32 32"><defs><style>.cls-1{fill:#fff;}.cls-2{fill:#ce1124;}</style></defs><title>England</title><polygon id="_Path_" data-name="&lt;Path&gt;" class="cls-1" points="18.44 13.58 32 13.58 32 0 18.44 0 18.44 13.56 18.44 13.58"/><polygon id="_Path_2" data-name="&lt;Path&gt;" class="cls-1" points="13.56 13.56 13.56 0 0 0 0 13.58 13.56 13.58 13.56 13.56"/><polygon id="_Path_3" data-name="&lt;Path&gt;" class="cls-1" points="13.56 18.42 0 18.42 0 32 13.56 32 13.56 18.44 13.56 18.42"/><polygon id="_Path_4" data-name="&lt;Path&gt;" class="cls-1" points="18.44 18.44 18.44 32 32 32 32 18.42 18.44 18.42 18.44 18.44"/><polygon id="_Path_5" data-name="&lt;Path&gt;" class="cls-2" points="18.44 13.58 18.44 13.56 18.44 0 13.56 0 13.56 13.56 13.56 13.58 0 13.58 0 18.42 13.56 18.42 13.56 18.44 13.56 32 18.44 32 18.44 18.44 18.44 18.42 32 18.42 32 13.58 18.44 13.58"/></svg>