<svg id="Layer_1" data-name="Layer 1" xmlns="http://www.w3.org/2000/svg" viewBox="0 0 32 32"><defs><style>.cls-1{fill:#239f40;}.cls-2{fill:#fff;}.cls-3{fill:#da0000;}</style></defs><title>Iran</title><rect id="_Rectangle_" data-name="&lt;Rectangle&gt;" class="cls-1" width="32" height="10.56"/><rect id="_Rectangle_2" data-name="&lt;Rectangle&gt;" class="cls-2" y="10.57" width="32" height="10.87"/><rect id="_Rectangle_3" data-name="&lt;Rectangle&gt;" class="cls-3" y="21.44" width="32" height="10.57"/><g id="_Group_" data-name="&lt;Group&gt;"><path id="_Path_" data-name="&lt;Path&gt;" class="cls-3" d="M15.07,12.33a.79.79,0,0,0,.93.17.79.79,0,0,0,.93-.17.57.57,0,0,1-.93.51A.56.56,0,0,1,15.07,12.33Z"/><path id="_Path_2" data-name="&lt;Path&gt;" class="cls-3" d="M12.28,15.53A3,3,0,0,1,14.4,13a3.85,3.85,0,0,0-1.48,3.49,4,4,0,0,0,.86,1.94A3,3,0,0,1,12.28,15.53Z"/><path id="_Path_3" data-name="&lt;Path&gt;" class="cls-3" d="M15.53,13.3,16,13l.46.35c0,1.66,0,3.33-.06,5a3.87,3.87,0,0,0,1.21-1.62,3.79,3.79,0,0,0-.45-3.51,3.42,3.42,0,0,1-.52,5.68,3.72,3.72,0,0,0,1.62.2,3.54,3.54,0,0,1-1.88.17l-.38.46-.39-.46A3.52,3.52,0,0,1,13.74,19a3.67,3.67,0,0,0,1.61-.2,3.43,3.43,0,0,1-.51-5.68,3.73,3.73,0,0,0-.17,4.09,4.39,4.39,0,0,0,.93,1C15.58,16.63,15.55,15,15.53,13.3Z"/><path id="_Path_4" data-name="&lt;Path&gt;" class="cls-3" d="M17.6,13a3,3,0,0,1,2,3.61,3.08,3.08,0,0,1-1.41,1.81A4.32,4.32,0,0,0,19,16.78,3.82,3.82,0,0,0,17.6,13Z"/></g><g id="_Group_2" data-name="&lt;Group&gt;"><path id="_Compound_Path_" data-name="&lt;Compound Path&gt;" class="cls-2" d="M.63,10.22H.51V9.81H1.2v.28h.44V9.93H1.35V9.81h.41v.4H1.08V9.93H.63Zm2.55,0H2.49V9.93H2.05v.16h.29v.12H1.93v-.4h.56v-.3h.12v.58h.17V9.51H2.9v.58h.16V9.51h.12Zm-.84-.57H.5V9.53H2.34Z"/><path id="_Compound_Path_2" data-name="&lt;Compound Path&gt;" class="cls-2" d="M3.19,10.56H1.92v-.11H3.19Zm-1.41,0H.5v-.11H1.78Z"/><path id="_Compound_Path_3" data-name="&lt;Compound Path&gt;" class="cls-2" d="M3.46,10.22H3.34V9.81H4v.28h.45V9.93h-.3V9.81H4.6v.4H3.91V9.93H3.46Zm2.55,0H5.33V9.93H4.88v.16h.29v.12H4.76v-.4h.57v-.3h.11v.58h.17V9.51h.12v.58h.16V9.51H6Zm-.84-.57H3.33V9.53H5.17Z"/><path id="_Compound_Path_4" data-name="&lt;Compound Path&gt;" class="cls-2" d="M6,10.56H4.75v-.11H6Zm-1.41,0H3.33v-.11H4.61Z"/><path id="_Compound_Path_5" data-name="&lt;Compound Path&gt;" class="cls-2" d="M6.29,10.22H6.17V9.81h.69v.28h.45V9.93H7V9.81h.42v.4H6.74V9.93H6.29Zm2.55,0H8.16V9.93H7.71v.16H8v.12H7.59v-.4h.57v-.3h.12v.58h.16V9.51h.12v.58h.16V9.51h.12ZM8,9.64H6.16V9.53H8Z"/><path id="_Compound_Path_6" data-name="&lt;Compound Path&gt;" class="cls-2" d="M8.85,10.56H7.58v-.11H8.85Zm-1.41,0H6.16v-.11H7.44Z"/><path id="_Compound_Path_7" data-name="&lt;Compound Path&gt;" class="cls-2" d="M9.13,10.22H9V9.81h.68v.28h.45V9.93h-.3V9.81h.42v.4H9.57V9.93H9.13Zm2.54,0H11V9.93h-.45v.16h.29v.12h-.41v-.4H11v-.3h.12v.58h.16V9.51h.12v.58h.16V9.51h.12Zm-.84-.57H9V9.53h1.84Z"/><path id="_Compound_Path_8" data-name="&lt;Compound Path&gt;" class="cls-2" d="M11.68,10.56H10.41v-.11h1.27Zm-1.41,0H9v-.11h1.28Z"/><path id="_Compound_Path_9" data-name="&lt;Compound Path&gt;" class="cls-2" d="M12,10.22h-.12V9.81h.68v.28H13V9.93h-.3V9.81h.42v.4H12.4V9.93H12Zm2.54,0h-.68V9.93h-.45v.16h.3v.12h-.42v-.4h.57v-.3h.12v.58h.16V9.51h.12v.58h.16V9.51h.12Zm-.83-.57H11.83V9.53h1.84Z"/><path id="_Compound_Path_10" data-name="&lt;Compound Path&gt;" class="cls-2" d="M14.52,10.56H13.24v-.11h1.28Zm-1.42,0H11.83v-.11H13.1Z"/><path id="_Compound_Path_11" data-name="&lt;Compound Path&gt;" class="cls-2" d="M14.79,10.22h-.12V9.81h.68v.28h.45V9.93h-.29V9.81h.41v.4h-.69V9.93h-.44Zm2.55,0h-.69V9.93H16.2v.16h.3v.12h-.42v-.4h.57v-.3h.12v.58h.16V9.51h.12v.58h.17V9.51h.12Zm-.84-.57H14.66V9.53H16.5Z"/><path id="_Compound_Path_12" data-name="&lt;Compound Path&gt;" class="cls-2" d="M17.35,10.56H16.07v-.11h1.28Zm-1.42,0H14.66v-.11h1.27Z"/><path id="_Compound_Path_13" data-name="&lt;Compound Path&gt;" class="cls-2" d="M17.62,10.22H17.5V9.81h.68v.28h.45V9.93h-.29V9.81h.41v.4h-.69V9.93h-.44Zm2.55,0h-.69V9.93H19v.16h.3v.12h-.42v-.4h.57v-.3h.12v.58h.16V9.51h.12v.58h.17V9.51h.12Zm-.84-.57H17.49V9.53h1.84Z"/><path id="_Compound_Path_14" data-name="&lt;Compound Path&gt;" class="cls-2" d="M20.18,10.56H18.9v-.11h1.28Zm-1.42,0H17.49v-.11h1.27Z"/><path id="_Compound_Path_15" data-name="&lt;Compound Path&gt;" class="cls-2" d="M20.45,10.22h-.12V9.81H21v.28h.44V9.93h-.29V9.81h.41v.4H20.9V9.93h-.45Zm2.55,0h-.69V9.93h-.45v.16h.3v.12h-.41v-.4h.56v-.3h.12v.58h.16V9.51h.12v.58h.17V9.51H23Zm-.84-.57H20.32V9.53h1.84Z"/><path id="_Compound_Path_16" data-name="&lt;Compound Path&gt;" class="cls-2" d="M23,10.56H21.73v-.11H23Zm-1.42,0H20.32v-.11h1.27Z"/><path id="_Compound_Path_17" data-name="&lt;Compound Path&gt;" class="cls-2" d="M23.28,10.22h-.12V9.81h.69v.28h.44V9.93H24V9.81h.41v.4h-.68V9.93h-.45Zm2.55,0h-.69V9.93H24.7v.16H25v.12h-.41v-.4h.56v-.3h.12v.58h.17V9.51h.12v.58h.16V9.51h.12ZM25,9.64H23.15V9.53H25Z"/><path id="_Compound_Path_18" data-name="&lt;Compound Path&gt;" class="cls-2" d="M25.84,10.56H24.57v-.11h1.27Zm-1.42,0H23.15v-.11h1.27Z"/><g id="tbp1"><path id="_Compound_Path_19" data-name="&lt;Compound Path&gt;" class="cls-2" d="M26.11,10.22H26V9.81h.69v.28h.44V9.93h-.29V9.81h.41v.4h-.68V9.93h-.45Zm2.55,0H28V9.93h-.44v.16h.29v.12h-.41v-.4H28v-.3h.12v.58h.17V9.51h.12v.58h.16V9.51h.12Zm-.84-.57H26V9.53h1.84Z"/></g><g id="tbp2"><path id="_Compound_Path_20" data-name="&lt;Compound Path&gt;" class="cls-2" d="M28.67,10.56H27.4v-.11h1.27Zm-1.42,0H26v-.11h1.27Z"/></g><g id="tbp1-2" data-name="tbp1"><path id="_Compound_Path_21" data-name="&lt;Compound Path&gt;" class="cls-2" d="M28.94,10.22h-.12V9.81h.69v.28H30V9.93h-.3V9.81h.42v.4h-.69V9.93h-.45Zm2.55,0h-.68V9.93h-.45v.16h.29v.12h-.41v-.4h.57v-.3h.11v.58h.17V9.51h.12v.58h.16V9.51h.12Zm-.84-.57H28.81V9.53h1.84Z"/></g><g id="tbp2-2" data-name="tbp2"><path id="_Compound_Path_22" data-name="&lt;Compound Path&gt;" class="cls-2" d="M31.5,10.56H30.23v-.11H31.5Zm-1.41,0H28.81v-.11h1.28Z"/></g></g><g id="_Group_3" data-name="&lt;Group&gt;"><g id="tbp2-3" data-name="tbp2"><path id="_Compound_Path_23" data-name="&lt;Compound Path&gt;" class="cls-2" d="M3.19,21.55H1.92v-.11H3.19Zm-1.41,0H.5v-.11H1.78Z"/></g><g id="tbp1-3" data-name="tbp1"><path id="_Compound_Path_24" data-name="&lt;Compound Path&gt;" class="cls-2" d="M.63,22.49H.51v-.42H1.2v.29h.44v-.17H1.35v-.12h.41v.41H1.08v-.29H.63Zm2.55,0H2.49v-.29H2.05v.17h.29v.12H1.93v-.41h.56v-.29h.12v.58h.17v-.58H2.9v.58h.16v-.58h.12Zm-.84-.57H.5v-.12H2.34Z"/></g><g id="tbp2-4" data-name="tbp2"><path id="_Compound_Path_25" data-name="&lt;Compound Path&gt;" class="cls-2" d="M6,21.55H4.75v-.11H6Zm-1.41,0H3.33v-.11H4.61Z"/></g><g id="tbp1-4" data-name="tbp1"><path id="_Compound_Path_26" data-name="&lt;Compound Path&gt;" class="cls-2" d="M3.46,22.49H3.34v-.42H4v.29h.45v-.17h-.3v-.12H4.6v.41H3.91v-.29H3.46Zm2.55,0H5.33v-.29H4.88v.17h.29v.12H4.76v-.41h.57v-.29h.11v.58h.17v-.58h.12v.58h.16v-.58H6Zm-.84-.57H3.33v-.12H5.17Z"/></g><g id="_Group_4" data-name="&lt;Group&gt;"><g id="tbp2-5" data-name="tbp2"><path id="_Compound_Path_27" data-name="&lt;Compound Path&gt;" class="cls-2" d="M8.85,21.55H7.58v-.11H8.85Zm-1.41,0H6.16v-.11H7.44Z"/></g></g><g id="_Group_5" data-name="&lt;Group&gt;"><g id="tbp1-5" data-name="tbp1"><path id="_Compound_Path_28" data-name="&lt;Compound Path&gt;" class="cls-2" d="M6.29,22.49H6.17v-.42h.69v.29h.45v-.17H7v-.12h.42v.41H6.74v-.29H6.29Zm2.55,0H8.16v-.29H7.71v.17H8v.12H7.59v-.41h.57v-.29h.12v.58h.16v-.58h.12v.58h.16v-.58h.12ZM8,21.91H6.16v-.12H8Z"/></g></g><g id="_Group_6" data-name="&lt;Group&gt;"><g id="tbp2-6" data-name="tbp2"><path id="_Compound_Path_29" data-name="&lt;Compound Path&gt;" class="cls-2" d="M11.68,21.55H10.41v-.11h1.27Zm-1.41,0H9v-.11h1.28Z"/></g></g><g id="_Group_7" data-name="&lt;Group&gt;"><g id="tbp1-6" data-name="tbp1"><path id="_Compound_Path_30" data-name="&lt;Compound Path&gt;" class="cls-2" d="M9.13,22.49H9v-.42h.68v.29h.45v-.17h-.3v-.12h.42v.41H9.57v-.29H9.13Zm2.54,0H11v-.29h-.45v.17h.29v.12h-.41v-.41H11v-.29h.12v.58h.16v-.58h.12v.58h.16v-.58h.12Zm-.84-.57H9v-.12h1.84Z"/></g></g><g id="tbp2-7" data-name="tbp2"><path id="_Compound_Path_31" data-name="&lt;Compound Path&gt;" class="cls-2" d="M14.52,21.55H13.24v-.11h1.28Zm-1.42,0H11.83v-.11H13.1Z"/></g><g id="tbp1-7" data-name="tbp1"><path id="_Compound_Path_32" data-name="&lt;Compound Path&gt;" class="cls-2" d="M12,22.49h-.12v-.42h.68v.29H13v-.17h-.3v-.12h.42v.41H12.4v-.29H12Zm2.54,0h-.68v-.29h-.45v.17h.3v.12h-.42v-.41h.57v-.29h.12v.58h.16v-.58h.12v.58h.16v-.58h.12Zm-.83-.57H11.83v-.12h1.84Z"/></g><g id="tbp2-8" data-name="tbp2"><path id="_Compound_Path_33" data-name="&lt;Compound Path&gt;" class="cls-2" d="M17.35,21.55H16.07v-.11h1.28Zm-1.42,0H14.66v-.11h1.27Z"/></g><g id="tbp1-8" data-name="tbp1"><path id="_Compound_Path_34" data-name="&lt;Compound Path&gt;" class="cls-2" d="M14.79,22.49h-.12v-.42h.68v.29h.45v-.17h-.29v-.12h.41v.41h-.69v-.29h-.44Zm2.55,0h-.69v-.29H16.2v.17h.3v.12h-.42v-.41h.57v-.29h.12v.58h.16v-.58h.12v.58h.17v-.58h.12Zm-.84-.57H14.66v-.12H16.5Z"/></g><g id="_Group_8" data-name="&lt;Group&gt;"><g id="tbp2-9" data-name="tbp2"><path id="_Compound_Path_35" data-name="&lt;Compound Path&gt;" class="cls-2" d="M20.18,21.55H18.9v-.11h1.28Zm-1.42,0H17.49v-.11h1.27Z"/></g></g><g id="_Group_9" data-name="&lt;Group&gt;"><g id="tbp1-9" data-name="tbp1"><path id="_Compound_Path_36" data-name="&lt;Compound Path&gt;" class="cls-2" d="M17.62,22.49H17.5v-.42h.68v.29h.45v-.17h-.29v-.12h.41v.41h-.69v-.29h-.44Zm2.55,0h-.69v-.29H19v.17h.3v.12h-.42v-.41h.57v-.29h.12v.58h.16v-.58h.12v.58h.17v-.58h.12Zm-.84-.57H17.49v-.12h1.84Z"/></g></g><g id="tbp2-10" data-name="tbp2"><path id="_Compound_Path_37" data-name="&lt;Compound Path&gt;" class="cls-2" d="M23,21.55H21.73v-.11H23Zm-1.42,0H20.32v-.11h1.27Z"/></g><g id="tbp1-10" data-name="tbp1"><path id="_Compound_Path_38" data-name="&lt;Compound Path&gt;" class="cls-2" d="M20.45,22.49h-.12v-.42H21v.29h.44v-.17h-.29v-.12h.41v.41H20.9v-.29h-.45Zm2.55,0h-.69v-.29h-.45v.17h.3v.12h-.41v-.41h.56v-.29h.12v.58h.16v-.58h.12v.58h.17v-.58H23Zm-.84-.57H20.32v-.12h1.84Z"/></g><g id="_Group_10" data-name="&lt;Group&gt;"><g id="tbp2-11" data-name="tbp2"><path id="_Compound_Path_39" data-name="&lt;Compound Path&gt;" class="cls-2" d="M25.84,21.55H24.57v-.11h1.27Zm-1.42,0H23.15v-.11h1.27Z"/></g></g><g id="_Group_11" data-name="&lt;Group&gt;"><g id="tbp1-11" data-name="tbp1"><path id="_Compound_Path_40" data-name="&lt;Compound Path&gt;" class="cls-2" d="M23.28,22.49h-.12v-.42h.69v.29h.44v-.17H24v-.12h.41v.41h-.68v-.29h-.45Zm2.55,0h-.69v-.29H24.7v.17H25v.12h-.41v-.41h.56v-.29h.12v.58h.17v-.58h.12v.58h.16v-.58h.12ZM25,21.91H23.15v-.12H25Z"/></g></g><g id="_Group_12" data-name="&lt;Group&gt;"><g id="tbp2-12" data-name="tbp2"><path id="_Compound_Path_41" data-name="&lt;Compound Path&gt;" class="cls-2" d="M28.67,21.55H27.4v-.11h1.27Zm-1.42,0H26v-.11h1.27Z"/></g></g><g id="_Group_13" data-name="&lt;Group&gt;"><g id="tbp1-12" data-name="tbp1"><path id="_Compound_Path_42" data-name="&lt;Compound Path&gt;" class="cls-2" d="M26.11,22.49H26v-.42h.69v.29h.44v-.17h-.29v-.12h.41v.41h-.68v-.29h-.45Zm2.55,0H28v-.29h-.44v.17h.29v.12h-.41v-.41H28v-.29h.12v.58h.17v-.58h.12v.58h.16v-.58h.12Zm-.84-.57H26v-.12h1.84Z"/></g></g><g id="_Group_14" data-name="&lt;Group&gt;"><g id="tbp2-13" data-name="tbp2"><path id="_Compound_Path_43" data-name="&lt;Compound Path&gt;" class="cls-2" d="M31.5,21.55H30.23v-.11H31.5Zm-1.41,0H28.81v-.11h1.28Z"/></g></g><g id="_Group_15" data-name="&lt;Group&gt;"><g id="tbp1-13" data-name="tbp1"><path id="_Compound_Path_44" data-name="&lt;Compound Path&gt;" class="cls-2" d="M28.94,22.49h-.12v-.42h.69v.29H30v-.17h-.3v-.12h.42v.41h-.69v-.29h-.45Zm2.55,0h-.68v-.29h-.45v.17h.29v.12h-.41v-.41h.57v-.29h.11v.58h.17v-.58h.12v.58h.16v-.58h.12Zm-.84-.57H28.81v-.12h1.84Z"/></g></g></g></svg>