<svg id="Layer_1" data-name="Layer 1" xmlns="http://www.w3.org/2000/svg" viewBox="0 0 32 32"><defs><style>.cls-1{fill:#003897;}.cls-2{fill:#fff;}.cls-3{fill:#d72828;}</style></defs><title>Iceland</title><g id="_Group_" data-name="&lt;Group&gt;"><rect id="_Path_" data-name="&lt;Path&gt;" class="cls-1" width="7.7" height="12.91"/><rect id="_Path_2" data-name="&lt;Path&gt;" class="cls-1" x="14.04" width="17.96" height="12.91"/><rect id="_Path_3" data-name="&lt;Path&gt;" class="cls-1" y="19.09" width="7.7" height="12.91"/><rect id="_Path_4" data-name="&lt;Path&gt;" class="cls-1" x="14.04" y="19.09" width="17.96" height="12.91"/><polygon id="_Path_5" data-name="&lt;Path&gt;" class="cls-2" points="0 17.85 0 19.09 7.7 19.09 7.7 32 9.02 32 9.02 17.85 0 17.85"/><polygon id="_Path_6" data-name="&lt;Path&gt;" class="cls-2" points="9.02 0 7.7 0 7.7 12.91 0 12.91 0 14.15 9.02 14.15 9.02 0"/><polygon id="_Path_7" data-name="&lt;Path&gt;" class="cls-2" points="32 14.15 32 12.91 14.04 12.91 14.04 0 12.72 0 12.72 14.15 32 14.15"/><polygon id="_Path_8" data-name="&lt;Path&gt;" class="cls-2" points="12.72 32 14.04 32 14.04 19.09 32 19.09 32 17.85 12.72 17.85 12.72 32"/><polygon id="_Path_9" data-name="&lt;Path&gt;" class="cls-3" points="12.72 14.15 12.72 0 9.02 0 9.02 14.15 0 14.15 0 17.85 9.02 17.85 9.02 32 12.72 32 12.72 17.85 32 17.85 32 14.15 12.72 14.15"/></g></svg>