<svg id="Layer_1" data-name="Layer 1" xmlns="http://www.w3.org/2000/svg" viewBox="0 0 32 32"><defs><style>.cls-1{fill:#c1272d;}.cls-2{fill:#babbbc;fill-rule:evenodd;}.cls-3{fill:#006233;}</style></defs><title>Morocco</title><rect id="_Rectangle_" data-name="&lt;Rectangle&gt;" class="cls-1" width="32" height="32"/><path id="_Path_" data-name="&lt;Path&gt;" class="cls-2" d="M10.31,3.22l-.08,0Z"/><path id="_Compound_Path_" data-name="&lt;Compound Path&gt;" class="cls-3" d="M18.39,17.42c1.22-1,2.48-1.88,3.7-2.85-1.55,0-3.09,0-4.64,0Q16.72,12.24,16,9.9c-.5,1.55-1,3.11-1.45,4.66-1.54,0-3.09,0-4.64,0,1.16.92,2.35,1.8,3.53,2.7.07.08.24.13.18.27-.45,1.51-.94,3-1.38,4.55,1.26-.93,2.49-1.91,3.76-2.85,1.26.94,2.49,1.92,3.76,2.84-.44-1.52-.93-3-1.39-4.54A.12.12,0,0,1,18.39,17.42Zm-1.5,1.15a6.17,6.17,0,0,1,.57-.44c.13.38.24.77.36,1.16Zm-2.35-.44c.2.14.38.29.57.43-.29.25-.6.48-.91.7C14.3,18.88,14.42,18.51,14.54,18.13Zm-.32-2.48c-.08.24-.14.48-.22.71-.33-.22-.63-.47-.94-.7Zm.69,1.3c.12-.43.26-.86.39-1.29h1.4c.13.43.27.86.39,1.29.06.1-.05.16-.12.21l-1,.73-1-.73C15,17.11,14.85,17.05,14.91,17Zm4-1.29c-.32.22-.62.48-.94.7-.08-.23-.14-.47-.22-.71Zm-3.3-1.1c.11-.37.23-.75.35-1.13.15.37.25.76.37,1.13Z"/></svg>