<svg id="Layer_1" data-name="Layer 1" xmlns="http://www.w3.org/2000/svg" viewBox="0 0 32 32"><defs><style>.cls-1{fill:#fff;}.cls-2{fill:#005293;}.cls-3{fill:#d21034;}</style></defs><title>Panama</title><rect id="_Rectangle_" data-name="&lt;Rectangle&gt;" class="cls-1" width="16" height="16"/><rect id="_Rectangle_2" data-name="&lt;Rectangle&gt;" class="cls-1" x="16" y="16" width="16" height="16"/><path id="_Path_" data-name="&lt;Path&gt;" class="cls-2" d="M7.26,7.3c.26-.74.48-1.49.74-2.22.26.74.47,1.49.73,2.22h2.34L9.18,8.68c.22.75.48,1.49.71,2.24L8,9.54c-.63.45-1.25.92-1.89,1.36.22-.74.48-1.48.71-2.22-.62-.46-1.26-.9-1.88-1.38Z"/><path id="_Path_2" data-name="&lt;Path&gt;" class="cls-3" d="M23.26,23.3c.26-.74.48-1.48.74-2.22.26.74.47,1.49.73,2.22h2.34l-1.89,1.37c.22.75.48,1.49.71,2.24L24,25.54c-.63.45-1.25.92-1.89,1.37.22-.75.48-1.49.71-2.23-.62-.46-1.26-.91-1.88-1.38C21.71,23.29,22.49,23.3,23.26,23.3Z"/><rect id="_Rectangle_3" data-name="&lt;Rectangle&gt;" class="cls-3" x="16" width="16" height="16"/><rect id="_Rectangle_4" data-name="&lt;Rectangle&gt;" class="cls-2" y="16" width="16" height="16"/></svg>