<svg id="Layer_1" data-name="Layer 1" xmlns="http://www.w3.org/2000/svg" viewBox="0 0 32 32"><defs><style>.cls-1{fill:#00853f;}.cls-2{fill:#fdef42;}.cls-3{fill:#e31b23;}</style></defs><title>Senegal</title><g id="_Group_" data-name="&lt;Group&gt;"><rect id="_Rectangle_" data-name="&lt;Rectangle&gt;" class="cls-1" x="-10.72" y="10.72" width="32" height="10.57" transform="translate(-10.72 21.28) rotate(-90)"/><rect id="_Rectangle_2" data-name="&lt;Rectangle&gt;" class="cls-2" y="10.57" width="32" height="10.87" transform="translate(0 32) rotate(-90)"/><rect id="_Rectangle_3" data-name="&lt;Rectangle&gt;" class="cls-3" x="10.72" y="10.72" width="32" height="10.57" transform="translate(10.72 42.72) rotate(-90)"/></g><path id="_Path_" data-name="&lt;Path&gt;" class="cls-1" d="M15.11,15.15c.32-.87.58-1.77.89-2.65.3.88.58,1.76.87,2.65.94,0,1.87,0,2.8,0-.74.57-1.51,1.1-2.26,1.67.29.89.58,1.78.86,2.67-.76-.54-1.51-1.11-2.28-1.64-.75.54-1.5,1.09-2.26,1.62.27-.89.59-1.77.85-2.67-.75-.55-1.51-1.09-2.25-1.65Z"/></svg>