<svg id="Layer_1" data-name="Layer 1" xmlns="http://www.w3.org/2000/svg" viewBox="0 0 32 32"><defs><style>.cls-1{fill:#e70013;}.cls-2{fill:#fff;}</style></defs><title>Tunisia</title><g id="_Group_" data-name="&lt;Group&gt;"><rect id="_Rectangle_" data-name="&lt;Rectangle&gt;" class="cls-1" width="32" height="32"/><path id="_Compound_Path_" data-name="&lt;Compound Path&gt;" class="cls-2" d="M22.14,15.14a6.23,6.23,0,0,0-2.34-4,6.14,6.14,0,0,0-4-1.3,6.19,6.19,0,1,0,6.36,5.33Zm-2.64,2.5L17.57,17c-.4.55-.79,1.1-1.19,1.64v-2c-.64-.22-1.29-.41-1.92-.63l1.92-.63v-2L17.57,15l1.93-.62L18.31,16C18.68,16.55,19.11,17.08,19.5,17.64Zm-4.13-4.85a3.72,3.72,0,0,0,1.05,6.84,3.77,3.77,0,0,0,3.35-.91,4.64,4.64,0,0,1-6.41,1.1,4.65,4.65,0,1,1,6.41-6.55A3.73,3.73,0,0,0,15.37,12.79Z"/></g></svg>