<svg id="Layer_1" data-name="Layer 1" xmlns="http://www.w3.org/2000/svg" viewBox="0 0 32 32"><defs><style>.cls-1{fill:#0038a8;}.cls-2,.cls-3{fill:#fff;}.cls-2{fill-rule:evenodd;}.cls-4{fill:#fcd116;}</style></defs><title>Uruguay</title><g id="_Group_" data-name="&lt;Group&gt;"><rect id="_Rectangle_" data-name="&lt;Rectangle&gt;" class="cls-1" x="16" y="3.55" width="16" height="3.55"/><polygon id="_Path_" data-name="&lt;Path&gt;" class="cls-2" points="32 10.66 32 7.11 16 7.11 16 3.56 32 3.56 32 0 0 0 0 17.77 32 17.77 32 14.22 16 14.22 16 10.66 32 10.66"/><rect id="_Rectangle_2" data-name="&lt;Rectangle&gt;" class="cls-1" x="16" y="10.66" width="16" height="3.55"/><rect id="_Rectangle_3" data-name="&lt;Rectangle&gt;" class="cls-1" y="17.77" width="32" height="3.55"/><rect id="_Rectangle_4" data-name="&lt;Rectangle&gt;" class="cls-1" y="24.88" width="32" height="3.55"/><rect id="_Path_2" data-name="&lt;Path&gt;" class="cls-3" y="28.44" width="32" height="3.56"/><circle id="_Path_3" data-name="&lt;Path&gt;" class="cls-4" cx="9.21" cy="10.49" r="1.6"/><path id="_Path_4" data-name="&lt;Path&gt;" class="cls-4" d="M10.74,6.85A.85.85,0,0,1,11,6a.94.94,0,0,0-.63.79A2.36,2.36,0,0,1,9.68,8l0,.05V8L9.21,5.74,8.64,8.89a1.57,1.57,0,0,1,1.18,0l.7-.49A2.58,2.58,0,0,0,10.74,6.85Z"/><path id="_Path_5" data-name="&lt;Path&gt;" class="cls-4" d="M5.85,7.13,7.67,9.76a1.72,1.72,0,0,1,.85-.83l.15-.83a2.56,2.56,0,0,0-1-1.27.85.85,0,0,1-.44-.76.93.93,0,0,0,.12,1,2.49,2.49,0,0,1,.38,1.32v.08l-.06,0Z"/><path id="_Path_6" data-name="&lt;Path&gt;" class="cls-4" d="M7.51,10.49a1.83,1.83,0,0,1,.11-.61l-.48-.7A2.53,2.53,0,0,0,5.57,9a.87.87,0,0,1-.85-.23.94.94,0,0,0,.79.62A2.48,2.48,0,0,1,6.72,10l0,.06H6.7l-2.24.41,3.15.57A1.63,1.63,0,0,1,7.51,10.49Z"/><path id="_Path_7" data-name="&lt;Path&gt;" class="cls-4" d="M5.85,13.84,8.48,12a1.7,1.7,0,0,1-.83-.84L6.82,11A2.58,2.58,0,0,0,5.56,12a.87.87,0,0,1-.77.45.94.94,0,0,0,1-.12,2.41,2.41,0,0,1,1.33-.39h.07l0,.06Z"/><path id="_Path_8" data-name="&lt;Path&gt;" class="cls-4" d="M8.08,14.18A2.4,2.4,0,0,1,8.74,13l0-.05V13l.41,2.25.57-3.15a1.66,1.66,0,0,1-1.18,0l-.7.49a2.59,2.59,0,0,0-.22,1.56.89.89,0,0,1-.23.86A1,1,0,0,0,8.08,14.18Z"/><path id="_Path_9" data-name="&lt;Path&gt;" class="cls-4" d="M12.57,13.84l-1.82-2.62A1.78,1.78,0,0,1,9.9,12l-.15.84a2.57,2.57,0,0,0,.95,1.26.89.89,0,0,1,.44.77,1,1,0,0,0-.12-1,2.48,2.48,0,0,1-.39-1.32V12.5l.06.05Z"/><path id="_Path_10" data-name="&lt;Path&gt;" class="cls-4" d="M10.91,10.49a1.77,1.77,0,0,1-.11.6l.48.7a2.54,2.54,0,0,0,1.56.23l.28,0a.8.8,0,0,1,.58.26.94.94,0,0,0-.79-.63A2.4,2.4,0,0,1,11.7,11l-.06-.05.08,0,2.24-.4-3.15-.58A1.65,1.65,0,0,1,10.91,10.49Z"/><path id="_Path_11" data-name="&lt;Path&gt;" class="cls-4" d="M12.57,7.13,9.94,9a1.64,1.64,0,0,1,.82.84l.84.15A2.63,2.63,0,0,0,12.86,9a.87.87,0,0,1,.77-.45.94.94,0,0,0-1,.12,2.44,2.44,0,0,1-1.33.39h-.07l0-.06Z"/><rect id="_Path_12" data-name="&lt;Path&gt;" class="cls-3" y="21.33" width="32" height="3.56"/></g></svg>