<?xml version="1.0" encoding="utf-8"?>
<!-- Generator: Adobe Illustrator 22.1.0, SVG Export Plug-In . SVG Version: 6.00 Build 0)  -->
<svg version="1.1" id="Layer_1" xmlns="http://www.w3.org/2000/svg" xmlns:xlink="http://www.w3.org/1999/xlink" x="0px" y="0px"
	 viewBox="0 0 616.8 262.1" style="enable-background:new 0 0 616.8 262.1;" xml:space="preserve">
<style type="text/css">
	.st0{fill:#3C3C3C;}
</style>
<g>
	<g>
		<g>
			<g>
				<g>
					<path class="st0" d="M253.2,199.6h11.3c2.9,0,5.1,0.8,6.6,2.2c1.1,1.1,1.7,2.5,1.7,4.2v0.1c0,3-1.7,4.6-3.6,5.6
						c2.9,1,5,2.7,5,6.1v0.1c0,4.5-3.7,6.9-9.3,6.9h-11.6V199.6z M263.6,210.1c2.8,0,4.7-1.1,4.7-3.4v-0.1c0-2-1.6-3.2-4.4-3.2h-6.3
						v6.7H263.6z M264.9,220.8c3,0,4.8-1.2,4.8-3.4v-0.1c0-2.1-1.7-3.4-5.2-3.4h-7v6.9H264.9z"/>
					<path class="st0" d="M288.7,224.7v-2.3c-1.3,1.5-3.3,2.7-6.1,2.7c-3.6,0-6.7-2-6.7-5.8v-0.1c0-4.2,3.3-6.2,7.7-6.2
						c2.3,0,3.8,0.3,5.2,0.8v-0.4c0-2.6-1.6-4-4.7-4c-2.1,0-3.7,0.5-5.4,1.2l-1.2-3.5c2.1-0.9,4.1-1.6,7.2-1.6c5.6,0,8.3,2.9,8.3,8
						v11.2H288.7z M288.8,216.7c-1.1-0.4-2.7-0.8-4.3-0.8c-2.7,0-4.3,1.1-4.3,2.9v0.1c0,1.8,1.6,2.8,3.7,2.8c2.9,0,5-1.6,5-4V216.7z
						"/>
					<path class="st0" d="M296.8,205.7h4.3v2.9c1.2-1.8,3-3.3,5.9-3.3c4.3,0,6.7,2.9,6.7,7.3v12h-4.3v-10.8c0-2.9-1.5-4.6-4.1-4.6
						c-2.5,0-4.3,1.8-4.3,4.7v10.7h-4.3V205.7z"/>
					<path class="st0" d="M316.5,215.3L316.5,215.3c0-5.4,4.2-10,9.8-10c3.6,0,5.8,1.3,7.6,3.3l-2.7,2.9c-1.3-1.4-2.7-2.4-4.9-2.4
						c-3.2,0-5.4,2.7-5.4,6v0.1c0,3.4,2.3,6.1,5.7,6.1c2,0,3.5-1,4.9-2.4l2.6,2.6c-1.9,2.1-4.1,3.5-7.7,3.5
						C320.7,225.1,316.5,220.7,316.5,215.3z"/>
					<path class="st0" d="M335,215.3L335,215.3c0-5.5,4.3-10,10.1-10c5.8,0,10.1,4.4,10.1,9.8v0.1c0,5.4-4.3,9.9-10.1,9.9
						C339.3,225.1,335,220.7,335,215.3z M350.9,215.3L350.9,215.3c0-3.4-2.4-6.2-5.8-6.2c-3.5,0-5.7,2.7-5.7,6v0.1
						c0,3.3,2.4,6.1,5.8,6.1C348.6,221.3,350.9,218.6,350.9,215.3z"/>
					<path class="st0" d="M368.2,199.6h4.4v25.1h-4.4V199.6z"/>
					<path class="st0" d="M377.4,205.7h4.3v2.9c1.2-1.8,3-3.3,5.9-3.3c4.3,0,6.7,2.9,6.7,7.3v12h-4.3v-10.8c0-2.9-1.5-4.6-4.1-4.6
						c-2.5,0-4.3,1.8-4.3,4.7v10.7h-4.3V205.7z"/>
					<path class="st0" d="M399.1,219.4v-10h-2.4v-3.7h2.4v-5.2h4.3v5.2h5.1v3.7h-5.1v9.3c0,1.7,0.9,2.4,2.3,2.4c1,0,1.8-0.2,2.7-0.6
						v3.5c-1.1,0.6-2.3,1-3.9,1C401.4,225,399.1,223.6,399.1,219.4z"/>
					<path class="st0" d="M409.9,215.3L409.9,215.3c0-5.5,3.8-9.9,9.2-9.9c6,0,9.1,4.7,9.1,10.2c0,0.4,0,0.8-0.1,1.2h-13.9
						c0.5,3.1,2.7,4.8,5.4,4.8c2.1,0,3.6-0.8,5.1-2.3l2.5,2.3c-1.8,2.2-4.3,3.5-7.7,3.5C414.1,225.1,409.9,221.1,409.9,215.3z
						 M423.9,213.9c-0.3-2.8-1.9-5-4.8-5c-2.7,0-4.5,2-4.9,5H423.9z"/>
					<path class="st0" d="M431.1,205.7h4.3v4.3c1.2-2.8,3.4-4.8,6.7-4.6v4.6h-0.3c-3.8,0-6.5,2.5-6.5,7.5v7.2h-4.3V205.7z"/>
					<path class="st0" d="M455.2,224.7v-2.3c-1.3,1.5-3.3,2.7-6.1,2.7c-3.6,0-6.7-2-6.7-5.8v-0.1c0-4.2,3.3-6.2,7.7-6.2
						c2.3,0,3.8,0.3,5.2,0.8v-0.4c0-2.6-1.6-4-4.7-4c-2.1,0-3.7,0.5-5.4,1.2L444,207c2.1-0.9,4.1-1.6,7.2-1.6c5.6,0,8.3,2.9,8.3,8
						v11.2H455.2z M455.3,216.7c-1.1-0.4-2.7-0.8-4.3-0.8c-2.7,0-4.3,1.1-4.3,2.9v0.1c0,1.8,1.6,2.8,3.7,2.8c2.9,0,5-1.6,5-4V216.7z
						"/>
					<path class="st0" d="M463.2,205.7h4.3v2.9c1.2-1.7,2.9-3.3,5.8-3.3c2.7,0,4.6,1.3,5.6,3.3c1.5-2,3.5-3.3,6.4-3.3
						c4.1,0,6.6,2.6,6.6,7.2v12.1h-4.3v-10.8c0-3-1.4-4.6-3.8-4.6c-2.4,0-4,1.6-4,4.7v10.7h-4.3v-10.8c0-2.9-1.4-4.6-3.8-4.6
						c-2.4,0-4.1,1.8-4.1,4.7v10.6h-4.3V205.7z"/>
					<path class="st0" d="M494.8,215.3L494.8,215.3c0-5.5,3.8-9.9,9.2-9.9c6,0,9.1,4.7,9.1,10.2c0,0.4,0,0.8-0.1,1.2h-13.9
						c0.5,3.1,2.7,4.8,5.4,4.8c2.1,0,3.6-0.8,5.1-2.3l2.5,2.3c-1.8,2.2-4.3,3.5-7.7,3.5C499,225.1,494.8,221.1,494.8,215.3z
						 M508.8,213.9c-0.3-2.8-1.9-5-4.8-5c-2.7,0-4.5,2-4.9,5H508.8z"/>
					<path class="st0" d="M516.1,205.7h4.3v4.3c1.2-2.8,3.4-4.8,6.7-4.6v4.6h-0.3c-3.8,0-6.5,2.5-6.5,7.5v7.2h-4.3V205.7z"/>
					<path class="st0" d="M529.5,198.7h4.7v4.1h-4.7V198.7z M529.7,205.7h4.3v18.9h-4.3V205.7z"/>
					<path class="st0" d="M537.2,215.3L537.2,215.3c0-5.4,4.2-10,9.8-10c3.6,0,5.8,1.3,7.6,3.3l-2.7,2.9c-1.3-1.4-2.7-2.4-4.9-2.4
						c-3.2,0-5.4,2.7-5.4,6v0.1c0,3.4,2.3,6.1,5.7,6.1c2,0,3.5-1,4.9-2.4l2.6,2.6c-1.9,2.1-4.1,3.5-7.7,3.5
						C541.4,225.1,537.2,220.7,537.2,215.3z"/>
					<path class="st0" d="M568.9,224.7v-2.3c-1.3,1.5-3.3,2.7-6.1,2.7c-3.6,0-6.7-2-6.7-5.8v-0.1c0-4.2,3.3-6.2,7.7-6.2
						c2.3,0,3.8,0.3,5.2,0.8v-0.4c0-2.6-1.6-4-4.7-4c-2.1,0-3.7,0.5-5.4,1.2l-1.2-3.5c2.1-0.9,4.1-1.6,7.2-1.6c5.6,0,8.3,2.9,8.3,8
						v11.2H568.9z M569,216.7c-1.1-0.4-2.7-0.8-4.3-0.8c-2.7,0-4.3,1.1-4.3,2.9v0.1c0,1.8,1.6,2.8,3.7,2.8c2.9,0,5-1.6,5-4V216.7z"
						/>
					<path class="st0" d="M576.9,205.7h4.3v2.9c1.2-1.8,3-3.3,5.9-3.3c4.3,0,6.7,2.9,6.7,7.3v12h-4.3v-10.8c0-2.9-1.5-4.6-4.1-4.6
						c-2.5,0-4.3,1.8-4.3,4.7v10.7h-4.3V205.7z"/>
					<path class="st0" d="M596.6,215.3L596.6,215.3c0-5.5,4.3-10,10.1-10c5.8,0,10.1,4.4,10.1,9.8v0.1c0,5.4-4.3,9.9-10.1,9.9
						C600.9,225.1,596.6,220.7,596.6,215.3z M612.5,215.3L612.5,215.3c0-3.4-2.4-6.2-5.8-6.2c-3.5,0-5.7,2.7-5.7,6v0.1
						c0,3.3,2.4,6.1,5.8,6.1C610.3,221.3,612.5,218.6,612.5,215.3z"/>
					<path class="st0" d="M251.7,252.3L251.7,252.3c0-6.3,4.3-9.9,8.8-9.9c3.1,0,5.1,1.6,6.5,3.3v-10.2h4.3v26.2H267v-3.2
						c-1.4,2-3.4,3.5-6.5,3.5C256.1,262.1,251.7,258.5,251.7,252.3z M267,252.3L267,252.3c0-3.7-2.6-6.1-5.5-6.1
						c-3,0-5.4,2.3-5.4,6.1v0.1c0,3.7,2.5,6.1,5.4,6.1C264.5,258.3,267,255.9,267,252.3z"/>
					<path class="st0" d="M274.3,252.3L274.3,252.3c0-5.5,3.8-9.9,9.2-9.9c6,0,9.1,4.7,9.1,10.2c0,0.4,0,0.8-0.1,1.2h-13.9
						c0.5,3.1,2.7,4.8,5.4,4.8c2.1,0,3.6-0.8,5.1-2.3l2.5,2.3c-1.8,2.2-4.3,3.5-7.7,3.5C278.5,262.1,274.3,258.1,274.3,252.3z
						 M288.3,250.9c-0.3-2.8-1.9-5-4.8-5c-2.7,0-4.5,2-4.9,5H288.3z"/>
					<path class="st0" d="M305.3,236.6h9.4c7.9,0,13.3,5.4,13.3,12.5v0.1c0,7.1-5.4,12.5-13.3,12.5h-9.4V236.6z M314.7,257.7
						c5.3,0,8.7-3.5,8.7-8.5v-0.1c0-4.9-3.4-8.5-8.7-8.5h-4.9v17.1H314.7z"/>
					<path class="st0" d="M330.4,252.3L330.4,252.3c0-5.5,3.8-9.9,9.2-9.9c6,0,9.1,4.7,9.1,10.2c0,0.4,0,0.8-0.1,1.2h-13.9
						c0.5,3.1,2.7,4.8,5.4,4.8c2.1,0,3.6-0.8,5.1-2.3l2.5,2.3c-1.8,2.2-4.3,3.5-7.7,3.5C334.6,262.1,330.4,258.1,330.4,252.3z
						 M344.4,250.9c-0.3-2.8-1.9-5-4.8-5c-2.7,0-4.5,2-4.9,5H344.4z"/>
					<path class="st0" d="M350.1,259.2l1.9-2.9c2,1.5,4.3,2.3,6.2,2.3c1.9,0,2.9-0.8,2.9-2v-0.1c0-1.5-2-2-4.2-2.7
						c-2.8-0.8-5.9-1.9-5.9-5.6v-0.1c0-3.6,3-5.8,6.7-5.8c2.4,0,4.9,0.8,7,2.2l-1.7,3.1c-1.8-1.1-3.8-1.8-5.3-1.8
						c-1.7,0-2.7,0.8-2.7,1.9v0.1c0,1.4,2,1.9,4.3,2.7c2.8,0.9,5.9,2.1,5.9,5.5v0.1c0,4-3.1,5.9-7,5.9
						C355.4,262,352.5,261.1,350.1,259.2z"/>
					<path class="st0" d="M379.7,261.7v-2.3c-1.3,1.5-3.3,2.7-6.1,2.7c-3.6,0-6.7-2-6.7-5.8v-0.1c0-4.2,3.3-6.2,7.7-6.2
						c2.3,0,3.8,0.3,5.2,0.8v-0.4c0-2.6-1.6-4.1-4.7-4.1c-2.1,0-3.7,0.5-5.4,1.2l-1.2-3.5c2.1-0.9,4.1-1.6,7.2-1.6
						c5.6,0,8.3,2.9,8.3,8v11.2H379.7z M379.8,253.8c-1.1-0.4-2.7-0.8-4.3-0.8c-2.7,0-4.3,1.1-4.3,2.9v0.1c0,1.8,1.6,2.8,3.7,2.8
						c2.9,0,5-1.6,5-4V253.8z"/>
					<path class="st0" d="M387.7,242.8h4.3v4.3c1.2-2.8,3.4-4.8,6.7-4.6v4.6h-0.3c-3.8,0-6.5,2.5-6.5,7.5v7.2h-4.3V242.8z"/>
					<path class="st0" d="M401.1,242.8h4.3v4.3c1.2-2.8,3.4-4.8,6.7-4.6v4.6h-0.3c-3.8,0-6.5,2.5-6.5,7.5v7.2h-4.3V242.8z"/>
					<path class="st0" d="M412.8,252.3L412.8,252.3c0-5.5,4.3-10,10.1-10c5.8,0,10.1,4.4,10.1,9.8v0.1c0,5.4-4.3,9.9-10.1,9.9
						C417.1,262.1,412.8,257.7,412.8,252.3z M428.6,252.3L428.6,252.3c0-3.4-2.4-6.2-5.8-6.2c-3.5,0-5.7,2.7-5.7,6v0.1
						c0,3.3,2.4,6.1,5.8,6.1C426.4,258.3,428.6,255.6,428.6,252.3z"/>
					<path class="st0" d="M436.2,235.5h4.3v26.2h-4.3V235.5z"/>
					<path class="st0" d="M445,235.5h4.3v26.2H445V235.5z"/>
					<path class="st0" d="M452.5,252.3L452.5,252.3c0-5.5,4.3-10,10.1-10c5.8,0,10.1,4.4,10.1,9.8v0.1c0,5.4-4.3,9.9-10.1,9.9
						C456.8,262.1,452.5,257.7,452.5,252.3z M468.4,252.3L468.4,252.3c0-3.4-2.4-6.2-5.8-6.2c-3.5,0-5.7,2.7-5.7,6v0.1
						c0,3.3,2.4,6.1,5.8,6.1C466.2,258.3,468.4,255.6,468.4,252.3z"/>
				</g>
			</g>
		</g>
	</g>
	<path class="st0" d="M346.5,95.8c9.9-6.7,14.8-15.9,14.8-27.9v-0.4c0-9.5-3.1-17.3-9.6-23.7c-8-8-20.3-12.2-35.7-12.2h-62.8l0,135
		h64.3c32.4,0,51-13.8,51-37.9v-0.4C368.6,112.8,361.7,102.7,346.5,95.8z M317.5,137.3h-32.2v-24.7h31.2c12.8,0,19.3,4.1,19.3,12.1
		v0.4C335.9,133.2,329.7,137.3,317.5,137.3z M285.4,84.6V61.1h26.4c7.7,0,16.8,2,16.8,11.4v0.4c0,7.8-6.3,11.8-18.7,11.8H285.4z"/>
	<path class="st0" d="M476.7,31.7h-53.1l0,135l53.1,0c20.2,0,38.5-6.9,51.6-19.5c12.9-12.4,20-29.4,20-48v-0.4
		C548.2,59.9,518.1,31.7,476.7,31.7z M514,99.2v0.4c0,22.1-15,37-37.4,37h-20.2V61.8h20.2C499,61.8,514,76.8,514,99.2z"/>
	<path class="st0" d="M394.1,31.5c9.1,0,16.5,7.4,16.5,16.4v118.7h-32.9V31.5L394.1,31.5z"/>
</g>
<path class="st0" d="M115.9,119.6c-17.4,28.2,38.5,28.6,12.6,81.2c-0.8,0.1-1.5,0.3-2.3,0.4C66,210.1,10,168.4,1.2,108.1
	c-4.2-28.6,3-56.2,18.1-78.3C16.5,93.4,132.2,93.3,115.9,119.6 M140.6,198.1c6-11.1,18.9-27.2,46.6-59.8
	c41.5-48.7-81.4-32.4-102.5-69.2C67.5,38.7,132,16.9,171,0c25.3,16.7,43.7,43.7,48.5,76.1C227.6,131.5,193,183.2,140.6,198.1z
	 M104.2,59c-4.1,2.2,3.3,11.8,22.2,12.3C145.3,71.9,120.9,50.3,104.2,59z M146,69.3c-14.2-4.6-4.9,6.8,1.9,7.5
	C154.6,77.6,156.1,72.6,146,69.3z M160.8,80.4c-4.7-0.2-5.6,2.7,1.5,4.2C172.3,86.7,165.5,80.6,160.8,80.4z"/>
</svg>
