<?xml version="1.0" encoding="utf-8"?>
<!-- Generator: Adobe Illustrator 22.1.0, SVG Export Plug-In . SVG Version: 6.00 Build 0)  -->
<svg version="1.1" id="Layer_1" xmlns="http://www.w3.org/2000/svg" xmlns:xlink="http://www.w3.org/1999/xlink" x="0px" y="0px"
	 viewBox="0 0 528.7 100.9" style="enable-background:new 0 0 528.7 100.9;" xml:space="preserve">
<style type="text/css">
	.st0{fill:#0D647F;}
	.st1{fill:#EA212D;}
</style>
<g>
	<g>
		<path d="M0,0.4h6l6.6,10.7l6.6-10.7h6v25.2h-5.5V9.2l-7.1,10.8h-0.1l-7-10.7v16.3H0V0.4z"/>
		<path d="M30.9,14.8V0.4h5.5v14.3c0,4.1,2.1,6.2,5.4,6.2c3.4,0,5.4-2.1,5.4-6V0.4h5.5v14.2c0,7.6-4.3,11.4-11.1,11.4
			C35,26,30.9,22.2,30.9,14.8z"/>
		<path d="M58.5,0.4h5.1l11.8,15.5V0.4h5.5v25.2h-4.7l-12.2-16v16h-5.5V0.4z"/>
		<path d="M86.9,0.4h9.8c7.9,0,13.4,5.4,13.4,12.5V13c0,7.1-5.5,12.6-13.4,12.6h-9.8V0.4z M92.5,5.4v15.2h4.3c4.5,0,7.6-3.1,7.6-7.5
			V13c0-4.5-3.1-7.6-7.6-7.6H92.5z"/>
		<path d="M115.3,0.4h5.5v25.2h-5.5V0.4z"/>
		<path d="M135.8,0.3h5.1l10.8,25.4h-5.8l-2.3-5.7H133l-2.3,5.7H125L135.8,0.3z M141.6,15.1l-3.3-8.2l-3.3,8.2H141.6z"/>
		<path d="M155.6,0.4h5.5v20.2h12.6v5h-18.1V0.4z"/>
		<path d="M188.7,0.4h9.8c7.9,0,13.4,5.4,13.4,12.5V13c0,7.1-5.5,12.6-13.4,12.6h-9.8V0.4z M194.2,5.4v15.2h4.3
			c4.5,0,7.6-3.1,7.6-7.5V13c0-4.5-3.1-7.6-7.6-7.6H194.2z"/>
		<path d="M216.8,0.4h19v4.9h-13.5v5.1h11.9v4.9h-11.9v5.3H236v4.9h-19.2V0.4z"/>
		<path d="M241,0.4h5.5v20.2h12.6v5H241V0.4z"/>
		<path d="M274,0.4h9.8c7.9,0,13.4,5.4,13.4,12.5V13c0,7.1-5.5,12.6-13.4,12.6H274V0.4z M279.6,5.4v15.2h4.3c4.5,0,7.6-3.1,7.6-7.5
			V13c0-4.5-3.1-7.6-7.6-7.6H279.6z"/>
		<path d="M302.2,0.4h19v4.9h-13.5v5.1h11.9v4.9h-11.9v5.3h13.7v4.9h-19.2V0.4z"/>
		<path d="M324.6,22l3.3-3.9c2.3,1.9,4.6,3.1,7.5,3.1c2.3,0,3.6-0.9,3.6-2.4v-0.1c0-1.4-0.9-2.1-5.1-3.2c-5.1-1.3-8.4-2.7-8.4-7.7
			V7.7c0-4.6,3.7-7.6,8.8-7.6c3.7,0,6.8,1.2,9.4,3.2l-2.9,4.2c-2.2-1.5-4.4-2.5-6.6-2.5s-3.2,1-3.2,2.2v0.1c0,1.7,1.1,2.2,5.4,3.3
			c5.1,1.3,8,3.2,8,7.6v0.1c0,5-3.8,7.8-9.3,7.8C331.5,26,327.6,24.7,324.6,22z"/>
		<path d="M357.5,0.3h5.1l10.8,25.4h-5.8l-2.3-5.7h-10.7l-2.3,5.7h-5.7L357.5,0.3z M363.3,15.1l-3.3-8.2l-3.3,8.2H363.3z"/>
		<path d="M377.3,0.4h11.5c3.2,0,5.7,0.9,7.3,2.6c1.4,1.4,2.2,3.4,2.2,5.8v0.1c0,4.1-2.2,6.6-5.4,7.8l6.2,9h-6.5l-5.4-8.1h-4.4v8.1
			h-5.5V0.4z M388.4,12.7c2.7,0,4.2-1.4,4.2-3.6V9c0-2.4-1.7-3.6-4.4-3.6h-5.5v7.2H388.4z"/>
		<path d="M403.3,0.4h11.5c3.2,0,5.7,0.9,7.3,2.6c1.4,1.4,2.2,3.4,2.2,5.8v0.1c0,4.1-2.2,6.6-5.4,7.8l6.2,9h-6.5l-5.4-8.1h-4.4v8.1
			h-5.5V0.4z M414.4,12.7c2.7,0,4.2-1.4,4.2-3.6V9c0-2.4-1.7-3.6-4.4-3.6h-5.5v7.2H414.4z"/>
		<path d="M428.2,13.1L428.2,13.1c0-7.2,5.7-13.1,13.4-13.1c7.8,0,13.4,5.8,13.4,13V13c0,7.2-5.7,13-13.4,13
			C433.8,26.1,428.2,20.3,428.2,13.1z M449.2,13.1L449.2,13.1c0-4.4-3.2-8-7.6-8c-4.5,0-7.6,3.5-7.6,7.8V13c0,4.3,3.2,7.9,7.6,7.9
			C446.1,20.9,449.2,17.4,449.2,13.1z"/>
		<path d="M459.9,0.4h5.5v20.2H478v5h-18.1V0.4z"/>
		<path d="M482.2,0.4h5.5v20.2h12.6v5h-18.1V0.4z"/>
		<path d="M501.9,13.1L501.9,13.1c0-7.2,5.7-13.1,13.4-13.1c7.8,0,13.4,5.8,13.4,13V13c0,7.2-5.7,13-13.4,13S501.9,20.3,501.9,13.1z
			 M522.9,13.1L522.9,13.1c0-4.4-3.2-8-7.6-8c-4.5,0-7.6,3.5-7.6,7.8V13c0,4.3,3.2,7.9,7.6,7.9C519.8,20.9,522.9,17.4,522.9,13.1z"
			/>
	</g>
	<g>
		<path class="st0" d="M0,34.7h30.9c1.8,0,3.2,0,4.4,0c1.1,0,2.6,0.1,4.5,0.2c1.8,0.1,3.4,0.2,4.6,0.4c1.2,0.2,2.6,0.5,4.3,0.9
			c1.6,0.4,3,0.9,4,1.4c1.1,0.5,2.2,1.2,3.3,2.1c1.1,0.8,2.1,1.8,2.7,2.8c0.7,1,1.2,2.3,1.6,3.7c0.4,1.5,0.6,3.1,0.6,4.8
			c0,3.8-1.5,7.5-4.5,11.2c-3,3.7-7.8,7.5-14.4,11.4l21.5,26.3H46.8L30,79.6c-2.9,1.7-6.6,3.6-11,5.7v-9.4
			C37.2,66.5,46.3,58.2,46.3,51c0-6.7-5.1-10-15.3-10H13.7v58.9H0V34.7z"/>
		<path class="st0" d="M67.3,75.5c0-2.9,0.6-7.7,1.7-14.5c1.1-6.8,2.3-12.9,3.4-18.2l1.7-8.1h10.5C82.9,55.3,82,69.5,82,77.2
			c0,2.5,0.3,4.8,0.8,6.9c0.6,2.1,1.4,4,2.6,5.7c1.2,1.7,2.9,3,5.1,4c2.2,0.9,4.7,1.4,7.7,1.4s5.5-0.5,7.7-1.4
			c2.2-0.9,3.9-2.3,5.1-4c1.2-1.7,2.1-3.6,2.7-5.7c0.6-2.1,0.8-4.4,0.8-6.9c0-3.4-0.2-8.7-0.7-15.8c-0.4-7.1-0.9-13.3-1.3-18.7
			l-0.7-8.1h10.5c0.5,2.3,1.1,5.3,1.9,8.9c0.8,3.6,1.8,9.1,3,16.5c1.3,7.4,1.9,12.5,1.9,15.4c0,4.7-0.7,8.7-2.1,12
			c-1.4,3.3-3.5,5.9-6.3,7.9c-2.8,1.9-6,3.3-9.7,4.2c-3.7,0.9-8,1.3-13,1.3c-5,0-9.3-0.4-13-1.3c-3.7-0.9-6.9-2.3-9.7-4.2
			c-2.8-1.9-4.9-4.6-6.3-7.9C68,84.2,67.3,80.2,67.3,75.5z"/>
		<path class="st0" d="M134,91l3.3-5.9c0.3,0.2,0.7,0.6,1.2,1c0.5,0.4,1.6,1.1,3.4,2.2c1.7,1,3.6,2,5.4,2.7c1.9,0.8,4.3,1.5,7.2,2.2
			c2.9,0.6,5.9,1,8.9,1c4.4,0,7.8-0.8,10.2-2.4c2.4-1.6,3.6-3.8,3.6-6.4c0-2.9-1.1-5.2-3.3-6.8c-2.2-1.6-7.1-4-14.7-7.3
			c-1.9-0.8-3.6-1.6-5-2.3c-1.4-0.7-3-1.5-4.7-2.5c-1.7-1-3.2-2-4.4-3c-1.2-1-2.4-2.1-3.4-3.4c-1.1-1.2-1.9-2.6-2.4-4.1
			c-0.5-1.5-0.8-3-0.8-4.6c0-5.4,2.2-9.7,6.5-12.9c4.3-3.2,10.4-4.8,18.2-4.8c9,0,17.2,2.8,24.6,8.4l-3.3,6c-3-2.1-6.4-3.9-10.2-5.4
			c-3.8-1.5-7.7-2.2-11.7-2.2c-2.9,0-5.2,0.6-6.9,1.8c-1.6,1.2-2.5,3.1-2.5,5.5c0,2.2,1.2,4.2,3.5,6.2c2.3,1.9,6.4,4,12.4,6.2
			c8.2,3.1,14.1,6.2,17.7,9.3c3.6,3.1,5.4,7.1,5.4,11.9c0,2.6-0.6,5.1-1.7,7.4c-1.1,2.3-2.8,4.4-5,6.2c-2.2,1.8-5.1,3.3-8.7,4.3
			s-7.6,1.6-12.2,1.6c-3.6,0-7.1-0.3-10.5-1c-3.4-0.7-6.3-1.5-8.5-2.5c-2.3-1-4.3-1.9-6.1-2.9c-1.8-1-3.1-1.8-3.9-2.5L134,91z"/>
		<path class="st0" d="M199.7,99.9V34.7h13.7v65.2H199.7z"/>
		<path class="st0" d="M219.7,90.5c0-3.2,1-7.3,2.9-12c1.9-4.8,4.3-9.4,7.1-14c2.8-4.5,5.7-9,8.9-13.5c3.2-4.4,5.9-8.1,8.1-10.9
			s4-4.8,5.1-6h13.1c2.6,9.3,6.4,20.3,11.5,33.1c5.1,12.8,9.8,23.7,14.2,32.6h-14.7c-5.7-10.6-13.5-30-23.2-58.1
			c-0.5,0.8-1.1,1.9-1.9,3.2c-0.8,1.4-2.3,4-4.4,7.7c-2.1,3.8-4,7.3-5.6,10.6c-1.6,3.3-3.1,6.8-4.4,10.5c-1.3,3.7-2,6.7-2,8.9
			c0,3.6,1.9,5.4,5.7,5.4c2.8,0,6.2-0.9,10.2-2.8c3.9-1.8,7.3-4,10.2-6.3l3.2,6.2c-2.7,1.9-5.1,3.6-7.1,4.9c-2,1.3-4.6,2.9-7.7,4.7
			c-3.1,1.8-6.2,3.2-9.3,4.1s-5.9,1.4-8.5,1.4c-3.6,0-6.4-0.8-8.4-2.4C220.7,96.4,219.7,93.9,219.7,90.5z"/>
		<path class="st1" d="M315.8,99.9v-6.3c6.2-3.6,11.6-7.1,16.2-10.4c4.6-3.3,8.3-6.2,11.1-8.8c2.8-2.6,5-5.1,6.7-7.6
			c1.7-2.5,2.8-4.7,3.4-6.6c0.6-1.9,0.9-3.9,0.9-5.9c0-4.3-1.2-7.6-3.7-10.1c-2.5-2.5-6-3.7-10.6-3.7c-4.5,0-8.2,1.3-11,3.8
			c-2.8,2.5-4.2,5.5-4.2,9c0,1.9,0.5,3.7,1.5,5.7c0,0.1-0.3,0.3-1.1,0.7c-0.8,0.4-1.5,0.8-2.3,1.1l-1.2,0.5
			c-0.2-0.3-0.5-0.6-0.7-1.1c-0.3-0.5-0.7-1.4-1.2-2.9c-0.5-1.5-0.7-3-0.7-4.5c0-3.6,1.1-6.8,3.4-9.7c2.2-2.9,5.3-5.2,9.1-6.9
			c3.8-1.6,8.1-2.5,12.7-2.5c7.3,0,13.3,2,17.9,6c4.6,4,7,9,7,15.1c0,3.2-0.7,6.3-2,9.2c-1.3,2.9-2.8,5.3-4.3,7.3
			c-1.6,2-4.1,4.2-7.6,6.7c-3.5,2.5-6.4,4.4-8.5,5.6c-2.1,1.2-5.6,3.2-10.3,5.8c-0.8,0.4-1.4,0.8-1.8,1h36.7v9.4H315.8z"/>
		<path class="st1" d="M376.7,70.7c0-3.6,0.4-7.1,1.1-10.5c0.7-3.4,1.9-6.8,3.5-10c1.6-3.2,3.6-6.1,6-8.5c2.3-2.4,5.3-4.3,8.8-5.8
			c3.5-1.5,7.4-2.2,11.7-2.2c4.3,0,8.2,0.7,11.7,2.2c3.5,1.5,6.4,3.4,8.8,5.8c2.3,2.4,4.3,5.2,6,8.5c1.6,3.2,2.8,6.6,3.5,10
			c0.7,3.4,1.1,7,1.1,10.5c0,4.6-0.6,8.7-1.8,12.3c-1.2,3.6-2.7,6.5-4.7,8.7c-1.9,2.2-4.3,4-7,5.4c-2.7,1.4-5.5,2.4-8.4,3
			c-2.8,0.5-5.9,0.8-9.2,0.8s-6.3-0.3-9.2-0.8c-2.8-0.5-5.6-1.5-8.4-3c-2.7-1.4-5.1-3.2-7-5.4c-1.9-2.2-3.5-5.1-4.7-8.7
			C377.3,79.4,376.7,75.3,376.7,70.7z M391.5,72.1c0,7.6,1.4,13.4,4.2,17.5c2.8,4,6.8,6,12,6c5.2,0,9.2-2,12.1-6
			c2.8-4,4.3-9.9,4.3-17.5c0-4.3-0.3-8.3-0.8-12c-0.5-3.7-1.4-7.2-2.6-10.5c-1.2-3.3-2.9-5.9-5.1-7.8c-2.2-1.9-4.8-2.9-7.8-2.9
			c-3,0-5.6,1-7.8,2.9c-2.2,1.9-3.9,4.5-5.1,7.8c-1.2,3.3-2,6.8-2.6,10.5C391.7,63.9,391.5,67.9,391.5,72.1z"/>
		<path class="st1" d="M442.9,44.2v-4.7c3.1-0.4,5.6-0.8,7.6-1.3c1.9-0.5,3.4-1,4.3-1.4c0.9-0.4,2.5-1.3,4.7-2.6h5v65.8h-13.6V49.7
			c0-1.8-0.5-3.2-1.6-4.1c-1-1-2.5-1.4-4.2-1.4H442.9z"/>
		<path class="st1" d="M473,81.7c0-1.8,0.3-3.6,0.9-5.1c0.6-1.6,1.4-2.9,2.3-4c0.9-1.1,2-2.1,3.3-2.9c1.3-0.9,2.5-1.6,3.6-2.1
			c1.1-0.5,2.3-0.9,3.6-1.3c1.3-0.4,2.3-0.6,2.9-0.8c0.6-0.1,1.2-0.2,1.8-0.3c-0.7-0.1-1.4-0.3-2.3-0.6c-0.9-0.3-2-0.8-3.3-1.5
			c-1.3-0.7-2.5-1.6-3.6-2.6c-1.1-1-2-2.3-2.7-4c-0.8-1.7-1.2-3.5-1.2-5.5c0-3,0.7-5.7,2-8c1.3-2.3,3.1-4.1,5.3-5.4
			c2.2-1.3,4.6-2.3,7.2-2.9c2.6-0.7,5.2-1,8-1c2.2,0,4.3,0.2,6.4,0.6c2.1,0.4,4.1,1,6.1,1.9c2,0.9,3.7,2,5.2,3.3
			c1.5,1.3,2.7,2.9,3.6,4.9c0.9,2,1.3,4.2,1.3,6.6c0,2-0.4,3.8-1.2,5.5c-0.8,1.7-1.7,3-2.7,4c-1.1,1-2.2,1.9-3.6,2.6
			c-1.3,0.7-2.4,1.2-3.3,1.5c-0.9,0.3-1.7,0.5-2.3,0.6c0.6,0.1,1.3,0.2,1.8,0.3c0.6,0.1,1.5,0.4,2.9,0.8c1.3,0.4,2.5,0.8,3.6,1.3
			c1.1,0.5,2.3,1.2,3.6,2.1c1.3,0.9,2.4,1.9,3.3,2.9c0.9,1.1,1.6,2.4,2.3,4c0.6,1.6,0.9,3.3,0.9,5.1c0,2.3-0.4,4.4-1.1,6.3
			c-0.7,1.9-1.7,3.5-2.8,4.8c-1.2,1.3-2.6,2.4-4.2,3.4c-1.6,1-3.3,1.8-4.9,2.4c-1.7,0.6-3.4,1.1-5.3,1.4c-1.9,0.4-3.6,0.6-5.1,0.7
			c-1.5,0.1-3,0.2-4.5,0.2c-1.5,0-3-0.1-4.5-0.2c-1.5-0.1-3.2-0.4-5.1-0.7c-1.9-0.4-3.7-0.8-5.3-1.4c-1.7-0.6-3.3-1.4-4.9-2.4
			c-1.6-1-3-2.1-4.2-3.4c-1.2-1.3-2.1-2.9-2.8-4.8C473.4,86.1,473,84,473,81.7z M487.7,82.5c0,8.7,4.4,13.1,13.1,13.1
			c8.8,0,13.1-4.4,13.1-13.1c0-0.8-0.1-1.8-0.3-2.8c-0.2-1.1-0.5-2.3-1.1-3.6c-0.5-1.3-1.2-2.6-2-3.7c-0.8-1.1-1.9-2.1-3.2-3
			c-1.4-0.9-2.9-1.4-4.6-1.7v-5c2.4-0.5,4.4-1.7,6-3.7c1.6-2,2.4-4.8,2.4-8.5c0-2-0.3-3.7-0.8-5.2c-0.5-1.5-1.1-2.6-1.8-3.4
			c-0.7-0.8-1.6-1.4-2.6-1.9c-1-0.5-1.9-0.8-2.7-0.9c-0.8-0.1-1.6-0.2-2.5-0.2c-0.9,0-1.7,0.1-2.5,0.2c-0.8,0.1-1.7,0.4-2.7,0.9
			c-1,0.5-1.9,1.1-2.6,1.9c-0.7,0.8-1.3,1.9-1.8,3.4c-0.5,1.5-0.7,3.2-0.7,5.2c0,3.7,0.8,6.6,2.4,8.5c1.6,2,3.6,3.2,6,3.7v5
			c-2.1,0.3-3.9,1-5.5,2.3c-1.6,1.2-2.7,2.7-3.5,4.3c-0.8,1.6-1.3,3.2-1.7,4.6C487.9,80.2,487.7,81.5,487.7,82.5z"/>
	</g>
</g>
</svg>
