<svg id="Layer_1" data-name="Layer 1" xmlns="http://www.w3.org/2000/svg" viewBox="0 0 32 32"><defs><style>.cls-1{fill:#74acdf;}.cls-1,.cls-2{fill-rule:evenodd;}.cls-2{fill:#fff;}.cls-3{fill:#f6b40e;}</style></defs><title>Argentina</title><path id="_Path_" data-name="&lt;Path&gt;" class="cls-1" d="M1,21.43h30.1a16,16,0,0,1-30.1,0Z"/><path id="_Path_2" data-name="&lt;Path&gt;" class="cls-1" d="M1,10.57h30.1a16,16,0,0,0-30.1,0Z"/><path id="_Path_3" data-name="&lt;Path&gt;" class="cls-2" d="M31.05,21.43H1A16,16,0,0,1,1,10.57h30.1a16,16,0,0,1,0,10.86Z"/><path id="_Path_4" data-name="&lt;Path&gt;" class="cls-3" d="M16,20.65a.13.13,0,0,1,0-.11s0-.37,0-.77,0-.81,0-.93,0-.34,0-.49,0-.3,0-.33V18l0,.06a.93.93,0,0,0-.06.39,1.24,1.24,0,0,1-.19.69,1.76,1.76,0,0,0-.16.4.87.87,0,0,0,0,.36,1.08,1.08,0,0,1,0,.26.62.62,0,0,1-.22.4c-.07,0-.16,0-.17,0s0,0,0-.1a.31.31,0,0,0,.09-.19,1.09,1.09,0,0,0,0-.4,1.36,1.36,0,0,1,0-.21,1.09,1.09,0,0,1,.13-.5,1.52,1.52,0,0,0,.19-.91v-.24l0,0-.91,1.95a2.68,2.68,0,0,1-.17.33.09.09,0,0,1-.14,0,.12.12,0,0,1,0-.07,4,4,0,0,1,.27-.74L15,17.86a1,1,0,0,0,.05-.12,1.74,1.74,0,0,0-.16.18l-.08.16a1.3,1.3,0,0,1-.48.62A1.49,1.49,0,0,0,14,19a.76.76,0,0,0-.13.3.9.9,0,0,1-.16.31c-.14.17-.35.26-.43.16a.06.06,0,0,1,0-.08l.08-.05c.13-.07.21-.21.28-.5a1,1,0,0,1,.13-.32,1.18,1.18,0,0,1,.27-.31,1.78,1.78,0,0,0,.29-.3,2.88,2.88,0,0,0,.21-.43l.08-.18a.28.28,0,0,0,0-.06s-.16.13-.34.3l-.95.86c-.33.31-.62.56-.64.57a.1.1,0,0,1-.15-.05c0-.06-.09,0,1.65-1.78a1.44,1.44,0,0,0,.19-.21l-.11.06a.86.86,0,0,0-.22.15,1.33,1.33,0,0,1-.44.32l-.25.09A1.94,1.94,0,0,0,13,18a1,1,0,0,0-.24.22,1.13,1.13,0,0,1-.18.19.67.67,0,0,1-.39.14.19.19,0,0,1-.17-.06s0-.06,0-.09,0,0,.08,0,.3-.11.49-.36l.14-.17A1.21,1.21,0,0,1,13,17.7l.34-.14.13,0a2.13,2.13,0,0,0,.46-.37l.19-.17,0,0-.22.08-2,.72a1,1,0,0,1-.32.09.09.09,0,0,1-.07-.08c0-.06,0-.09.18-.15l.5-.22.82-.36,1-.43s0,0,0,0a.83.83,0,0,0-.29.06,1.43,1.43,0,0,1-.79.13,1.52,1.52,0,0,0-.44,0,1,1,0,0,0-.32.09.81.81,0,0,1-.49.16.42.42,0,0,1-.18,0c-.11,0-.16-.08-.16-.15s0-.07.06-.07l.08,0a.21.21,0,0,0,.14,0,1,1,0,0,0,.47-.18,1,1,0,0,1,.33-.14,2,2,0,0,1,.4,0,1.35,1.35,0,0,0,.52,0l.35-.13.18-.07.07,0s0,0,0,0l-2.21-.07c-.39,0-.41,0-.44-.06s0-.11,0-.13l1.35-.06,1.34,0a.77.77,0,0,0-.22-.07h-.17a2.13,2.13,0,0,1-.37,0,2.22,2.22,0,0,1-.41-.16,1.29,1.29,0,0,0-.43-.16.9.9,0,0,0-.37,0,.75.75,0,0,1-.47-.08c-.16-.08-.24-.21-.17-.28s.06,0,.12,0a.46.46,0,0,0,.32.11l.27,0a1.15,1.15,0,0,1,.41,0,1.53,1.53,0,0,1,.42.15,1.56,1.56,0,0,0,.81.15H14l-1.46-.65-.32-.14-.39-.18c-.23-.09-.25-.11-.26-.17s0-.1.11-.09.29.1.62.22l1.23.44.66.24s0,0,0,0L14,14.93l-.17-.08a1.38,1.38,0,0,1-.63-.45,1.41,1.41,0,0,0-.29-.28,1.16,1.16,0,0,0-.37-.18.78.78,0,0,1-.33-.16.43.43,0,0,1-.19-.35s0-.07.07-.07.06,0,.09.08a.34.34,0,0,0,.08.09.86.86,0,0,0,.45.2,1.13,1.13,0,0,1,.67.42,2.24,2.24,0,0,0,.26.23,3,3,0,0,0,.44.21l.21.09.06,0s0,0-.83-.87l-.73-.76a2.6,2.6,0,0,1-.23-.25.09.09,0,0,1,0-.1,0,0,0,0,1,.05,0c.07,0,0,0,.5.4l.88.8.65.58a.91.91,0,0,0-.09-.18.92.92,0,0,0-.15-.16,1.28,1.28,0,0,1-.38-.63,1.35,1.35,0,0,0-.21-.45.91.91,0,0,0-.22-.22.74.74,0,0,1-.25-.29.46.46,0,0,1-.05-.35.12.12,0,0,1,.1-.07s.06,0,.07.1a.24.24,0,0,0,.05.16,1,1,0,0,0,.37.35,1,1,0,0,1,.32.4,1.37,1.37,0,0,1,.09.2,1.51,1.51,0,0,0,.15.33,3,3,0,0,0,.3.33l.16.15.07.07L15,14l-.23-.59c-.09-.23-.26-.68-.39-1l-.23-.62a.12.12,0,0,1,0-.12.1.1,0,0,1,.14,0s.1.19.2.4L15,13.32l.37.78a.82.82,0,0,0,0-.21s0-.12-.08-.21a1.21,1.21,0,0,1-.1-.73,2,2,0,0,0,0-.45,1,1,0,0,0-.12-.31.73.73,0,0,1-.13-.42.43.43,0,0,1,.09-.29c.06-.05.12-.05.15,0s0,0,0,.06,0,.14,0,.2a1,1,0,0,0,.17.41.69.69,0,0,1,.14.27,1.35,1.35,0,0,1,0,.52v.3l0,.13a2.45,2.45,0,0,0,.13.34l.07.16c0,.06.05.11.05.1s0-.19,0-.41,0-.71,0-1.09,0-.75,0-.84a1.8,1.8,0,0,1,0-.2c0-.09.13-.12.17,0a4,4,0,0,1,.05.82c0,.15,0,.47,0,.71s0,.58,0,.75,0,.31,0,.33,0,0,0-.07a1,1,0,0,0,.05-.38,1.35,1.35,0,0,1,.06-.38l.13-.29a1.38,1.38,0,0,0,.18-.48.6.6,0,0,0,0-.27.92.92,0,0,1,0-.16.64.64,0,0,1,.23-.49c.07,0,.16,0,.17,0s0,.06,0,.11a.46.46,0,0,0-.1.37,1.5,1.5,0,0,0,0,.22.84.84,0,0,1,0,.35,1.47,1.47,0,0,1-.14.4,1.38,1.38,0,0,0-.17.8v.31l0,0,.4-.86.49-1.06c.19-.4.2-.41.27-.41s.08,0,.08.08a3.73,3.73,0,0,1-.25.71c-.14.37-.28.72-.3.77l-.38,1,0,0a1.07,1.07,0,0,0,.19-.28,1.37,1.37,0,0,1,.46-.62,1.15,1.15,0,0,0,.47-.62.88.88,0,0,1,.11-.27.58.58,0,0,1,.38-.26.11.11,0,0,1,.1,0s0,.08-.07.12a.42.42,0,0,0-.19.22.75.75,0,0,0-.1.28.86.86,0,0,1-.12.31,1.41,1.41,0,0,1-.35.39,1.14,1.14,0,0,0-.24.27,2.12,2.12,0,0,0-.18.37l-.08.18,0,.09.35-.31.69-.63L19,13a2.63,2.63,0,0,1,.29-.24s.09,0,.12,0a.08.08,0,0,1,0,.1s-.33.37-.92,1-.91.94-.9.94l.21-.11.15-.12a1.31,1.31,0,0,1,.66-.38,1.62,1.62,0,0,0,.43-.19.8.8,0,0,0,.24-.22.69.69,0,0,1,.14-.15.66.66,0,0,1,.41-.16c.08,0,.12,0,.15.05a.08.08,0,0,1,0,.1l-.09,0c-.18,0-.3.11-.49.35a.83.83,0,0,1-.28.28,1.5,1.5,0,0,1-.43.19,1.25,1.25,0,0,0-.35.18l-.29.26-.18.18,0,0,.22-.08,2.16-.78c.1,0,.16,0,.19,0a.09.09,0,0,1,0,.14l-.59.27-.86.38-.61.27-.35.16s0,0,.05,0a1.39,1.39,0,0,0,.36-.08,1.3,1.3,0,0,1,.73-.11,2,2,0,0,0,.51,0l.28-.1a1.34,1.34,0,0,1,.25-.12.82.82,0,0,1,.35,0c.12,0,.18.08.19.15s0,0,0,0,0,0-.12,0a.3.3,0,0,0-.14,0,1,1,0,0,0-.47.2l-.2.09a1.32,1.32,0,0,1-.53,0,1.15,1.15,0,0,0-.5.05,2.17,2.17,0,0,0-.36.12c-.07,0-.17.07-.21.09l-.07,0h0l1.28,0,1.29,0c.08,0,.12,0,.12.11s0,.07-.09.08l-.31,0-1,0-.78,0-.58,0s0,0,.06,0a.84.84,0,0,0,.31.05,2.17,2.17,0,0,1,.38,0,2.22,2.22,0,0,1,.41.16,1.58,1.58,0,0,0,.4.15,1,1,0,0,0,.39,0,.81.81,0,0,1,.47.07.46.46,0,0,1,.19.17c0,.06,0,.12,0,.13s-.06,0-.1,0a.55.55,0,0,0-.32-.1.72.72,0,0,0-.24,0,1.45,1.45,0,0,1-.41,0,1,1,0,0,1-.32-.09l-.2-.09a1.5,1.5,0,0,0-.74-.12c-.3,0-.31,0-.27,0l1.23.54,1.08.48a.14.14,0,0,1,.09.1.08.08,0,0,1,0,.08s-.1,0-.23,0l-.95-.34-1.4-.51s.07.08.13.12l.19.1a1.31,1.31,0,0,1,.46.27l.17.19.18.19a1.09,1.09,0,0,0,.43.24.88.88,0,0,1,.25.09.61.61,0,0,1,.29.28.18.18,0,0,1,0,.12s0,.06,0,.08-.09,0-.13,0a.52.52,0,0,0-.14-.16,1.35,1.35,0,0,0-.45-.16.91.91,0,0,1-.35-.15,2.35,2.35,0,0,1-.26-.25l-.26-.23a3.45,3.45,0,0,0-.43-.21l-.2-.08c-.05,0-.08,0-.08,0s.12.13.51.54l.31.32.53.55a5,5,0,0,1,.43.47.08.08,0,0,1,0,.1.07.07,0,0,1-.06,0l-.06,0-.17-.14-.27-.25-.39-.35-1-.87-.18-.16a2,2,0,0,0,.1.18.85.85,0,0,0,.15.18,1.34,1.34,0,0,1,.38.61,1.35,1.35,0,0,0,.18.41.74.74,0,0,0,.24.26,1.16,1.16,0,0,1,.15.13c.19.21.24.53.09.58s-.1,0-.1-.09-.12-.3-.36-.47a1,1,0,0,1-.3-.29,1.12,1.12,0,0,1-.16-.33,1.84,1.84,0,0,0-.15-.33,3,3,0,0,0-.37-.4A.79.79,0,0,0,17,17.8l.18.46.33.87c.09.23.22.55.28.72s.12.31.12.33a.09.09,0,0,1,0,.1.09.09,0,0,1-.14,0s-.16-.34-.34-.72-.37-.78-.41-.88-.15-.3-.22-.46l-.14-.3v.05a.84.84,0,0,0,.09.38,1.21,1.21,0,0,1,.1.73,1.07,1.07,0,0,0,.11.71A1.24,1.24,0,0,1,17,20a.58.58,0,0,1,0,.45.18.18,0,0,1-.1.11s-.08,0-.09,0,0,0,0-.06a.39.39,0,0,0,0-.2,1,1,0,0,0-.18-.4,1.5,1.5,0,0,1-.15-.32l0-.1v-.3a2.66,2.66,0,0,0,0-.35,2.36,2.36,0,0,0-.17-.52,1.26,1.26,0,0,1-.08-.18s0-.06,0-.06,0,.13,0,.29c0,.52-.06,1.69-.07,2a1.3,1.3,0,0,1,0,.31A.09.09,0,0,1,16,20.65Z"/></svg>