<svg id="Layer_1" data-name="Layer 1" xmlns="http://www.w3.org/2000/svg" viewBox="0 0 32 32"><defs><style>.cls-1{fill:#00008b;fill-rule:evenodd;}.cls-2{fill:#fff;}.cls-3{fill:red;}</style></defs><title>Australia</title><path id="_Path_" data-name="&lt;Path&gt;" class="cls-1" d="M16,0h0V1.29c-1.39.9-2.82,1.7-4.21,2.59,1.4,0,2.81,0,4.21,0v.84h0c0,.79,0,1.58,0,2.38h0V8H11.78c1.39.88,2.81,1.71,4.21,2.57V11c0,.32,0,.64,0,1H13.69c-.17,0-.32-.12-.47-.21L7.64,8.42c0,1.2,0,2.39,0,3.59H4.31c0-1.2,0-2.39,0-3.59L1,10.4A16,16,0,1,0,16,0Z"/><path id="_Path_2" data-name="&lt;Path&gt;" class="cls-2" d="M5,4.73V4.38c-.13.11-.25.23-.37.35Z"/><path id="_Compound_Path_" data-name="&lt;Compound Path&gt;" class="cls-3" d="M5,4.38A15.48,15.48,0,0,1,7,2.8V4.73h9c0,.79,0,1.58,0,2.38H7V12H5c0-1.64,0-3.27,0-4.9H2.71A15.39,15.39,0,0,1,4.65,4.73H5ZM13.92.13c-2.05,1.26-4.1,2.48-6.14,3.75.46,0,.92,0,1.38,0a.47.47,0,0,0,.34-.1C11.56,2.52,13.64,1.28,15.7,0A15.06,15.06,0,0,0,13.92.13ZM4.21,8c-.47,0-1,0-1.42,0a.78.78,0,0,0-.38.15l-.47.29a14.61,14.61,0,0,0-.67,1.38ZM16,12h0c0-.33,0-.65,0-1l-4.73-2.9a1,1,0,0,0-.45-.2c-.48,0-1,0-1.44,0C11.56,9.33,13.78,10.63,16,12Z"/><path id="_Path_3" data-name="&lt;Path&gt;" class="cls-2" d="M8.81,16.55c.18-.56.35-1.12.54-1.68.2.56.37,1.12.54,1.68.57-.2,1.11-.42,1.67-.62-.32.5-.65,1-1,1.48.5.31,1,.6,1.52.91l-1.76.16c.07.59.17,1.18.24,1.77-.41-.43-.81-.87-1.23-1.29-.42.42-.82.86-1.23,1.29.08-.59.17-1.18.24-1.77-.59-.06-1.17-.09-1.76-.16.5-.31,1-.6,1.52-.91-.32-.49-.66-1-1-1.48C7.71,16.13,8.25,16.35,8.81,16.55Z"/><path id="_Path_4" data-name="&lt;Path&gt;" class="cls-2" d="M1.94,8.38l.47-.29a.78.78,0,0,1,.38-.15c.47,0,1,0,1.42,0L1.27,9.76c-.09.22-.18.44-.26.66l3.29-2c0,1.2,0,2.39,0,3.59H5c0-1.64,0-3.27,0-4.9H2.71A14.79,14.79,0,0,0,1.94,8.38Z"/><path id="_Path_5" data-name="&lt;Path&gt;" class="cls-2" d="M23.45,9.23c0,.27-.09.54-.12.82l.59-.6c.19.2.37.4.58.59l-.12-.81c.28,0,.56-.05.83-.09l-.7-.43c.14-.24.3-.46.45-.7-.27.09-.52.21-.79.29-.08-.26-.16-.53-.25-.79-.1.26-.18.53-.26.79-.27-.08-.53-.2-.79-.29.15.24.31.46.45.7-.23.15-.47.27-.7.43C22.89,9.18,23.17,9.19,23.45,9.23Z"/><path id="_Path_6" data-name="&lt;Path&gt;" class="cls-2" d="M24.5,21.32c.16-.23.31-.46.46-.69-.27.09-.53.2-.78.29-.1-.24-.15-.54-.26-.74a6.36,6.36,0,0,0-.27.74l-.78-.29.46.69c-.23.16-.49.29-.72.44l.83.07c0,.28-.08.56-.11.83.2-.19.39-.4.59-.59.19.19.37.4.58.59,0-.27-.08-.55-.11-.83l.83-.07C25,21.61,24.73,21.48,24.5,21.32Z"/><path id="_Path_7" data-name="&lt;Path&gt;" class="cls-2" d="M29.43,13c-.23-.16-.49-.29-.72-.44l.46-.69c-.27.09-.52.2-.79.28a4.89,4.89,0,0,0-.27-.76c-.09.26-.17.51-.25.76-.26-.08-.52-.19-.78-.28q.21.34.45.69c-.22.16-.48.28-.71.44l.83.07c0,.28-.08.55-.11.83.2-.19.39-.4.58-.6.2.2.38.41.58.6,0-.28-.08-.55-.1-.83Z"/><path id="_Path_8" data-name="&lt;Path&gt;" class="cls-2" d="M26,15.66c-.09-.14-.11-.34-.21-.45a1.87,1.87,0,0,0-.21.45l-.52,0a4.64,4.64,0,0,0,.4.36c-.05.17-.09.34-.13.51l.46-.28.46.28c0-.17-.08-.34-.13-.51a4.49,4.49,0,0,0,.39-.36Z"/><path id="_Path_9" data-name="&lt;Path&gt;" class="cls-2" d="M19.77,13.83c.15-.23.32-.45.45-.69l-.77.29c-.1-.26-.16-.53-.27-.79-.1.26-.16.53-.26.79l-.78-.29c.14.24.3.46.45.69-.23.15-.48.28-.71.44.28,0,.56.05.83.07,0,.28-.08.55-.1.83.19-.19.37-.4.57-.59.2.19.38.4.58.59,0-.28-.07-.55-.11-.83l.83-.07C20.25,14.11,20,14,19.77,13.83Z"/><path id="_Path_10" data-name="&lt;Path&gt;" class="cls-2" d="M11.26,8.14,16,11h0v-.52c-1.4-.86-2.82-1.69-4.21-2.57H16V7.11H7V12h.67c0-1.2,0-2.39,0-3.59l5.58,3.38c.15.09.3.23.47.21H16c-2.19-1.37-4.41-2.67-6.6-4,.48,0,1,0,1.44,0A1,1,0,0,1,11.26,8.14Z"/><path id="_Path_11" data-name="&lt;Path&gt;" class="cls-2" d="M16,3.89c-1.4,0-2.81,0-4.21,0C13.17,3,14.6,2.19,16,1.29V0H15.7c-2.06,1.28-4.14,2.52-6.2,3.79a.47.47,0,0,1-.34.1c-.46,0-.92,0-1.38,0,2-1.27,4.09-2.49,6.14-3.75h0l-.58.09h-.05l-.58.11L7.64,3.41V2.36h0L7,2.8V4.73h9Z"/><path id="_Path_12" data-name="&lt;Path&gt;" class="cls-1" d="M12.68.35a15.9,15.9,0,0,0-5,2v1C9.32,2.39,11,1.38,12.68.35Z"/></svg>