<svg id="Layer_1" data-name="Layer 1" xmlns="http://www.w3.org/2000/svg" viewBox="0 0 32 32"><defs><style>.cls-1,.cls-6{fill:#009a3c;}.cls-1{fill-rule:evenodd;}.cls-2{fill:#f6fbfd;}.cls-3{fill:#fdde19;}.cls-4{fill:#032775;}.cls-5{fill:#fff;}</style></defs><title>Brazil</title><g id="_Group_" data-name="&lt;Group&gt;"><path id="_Path_" data-name="&lt;Path&gt;" class="cls-1" d="M16,32A16,16,0,1,0,0,16,16,16,0,0,0,16,32Z"/><polygon id="_Path_2" data-name="&lt;Path&gt;" class="cls-2" points="10.28 18 10.34 18.18 10.51 18.18 10.37 18.29 10.42 18.46 10.28 18.36 10.14 18.46 10.19 18.29 10.05 18.18 10.23 18.18 10.28 18"/><path id="_Path_3" data-name="&lt;Path&gt;" class="cls-3" d="M2,16,16.25,5.64,30.52,16,16.25,26.36Z"/><path id="_Path_4" data-name="&lt;Path&gt;" class="cls-4" d="M23.1,16a6.85,6.85,0,1,1-6.85-6.85A6.85,6.85,0,0,1,23.1,16Z"/><path id="_Path_5" data-name="&lt;Path&gt;" class="cls-5" d="M23.06,17.16l-.28,1.11s-4.6-4.92-13.25-3.9l.4-1.14S17.58,12,23.06,17.16Z"/><polygon id="_Path_6" data-name="&lt;Path&gt;" class="cls-2" points="18.45 13.59 18.52 13.8 18.74 13.8 18.57 13.93 18.63 14.14 18.45 14.01 18.28 14.14 18.34 13.93 18.17 13.8 18.39 13.8 18.45 13.59"/><polygon id="_Path_7" data-name="&lt;Path&gt;" class="cls-2" points="21.16 18.17 21.23 18.38 21.45 18.38 21.27 18.51 21.34 18.72 21.16 18.59 20.99 18.72 21.05 18.51 20.88 18.38 21.1 18.38 21.16 18.17"/><polygon id="_Path_8" data-name="&lt;Path&gt;" class="cls-2" points="16.42 18.81 16.49 19.02 16.7 19.02 16.53 19.15 16.6 19.36 16.42 19.23 16.24 19.36 16.31 19.15 16.13 19.02 16.35 19.02 16.42 18.81"/><polygon id="_Path_9" data-name="&lt;Path&gt;" class="cls-2" points="19.99 20.18 20.05 20.35 20.23 20.35 20.08 20.46 20.14 20.64 19.99 20.53 19.84 20.64 19.9 20.46 19.75 20.35 19.93 20.35 19.99 20.18"/><polygon id="_Path_10" data-name="&lt;Path&gt;" class="cls-2" points="20.97 19.23 21.02 19.41 21.21 19.41 21.06 19.52 21.11 19.7 20.97 19.59 20.82 19.7 20.88 19.52 20.73 19.41 20.91 19.41 20.97 19.23"/><polygon id="_Path_11" data-name="&lt;Path&gt;" class="cls-2" points="21.28 18.84 21.33 19.02 21.52 19.02 21.37 19.13 21.42 19.31 21.28 19.2 21.13 19.31 21.18 19.13 21.04 19.02 21.22 19.02 21.28 18.84"/><polygon id="_Path_12" data-name="&lt;Path&gt;" class="cls-2" points="18.08 15.55 18.13 15.7 18.28 15.7 18.16 15.79 18.21 15.94 18.08 15.85 17.96 15.94 18.01 15.79 17.88 15.7 18.03 15.7 18.08 15.55"/><polygon id="_Path_13" data-name="&lt;Path&gt;" class="cls-2" points="16.32 16.78 16.38 16.95 16.55 16.95 16.41 17.06 16.46 17.23 16.32 17.13 16.18 17.23 16.23 17.06 16.09 16.95 16.27 16.95 16.32 16.78"/><polygon id="_Path_14" data-name="&lt;Path&gt;" class="cls-2" points="13.85 16.01 13.91 16.18 14.08 16.18 13.94 16.29 13.99 16.47 13.85 16.36 13.71 16.47 13.76 16.29 13.62 16.18 13.8 16.18 13.85 16.01"/><polygon id="_Path_15" data-name="&lt;Path&gt;" class="cls-2" points="11.33 17.28 11.39 17.51 11.62 17.51 11.44 17.64 11.5 17.86 11.33 17.73 11.14 17.86 11.21 17.64 11.04 17.51 11.26 17.51 11.33 17.28"/><polygon id="_Path_16" data-name="&lt;Path&gt;" class="cls-2" points="10.67 14.43 10.74 14.65 10.96 14.65 10.79 14.79 10.85 15.01 10.67 14.87 10.49 15.01 10.56 14.79 10.38 14.65 10.6 14.65 10.67 14.43"/><polygon id="_Path_17" data-name="&lt;Path&gt;" class="cls-2" points="13.72 19.4 13.79 19.61 14.01 19.61 13.83 19.74 13.9 19.95 13.72 19.82 13.55 19.95 13.61 19.74 13.44 19.61 13.65 19.61 13.72 19.4"/><polygon id="_Path_18" data-name="&lt;Path&gt;" class="cls-2" points="17.14 17.5 17.2 17.68 17.37 17.68 17.23 17.78 17.28 17.96 17.14 17.85 17 17.96 17.05 17.78 16.91 17.68 17.09 17.68 17.14 17.5"/><polygon id="_Path_19" data-name="&lt;Path&gt;" class="cls-2" points="18.55 20.53 18.59 20.68 18.75 20.68 18.62 20.77 18.67 20.92 18.55 20.83 18.43 20.92 18.47 20.77 18.35 20.68 18.5 20.68 18.55 20.53"/><polygon id="_Path_20" data-name="&lt;Path&gt;" class="cls-2" points="18.96 19.59 19.01 19.73 19.16 19.73 19.04 19.83 19.09 19.98 18.96 19.88 18.84 19.98 18.89 19.83 18.76 19.73 18.91 19.73 18.96 19.59"/><polygon id="_Path_21" data-name="&lt;Path&gt;" class="cls-2" points="15.71 17.48 15.76 17.62 15.91 17.62 15.79 17.71 15.84 17.86 15.71 17.77 15.59 17.86 15.63 17.71 15.51 17.62 15.66 17.62 15.71 17.48"/><polygon id="_Path_22" data-name="&lt;Path&gt;" class="cls-2" points="11.98 16.97 12.02 17.09 12.15 17.09 12.04 17.17 12.09 17.3 11.98 17.22 11.88 17.3 11.92 17.17 11.82 17.09 11.94 17.09 11.98 16.97"/><polygon id="_Path_23" data-name="&lt;Path&gt;" class="cls-2" points="19.99 19.59 20.04 19.73 20.19 19.73 20.06 19.83 20.11 19.98 19.99 19.88 19.86 19.98 19.91 19.83 19.79 19.73 19.94 19.73 19.99 19.59"/><polygon id="_Path_24" data-name="&lt;Path&gt;" class="cls-2" points="19.99 20.75 20.03 20.88 20.16 20.88 20.05 20.96 20.1 21.09 19.99 21.01 19.88 21.09 19.92 20.96 19.81 20.88 19.95 20.88 19.99 20.75"/><polygon id="_Path_25" data-name="&lt;Path&gt;" class="cls-2" points="12.71 17.94 12.76 18.11 12.94 18.11 12.8 18.22 12.85 18.39 12.71 18.29 12.57 18.39 12.62 18.22 12.48 18.11 12.66 18.11 12.71 17.94"/><polygon id="_Path_26" data-name="&lt;Path&gt;" class="cls-2" points="16.2 18.03 16.24 18.16 16.37 18.16 16.26 18.24 16.3 18.36 16.2 18.29 16.09 18.36 16.13 18.24 16.02 18.16 16.15 18.16 16.2 18.03"/><polygon id="_Path_27" data-name="&lt;Path&gt;" class="cls-2" points="12.53 18.85 12.57 18.98 12.7 18.98 12.59 19.05 12.64 19.18 12.53 19.1 12.42 19.18 12.46 19.05 12.35 18.98 12.48 18.98 12.53 18.85"/><polygon id="_Path_28" data-name="&lt;Path&gt;" class="cls-2" points="22.08 18.3 22.12 18.43 22.25 18.43 22.14 18.51 22.18 18.64 22.08 18.56 21.97 18.64 22.01 18.51 21.9 18.43 22.04 18.43 22.08 18.3"/><polygon id="_Path_29" data-name="&lt;Path&gt;" class="cls-2" points="20.5 19.59 20.55 19.73 20.7 19.73 20.57 19.83 20.62 19.98 20.5 19.88 20.38 19.98 20.42 19.83 20.3 19.73 20.45 19.73 20.5 19.59"/><polygon id="_Path_30" data-name="&lt;Path&gt;" class="cls-2" points="17.97 19.54 18.02 19.69 18.17 19.69 18.04 19.79 18.09 19.93 17.97 19.84 17.84 19.93 17.89 19.79 17.77 19.69 17.92 19.69 17.97 19.54"/><polygon id="_Path_31" data-name="&lt;Path&gt;" class="cls-2" points="16.38 21.04 16.41 21.11 16.48 21.11 16.42 21.15 16.44 21.22 16.38 21.18 16.32 21.22 16.35 21.15 16.29 21.11 16.36 21.11 16.38 21.04"/><g id="_Group_2" data-name="&lt;Group&gt;"><path id="_Compound_Path_" data-name="&lt;Compound Path&gt;" class="cls-6" d="M10.65,13.67a.25.25,0,0,0,0,.16.19.19,0,0,0,.13.05.21.21,0,0,0,.13-.05.25.25,0,0,0,0-.16.23.23,0,0,0,0-.16.19.19,0,0,0-.26,0A.23.23,0,0,0,10.65,13.67Zm-.14,0a.33.33,0,0,1,0-.15l.06-.09.09,0a.33.33,0,0,1,.37.52.31.31,0,0,1-.23.08.3.3,0,0,1-.23-.08A.29.29,0,0,1,10.51,13.67Z"/><path id="_Compound_Path_2" data-name="&lt;Compound Path&gt;" class="cls-6" d="M17.66,14.73a.19.19,0,0,0,.05.16.14.14,0,0,0,.13,0,.17.17,0,0,0,.13,0,.23.23,0,0,0,.05-.16.21.21,0,0,0-.05-.15.18.18,0,0,0-.13-.06.15.15,0,0,0-.13.06A.17.17,0,0,0,17.66,14.73Zm-.14,0a.38.38,0,0,1,0-.16l.06-.08a.18.18,0,0,1,.09-.06l.14,0a.36.36,0,0,1,.23.08.36.36,0,0,1,.08.24.28.28,0,0,1-.31.31.32.32,0,0,1-.23-.08A.3.3,0,0,1,17.52,14.74Z"/><path id="_Compound_Path_3" data-name="&lt;Compound Path&gt;" class="cls-6" d="M11.55,13.59h.25l0,0a.07.07,0,0,0,0-.1l-.06,0h-.23Zm-.16.37v-.64h.33l.17,0a.15.15,0,0,1,.09.06.17.17,0,0,1,0,.1.16.16,0,0,1,0,.12.34.34,0,0,1-.15.06l.08.05.09.11.09.12h-.19l-.1-.14a.7.7,0,0,0-.09-.09l0,0h-.11V14Z"/><path id="_Compound_Path_4" data-name="&lt;Compound Path&gt;" class="cls-6" d="M16.94,14.36l.11,0,.14,0h0a.08.08,0,0,0,0,0,.13.13,0,0,0,0-.06l0,0-.11,0-.12,0Zm-.26.3.2-.6.31.1a.49.49,0,0,1,.16.07.16.16,0,0,1,.07.09.17.17,0,0,1,0,.1.18.18,0,0,1-.09.1.27.27,0,0,1-.16,0,.19.19,0,0,1,.06.07.32.32,0,0,1,.05.13l0,.15-.18-.06,0-.17-.05-.11,0,0-.07,0h0l-.08.25Z"/><path id="_Compound_Path_5" data-name="&lt;Compound Path&gt;" class="cls-6" d="M19.32,15.31l.1,0,.13.06h.05l0,0s0,0,0-.06,0,0,0-.05l-.1,0-.1-.06Zm-.31.25.3-.57.29.16a.83.83,0,0,1,.15.09.19.19,0,0,1,.05.1.16.16,0,0,1,0,.1.18.18,0,0,1-.1.09.32.32,0,0,1-.16,0l.05.08a1.06,1.06,0,0,1,0,.14l0,.15-.16-.09,0-.17c0-.06,0-.1,0-.12l0-.05-.07,0h0l-.12.23Z"/><path id="_Compound_Path_6" data-name="&lt;Compound Path&gt;" class="cls-6" d="M12.4,13.44v.43h.19l.06,0a.16.16,0,0,0,0-.07.31.31,0,0,0,0-.11.37.37,0,0,0,0-.12.09.09,0,0,0,0-.06.09.09,0,0,0-.07,0H12.4Zm-.15-.11h.27l.14,0a.21.21,0,0,1,.1.06.18.18,0,0,1,.07.1.33.33,0,0,1,0,.15.32.32,0,0,1,0,.14.21.21,0,0,1-.07.11l-.1.05-.13,0h-.28Z"/><polygon id="_Path_32" data-name="&lt;Path&gt;" class="cls-6" points="13.09 14 13.11 13.36 13.64 13.38 13.64 13.49 13.25 13.47 13.24 13.61 13.6 13.63 13.6 13.74 13.24 13.72 13.23 13.9 13.64 13.91 13.63 14.02 13.09 14"/><polygon id="_Path_33" data-name="&lt;Path&gt;" class="cls-6" points="19.73 15.94 20.04 15.37 20.51 15.62 20.45 15.72 20.11 15.54 20.05 15.66 20.37 15.83 20.31 15.93 20 15.76 19.91 15.91 20.27 16.1 20.22 16.2 19.73 15.94"/><polygon id="_Path_34" data-name="&lt;Path&gt;" class="cls-6" points="15.05 14.26 15.15 13.73 15.59 13.82 15.57 13.91 15.26 13.85 15.23 13.96 15.53 14.02 15.51 14.11 15.21 14.05 15.19 14.19 15.52 14.26 15.5 14.35 15.05 14.26"/><polygon id="_Path_35" data-name="&lt;Path&gt;" class="cls-6" points="13.87 14.08 13.94 13.44 14.14 13.46 14.2 13.91 14.37 13.49 14.57 13.51 14.49 14.15 14.37 14.14 14.43 13.63 14.24 14.12 14.12 14.11 14.05 13.59 13.99 14.09 13.87 14.08"/><path id="_Compound_Path_7" data-name="&lt;Compound Path&gt;" class="cls-6" d="M21.93,17a.18.18,0,0,0,0,.16.17.17,0,0,0,.1.1.17.17,0,0,0,.14,0,.2.2,0,0,0,.1-.13.24.24,0,0,0,0-.16.16.16,0,0,0-.11-.1.17.17,0,0,0-.14,0A.2.2,0,0,0,21.93,17ZM21.8,17a.48.48,0,0,1,.09-.14.19.19,0,0,1,.09-.05l.09,0a.35.35,0,0,1,.14,0,.29.29,0,0,1,.18.16.31.31,0,0,1,0,.25.4.4,0,0,1-.17.19.33.33,0,0,1-.24,0,.3.3,0,0,1-.18-.17A.29.29,0,0,1,21.8,17Z"/><path id="_Path_36" data-name="&lt;Path&gt;" class="cls-6" d="M21.12,16.49l.12.07a.12.12,0,0,0,0,.1.18.18,0,0,0,.07.09l.1,0,.07,0a.08.08,0,0,0,0,0l0-.06-.08-.08a.48.48,0,0,1-.1-.15.14.14,0,0,1,0-.14.13.13,0,0,1,.07-.05h.11l.13.06a.35.35,0,0,1,.14.16.16.16,0,0,1,0,.15l-.12-.08a.11.11,0,0,0,0-.08l-.06-.07a.19.19,0,0,0-.1,0h0v.05a.53.53,0,0,0,.09.11l.1.12a.22.22,0,0,1,0,.1.19.19,0,0,1,0,.1.15.15,0,0,1-.09.06.24.24,0,0,1-.12,0,.37.37,0,0,1-.14-.07.3.3,0,0,1-.14-.16A.23.23,0,0,1,21.12,16.49Z"/><path id="_Path_37" data-name="&lt;Path&gt;" class="cls-6" d="M20.48,16.09l.12.07a.12.12,0,0,0,0,.1.18.18,0,0,0,.07.09l.1,0a.06.06,0,0,0,.06,0s0,0,0,0a.14.14,0,0,0,0-.06l-.08-.09a.28.28,0,0,1-.1-.14.17.17,0,0,1,0-.14.14.14,0,0,1,.08-.05.2.2,0,0,1,.11,0,.56.56,0,0,1,.13.07.35.35,0,0,1,.14.16.2.2,0,0,1,0,.15L21,16.13a.08.08,0,0,0,0-.08L20.9,16l-.1,0,0,0a0,0,0,0,0,0,.05l.09.11.1.12a.19.19,0,0,1,0,.1.16.16,0,0,1,0,.1.12.12,0,0,1-.08.06.24.24,0,0,1-.12,0,.37.37,0,0,1-.14-.07.3.3,0,0,1-.14-.16A.19.19,0,0,1,20.48,16.09Z"/><path id="_Path_38" data-name="&lt;Path&gt;" class="cls-6" d="M18.6,15.13l0-.09.27.12-.11.23h-.14l-.16,0a.31.31,0,0,1-.15-.12.25.25,0,0,1-.06-.16.35.35,0,0,1,0-.17.3.3,0,0,1,.11-.14.34.34,0,0,1,.17,0,.34.34,0,0,1,.16,0,.43.43,0,0,1,.16.13.22.22,0,0,1,0,.16l-.13,0a.11.11,0,0,0,0-.08.19.19,0,0,0-.08-.07.16.16,0,0,0-.15,0c-.05,0-.08.05-.11.12a.22.22,0,0,0,0,.17.17.17,0,0,0,.11.11s.05,0,.08,0h.09l0-.07Z"/><path id="_Compound_Path_8" data-name="&lt;Compound Path&gt;" class="cls-6" d="M16.26,14l-.06.18.07,0,.1,0h.05l0,0a.07.07,0,0,0,0-.06s0,0,0,0l-.08,0Zm-.3.47.21-.61.2.06.14.06a.16.16,0,0,1,.07.09.27.27,0,0,1-.06.22.13.13,0,0,1-.07,0h-.08l-.13,0-.08,0-.07.23Z"/></g></g></svg>