<svg id="Layer_1" data-name="Layer 1" xmlns="http://www.w3.org/2000/svg" viewBox="0 0 32 32"><defs><style>.cls-1{fill:#ce1126;}.cls-1,.cls-2{fill-rule:evenodd;}.cls-2{fill:#fff;}.cls-3{fill:#002b7f;}</style></defs><title>Costa Rica</title><g id="_Group_" data-name="&lt;Group&gt;"><path id="_Path_" data-name="&lt;Path&gt;" class="cls-1" d="M1,10.57h30.1a16,16,0,0,1,0,10.86H1A16,16,0,0,1,1,10.57Z"/><path id="_Path_2" data-name="&lt;Path&gt;" class="cls-2" d="M27.88,5.28H4.12A16.1,16.1,0,0,0,1,10.56h30.1A16.1,16.1,0,0,0,27.88,5.28Z"/><path id="_Path_3" data-name="&lt;Path&gt;" class="cls-3" d="M27.88,5.28a16,16,0,0,0-23.76,0Z"/><path id="_Path_4" data-name="&lt;Path&gt;" class="cls-2" d="M4.12,26.72H27.88a16,16,0,0,0,3.17-5.28H1A16,16,0,0,0,4.12,26.72Z"/><path id="_Path_5" data-name="&lt;Path&gt;" class="cls-3" d="M4.12,26.72a16,16,0,0,0,23.76,0Z"/></g></svg>