<svg id="Layer_1" data-name="Layer 1" xmlns="http://www.w3.org/2000/svg" viewBox="0 0 32 32"><defs><style>.cls-1{fill:#c60c30;fill-rule:evenodd;}.cls-2{fill:#fff;}</style></defs><title>Denmark</title><g id="_Group_" data-name="&lt;Group&gt;"><g id="_Group_2" data-name="&lt;Group&gt;"><path id="_Path_" data-name="&lt;Path&gt;" class="cls-1" d="M8.22,13.6V2a16.05,16.05,0,0,0-8,11.57Z"/><path id="_Path_2" data-name="&lt;Path&gt;" class="cls-1" d="M13,13.6H31.82A16,16,0,0,0,16,0a16.38,16.38,0,0,0-3,.28Z"/><path id="_Path_3" data-name="&lt;Path&gt;" class="cls-1" d="M13,18.39V31.72A16.38,16.38,0,0,0,16,32,16,16,0,0,0,31.82,18.39Z"/><path id="_Path_4" data-name="&lt;Path&gt;" class="cls-1" d="M8.22,18.39h-8A16.05,16.05,0,0,0,8.22,30Z"/></g><path id="_Path_5" data-name="&lt;Path&gt;" class="cls-2" d="M31.82,13.6H13V.28A16.06,16.06,0,0,0,8.22,2V13.6h-8A16,16,0,0,0,0,16a15.73,15.73,0,0,0,.18,2.39h8V30A15.81,15.81,0,0,0,13,31.72V18.39H31.82A15.73,15.73,0,0,0,32,16,16,16,0,0,0,31.82,13.6Z"/></g></svg>