<svg id="Layer_1" data-name="Layer 1" xmlns="http://www.w3.org/2000/svg" viewBox="0 0 32 32"><defs><style>.cls-1{fill:#fff;fill-rule:evenodd;}.cls-2{fill:#ce1124;}</style></defs><title>England</title><g id="_Group_" data-name="&lt;Group&gt;"><g id="_Group_2" data-name="&lt;Group&gt;"><path id="_Path_" data-name="&lt;Path&gt;" class="cls-1" d="M18.39,13.62H31.82A16,16,0,0,0,18.39.18Z"/><path id="_Path_2" data-name="&lt;Path&gt;" class="cls-1" d="M13.61,13.62V.18A16,16,0,0,0,.18,13.62Z"/><path id="_Path_3" data-name="&lt;Path&gt;" class="cls-1" d="M18.39,18.38V31.82A16,16,0,0,0,31.82,18.38Z"/><path id="_Path_4" data-name="&lt;Path&gt;" class="cls-1" d="M13.61,18.38H.18A16,16,0,0,0,13.61,31.82Z"/></g><path id="_Path_5" data-name="&lt;Path&gt;" class="cls-2" d="M31.94,17.34c0-.09,0-.17,0-.25,0-.36,0-.72,0-1.09s0-.73,0-1.09c0-.08,0-.17,0-.25q0-.51-.12-1v0H18.39V.18h-.1C18,.12,17.67.09,17.36.06l-.29,0c-.35,0-.71,0-1.07,0s-.72,0-1.07,0l-.29,0-.93.1-.1,0V13.61H.18c0,.35-.09.69-.12,1,0,.09,0,.17,0,.25,0,.36,0,.72,0,1.09H0c0,.37,0,.73,0,1.09,0,.08,0,.16,0,.25,0,.35.07.69.12,1H13.61V31.82h0c.34.05.67.08,1,.11l.26,0c.36,0,.72,0,1.08,0s.73,0,1.08,0l.26,0c.34,0,.68-.06,1-.11h0V18.39H31.82v0C31.87,18,31.91,17.68,31.94,17.34Z"/></g></svg>