<svg id="Layer_1" data-name="Layer 1" xmlns="http://www.w3.org/2000/svg" viewBox="0 0 32 32"><defs><style>.cls-1,.cls-5{fill:#fff;}.cls-1,.cls-2,.cls-3{fill-rule:evenodd;}.cls-2,.cls-4{fill:#da0000;}.cls-3{fill:#239f40;}</style></defs><title>Iran</title><g id="_Group_" data-name="&lt;Group&gt;"><path id="_Path_" data-name="&lt;Path&gt;" class="cls-1" d="M31.05,21.44H1A16,16,0,0,1,1,10.57h30.1a16,16,0,0,1,0,10.87Z"/><path id="_Path_2" data-name="&lt;Path&gt;" class="cls-2" d="M1,21.44h30.1a16,16,0,0,1-30.1,0Z"/><path id="_Path_3" data-name="&lt;Path&gt;" class="cls-3" d="M31.05,10.57H1a16,16,0,0,1,30.1,0Z"/><path id="_Path_4" data-name="&lt;Path&gt;" class="cls-4" d="M15.07,12.33a.78.78,0,0,0,.93.17.78.78,0,0,0,.93-.17.57.57,0,0,1-.93.51A.56.56,0,0,1,15.07,12.33Z"/><path id="_Path_5" data-name="&lt;Path&gt;" class="cls-4" d="M12.28,15.53A3,3,0,0,1,14.39,13a3.86,3.86,0,0,0-1.47,3.49,4,4,0,0,0,.86,1.94A3,3,0,0,1,12.28,15.53Z"/><path id="_Path_6" data-name="&lt;Path&gt;" class="cls-4" d="M15.53,13.31,16,13l.46.36c0,1.66,0,3.33-.06,5a4,4,0,0,0,1.21-1.63,3.79,3.79,0,0,0-.45-3.51,3.42,3.42,0,0,1-.52,5.68,3.72,3.72,0,0,0,1.62.2,3.54,3.54,0,0,1-1.88.17c-.12.16-.25.3-.38.46l-.39-.46A3.52,3.52,0,0,1,13.74,19a3.67,3.67,0,0,0,1.61-.2,3.39,3.39,0,0,1-1.77-2.65,3.44,3.44,0,0,1,1.26-3,3.73,3.73,0,0,0-.17,4.09,4.64,4.64,0,0,0,.93,1.05C15.58,16.64,15.55,15,15.53,13.31Z"/><path id="_Path_7" data-name="&lt;Path&gt;" class="cls-4" d="M17.6,13a3,3,0,0,1,2,3.61,3,3,0,0,1-1.4,1.81A4.1,4.1,0,0,0,19,16.78,3.81,3.81,0,0,0,17.6,13Z"/><g id="_Group_2" data-name="&lt;Group&gt;"><path id="_Compound_Path_" data-name="&lt;Compound Path&gt;" class="cls-5" d="M1.62,10.25H1.51V9.86h.64v.26h.42V10H2.29V9.86h.39v.37H2V10H1.62Zm2.39,0H3.36V10H3v.15h.27v.11H2.83V9.86h.53V9.58h.12v.54h.15V9.58h.11v.54h.15V9.58H4Zm-.79-.52H1.5V9.59H3.22Z"/><path id="_Compound_Path_2" data-name="&lt;Compound Path&gt;" class="cls-5" d="M4,10.57H2.82v-.12H4Zm-1.33,0H1.5v-.12H2.69Z"/><path id="_Compound_Path_3" data-name="&lt;Compound Path&gt;" class="cls-5" d="M4.27,10.25H4.16V9.86H4.8v.26h.42V10H4.94V9.86h.39v.37H4.69V10H4.27Zm2.38,0H6V10H5.6v.15h.27v.11H5.48V9.86H6V9.58h.11v.54h.16V9.58h.11v.54h.15V9.58h.11Zm-.78-.52H4.15V9.59H5.87Z"/><path id="_Compound_Path_4" data-name="&lt;Compound Path&gt;" class="cls-5" d="M6.66,10.57H5.47v-.12H6.66Zm-1.32,0H4.15v-.12H5.34Z"/><path id="_Compound_Path_5" data-name="&lt;Compound Path&gt;" class="cls-5" d="M6.92,10.25H6.81V9.86h.64v.26h.42V10H7.59V9.86H8v.37H7.34V10H6.92Zm2.38,0H8.66V10H8.24v.15h.28v.11H8.13V9.86h.53V9.58h.11v.54h.16V9.58H9v.54h.15V9.58H9.3Zm-.78-.52H6.8V9.59H8.52Z"/><path id="_Compound_Path_6" data-name="&lt;Compound Path&gt;" class="cls-5" d="M9.31,10.57H8.12v-.12H9.31ZM8,10.57H6.8v-.12H8Z"/><path id="_Compound_Path_7" data-name="&lt;Compound Path&gt;" class="cls-5" d="M9.57,10.25H9.46V9.86h.64v.26h.42V10h-.28V9.86h.39v.37H10V10H9.57Zm2.38,0h-.64V10h-.42v.15h.28v.11h-.39V9.86h.53V9.58h.11v.54h.15V9.58h.12v.54h.15V9.58H12Zm-.78-.52H9.45V9.59h1.72Z"/><path id="_Compound_Path_8" data-name="&lt;Compound Path&gt;" class="cls-5" d="M12,10.57H10.77v-.12H12Zm-1.32,0H9.45v-.12h1.19Z"/><path id="_Compound_Path_9" data-name="&lt;Compound Path&gt;" class="cls-5" d="M12.22,10.25H12.1V9.86h.65v.26h.41V10h-.27V9.86h.39v.37h-.65V10h-.41Zm2.38,0H14V10h-.42v.15h.28v.11h-.39V9.86H14V9.58h.11v.54h.15V9.58h.11v.54h.16V9.58h.11Zm-.78-.52H12.09V9.59h1.73Z"/><path id="_Compound_Path_10" data-name="&lt;Compound Path&gt;" class="cls-5" d="M14.61,10.57H13.42v-.12h1.19Zm-1.32,0h-1.2v-.12h1.2Z"/><path id="_Compound_Path_11" data-name="&lt;Compound Path&gt;" class="cls-5" d="M14.86,10.25h-.11V9.86h.64v.26h.42V10h-.27V9.86h.38v.37h-.64V10h-.42Zm2.39,0h-.64V10h-.42v.15h.27v.11h-.38V9.86h.53V9.58h.11v.54h.15V9.58H17v.54h.16V9.58h.11Zm-.79-.52H14.74V9.59h1.72Z"/><path id="_Compound_Path_12" data-name="&lt;Compound Path&gt;" class="cls-5" d="M17.26,10.57H16.07v-.12h1.19Zm-1.33,0H14.74v-.12h1.19Z"/><path id="_Compound_Path_13" data-name="&lt;Compound Path&gt;" class="cls-5" d="M17.51,10.25H17.4V9.86H18v.26h.42V10h-.27V9.86h.38v.37h-.64V10h-.42Zm2.39,0h-.65V10h-.41v.15h.27v.11h-.38V9.86h.52V9.58h.12v.54h.15V9.58h.11v.54h.15V9.58h.12Zm-.79-.52H17.39V9.59h1.72Z"/><path id="_Compound_Path_14" data-name="&lt;Compound Path&gt;" class="cls-5" d="M19.91,10.57h-1.2v-.12h1.2Zm-1.33,0H17.39v-.12h1.19Z"/><path id="_Compound_Path_15" data-name="&lt;Compound Path&gt;" class="cls-5" d="M20.16,10.25h-.11V9.86h.64v.26h.42V10h-.28V9.86h.39v.37h-.64V10h-.42Zm2.38,0H21.9V10h-.41v.15h.27v.11h-.39V9.86h.53V9.58H22v.54h.15V9.58h.11v.54h.15V9.58h.11Zm-.78-.52H20V9.59h1.72Z"/><path id="_Compound_Path_16" data-name="&lt;Compound Path&gt;" class="cls-5" d="M22.56,10.57h-1.2v-.12h1.2Zm-1.33,0H20v-.12h1.19Z"/><path id="_Compound_Path_17" data-name="&lt;Compound Path&gt;" class="cls-5" d="M22.81,10.25H22.7V9.86h.64v.26h.42V10h-.28V9.86h.39v.37h-.64V10h-.42Zm2.38,0h-.64V10h-.42v.15h.28v.11H24V9.86h.53V9.58h.11v.54h.16V9.58h.11v.54h.15V9.58h.11Zm-.78-.52H22.69V9.59h1.72Z"/><path id="_Compound_Path_18" data-name="&lt;Compound Path&gt;" class="cls-5" d="M25.2,10.57H24v-.12H25.2Zm-1.32,0H22.69v-.12h1.19Z"/><g id="tbp1"><path id="_Compound_Path_19" data-name="&lt;Compound Path&gt;" class="cls-5" d="M25.46,10.25h-.11V9.86H26v.26h.42V10h-.28V9.86h.39v.37h-.64V10h-.42Zm2.38,0H27.2V10h-.42v.15h.28v.11h-.39V9.86h.53V9.58h.11v.54h.16V9.58h.11v.54h.15V9.58h.11Zm-.78-.52H25.34V9.59h1.72Z"/></g><g id="tbp2"><path id="_Compound_Path_20" data-name="&lt;Compound Path&gt;" class="cls-5" d="M27.85,10.57H26.66v-.12h1.19Zm-1.32,0H25.34v-.12h1.19Z"/></g><g id="tbp1-2" data-name="tbp1"><path id="_Compound_Path_21" data-name="&lt;Compound Path&gt;" class="cls-5" d="M28.11,10.25H28V9.86h.65v.26h.41V10h-.27V9.86h.39v.37h-.65V10h-.41Zm2.38,0h-.64V10h-.42v.15h.28v.11h-.39V9.86h.53V9.58H30v.54h.15V9.58h.12v.54h.15V9.58h.11Zm-.78-.52H28V9.59h1.73Z"/></g><g id="tbp2-2" data-name="tbp2"><path id="_Compound_Path_22" data-name="&lt;Compound Path&gt;" class="cls-5" d="M30.5,10.57H29.31v-.12H30.5Zm-1.32,0H28v-.12h1.2Z"/></g></g><g id="_Group_3" data-name="&lt;Group&gt;"><g id="tbp2-3" data-name="tbp2"><path id="_Compound_Path_23" data-name="&lt;Compound Path&gt;" class="cls-5" d="M4,21.55H2.82v-.11H4Zm-1.33,0H1.5v-.11H2.69Z"/></g><g id="tbp1-3" data-name="tbp1"><path id="_Compound_Path_24" data-name="&lt;Compound Path&gt;" class="cls-5" d="M1.62,22.42H1.51V22h.64v.27h.42v-.16H2.29V22h.39v.38H2v-.27H1.62Zm2.39,0H3.36v-.27H3v.16h.27v.11H2.83V22h.53v-.27h.12v.54h.15v-.54h.11v.54h.15v-.54H4Zm-.79-.53H1.5v-.11H3.22Z"/></g><g id="tbp2-4" data-name="tbp2"><path id="_Compound_Path_25" data-name="&lt;Compound Path&gt;" class="cls-5" d="M6.66,21.55H5.47v-.11H6.66Zm-1.32,0H4.15v-.11H5.34Z"/></g><g id="tbp1-4" data-name="tbp1"><path id="_Compound_Path_26" data-name="&lt;Compound Path&gt;" class="cls-5" d="M4.27,22.42H4.16V22H4.8v.27h.42v-.16H4.94V22h.39v.38H4.69v-.27H4.27Zm2.38,0H6v-.27H5.6v.16h.27v.11H5.48V22H6v-.27h.11v.54h.16v-.54h.11v.54h.15v-.54h.11Zm-.78-.53H4.15v-.11H5.87Z"/></g><g id="_Group_4" data-name="&lt;Group&gt;"><g id="tbp2-5" data-name="tbp2"><path id="_Compound_Path_27" data-name="&lt;Compound Path&gt;" class="cls-5" d="M9.31,21.55H8.12v-.11H9.31ZM8,21.55H6.8v-.11H8Z"/></g></g><g id="_Group_5" data-name="&lt;Group&gt;"><g id="tbp1-5" data-name="tbp1"><path id="_Compound_Path_28" data-name="&lt;Compound Path&gt;" class="cls-5" d="M6.92,22.42H6.81V22h.64v.27h.42v-.16H7.59V22H8v.38H7.34v-.27H6.92Zm2.38,0H8.66v-.27H8.24v.16h.28v.11H8.13V22h.53v-.27h.11v.54h.16v-.54H9v.54h.15v-.54H9.3Zm-.78-.53H6.8v-.11H8.52Z"/></g></g><g id="_Group_6" data-name="&lt;Group&gt;"><g id="tbp2-6" data-name="tbp2"><path id="_Compound_Path_29" data-name="&lt;Compound Path&gt;" class="cls-5" d="M12,21.55H10.77v-.11H12Zm-1.32,0H9.45v-.11h1.19Z"/></g></g><g id="_Group_7" data-name="&lt;Group&gt;"><g id="tbp1-6" data-name="tbp1"><path id="_Compound_Path_30" data-name="&lt;Compound Path&gt;" class="cls-5" d="M9.57,22.42H9.46V22h.64v.27h.42v-.16h-.28V22h.39v.38H10v-.27H9.57Zm2.38,0h-.64v-.27h-.42v.16h.28v.11h-.39V22h.53v-.27h.11v.54h.15v-.54h.12v.54h.15v-.54H12Zm-.78-.53H9.45v-.11h1.72Z"/></g></g><g id="tbp2-7" data-name="tbp2"><path id="_Compound_Path_31" data-name="&lt;Compound Path&gt;" class="cls-5" d="M14.61,21.55H13.42v-.11h1.19Zm-1.32,0h-1.2v-.11h1.2Z"/></g><g id="tbp1-7" data-name="tbp1"><path id="_Compound_Path_32" data-name="&lt;Compound Path&gt;" class="cls-5" d="M12.22,22.42H12.1V22h.65v.27h.41v-.16h-.27V22h.39v.38h-.65v-.27h-.41Zm2.38,0H14v-.27h-.42v.16h.28v.11h-.39V22H14v-.27h.11v.54h.15v-.54h.11v.54h.16v-.54h.11Zm-.78-.53H12.09v-.11h1.73Z"/></g><g id="tbp2-8" data-name="tbp2"><path id="_Compound_Path_33" data-name="&lt;Compound Path&gt;" class="cls-5" d="M17.26,21.55H16.07v-.11h1.19Zm-1.33,0H14.74v-.11h1.19Z"/></g><g id="tbp1-8" data-name="tbp1"><path id="_Compound_Path_34" data-name="&lt;Compound Path&gt;" class="cls-5" d="M14.86,22.42h-.11V22h.64v.27h.42v-.16h-.27V22h.38v.38h-.64v-.27h-.42Zm2.39,0h-.64v-.27h-.42v.16h.27v.11h-.38V22h.53v-.27h.11v.54h.15v-.54H17v.54h.16v-.54h.11Zm-.79-.53H14.74v-.11h1.72Z"/></g><g id="_Group_8" data-name="&lt;Group&gt;"><g id="tbp2-9" data-name="tbp2"><path id="_Compound_Path_35" data-name="&lt;Compound Path&gt;" class="cls-5" d="M19.91,21.55h-1.2v-.11h1.2Zm-1.33,0H17.39v-.11h1.19Z"/></g></g><g id="_Group_9" data-name="&lt;Group&gt;"><g id="tbp1-9" data-name="tbp1"><path id="_Compound_Path_36" data-name="&lt;Compound Path&gt;" class="cls-5" d="M17.51,22.42H17.4V22H18v.27h.42v-.16h-.27V22h.38v.38h-.64v-.27h-.42Zm2.39,0h-.65v-.27h-.41v.16h.27v.11h-.38V22h.52v-.27h.12v.54h.15v-.54h.11v.54h.15v-.54h.12Zm-.79-.53H17.39v-.11h1.72Z"/></g></g><g id="tbp2-10" data-name="tbp2"><path id="_Compound_Path_37" data-name="&lt;Compound Path&gt;" class="cls-5" d="M22.56,21.55h-1.2v-.11h1.2Zm-1.33,0H20v-.11h1.19Z"/></g><g id="tbp1-10" data-name="tbp1"><path id="_Compound_Path_38" data-name="&lt;Compound Path&gt;" class="cls-5" d="M20.16,22.42h-.11V22h.64v.27h.42v-.16h-.28V22h.39v.38h-.64v-.27h-.42Zm2.38,0H21.9v-.27h-.41v.16h.27v.11h-.39V22h.53v-.27H22v.54h.15v-.54h.11v.54h.15v-.54h.11Zm-.78-.53H20v-.11h1.72Z"/></g><g id="_Group_10" data-name="&lt;Group&gt;"><g id="tbp2-11" data-name="tbp2"><path id="_Compound_Path_39" data-name="&lt;Compound Path&gt;" class="cls-5" d="M25.2,21.55H24v-.11H25.2Zm-1.32,0H22.69v-.11h1.19Z"/></g></g><g id="_Group_11" data-name="&lt;Group&gt;"><g id="tbp1-11" data-name="tbp1"><path id="_Compound_Path_40" data-name="&lt;Compound Path&gt;" class="cls-5" d="M22.81,22.42H22.7V22h.64v.27h.42v-.16h-.28V22h.39v.38h-.64v-.27h-.42Zm2.38,0h-.64v-.27h-.42v.16h.28v.11H24V22h.53v-.27h.11v.54h.16v-.54h.11v.54h.15v-.54h.11Zm-.78-.53H22.69v-.11h1.72Z"/></g></g><g id="_Group_12" data-name="&lt;Group&gt;"><g id="tbp2-12" data-name="tbp2"><path id="_Compound_Path_41" data-name="&lt;Compound Path&gt;" class="cls-5" d="M27.85,21.55H26.66v-.11h1.19Zm-1.32,0H25.34v-.11h1.19Z"/></g></g><g id="_Group_13" data-name="&lt;Group&gt;"><g id="tbp1-12" data-name="tbp1"><path id="_Compound_Path_42" data-name="&lt;Compound Path&gt;" class="cls-5" d="M25.46,22.42h-.11V22H26v.27h.42v-.16h-.28V22h.39v.38h-.64v-.27h-.42Zm2.38,0H27.2v-.27h-.42v.16h.28v.11h-.39V22h.53v-.27h.11v.54h.16v-.54h.11v.54h.15v-.54h.11Zm-.78-.53H25.34v-.11h1.72Z"/></g></g><g id="_Group_14" data-name="&lt;Group&gt;"><g id="tbp2-13" data-name="tbp2"><path id="_Compound_Path_43" data-name="&lt;Compound Path&gt;" class="cls-5" d="M30.5,21.55H29.31v-.11H30.5Zm-1.32,0H28v-.11h1.2Z"/></g></g><g id="_Group_15" data-name="&lt;Group&gt;"><g id="tbp1-13" data-name="tbp1"><path id="_Compound_Path_44" data-name="&lt;Compound Path&gt;" class="cls-5" d="M28.11,22.42H28V22h.65v.27h.41v-.16h-.27V22h.39v.38h-.65v-.27h-.41Zm2.38,0h-.64v-.27h-.42v.16h.28v.11h-.39V22h.53v-.27H30v.54h.15v-.54h.12v.54h.15v-.54h.11Zm-.78-.53H28v-.11h1.73Z"/></g></g></g></g></svg>