<svg id="Layer_1" data-name="Layer 1" xmlns="http://www.w3.org/2000/svg" viewBox="0 0 32 32"><defs><style>.cls-1{fill:#d72828;}.cls-2{fill:#fff;}.cls-3{fill:#003897;fill-rule:evenodd;}</style></defs><title>Iceland</title><g id="_Group_" data-name="&lt;Group&gt;"><path id="_Path_" data-name="&lt;Path&gt;" class="cls-1" d="M0,17c0,.3.05.59.08.88H9V30.39H9a15.56,15.56,0,0,0,3.7,1.27V17.85H31.89c0-.29.06-.58.08-.88v0c0-.31,0-.61,0-.92s0-.62,0-.92V15c0-.29,0-.59-.08-.88H12.72V.34A15.56,15.56,0,0,0,9,1.61V14.15H.11c0,.29-.06.59-.08.89v0c0,.3,0,.61,0,.92s0,.62,0,.92Z"/><g id="_Group_2" data-name="&lt;Group&gt;"><path id="_Path_2" data-name="&lt;Path&gt;" class="cls-2" d="M31.7,12.91H14V.12c-.45.06-.89.13-1.32.22h0V14.15H31.89l0-.22h0C31.82,13.59,31.76,13.25,31.7,12.91Z"/><path id="_Path_3" data-name="&lt;Path&gt;" class="cls-2" d="M.3,19.09H7.7V29.67c.42.26.87.5,1.32.72V17.85H.11C.16,18.27.22,18.68.3,19.09Z"/><path id="_Path_4" data-name="&lt;Path&gt;" class="cls-2" d="M7.7,2.33V12.91H.3c-.08.41-.14.82-.19,1.24H9V1.61C8.57,1.83,8.12,2.07,7.7,2.33Z"/><path id="_Path_5" data-name="&lt;Path&gt;" class="cls-2" d="M26.14,17.85H12.72V31.66h0l.57.11h.1l.65.1V19.09H31.7c.08-.41.14-.82.19-1.24Z"/></g><g id="_Group_3" data-name="&lt;Group&gt;"><path id="_Path_6" data-name="&lt;Path&gt;" class="cls-3" d="M14,12.91H31.7A16,16,0,0,0,16,0a15.87,15.87,0,0,0-2,.12Z"/><path id="_Path_7" data-name="&lt;Path&gt;" class="cls-3" d="M7.7,12.91V2.33A16.06,16.06,0,0,0,.3,12.91Z"/><path id="_Path_8" data-name="&lt;Path&gt;" class="cls-3" d="M14,19.09V31.88A15.87,15.87,0,0,0,16,32,16.05,16.05,0,0,0,31.7,19.09Z"/><path id="_Path_9" data-name="&lt;Path&gt;" class="cls-3" d="M7.7,19.09H.3A16.06,16.06,0,0,0,7.7,29.67Z"/></g></g></svg>