<svg id="Layer_1" data-name="Layer 1" xmlns="http://www.w3.org/2000/svg" viewBox="0 0 32 32"><defs><style>.cls-1{fill:#fff;}.cls-2{fill:#c60c30;}.cls-3{fill:#003478;}</style></defs><title>South Korea</title><g id="_Group_" data-name="&lt;Group&gt;"><circle id="_Path_" data-name="&lt;Path&gt;" class="cls-1" cx="16" cy="16" r="16"/><path id="_Path_2" data-name="&lt;Path&gt;" d="M8,7.49,8.7,8,5.78,12.35l-.73-.48Z"/><path id="_Path_3" data-name="&lt;Path&gt;" d="M23.3,8,24,7.49c.45.67.89,1.34,1.34,2l-.73.49C24.19,9.32,23.74,8.65,23.3,8Z"/><path id="_Path_4" data-name="&lt;Path&gt;" d="M9.06,8.22l.73.48c-1,1.47-1.94,2.92-2.92,4.38l-.73-.49Q7.61,10.42,9.06,8.22Z"/><path id="_Path_5" data-name="&lt;Path&gt;" d="M22.21,8.7l.73-.48,2.91,4.37-.73.49C24.15,11.62,23.18,10.17,22.21,8.7Z"/><path id="_Path_6" data-name="&lt;Path&gt;" d="M7.24,13.33,10.16,9l.73.49L8,13.81Z"/><path id="_Path_7" data-name="&lt;Path&gt;" d="M21.11,9.44,21.84,9l1.34,2-.73.48Z"/><path id="_Path_8" data-name="&lt;Path&gt;" d="M24.88,10.35l.73-.49c.44.67.9,1.34,1.34,2l-.73.48Z"/><path id="_Path_9" data-name="&lt;Path&gt;" class="cls-2" d="M14.47,11a5.26,5.26,0,0,1,6,7.82,2.67,2.67,0,0,0,0-2.6A2.63,2.63,0,0,0,16,16a2.64,2.64,0,0,1-4.52-2.7A5.22,5.22,0,0,1,14.47,11Z"/><path id="_Path_10" data-name="&lt;Path&gt;" d="M22.69,11.81l.73-.49,1.34,2-.73.48C23.58,13.14,23.14,12.47,22.69,11.81Z"/><path id="_Path_11" data-name="&lt;Path&gt;" class="cls-3" d="M11,17.57a5.23,5.23,0,0,1,.51-4.28A2.64,2.64,0,0,0,16,16a2.63,2.63,0,0,1,4.48.2,2.67,2.67,0,0,1,0,2.6A5.27,5.27,0,0,1,11,17.57Z"/><path id="_Path_12" data-name="&lt;Path&gt;" d="M7.24,18.68,8,18.19q1.45,2.19,2.92,4.37l-.73.49Z"/><path id="_Path_13" data-name="&lt;Path&gt;" d="M24,18.19l.73.49c-.45.66-.89,1.33-1.34,2l-.73-.48Z"/><path id="_Path_14" data-name="&lt;Path&gt;" d="M6.14,19.4l.73-.49,1.34,2-.73.49C7,20.74,6.59,20.07,6.14,19.4Z"/><path id="_Path_15" data-name="&lt;Path&gt;" d="M23.79,20.92l1.33-2,.73.49-1.33,2Z"/><path id="_Path_16" data-name="&lt;Path&gt;" d="M24.88,21.65c.45-.67.89-1.34,1.34-2l.73.48c-.44.67-.9,1.34-1.34,2Z"/><path id="_Path_17" data-name="&lt;Path&gt;" d="M5.05,20.13l.73-.48c1,1.46,2,2.91,2.92,4.38L8,24.51Z"/><path id="_Path_18" data-name="&lt;Path&gt;" d="M22.45,20.56l.73.49c-.45.66-.9,1.33-1.34,2l-.73-.49Z"/><path id="_Path_19" data-name="&lt;Path&gt;" d="M7.73,21.77l.72-.48c.45.67.9,1.33,1.34,2l-.73.48C8.61,23.11,8.17,22.44,7.73,21.77Z"/><path id="_Path_20" data-name="&lt;Path&gt;" d="M22.21,23.3c.44-.68.89-1.34,1.33-2l.74.48c-.45.67-.9,1.34-1.34,2Z"/><path id="_Path_21" data-name="&lt;Path&gt;" d="M23.3,24c.44-.68.89-1.34,1.34-2l.73.49c-.45.66-.89,1.33-1.34,2Z"/></g></svg>