<svg id="Layer_1" data-name="Layer 1" xmlns="http://www.w3.org/2000/svg" viewBox="0 0 32 32"><defs><style>.cls-1{fill:#006c35;fill-rule:evenodd;}.cls-2{fill:#fff;}</style></defs><title>Saudi Arabia</title><g id="_Group_" data-name="&lt;Group&gt;"><path id="_Path_" data-name="&lt;Path&gt;" class="cls-1" d="M16,32A16,16,0,1,0,0,16,16,16,0,0,0,16,32Z"/><path id="_Compound_Path_" data-name="&lt;Compound Path&gt;" class="cls-2" d="M13.57,12.07a.16.16,0,0,0-.09,0,.62.62,0,0,0-.27.46c0,.12,0,.11,0,.19s.11.07.23,0a.24.24,0,0,0,.11-.16c0-.13-.15.07-.17-.08s.07-.2.18-.34,0-.11,0-.12Zm1.66,0s-.07.05-.12.15a.6.6,0,0,0-.09.58,1.73,1.73,0,0,1,.1.9,1.44,1.44,0,0,1-.18.25.28.28,0,0,1-.37,0,.43.43,0,0,1-.22-.31,4.26,4.26,0,0,0,0-1,.18.18,0,0,0-.3-.06,2.22,2.22,0,0,0-.55,1.13c-.09.27-.18.19-.24.08s-.17-1.28-.35-1.09c-.3.85.17,1.79.5,1.7.23.09.38-.35.48-.84.06-.14.11-.16.15-.09,0,.66,0,.8.21,1a.54.54,0,0,0,.71,0l.29-.29a.17.17,0,0,1,.24,0c.09.08.08.22.27.32a.59.59,0,0,0,.58-.13,3.35,3.35,0,0,1,.18-.31c.08-.1.21-.06.21,0s-.09.12,0,.22.11,0,.17,0,.33-.51.33-.51c0-.15-.08-.14-.14-.11l-.15.11c-.09,0-.27.07-.36-.06s-.09-.4-.16-.57c0,0-.12-.26,0-.28s.18,0,.2-.05-.13-.38-.26-.53a.28.28,0,0,0-.41,0,.47.47,0,0,0-.11.3.51.51,0,0,0,.1.42,1.26,1.26,0,0,1,.23.83.34.34,0,0,1-.3.16c-.08,0-.21-.06-.28-.57a3.72,3.72,0,0,0-.15-1.18c0-.1-.07-.19-.13-.19Zm-.52,0c-.05,0-.11.07-.15.18a2.52,2.52,0,0,0-.08.53c0,.13.14.19.21,0a1.64,1.64,0,0,0,.13-.58c0-.1-.06-.15-.11-.15Zm1.95,0c-.06,0-.1,0-.11.11a1.15,1.15,0,0,0,0,.42,1.13,1.13,0,0,0,.24.36c.33.46.66.91,1,1.38,0,.35.09.7.11,1a20.12,20.12,0,0,1,0,2.46c.14,0,.36-.22.44-.56s0-1.43,0-1.71c0-.11,0-.25,0-.39.37.59.72,1.22,1.07,1.92.12-.06.1-.78,0-.88-.28-.59-.66-1.19-.78-1.41l-.38-.58a6.46,6.46,0,0,0-.09-.79c0-.4.17.05.14-.19a2.88,2.88,0,0,0-.55-1c-.09-.12-.09-.14-.22,0a.85.85,0,0,0-.05.46,1.5,1.5,0,0,0-.14-.18,5.5,5.5,0,0,0-.42-.36.46.46,0,0,0-.25-.1Zm5.77.06a.1.1,0,0,0-.08,0,.36.36,0,0,0-.12.27c0,.21.05.42.07.63v.08l0-.06c-.41-.43.18-.07-.08-.4a2.94,2.94,0,0,0-.48-.47c-.1-.07-.16-.19-.19,0a3.18,3.18,0,0,0,0,.53.62.62,0,0,0,.16.34c.27.33.55.69.83,1.06.06.76.07,1.46.13,2.22a1.54,1.54,0,0,1-.2.8s-.15.08-.24,0a3,3,0,0,1-.35-.47.21.21,0,0,0-.35,0,4.68,4.68,0,0,0-.6,1.13c-.05.08-.19.15-.34,0a1.61,1.61,0,0,1-.22-1.11A1.22,1.22,0,0,0,20.21,18a1,1,0,0,0,.43.5.3.3,0,0,0,.45-.05c.21-.22.21-.76.31-.87a.18.18,0,0,1,.32-.08.83.83,0,0,0,.3.26.49.49,0,0,0,.64,0A.75.75,0,0,0,23,17.4,14.61,14.61,0,0,0,23,15l.43.62a16.17,16.17,0,0,1,.07,1.95c0,.13.43-.37.43-.61v-.56c.22.35.43.7.63,1.06.13-.07.08-.77,0-.86a10.82,10.82,0,0,0-.68-1c0-.37-.1-.81-.12-.94s-.08-.52-.14-.77a2,2,0,0,1-.05-.44c0-.07.11,0,.16-.08a2.79,2.79,0,0,0-.39-1.08c-.06-.1-.16-.07-.28.1s-.07.35,0,.58c.11.6.22,1.21.3,1.81L22.86,14l0-.12s0-.48,0-.6,0-.06,0-.05l.09.06c.05,0,.1-.08.07-.16l-.48-.89a.1.1,0,0,0-.07,0Zm-14.91,0c-.08,0-.18.06-.14.16s.17.26.2.37,0,.32,0,.34.14-.17.17-.35,0-.44-.23-.51Zm17,0s-.05,0-.09.11a1.05,1.05,0,0,0-.08.65,34.7,34.7,0,0,1,.41,4.22,1.33,1.33,0,0,1-.08.35,2.76,2.76,0,0,1-.41.47c-.13.1-.42.2-.51.27-.29.17-.3.37-.06.38a1.5,1.5,0,0,0,1.24-.59,1.94,1.94,0,0,0,.2-.77,17.66,17.66,0,0,0-.23-3.73,1.68,1.68,0,0,1,0-.35c0-.07.16,0,.2-.07s-.34-.61-.49-.84c0-.06,0-.11-.07-.1Zm-4.33,0-.09.09a2.15,2.15,0,0,0-.11.92,19.58,19.58,0,0,1,.55,4.42c.14,0,.31-.32.37-.64a5.56,5.56,0,0,0,0-1c0-.25-.29-2.35-.35-2.54-.07-.37.27,0,.24-.26s-.42-.67-.51-.9c0-.07,0-.13-.07-.12Zm-10.52,0s-.07,0-.09.08,0,.09,0,.11-.08,0-.08-.09a.11.11,0,0,0,0-.07h0s0,0,0,0a.14.14,0,0,0,0,.07s0,.05,0,.05h0s0,0,0,0a.17.17,0,0,0,0-.08.05.05,0,0,0-.05,0c-.11,0-.12.13-.11.17s0,.24.14.3.58.05.56-.27c0,0,0-.13,0-.15s-.06-.07-.09-.06Zm2.7,0-.18.05a.34.34,0,0,0-.06.46c.1,0,.2.15.13.21-.29.31-1,.83-1.08.92h0a2.62,2.62,0,0,0,.56,0h0a7.36,7.36,0,0,0,.93-.93l-.11-.1s0-.07,0-.11a.3.3,0,0,0,0-.46.5.5,0,0,0-.23-.05Zm7.06,0s-.05,0-.08.12a1.28,1.28,0,0,0-.15.65c.2,1.36.26,2.55.39,3.91a.53.53,0,0,1-.1.4,3.75,3.75,0,0,1-1.3.95c-.05.06.14.32.38.32a1.46,1.46,0,0,0,1.12-.89,1.61,1.61,0,0,0,.25-.68,14.85,14.85,0,0,0-.28-3.46.83.83,0,0,1,0-.24s.12,0,.17-.08-.19-.66-.34-.89c0-.06,0-.11-.07-.11Zm-10.94.05a.17.17,0,0,0-.14.11,4.47,4.47,0,0,0,0,.64,7,7,0,0,1,.18,1c0,.49-.28.21-.27,0a2.11,2.11,0,0,0,0-.92C8.21,13,8.16,13,8,13s-.33.25-.39.68a3,3,0,0,0-.08.42c0,.22-.18.38-.29,0s-.14-1-.29-.86c0,.57-.09,1.58.4,1.68s.26-1,.47-1.18c0-.1.12-.1.12,0v.89a.44.44,0,0,0,.34.44c.15,0,.25,0,.31.14,0,.52,0,1,.08,1.54,0,0,.35.11.37-.86,0-.57-.11-1.05,0-1.16s.15-.11.24-.06.22.24.46.19.58-.28.59-.56a2.24,2.24,0,0,0-.17-.79s-.07-.18-.05-.23c.07.11.16.1.19,0a.81.81,0,0,0-.32-.48c-.13-.11-.31-.09-.38.15a1.35,1.35,0,0,0,.29.86.71.71,0,0,1,.08.42.23.23,0,0,1-.3-.05s-.29-.22-.29-.27a1,1,0,0,0,0-.68.86.86,0,0,0-.2-.38c-.07-.08-.17-.08-.21,0a1.3,1.3,0,0,0,0,.91c.07.2.17.32.12.32s-.12.08-.18,0a3.45,3.45,0,0,1-.1-.84c0-.22-.06-.69-.2-.81a.13.13,0,0,0-.13-.06Zm2.06,0-.09,0a.29.29,0,0,0-.21.36c.15.89.24,1.58.39,2.48a.19.19,0,0,1-.18.23c-.19-.14-.24-.4-.57-.39a.63.63,0,0,0-.54.51,1.18,1.18,0,0,0,0,.59.49.49,0,0,0,.54.14c.15-.06.27-.21.32-.17h0c0,.05,0,.52-.68.88-.42.19-.75.23-.93-.11s0-1-.27-.83c-.8,2.08,1.89,2.37,2.19.08,0-.06.08-.13.12-.11a.1.1,0,0,1,0,.08c-.07,2.07-2.09,2.21-2.43,1.56a2,2,0,0,1-.12-.7.44.44,0,0,0-.08-.23c-.09-.06-.2.1-.22.38a2.91,2.91,0,0,0,0,.5c.11,1.64,2.72.94,3.14-.41A4.37,4.37,0,0,0,11,15.92h0c.26.28.62,0,.7-.06a.12.12,0,0,1,.18,0,.42.42,0,0,0,.63-.17,6.41,6.41,0,0,0,.09-.78.68.68,0,0,0-.28.12l0,0,0,.23h0l0,0a.09.09,0,0,1-.13-.06c-.06-.28-.32-.32-.47.12-.11.08-.3.1-.32,0,0-.29-.09-.33-.33-.19-.08-.59-.15-1.15-.23-1.73.1,0,.19.07.28-.05a3.59,3.59,0,0,0-.42-1h0v0h-.07Zm8.05,0c-.1,0-.22.07-.17.2s.22.3.26.44-.06.39,0,.42.16-.21.2-.43a.67.67,0,0,0-.27-.62Zm-6.27.22a.15.15,0,0,1,.13.1c0,.07,0,.13,0,.14a.14.14,0,0,1-.14-.09c0-.07,0-.13,0-.14ZM24,12.87a.15.15,0,0,0-.16.2c0,.08.2.34.24.48s-.05.43,0,.46.15-.23.18-.47-.08-.59-.24-.67ZM17.52,13a.5.5,0,0,1,0,.12l.06.25-.17-.21c-.16-.2,0-.13.09-.16Zm1.48.73a.11.11,0,0,0-.08.09s0,.08,0,.1-.08,0-.08-.08a.19.19,0,0,0,0-.08h0s0,0-.05,0,0,0,0,.08,0,0,0,0,0,0,0,0,0,0,0,0a.24.24,0,0,0,0-.08l0,0c-.11,0-.12.13-.11.18s0,.23.13.29.58.06.57-.27c0,0,0-.12,0-.15a.1.1,0,0,0-.1-.06Zm-6.76.07-.1,0a.42.42,0,0,0-.13.55.26.26,0,0,0,.29.09c.17,0,.28-.33.28-.33s0-.09-.21.09c-.08,0-.09,0-.12-.06a.54.54,0,0,1,0-.28c0-.05,0-.09,0-.09Zm9.56,0a.22.22,0,0,0-.23.2c0,.08,0,.12,0,.19s-.06.07-.16,0-.07-.13-.07-.13-.18,0-.25,0a.36.36,0,0,0,0,.31c.11.21.5.57.69.57,0-.19,0-.44,0-.6a.14.14,0,0,1,.07-.14c.06,0,.16.06.16,0A.77.77,0,0,0,22,14a.24.24,0,0,0-.15-.09Zm-7.91.66h0a.73.73,0,0,1-.09.09c-.09.1-.1.17-.1.37,0,0,.17.47.3.78a2.37,2.37,0,0,1,.12,1.06A2.55,2.55,0,0,1,13,17.94a.55.55,0,0,1-.45,0h0a.3.3,0,0,1-.12-.25h0a2.49,2.49,0,0,0,1.07-1.11,1.14,1.14,0,0,0,0-.79.76.76,0,0,0-.18-.37h0c.06,0,.21.09.24,0a1.14,1.14,0,0,0-.31-.57.26.26,0,0,0-.38,0c-.13.07-.15.33-.09.56s.26.2.39.54h0s0,.26,0,.35a4.31,4.31,0,0,1-.81.76h0v-.1c0-.11,0-.34,0-.38h0c-.23.15-.31.61-.35.75a10.84,10.84,0,0,0-1.64,1.11c-.2.32,1.38-.35,1.56-.44h0a1.16,1.16,0,0,0,.14.29.84.84,0,0,0,.85.28,2.72,2.72,0,0,0,1.23-1c0-.07.12-.12.19-.07a1.92,1.92,0,0,0,1.74.92c.2-.24.11-.36,0-.41s-.42-.17-.48-.33.05-.27.24-.37a8.63,8.63,0,0,0,1.61-.3,1.43,1.43,0,0,1,.18-.55.29.29,0,0,1,.09-.1h0v0l-.09-.05H16a.06.06,0,0,1-.05,0h0l.06,0c.41-.06,1.16-.18,1.2-.89a.62.62,0,0,0-.61-.69.63.63,0,0,0-.54.71c0,.1,0,.28-.06.31-.64.05-1.35.46-1.37.75h0a.18.18,0,0,1-.09-.18,3.27,3.27,0,0,0-.44-1.49.65.65,0,0,0-.15-.14h0Zm1.67.27s-.07,0-.08.08,0,.09,0,.1-.08,0-.08-.08a.19.19,0,0,0,0-.08h0s0,0-.05,0a.15.15,0,0,0,0,.07.07.07,0,0,1,0,.05h0s0,0,0,0a.14.14,0,0,0,0-.07.05.05,0,0,0,0,0c-.11,0-.11.12-.11.17s0,.24.14.3.68,0,.56-.27a.71.71,0,0,0,0-.15s-.05-.07-.09-.06Zm6.75.27h0l-1,.68c-.09.08-.05.37,0,.34a3.45,3.45,0,0,0,1-.69s.06-.32,0-.34Zm-5.87.1a.27.27,0,0,1,.14,0c.07,0,.11.1.1.14h0s-.11,0-.19,0-.11-.1-.1-.15h0v0h0l0,0Zm-8.17.17a1.56,1.56,0,0,0-1.21,1l1.53-.73c-.08-.13,0-.24-.32-.25Zm1.57.22a.13.13,0,0,1,.12.09.15.15,0,0,1,0,.15h0s-.09,0-.14,0a.14.14,0,0,1-.13-.06c0-.05,0-.11.06-.15h0a.13.13,0,0,1,.09,0Zm12.29.19A.16.16,0,0,0,22,16c0,.08.12.34.15.49s0,.38,0,.41.23-.17.22-.42,0-.61-.21-.7Zm-10.44.47c-.08,0-.14.05-.11.15s.21.18.22.36,0,.31,0,.33.15-.16.18-.34-.08-.43-.24-.49Zm3.12.43h0a5.24,5.24,0,0,0,.74.08c.2,0,.3.17.11.24s-.37.11-.37.39a.33.33,0,0,1,0,.23h0s-.11,0-.16-.06a1,1,0,0,1-.49-.71.18.18,0,0,1,.18-.19ZM7.18,17s0,0-.07.08A1.52,1.52,0,0,0,7,18.39a.32.32,0,0,0,.32.11.61.61,0,0,0,.22-.58c-.06-.09-.11-.11-.17,0-.12.25-.18.08-.19-.07a3.22,3.22,0,0,1,0-.72c0-.1,0-.14,0-.14Zm9.8.6a.11.11,0,0,0-.07,0,1.29,1.29,0,0,0-.27.23s0,.05,0,.1.08,0,.15,0,.12,0,.11.14a.18.18,0,0,0,0,.18.16.16,0,0,0,.17,0,2.85,2.85,0,0,1,.59-.21c.07,0,.07-.19-.05-.2a.72.72,0,0,0-.43.13c-.09,0-.11,0-.13-.08s.05-.21,0-.3a.18.18,0,0,0-.11-.05Zm6.27.24h-.13c-.06,0-.08,0-.09.11s.07.1.14.15.07.09,0,.18l-.18.15c0,.05,0,.13.05.16s.57-.21.57-.22a.11.11,0,0,0,0-.14c0-.05-.12,0-.18,0s-.12,0-.07-.09,0-.08.07-.14,0-.1-.1-.13a.26.26,0,0,0-.12,0Zm-2.62,5.3h0a.28.28,0,0,0-.09.51c-3.07,0-7.77-.05-8.78-.05-.56,0-2.35-.07-2.38-.07a1.8,1.8,0,0,0,1.66.69l9.46,0a.63.63,0,0,0,.11.66h0a.2.2,0,0,0,.21-.12,12.51,12.51,0,0,0,1.38,0h0c.06.1.13.2.26.18s.4-.07.4-.53c0,0,0-.77-.53-.72l-.45.05c-.39-.05-.68-.05-1.12-.07,0-.05.11-.26,0-.33a.18.18,0,0,0-.11,0h0s0-.11-.05-.13h0Zm.21,1.11h0c.45,0,.87,0,1.32,0a.17.17,0,0,1,0,.23h-.39v0c0-.1-.29-.1-.35,0h0a2.73,2.73,0,0,1-.57,0c-.05-.07-.05-.2,0-.23Z"/></g></svg>