<svg id="Layer_1" data-name="Layer 1" xmlns="http://www.w3.org/2000/svg" viewBox="0 0 32 32"><defs><style>.cls-1,.cls-4{fill:#d21034;}.cls-1,.cls-3{fill-rule:evenodd;}.cls-2{fill:#005293;}.cls-3{fill:#fff;}</style></defs><title>Panama</title><g id="_Group_" data-name="&lt;Group&gt;"><path id="_Path_" data-name="&lt;Path&gt;" class="cls-1" d="M16,0V16H32A16,16,0,0,0,16,0Z"/><path id="_Path_2" data-name="&lt;Path&gt;" class="cls-2" d="M0,16A16,16,0,0,0,16,32V16Z"/><path id="_Path_3" data-name="&lt;Path&gt;" class="cls-3" d="M16,16V32h0A16,16,0,0,0,32,16Z"/><path id="_Path_4" data-name="&lt;Path&gt;" class="cls-3" d="M0,16H16V0A16,16,0,0,0,0,16Z"/><path id="_Path_5" data-name="&lt;Path&gt;" class="cls-2" d="M7.61,7.59c.25-.73.47-1.48.73-2.21.26.73.48,1.48.73,2.22h2.35L9.52,9c.22.74.49,1.48.71,2.23L8.34,9.84c-.64.44-1.26.92-1.9,1.36.23-.75.49-1.48.72-2.22-.63-.47-1.27-.91-1.88-1.38Z"/><path id="_Path_6" data-name="&lt;Path&gt;" class="cls-4" d="M22.81,21.66c.25-.74.47-1.49.73-2.22.26.73.48,1.48.73,2.22h2.35c-.63.47-1.27.92-1.9,1.38.22.75.49,1.49.71,2.23L23.54,23.9c-.64.45-1.26.92-1.9,1.36.23-.74.49-1.48.72-2.22-.63-.47-1.27-.91-1.88-1.38C21.26,21.65,22,21.66,22.81,21.66Z"/></g></svg>