<svg id="Layer_1" data-name="Layer 1" xmlns="http://www.w3.org/2000/svg" viewBox="0 0 32 32"><defs><style>.cls-1,.cls-6{fill:red;}.cls-1,.cls-2{fill-rule:evenodd;}.cls-2{fill:#060;}.cls-3{fill:#ff0;}.cls-4{fill:#fce12e;}.cls-5{fill:#fff;}.cls-7{fill:#039;}</style></defs><title>Portugal</title><g id="_Group_" data-name="&lt;Group&gt;"><path id="_Path_" data-name="&lt;Path&gt;" class="cls-1" d="M9.5,30.62V1.38L9,1.62A15.87,15.87,0,0,1,16,0,16,16,0,1,1,9,30.37Z"/><path id="_Path_2" data-name="&lt;Path&gt;" class="cls-2" d="M9.5,30.59a16,16,0,0,1,0-29.23Z"/><g id="_Group_2" data-name="&lt;Group&gt;"><path id="_Path_3" data-name="&lt;Path&gt;" class="cls-3" d="M14.6,18.38h-.12a21.47,21.47,0,0,1-5-2.34A21.29,21.29,0,0,1,5,12.87a.24.24,0,0,1-.06-.09l-.49.84c0,.05,0,.06,0,.15A20.89,20.89,0,0,0,9,16.94a21,21,0,0,0,5,2.34c.12,0,.1,0,.14-.06Z"/><path id="_Path_4" data-name="&lt;Path&gt;" class="cls-4" d="M4.89,12.71s0,.12.08.22a21.68,21.68,0,0,0,4.51,3.16,21.28,21.28,0,0,0,5,2.34c.13,0,.2,0,.23,0s-.09-.24-.09-.24.07.16-.05.15a21.6,21.6,0,0,1-5-2.35A21.36,21.36,0,0,1,5,12.79c-.07-.1,0-.1.09-.12-.14,0-.19,0-.24,0"/><path id="_Path_5" data-name="&lt;Path&gt;" class="cls-3" d="M4.33,13.67c0,.06,0,.13.08.24a21.78,21.78,0,0,0,4.51,3.15,21.47,21.47,0,0,0,5,2.34c.13,0,.2,0,.23,0s0,0,0-.12,0,0-.12,0a21.16,21.16,0,0,1-5-2.35,21.36,21.36,0,0,1-4.52-3.16c-.07-.1,0-.08,0-.12a.13.13,0,0,0-.11,0"/><path id="_Path_6" data-name="&lt;Path&gt;" class="cls-3" d="M4.9,19a16.25,16.25,0,0,0,4.6.44A16.3,16.3,0,0,0,14.1,19l.28-.48A16.7,16.7,0,0,1,9.5,19a16.56,16.56,0,0,1-4.87-.48Z"/><path id="_Path_7" data-name="&lt;Path&gt;" class="cls-3" d="M14.17,18.89A.26.26,0,0,1,14,19a17.43,17.43,0,0,1-4.54.42A17.34,17.34,0,0,1,5,19l-.14-.07a.13.13,0,0,0,0,.05c0,.32,2.09.58,4.68.58s4.69-.26,4.69-.58a.12.12,0,0,0,0-.06"/><path id="_Path_8" data-name="&lt;Path&gt;" class="cls-3" d="M4.61,18.38c0,.05,0,.1.08.13A18.44,18.44,0,0,0,9.5,19a19.54,19.54,0,0,0,4.82-.45s.1-.05.08-.11a.1.1,0,0,1,.06.09c0,.34-2.22.62-5,.62s-4.95-.28-4.95-.62a.1.1,0,0,1,.06-.1"/><path id="_Path_9" data-name="&lt;Path&gt;" class="cls-3" d="M15,15.81l-.1.07c-.62.41-2.81.71-5.41.71s-4.79-.3-5.41-.71L4,15.81v.36c0,.08,0,.11.08.18.61.41,2.81.72,5.42.72s4.82-.31,5.42-.72c.11-.07.07-.11.09-.18Z"/><path id="_Path_10" data-name="&lt;Path&gt;" class="cls-3" d="M14.93,15.6c.06.09.1.18,0,.25-.6.42-2.8.72-5.42.72s-4.81-.3-5.41-.72c-.11-.07-.07-.17,0-.25s-.16.1-.16.18.06.16.17.24c.63.41,2.81.71,5.41.71s4.79-.3,5.41-.71c.12-.08.19-.13.18-.24s-.16-.18-.16-.18"/><path id="_Path_11" data-name="&lt;Path&gt;" class="cls-3" d="M15,16.14a.24.24,0,0,1-.09.19c-.6.41-2.8.71-5.42.71s-4.81-.3-5.41-.71c-.11-.08-.1-.11-.1-.19a.18.18,0,0,0-.07.12c0,.1.06.16.17.23.63.41,2.81.71,5.41.71s4.79-.3,5.41-.71c.12-.07.18-.12.18-.23a.16.16,0,0,0-.08-.12"/><path id="_Path_12" data-name="&lt;Path&gt;" class="cls-3" d="M14.41,13.52c-.13.33-2.28.58-4.91.58s-4.71-.25-4.89-.56l.26-.49c.16.3,2.17.54,4.63.54s4.48-.24,4.64-.54Z"/><path id="_Path_13" data-name="&lt;Path&gt;" class="cls-3" d="M14.17,13a.38.38,0,0,1-.13.09,18,18,0,0,1-4.54.41A18,18,0,0,1,5,13.1L4.83,13a.13.13,0,0,0,0,.05c0,.32,2.09.59,4.68.59s4.69-.27,4.69-.59a.12.12,0,0,0,0-.06"/><path id="_Path_14" data-name="&lt;Path&gt;" class="cls-3" d="M4.61,13.45a.11.11,0,0,0,.08.13A18,18,0,0,0,9.5,14a20.24,20.24,0,0,0,4.82-.44s.1-.05.08-.12a.11.11,0,0,1,.06.09c0,.34-2.22.62-5,.62s-4.95-.28-4.95-.62a.1.1,0,0,1,.06-.1"/><path id="_Compound_Path_" data-name="&lt;Compound Path&gt;" class="cls-3" d="M9.5,11.23A4.8,4.8,0,1,0,14.3,16a4.79,4.79,0,0,0-4.8-4.8M14.93,16A5.43,5.43,0,1,1,9.5,10.6,5.43,5.43,0,0,1,14.93,16"/><path id="_Path_15" data-name="&lt;Path&gt;" class="cls-3" d="M4,16.27l.11-.08c.62-.41,2.8-.71,5.41-.71s4.78.3,5.4.71l.1.07v-.35c0-.08,0-.11-.09-.19-.6-.41-2.8-.71-5.41-.71s-4.82.3-5.42.71c-.11.08-.07.11-.09.19Z"/><path id="_Path_16" data-name="&lt;Path&gt;" class="cls-3" d="M4.08,16.47c-.06-.08-.1-.18,0-.25.6-.41,2.8-.72,5.41-.72s4.82.31,5.42.72c.11.07.07.17,0,.26s.16-.11.16-.19-.06-.16-.18-.24c-.62-.4-2.8-.7-5.41-.7s-4.79.3-5.41.7c-.11.08-.18.13-.17.24s.16.18.16.18"/><path id="_Path_17" data-name="&lt;Path&gt;" class="cls-3" d="M4,15.94a.22.22,0,0,1,.09-.19c.6-.41,2.8-.72,5.41-.72s4.82.3,5.42.72c.11.07.1.1.09.19a.22.22,0,0,0,.08-.12c0-.11-.06-.16-.18-.24-.62-.41-2.8-.71-5.41-.71s-4.79.3-5.41.71c-.11.08-.17.12-.17.24a.21.21,0,0,0,.08.12"/><rect id="_Path_18" data-name="&lt;Path&gt;" class="cls-3" x="9.27" y="10.52" width="0.47" height="11.01"/><path id="_Path_19" data-name="&lt;Path&gt;" class="cls-3" d="M9.35,21.54a.08.08,0,0,1-.16,0v-11a.08.08,0,0,1,.16,0Z"/><path id="_Path_20" data-name="&lt;Path&gt;" class="cls-3" d="M9.82,21.54a.08.08,0,0,1-.16,0v-11a.08.08,0,0,1,.16,0Z"/><path id="_Path_21" data-name="&lt;Path&gt;" class="cls-3" d="M4.6,18.49c.13-.32,2.28-.58,4.9-.58s4.72.25,4.9.57l-.26.48c-.16-.3-2.18-.54-4.64-.54S5,18.66,4.87,19Z"/><path id="_Path_22" data-name="&lt;Path&gt;" class="cls-3" d="M5,19.12c-.15-.12-.11-.18,0-.2a17.48,17.48,0,0,1,4.53-.41,17.52,17.52,0,0,1,4.54.41c.05,0,.08.08,0,.19.21-.08.2-.16.2-.16,0-.33-2.1-.59-4.69-.59s-4.68.26-4.68.59c0,0,0,.08.2.17"/><path id="_Path_23" data-name="&lt;Path&gt;" class="cls-3" d="M14.34,18.6a.09.09,0,0,0,0-.16A17.9,17.9,0,0,0,9.5,18a19.5,19.5,0,0,0-4.81.45.1.1,0,0,0-.05.16c-.12-.08-.09-.14-.09-.14,0-.34,2.22-.62,5-.62s5,.28,5,.62a.18.18,0,0,1-.12.14"/><path id="_Path_24" data-name="&lt;Path&gt;" class="cls-3" d="M14.1,13a15.65,15.65,0,0,0-4.6-.45A16.22,16.22,0,0,0,4.91,13l-.28.48A16.79,16.79,0,0,1,9.5,13a16.24,16.24,0,0,1,4.88.48Z"/><path id="_Path_25" data-name="&lt;Path&gt;" class="cls-3" d="M4.83,13.12A.5.5,0,0,1,5,13a17.48,17.48,0,0,1,4.53-.41A17.52,17.52,0,0,1,14,13a.5.5,0,0,1,.14.08.21.21,0,0,0,0-.06c0-.32-2.1-.58-4.69-.58s-4.68.26-4.68.58a.21.21,0,0,0,0,.06"/><path id="_Path_26" data-name="&lt;Path&gt;" class="cls-3" d="M14.4,13.64a.11.11,0,0,0-.08-.13,18,18,0,0,0-4.82-.44,19.66,19.66,0,0,0-4.81.44c-.05,0-.1.05-.09.11a.09.09,0,0,1,0-.08c0-.34,2.22-.62,5-.62s5,.28,5,.62a.13.13,0,0,1-.06.1"/><path id="_Path_27" data-name="&lt;Path&gt;" class="cls-3" d="M4.41,13.68h.11A21.28,21.28,0,0,1,9.5,16,21.68,21.68,0,0,1,14,19.19l.06.09.48-.84c0-.05.06-.05,0-.15A21.65,21.65,0,0,0,10,15.13a21.16,21.16,0,0,0-5-2.35c-.12,0-.1,0-.14.06Z"/><path id="_Path_28" data-name="&lt;Path&gt;" class="cls-3" d="M14.12,19.35c0-.05,0-.12-.08-.22A21.38,21.38,0,0,0,9.53,16a21.22,21.22,0,0,0-5-2.35c-.13,0-.21,0-.24,0s.1.23.1.23-.07-.16,0-.14a21,21,0,0,1,5,2.34A21.36,21.36,0,0,1,14,19.27c.07.1,0,.11-.09.12.14,0,.19,0,.24,0"/><path id="_Path_29" data-name="&lt;Path&gt;" class="cls-3" d="M14.68,18.39c0-.05,0-.13-.08-.23A21.68,21.68,0,0,0,10.09,15a21.28,21.28,0,0,0-5-2.34c-.12,0-.19,0-.23,0s0,0,0,.13,0-.05.11,0a21.41,21.41,0,0,1,5,2.35,21.65,21.65,0,0,1,4.52,3.16c.07.1,0,.08,0,.13a.19.19,0,0,0,.11,0"/><path id="_Path_30" data-name="&lt;Path&gt;" class="cls-5" d="M6.22,16.63a3.29,3.29,0,1,0,6.57,0V12.39H6.22Z"/><g id="_Group_3" data-name="&lt;Group&gt;"><path id="_Compound_Path_2" data-name="&lt;Compound Path&gt;" class="cls-5" d="M9.52,19.94A3.32,3.32,0,0,1,6.2,16.63V12.37h6.61v4.26A3.31,3.31,0,0,1,9.52,19.94ZM6.24,12.41v4.22a3.27,3.27,0,0,0,6.53,0V12.41Z"/></g><path id="_Path_31" data-name="&lt;Path&gt;" class="cls-6" d="M6.29,16.62a3.21,3.21,0,1,0,6.42,0V12.48H6.29Z"/><polygon id="_Path_32" data-name="&lt;Path&gt;" class="cls-3" points="11.46 17.59 11.5 17.63 11.45 17.68 11.49 17.71 11.54 17.67 11.58 17.7 11.53 17.75 11.56 17.79 11.61 17.74 11.65 17.78 11.61 17.83 11.59 17.81 11.56 17.84 11.41 17.68 11.43 17.66 11.41 17.64 11.46 17.59"/><polygon id="_Path_33" data-name="&lt;Path&gt;" class="cls-3" points="11.76 17.68 11.7 17.73 11.72 17.75 11.7 17.77 11.85 17.93 11.88 17.91 11.9 17.93 11.95 17.87 11.91 17.83 11.86 17.89 11.82 17.85 11.87 17.8 11.83 17.76 11.78 17.81 11.74 17.77 11.79 17.72 11.76 17.68"/><polygon id="_Path_34" data-name="&lt;Path&gt;" class="cls-3" points="11.85 17.98 11.8 18.02 11.82 18.04 11.79 18.07 11.95 18.22 11.97 18.2 11.99 18.22 12.04 18.17 12 18.13 11.95 18.18 11.91 18.14 11.96 18.09 11.93 18.05 11.88 18.1 11.84 18.06 11.89 18.01 11.85 17.98"/><rect id="_Path_35" data-name="&lt;Path&gt;" class="cls-3" x="11.47" y="17.76" width="0.03" height="0.76" transform="translate(-9.46 13.44) rotate(-45)"/><polygon id="_Path_36" data-name="&lt;Path&gt;" class="cls-3" points="11.18 17.91 11.15 17.93 11.7 18.48 11.72 18.45 11.18 17.91"/><path id="_Path_37" data-name="&lt;Path&gt;" class="cls-3" d="M11.46,18.74a.55.55,0,0,0,.08-.15l.06-.06,0,0,.05-.05L11.13,18l-.05.05,0,0-.06.06-.15.08.09.09a.32.32,0,0,1,.39,0,.29.29,0,0,1,0,.39Z"/><path id="_Compound_Path_3" data-name="&lt;Compound Path&gt;" class="cls-3" d="M11.24,18.58a.16.16,0,0,0,0-.23.16.16,0,0,0-.22,0Zm.23.22-.06.09-.67-.67.09-.06.17.17a.26.26,0,0,1,.35,0,.25.25,0,0,1,0,.35Z"/><path id="_Path_38" data-name="&lt;Path&gt;" class="cls-3" d="M11.23,18.51a.08.08,0,1,0-.11-.11Z"/><path id="_Compound_Path_4" data-name="&lt;Compound Path&gt;" class="cls-3" d="M11.41,17.8l-.05.06,0,0,.06-.06Zm.1,0-.12.13-.11-.12.12-.12Z"/><path id="_Compound_Path_5" data-name="&lt;Compound Path&gt;" class="cls-3" d="M11.8,18.19l-.06.06,0,0,.05-.05Zm.1,0-.12.12-.12-.11.13-.13Z"/><path id="_Compound_Path_6" data-name="&lt;Compound Path&gt;" class="cls-3" d="M11.67,17.93l-.09.09,0,0,.09-.09Zm.14,0-.23.22L11.47,18l.22-.22Z"/><polygon id="_Path_39" data-name="&lt;Path&gt;" class="cls-3" points="6.98 18.17 7.02 18.13 7.07 18.18 7.11 18.14 7.06 18.09 7.09 18.05 7.14 18.1 7.18 18.06 7.13 18.01 7.17 17.98 7.22 18.02 7.2 18.04 7.23 18.07 7.07 18.22 7.05 18.2 7.03 18.22 6.98 18.17"/><polygon id="_Path_40" data-name="&lt;Path&gt;" class="cls-3" points="7.07 17.87 7.12 17.93 7.14 17.91 7.17 17.93 7.32 17.77 7.3 17.75 7.32 17.73 7.26 17.68 7.22 17.72 7.28 17.77 7.24 17.81 7.19 17.76 7.15 17.8 7.2 17.85 7.16 17.89 7.11 17.84 7.07 17.87"/><polygon id="_Path_41" data-name="&lt;Path&gt;" class="cls-3" points="7.37 17.78 7.42 17.83 7.43 17.81 7.46 17.84 7.61 17.68 7.59 17.66 7.61 17.64 7.56 17.59 7.52 17.63 7.57 17.68 7.53 17.71 7.48 17.67 7.44 17.7 7.49 17.75 7.45 17.79 7.4 17.74 7.37 17.78"/><polygon id="_Path_42" data-name="&lt;Path&gt;" class="cls-3" points="7.25 18.4 7.27 18.42 7.81 17.88 7.79 17.86 7.25 18.4"/><polygon id="_Path_43" data-name="&lt;Path&gt;" class="cls-3" points="7.3 18.45 7.33 18.47 7.87 17.93 7.84 17.91 7.3 18.45"/><path id="_Path_44" data-name="&lt;Path&gt;" class="cls-3" d="M8.13,18.17A.55.55,0,0,0,8,18.09L7.92,18l0,0L7.89,18l-.54.54.05.05,0,0,.06.06a1.09,1.09,0,0,0,.08.15l.1-.09a.32.32,0,0,1,0-.4.3.3,0,0,1,.39,0Z"/><path id="_Compound_Path_7" data-name="&lt;Compound Path&gt;" class="cls-3" d="M8,18.38a.15.15,0,1,0-.2.2Zm.22-.22.09.06-.67.67-.06-.09.17-.17a.26.26,0,0,1,0-.35.24.24,0,0,1,.35,0Z"/><path id="_Path_45" data-name="&lt;Path&gt;" class="cls-3" d="M7.9,18.4a.08.08,0,1,0-.11.11Z"/><path id="_Compound_Path_8" data-name="&lt;Compound Path&gt;" class="cls-3" d="M7.2,18.22l0,.05,0,0-.06-.06Zm0-.11.13.13-.12.11-.12-.12Z"/><path id="_Compound_Path_9" data-name="&lt;Compound Path&gt;" class="cls-3" d="M7.58,17.83l.06.06,0,0,0-.06Zm0-.1.12.12L7.63,18l-.13-.13Z"/><path id="_Compound_Path_10" data-name="&lt;Compound Path&gt;" class="cls-3" d="M7.32,18l.09.09,0,0-.09-.08Zm0-.14.22.22-.12.12-.22-.22Z"/><polygon id="_Path_46" data-name="&lt;Path&gt;" class="cls-3" points="6.58 15.21 6.64 15.21 6.64 15.28 6.7 15.28 6.7 15.21 6.75 15.21 6.75 15.28 6.8 15.28 6.8 15.21 6.86 15.21 6.86 15.28 6.83 15.28 6.83 15.31 6.61 15.31 6.61 15.28 6.58 15.28 6.58 15.21"/><polygon id="_Path_47" data-name="&lt;Path&gt;" class="cls-3" points="6.86 15.06 6.86 15.14 6.88 15.14 6.88 15.17 7.11 15.17 7.11 15.14 7.13 15.14 7.13 15.06 7.08 15.06 7.08 15.14 7.02 15.14 7.02 15.06 6.97 15.06 6.97 15.14 6.91 15.14 6.91 15.06 6.86 15.06"/><polygon id="_Path_48" data-name="&lt;Path&gt;" class="cls-3" points="7.13 15.21 7.13 15.28 7.16 15.28 7.16 15.31 7.38 15.31 7.38 15.28 7.41 15.28 7.41 15.21 7.35 15.21 7.35 15.28 7.29 15.28 7.29 15.21 7.24 15.21 7.24 15.28 7.19 15.28 7.19 15.21 7.13 15.21"/><rect id="_Path_49" data-name="&lt;Path&gt;" class="cls-3" x="6.61" y="15.56" width="0.76" height="0.03"/><rect id="_Path_50" data-name="&lt;Path&gt;" class="cls-3" x="6.61" y="15.63" width="0.76" height="0.04"/><path id="_Path_51" data-name="&lt;Path&gt;" class="cls-3" d="M7.4,16a.75.75,0,0,0-.05-.16v-.08h0V15.7H6.61v.08h0v.08a.75.75,0,0,0,0,.16h.14a.27.27,0,1,1,.53,0Z"/><path id="_Compound_Path_11" data-name="&lt;Compound Path&gt;" class="cls-3" d="M7.13,16.06c0-.1-.06-.18-.13-.18a.16.16,0,0,0-.14.18Zm.31,0,0,.11h-1a.52.52,0,0,0,0-.11h.24c0-.16.09-.28.22-.28s.21.12.21.28Z"/><path id="_Path_52" data-name="&lt;Path&gt;" class="cls-3" d="M7.07,16s0-.1-.07-.1a.09.09,0,0,0-.08.1Z"/><path id="_Compound_Path_12" data-name="&lt;Compound Path&gt;" class="cls-3" d="M6.7,15.47h0V15.4h0Zm0-.07.1.12H6.64v-.17H6.8Z"/><path id="_Compound_Path_13" data-name="&lt;Compound Path&gt;" class="cls-3" d="M7.25,15.47h0V15.4h0Zm0-.07.1.12H7.19v-.17h.16Z"/><path id="_Compound_Path_14" data-name="&lt;Compound Path&gt;" class="cls-3" d="M7,15.43H7v-.12H7Zm0-.12.11.21H6.91v-.31h.17Z"/><polygon id="_Path_53" data-name="&lt;Path&gt;" class="cls-3" points="11.6 15.21 11.65 15.21 11.65 15.28 11.71 15.28 11.71 15.21 11.76 15.21 11.76 15.28 11.81 15.28 11.81 15.21 11.87 15.21 11.87 15.28 11.84 15.28 11.84 15.31 11.62 15.31 11.62 15.28 11.6 15.28 11.6 15.21"/><polygon id="_Path_54" data-name="&lt;Path&gt;" class="cls-3" points="11.87 15.06 11.87 15.14 11.89 15.14 11.89 15.17 12.12 15.17 12.12 15.14 12.14 15.14 12.14 15.06 12.09 15.06 12.09 15.14 12.03 15.14 12.03 15.06 11.98 15.06 11.98 15.14 11.92 15.14 11.92 15.06 11.87 15.06"/><polygon id="_Path_55" data-name="&lt;Path&gt;" class="cls-3" points="12.14 15.21 12.14 15.28 12.17 15.28 12.17 15.31 12.39 15.31 12.39 15.28 12.42 15.28 12.42 15.21 12.36 15.21 12.36 15.28 12.31 15.28 12.31 15.21 12.25 15.21 12.25 15.28 12.2 15.28 12.2 15.21 12.14 15.21"/><rect id="_Path_56" data-name="&lt;Path&gt;" class="cls-3" x="11.62" y="15.56" width="0.76" height="0.03"/><rect id="_Path_57" data-name="&lt;Path&gt;" class="cls-3" x="11.62" y="15.63" width="0.76" height="0.04"/><path id="_Path_58" data-name="&lt;Path&gt;" class="cls-3" d="M12.41,16a.43.43,0,0,0-.05-.16v-.08h0V15.7h-.77v.08h0v.08a.75.75,0,0,0-.05.16h.14a.27.27,0,1,1,.53,0Z"/><path id="_Compound_Path_15" data-name="&lt;Compound Path&gt;" class="cls-3" d="M12.14,16.06c0-.1-.06-.18-.13-.18a.16.16,0,0,0-.14.18Zm.32,0s0,.07,0,.11h-1l0-.11h.23a.23.23,0,1,1,.44,0Z"/><path id="_Path_59" data-name="&lt;Path&gt;" class="cls-3" d="M12.08,16s0-.1-.07-.1a.09.09,0,0,0-.08.1Z"/><path id="_Compound_Path_16" data-name="&lt;Compound Path&gt;" class="cls-3" d="M11.71,15.47h0V15.4h0Zm0-.07.1.12h-.16v-.17h.16Z"/><path id="_Compound_Path_17" data-name="&lt;Compound Path&gt;" class="cls-3" d="M12.26,15.47h0V15.4h0Zm0-.07.1.12H12.2v-.17h.16Z"/><path id="_Compound_Path_18" data-name="&lt;Compound Path&gt;" class="cls-3" d="M12,15.43h0v-.12h0Zm0-.12.1.21h-.17v-.31h.17Z"/><polygon id="_Path_60" data-name="&lt;Path&gt;" class="cls-3" points="11.6 12.84 11.65 12.84 11.65 12.91 11.71 12.91 11.71 12.84 11.76 12.84 11.76 12.91 11.81 12.91 11.81 12.84 11.87 12.84 11.87 12.91 11.84 12.91 11.84 12.95 11.62 12.95 11.62 12.91 11.6 12.91 11.6 12.84"/><polygon id="_Path_61" data-name="&lt;Path&gt;" class="cls-3" points="11.87 12.7 11.87 12.77 11.89 12.77 11.89 12.81 12.12 12.81 12.12 12.77 12.14 12.77 12.14 12.7 12.09 12.7 12.09 12.77 12.03 12.77 12.03 12.7 11.98 12.7 11.98 12.77 11.92 12.77 11.92 12.7 11.87 12.7"/><polygon id="_Path_62" data-name="&lt;Path&gt;" class="cls-3" points="12.14 12.84 12.14 12.91 12.17 12.91 12.17 12.95 12.39 12.95 12.39 12.91 12.42 12.91 12.42 12.84 12.36 12.84 12.36 12.91 12.31 12.91 12.31 12.84 12.25 12.84 12.25 12.91 12.2 12.91 12.2 12.84 12.14 12.84"/><rect id="_Path_63" data-name="&lt;Path&gt;" class="cls-3" x="11.62" y="13.2" width="0.76" height="0.03"/><rect id="_Path_64" data-name="&lt;Path&gt;" class="cls-3" x="11.62" y="13.27" width="0.76" height="0.04"/><path id="_Path_65" data-name="&lt;Path&gt;" class="cls-3" d="M12.41,13.66a.48.48,0,0,0-.05-.17v-.08h0v-.07h-.77v.07h0v.09a.6.6,0,0,0-.05.16h.14a.27.27,0,1,1,.53,0Z"/><path id="_Compound_Path_19" data-name="&lt;Compound Path&gt;" class="cls-3" d="M12.14,13.7c0-.1-.06-.18-.13-.18a.16.16,0,0,0-.14.18Zm.32,0s0,.07,0,.11h-1l0-.11h.23a.23.23,0,1,1,.44,0Z"/><path id="_Path_66" data-name="&lt;Path&gt;" class="cls-3" d="M12.08,13.66c0-.06,0-.11-.07-.11s-.08,0-.08.11Z"/><path id="_Compound_Path_20" data-name="&lt;Compound Path&gt;" class="cls-3" d="M11.71,13.11h0V13h0Zm0-.08.1.13h-.16V13h.16Z"/><path id="_Compound_Path_21" data-name="&lt;Compound Path&gt;" class="cls-3" d="M12.26,13.11h0V13h0Zm0-.08.1.13H12.2V13h.16Z"/><path id="_Compound_Path_22" data-name="&lt;Compound Path&gt;" class="cls-3" d="M12,13.07h0v-.13h0Zm0-.13.1.22h-.17v-.32h.17Z"/><polygon id="_Path_67" data-name="&lt;Path&gt;" class="cls-3" points="6.58 12.84 6.64 12.84 6.64 12.91 6.7 12.91 6.7 12.84 6.75 12.84 6.75 12.91 6.8 12.91 6.8 12.84 6.86 12.84 6.86 12.91 6.83 12.91 6.83 12.95 6.61 12.95 6.61 12.91 6.58 12.91 6.58 12.84"/><polygon id="_Path_68" data-name="&lt;Path&gt;" class="cls-3" points="6.86 12.7 6.86 12.77 6.88 12.77 6.88 12.81 7.1 12.81 7.1 12.77 7.13 12.77 7.13 12.7 7.08 12.7 7.08 12.77 7.02 12.77 7.02 12.7 6.97 12.7 6.97 12.77 6.91 12.77 6.91 12.7 6.86 12.7"/><polygon id="_Path_69" data-name="&lt;Path&gt;" class="cls-3" points="7.13 12.84 7.13 12.91 7.16 12.91 7.16 12.95 7.38 12.95 7.38 12.91 7.41 12.91 7.41 12.84 7.35 12.84 7.35 12.91 7.29 12.91 7.29 12.84 7.24 12.84 7.24 12.91 7.19 12.91 7.19 12.84 7.13 12.84"/><rect id="_Path_70" data-name="&lt;Path&gt;" class="cls-3" x="6.61" y="13.2" width="0.76" height="0.03"/><rect id="_Path_71" data-name="&lt;Path&gt;" class="cls-3" x="6.61" y="13.27" width="0.76" height="0.04"/><path id="_Path_72" data-name="&lt;Path&gt;" class="cls-3" d="M7.4,13.66a.84.84,0,0,0-.05-.17v-.08h0v-.07H6.61v.07h0v.09a.6.6,0,0,0,0,.16h.14A.3.3,0,0,1,7,13.37a.3.3,0,0,1,.26.29Z"/><path id="_Compound_Path_23" data-name="&lt;Compound Path&gt;" class="cls-3" d="M7.13,13.7c0-.1-.06-.18-.13-.18a.16.16,0,0,0-.14.18Zm.31,0,0,.11h-1a.43.43,0,0,0,0-.11h.24A.25.25,0,0,1,7,13.41c.12,0,.21.13.21.28Z"/><path id="_Path_73" data-name="&lt;Path&gt;" class="cls-3" d="M7.07,13.66c0-.06,0-.11-.07-.11s-.08,0-.08.11Z"/><path id="_Compound_Path_24" data-name="&lt;Compound Path&gt;" class="cls-3" d="M6.7,13.11h0V13h0Zm0-.08.1.13H6.64V13H6.8Z"/><path id="_Compound_Path_25" data-name="&lt;Compound Path&gt;" class="cls-3" d="M7.25,13.11h0V13h0Zm0-.08.1.13H7.19V13h.16Z"/><path id="_Compound_Path_26" data-name="&lt;Compound Path&gt;" class="cls-3" d="M7,13.07H7v-.13H7Zm0-.13.11.22H6.91v-.32h.17Z"/><polygon id="_Path_74" data-name="&lt;Path&gt;" class="cls-3" points="9.1 12.84 9.15 12.84 9.15 12.91 9.21 12.91 9.21 12.84 9.26 12.84 9.26 12.91 9.31 12.91 9.31 12.84 9.37 12.84 9.37 12.91 9.34 12.91 9.34 12.94 9.12 12.94 9.12 12.91 9.1 12.91 9.1 12.84"/><polygon id="_Path_75" data-name="&lt;Path&gt;" class="cls-3" points="9.37 12.7 9.37 12.77 9.39 12.77 9.39 12.81 9.61 12.81 9.61 12.77 9.64 12.77 9.64 12.7 9.59 12.7 9.59 12.77 9.53 12.77 9.53 12.7 9.48 12.7 9.48 12.77 9.42 12.77 9.42 12.7 9.37 12.7"/><polygon id="_Path_76" data-name="&lt;Path&gt;" class="cls-3" points="9.64 12.84 9.64 12.91 9.67 12.91 9.67 12.94 9.89 12.94 9.89 12.91 9.91 12.91 9.91 12.84 9.86 12.84 9.86 12.91 9.8 12.91 9.8 12.84 9.75 12.84 9.75 12.91 9.7 12.91 9.7 12.84 9.64 12.84"/><rect id="_Path_77" data-name="&lt;Path&gt;" class="cls-3" x="9.12" y="13.2" width="0.77" height="0.03"/><rect id="_Path_78" data-name="&lt;Path&gt;" class="cls-3" x="9.12" y="13.27" width="0.77" height="0.04"/><path id="_Path_79" data-name="&lt;Path&gt;" class="cls-3" d="M9.91,13.66a.84.84,0,0,0-.05-.17v-.08h0v-.07H9.12v.07h0v.08a.84.84,0,0,0-.05.17h.13c0-.16.14-.29.27-.29a.29.29,0,0,1,.27.29Z"/><path id="_Compound_Path_27" data-name="&lt;Compound Path&gt;" class="cls-3" d="M9.64,13.69a.16.16,0,0,0-.14-.18c-.07,0-.13.08-.13.18Zm.31,0,0,.11H9a.45.45,0,0,1,0-.11h.23a.25.25,0,0,1,.22-.28c.12,0,.21.13.21.28Z"/><path id="_Path_80" data-name="&lt;Path&gt;" class="cls-3" d="M9.58,13.65a.09.09,0,0,0-.08-.1s-.07,0-.07.1Z"/><path id="_Compound_Path_28" data-name="&lt;Compound Path&gt;" class="cls-3" d="M9.21,13.11h0V13h0Zm0-.08.1.13H9.15V13h.16Z"/><path id="_Compound_Path_29" data-name="&lt;Compound Path&gt;" class="cls-3" d="M9.76,13.11h0V13h0Zm0-.08.1.13H9.7V13h.16Z"/><path id="_Compound_Path_30" data-name="&lt;Compound Path&gt;" class="cls-3" d="M9.48,13.07h0v-.13h0Zm0-.13.11.22H9.42v-.32h.17Z"/><path id="_Path_81" data-name="&lt;Path&gt;" class="cls-5" d="M7.62,16.53a1.89,1.89,0,1,0,3.77,0V14H7.62Z"/><path id="_Path_82" data-name="&lt;Path&gt;" class="cls-3" d="M9.07,16.28a.44.44,0,1,0,.87,0v-.6H9.07Z"/><path id="_Compound_Path_31" data-name="&lt;Compound Path&gt;" class="cls-7" d="M9.07,14.28h.87v.61a.44.44,0,1,1-.87,0Zm0,2a.44.44,0,1,0,.87,0v-.6H9.07Zm0,1.4a.44.44,0,1,0,.87,0v-.6H9.07Zm-1.13-1.4a.44.44,0,1,0,.87,0v-.6H7.94Zm3.13-.6H10.2v.6a.45.45,0,0,0,.43.47.46.46,0,0,0,.44-.47Z"/><path id="_Compound_Path_32" data-name="&lt;Compound Path&gt;" class="cls-5" d="M9.5,14.82a.08.08,0,0,1-.08-.08.09.09,0,0,1,.08-.08.09.09,0,0,1,.09.08.08.08,0,0,1-.09.08m-.2-.27a.08.08,0,0,0,.08-.08.09.09,0,0,0-.08-.08.09.09,0,0,0-.09.08.08.08,0,0,0,.09.08m.41,0a.07.07,0,0,0,.08-.08.08.08,0,0,0-.08-.08.09.09,0,0,0-.08.08.08.08,0,0,0,.08.08m-.41.38a.09.09,0,0,0-.09.08.08.08,0,0,0,.09.08A.08.08,0,0,0,9.38,15a.09.09,0,0,0-.08-.08m.41,0a.09.09,0,0,0-.08.08.08.08,0,0,0,.08.08A.07.07,0,0,0,9.79,15a.08.08,0,0,0-.08-.08M9.5,16.22a.09.09,0,0,0,.09-.08.08.08,0,0,0-.09-.08.08.08,0,0,0-.08.08.09.09,0,0,0,.08.08M9.3,16a.09.09,0,0,0,.08-.08.08.08,0,0,0-.08-.08.08.08,0,0,0-.09.08A.09.09,0,0,0,9.3,16m.41,0a.08.08,0,0,0,.08-.08.07.07,0,0,0-.08-.08.08.08,0,0,0-.08.08.09.09,0,0,0,.08.08m-.41.38a.08.08,0,0,0-.09.08.09.09,0,0,0,.09.08.09.09,0,0,0,.08-.08.08.08,0,0,0-.08-.08m.41,0a.08.08,0,0,0-.08.08.09.09,0,0,0,.08.08.08.08,0,0,0,.08-.08.07.07,0,0,0-.08-.08M9.5,17.62a.09.09,0,0,0,.09-.08.08.08,0,0,0-.09-.08.08.08,0,0,0-.08.08.09.09,0,0,0,.08.08m-.2-.27a.09.09,0,0,0,.08-.08.08.08,0,0,0-.08-.08.08.08,0,0,0-.09.08.09.09,0,0,0,.09.08m.41,0a.08.08,0,0,0,.08-.08.07.07,0,0,0-.08-.08.08.08,0,0,0-.08.08.09.09,0,0,0,.08.08m-.41.38a.08.08,0,0,0-.09.08.09.09,0,0,0,.09.08.09.09,0,0,0,.08-.08.08.08,0,0,0-.08-.08m.41,0a.08.08,0,0,0-.08.08.09.09,0,0,0,.08.08.08.08,0,0,0,.08-.08.07.07,0,0,0-.08-.08M8.37,16.22a.09.09,0,0,0,.09-.08.08.08,0,0,0-.09-.08.08.08,0,0,0-.08.08.09.09,0,0,0,.08.08M8.17,16a.09.09,0,0,0,.08-.08.08.08,0,0,0-.08-.08.08.08,0,0,0-.09.08.09.09,0,0,0,.09.08m.41,0a.08.08,0,0,0,.08-.08.07.07,0,0,0-.08-.08.08.08,0,0,0-.08.08.09.09,0,0,0,.08.08m-.41.38a.08.08,0,0,0-.09.08.09.09,0,0,0,.09.08.09.09,0,0,0,.08-.08.08.08,0,0,0-.08-.08m.41,0a.08.08,0,0,0-.08.08.09.09,0,0,0,.08.08.08.08,0,0,0,.08-.08.07.07,0,0,0-.08-.08m2.05-.11a.08.08,0,0,0,.08-.08.07.07,0,0,0-.08-.08.08.08,0,0,0-.08.08.09.09,0,0,0,.08.08m.21-.27a.08.08,0,0,0,.08-.08.07.07,0,0,0-.08-.08.08.08,0,0,0-.08.08.09.09,0,0,0,.08.08m-.41,0a.09.09,0,0,0,.08-.08.08.08,0,0,0-.08-.08.07.07,0,0,0-.08.08.08.08,0,0,0,.08.08m.41.38a.08.08,0,0,0-.08.08.09.09,0,0,0,.08.08.08.08,0,0,0,.08-.08.07.07,0,0,0-.08-.08m-.41,0a.07.07,0,0,0-.08.08.08.08,0,0,0,.08.08.09.09,0,0,0,.08-.08.08.08,0,0,0-.08-.08"/></g></g></svg>