<svg id="Layer_1" data-name="Layer 1" xmlns="http://www.w3.org/2000/svg" viewBox="0 0 32 32"><defs><style>.cls-1{fill:#fdef42;}.cls-1,.cls-2{fill-rule:evenodd;}.cls-2,.cls-4{fill:#00853f;}.cls-3{fill:#e31b23;}</style></defs><title>Senegal</title><g id="_Group_" data-name="&lt;Group&gt;"><path id="_Path_" data-name="&lt;Path&gt;" class="cls-1" d="M10.57,31.05V1A16.18,16.18,0,0,1,21.44,1v30.1a16.18,16.18,0,0,1-10.87,0Z"/><path id="_Path_2" data-name="&lt;Path&gt;" class="cls-2" d="M10.57,1v30.1a16,16,0,0,1,0-30.1Z"/><path id="_Path_3" data-name="&lt;Path&gt;" class="cls-3" d="M21.44,31.05V1a16,16,0,0,1,0,30.1Z"/><path id="_Path_4" data-name="&lt;Path&gt;" class="cls-4" d="M15.11,15.15c.32-.87.57-1.77.89-2.65.3.88.58,1.76.87,2.65.93,0,1.87,0,2.8,0-.74.57-1.52,1.1-2.26,1.67.29.89.58,1.78.86,2.67-.76-.54-1.51-1.11-2.28-1.64-.75.54-1.5,1.09-2.26,1.62.27-.89.59-1.77.85-2.67-.75-.55-1.51-1.09-2.25-1.65Z"/></g></svg>