<svg id="Layer_1" data-name="Layer 1" xmlns="http://www.w3.org/2000/svg" viewBox="0 0 32 32"><defs><style>.cls-1{fill:#0c4076;}.cls-1,.cls-2,.cls-3{fill-rule:evenodd;}.cls-2,.cls-6{fill:#fff;}.cls-3,.cls-8{fill:#c6363c;}.cls-4{fill:#ebb82a;}.cls-5{fill:#21231e;}.cls-7{fill:#184377;}.cls-9{fill:#194276;}.cls-10{fill:#edb92e;}.cls-11{fill:#c9353e;}</style></defs><title>Serbia</title><g id="_Group_" data-name="&lt;Group&gt;"><path id="_Path_" data-name="&lt;Path&gt;" class="cls-1" d="M1,10.56h30.1a16.05,16.05,0,0,1,0,10.88H1A16.05,16.05,0,0,1,1,10.56Z"/><path id="_Path_2" data-name="&lt;Path&gt;" class="cls-2" d="M1,21.44h30.1a16,16,0,0,1-30.1,0Z"/><path id="_Path_3" data-name="&lt;Path&gt;" class="cls-3" d="M31.05,10.56H1a16,16,0,0,1,30.1,0Z"/><path id="_Path_4" data-name="&lt;Path&gt;" class="cls-4" d="M10.08,9.37h0c-.52,0-1.44.07-2.76.16l.19.93,2.82-.1,2.82.1.19-.93c-1.33-.09-2.25-.14-2.77-.16h-.49Z"/><path id="_Path_5" data-name="&lt;Path&gt;" class="cls-4" d="M13.87,8a.53.53,0,0,0,0-.34s0-.06,0-.08c.38-.54.39-.59.13-.79a4.38,4.38,0,0,0-1.17-.49,2,2,0,0,1-.2-.21,3.61,3.61,0,0,1,1.95.71c.21.18,0,.56-.37,1.13-.19.15-.29.21-.36.07Z"/><path id="_Path_6" data-name="&lt;Path&gt;" class="cls-4" d="M10.74,5.58c0-.06,0,0,0,0s0,0,0,0,0,.05,0,.16v.08c1,0,1.56.13,1.71.42s-.09.63-.4,1.07c0,.06,0,0,0,.1a.28.28,0,0,1,.07.27.71.71,0,0,0,.62,0A.33.33,0,0,1,13,7.57l.06,0c.1-.34.21-.65.3-1,.28-.91-2.24-1-2.63-1Z"/><path id="_Path_7" data-name="&lt;Path&gt;" class="cls-4" d="M13.34,9.52A3.34,3.34,0,0,1,13.67,9c-.34.26-.53.22-.55-.12H13c-.27.42-.53.36-.78-.17-.34.55-.64.54-.87,0-.39.5-.73.5-1,0V8.58s0,0,0,0v0H10.3v0s0,0,0,0v.07c-.27.48-.6.48-1,0-.23.58-.52.59-.87,0-.25.53-.51.59-.77.17H7.54c0,.34-.21.38-.56.12a2.81,2.81,0,0,1,.34.55l3-.14,3,.14Z"/><path id="_Path_8" data-name="&lt;Path&gt;" class="cls-4" d="M13.75,8.7h-.11c-.21.51-.4.53-.43,0,0,0,0-.1.08-.06a0,0,0,0,0,0-.06.12.12,0,0,0-.17,0A.1.1,0,0,0,13,8.53s0,.07,0,.07,0,.05,0,.08c-.37.5-.56.44-.51-.21a1.53,1.53,0,0,1-.29-.07c-.34.7-.59.73-.78.1,0,0,0-.11.09-.08s.06-.05,0-.08a.12.12,0,0,0-.2,0,.13.13,0,0,0-.2-.06s0,.08,0,.07,0,.08.09.11c-.15.59-.92.63-.8-.24h-.39c.13.87-.64.83-.79.24.05,0,0-.12.09-.11s.06-.05,0-.07a.12.12,0,0,0-.19.06.13.13,0,0,0-.21,0s0,.09,0,.08.05.05.09.08c-.2.63-.44.6-.79-.1a1.43,1.43,0,0,1-.28.07c.05.65-.14.71-.52.21,0,0,0-.09,0-.08s0-.06,0-.07-.13,0-.16.08a.1.1,0,0,0-.16,0s0,.07,0,.06,0,.05.08.06c0,.5-.22.48-.43,0H6.91A.48.48,0,0,0,7,9.05c.31.41.55.31.56-.14.41.49.72.43.78-.09.35.65.9.34.91-.05a.54.54,0,0,0,1.06-.09.53.53,0,0,0,1.05.09c0,.39.57.7.92.05,0,.52.37.58.78.09,0,.45.24.55.56.14a.58.58,0,0,0,.11-.35Z"/><path id="_Path_9" data-name="&lt;Path&gt;" class="cls-4" d="M11,8,11,8a.11.11,0,0,1,0-.1c0-.16-.07-.14-.18-.07s-.1.12-.15.16-.08,0-.09.06v.14h0v.13s.05,0,.09.07.1.12.15.16.2.09.18-.07a.14.14,0,0,1,0-.11l.07,0a.22.22,0,0,0,.07-.06.12.12,0,0,0,0-.08s0-.06,0-.08A.16.16,0,0,0,11,8Z"/><path id="_Path_10" data-name="&lt;Path&gt;" class="cls-5" d="M10.52,8.21v0a.49.49,0,0,1,.28.13.41.41,0,0,0-.29-.16Z"/><path id="_Path_11" data-name="&lt;Path&gt;" class="cls-5" d="M10.52,8.16v0A.56.56,0,0,0,10.81,8a.38.38,0,0,1-.29.15Z"/><path id="_Path_12" data-name="&lt;Path&gt;" class="cls-4" d="M11,7.82a.53.53,0,0,0-.1.06s0,.13,0,.2a.2.2,0,0,1,0,.11.15.15,0,0,1,0,.1c-.06.08-.09.15,0,.2a.27.27,0,0,0,.1.06V8.48a.14.14,0,0,1,0-.11l.07,0a.22.22,0,0,0,.07-.06.12.12,0,0,0,0-.08s0-.06,0-.08A.16.16,0,0,0,11,8L11,8a.11.11,0,0,1,0-.1V7.82Z"/><path id="_Path_13" data-name="&lt;Path&gt;" class="cls-4" d="M6.79,8a.47.47,0,0,1,0-.34s0-.06,0-.08C6.38,7,6.38,7,6.64,6.76A4.45,4.45,0,0,1,7.8,6.27c.08-.06.13-.14.21-.21a3.58,3.58,0,0,0-1.95.71c-.22.18,0,.56.36,1.13.2.15.29.21.37.07Z"/><path id="_Path_14" data-name="&lt;Path&gt;" class="cls-4" d="M6.67,8s0-.09,0-.14a.65.65,0,0,1,0-.24,3.42,3.42,0,0,1-.26-.4.43.43,0,0,1-.06-.31.55.55,0,0,1,.23-.27A1.91,1.91,0,0,1,7,6.42a2.73,2.73,0,0,1,.79-.21l-.12.12a3.54,3.54,0,0,0-1,.43c-.26.2-.26.25.13.79,0,0,0,.06,0,.08A.51.51,0,0,0,6.8,8c0,.06-.08,0-.13,0Z"/><path id="_Path_15" data-name="&lt;Path&gt;" class="cls-4" d="M9.91,5.58c0-.06,0,0,0,0a.05.05,0,0,0,0,0s0,.05-.06.16a.22.22,0,0,1,0,.08c-1,0-1.56.13-1.72.42s.09.63.41,1.07c0,.06,0,0,0,.1a.26.26,0,0,0-.07.27.71.71,0,0,1-.62,0,.33.33,0,0,0-.16-.17l-.06,0c-.11-.34-.21-.65-.3-1-.29-.91,2.23-1,2.62-1Z"/><path id="_Path_16" data-name="&lt;Path&gt;" class="cls-4" d="M10.33,9.48H8.64l-.54,0h0l-.79.07c-.14,0-.17-.16,0-.18l.79-.07h0c.36,0,.73-.05,1.1-.06h2.28c.37,0,.74,0,1.1.06h0l.78.07c.18,0,.15.19,0,.18l-.78-.07h0l-.54,0H10.33Z"/><path id="_Path_17" data-name="&lt;Path&gt;" class="cls-6" d="M8,7.31a.19.19,0,0,1,.18.2.19.19,0,1,1-.37,0A.19.19,0,0,1,8,7.31Z"/><path id="_Path_18" data-name="&lt;Path&gt;" class="cls-6" d="M6.42,7.72a.17.17,0,0,1,.18.17.18.18,0,0,1-.18.18.18.18,0,0,1-.17-.18.17.17,0,0,1,.17-.17Z"/><path id="_Path_19" data-name="&lt;Path&gt;" class="cls-6" d="M6.26,7.39a.18.18,0,0,1,0,.36.18.18,0,0,1,0-.36Z"/><path id="_Path_20" data-name="&lt;Path&gt;" class="cls-6" d="M6.1,7.06a.18.18,0,0,1,0,.36.18.18,0,0,1,0-.36Z"/><path id="_Path_21" data-name="&lt;Path&gt;" class="cls-4" d="M10.33,8a.23.23,0,1,1-.23.23A.23.23,0,0,1,10.33,8Z"/><path id="_Path_22" data-name="&lt;Path&gt;" class="cls-4" d="M9.2,7.67c.1,0,.08.18.06.22s0,.05-.08,0-.08-.21,0-.22Z"/><path id="_Path_23" data-name="&lt;Path&gt;" class="cls-6" d="M9.21,7.77c.24,0,.18.41.13.51s-.12.13-.19,0-.18-.5.06-.52Z"/><path id="_Path_24" data-name="&lt;Path&gt;" class="cls-4" d="M7.29,7.93c.09,0,.11.15.1.2s0,.06-.08,0-.12-.19,0-.22Z"/><path id="_Path_25" data-name="&lt;Path&gt;" class="cls-6" d="M7.31,8c.23-.07.28.36.25.47s-.08.15-.18.06S7.09,8.1,7.31,8Z"/><path id="_Path_26" data-name="&lt;Path&gt;" class="cls-6" d="M7.31,5.9a.18.18,0,0,1,.18.18.18.18,0,1,1-.36,0,.18.18,0,0,1,.18-.18Z"/><path id="_Path_27" data-name="&lt;Path&gt;" class="cls-6" d="M7.67,5.78A.18.18,0,0,1,7.85,6a.18.18,0,1,1-.36,0,.18.18,0,0,1,.18-.18Z"/><path id="_Path_28" data-name="&lt;Path&gt;" class="cls-4" d="M6.58,8.11v.06a.94.94,0,0,1-.22,0c.1-.1.18-.12.23-.08Z"/><path id="_Path_29" data-name="&lt;Path&gt;" class="cls-4" d="M6.57,8l.08,0a.12.12,0,0,0,.1,0c.11-.07.11,0,.07.15a.23.23,0,0,0,0,.2c0,.07,0,.1,0,.12l0,0s-.06,0-.06,0-.15-.16-.19-.25S6.31,8,6.57,8Z"/><path id="_Path_30" data-name="&lt;Path&gt;" class="cls-4" d="M6.61,8c.1,0,.11,0,.18,0,0,.16,0,.24-.21.15a.19.19,0,0,0-.22.08s-.06,0-.08-.07.2-.19.33-.14Z"/><path id="_Path_31" data-name="&lt;Path&gt;" class="cls-6" d="M9.64,5.35a.19.19,0,0,1,.18.19.18.18,0,0,1-.18.18.19.19,0,0,1-.19-.18.2.2,0,0,1,.19-.19Z"/><path id="_Path_32" data-name="&lt;Path&gt;" class="cls-6" d="M9.26,5.35a.19.19,0,0,1,.18.19.18.18,0,1,1-.36,0,.19.19,0,0,1,.18-.19Z"/><path id="_Path_33" data-name="&lt;Path&gt;" class="cls-6" d="M8.89,5.38a.19.19,0,0,1,.18.19.18.18,0,0,1-.36,0,.19.19,0,0,1,.18-.19Z"/><path id="_Path_34" data-name="&lt;Path&gt;" class="cls-6" d="M8.55,5.45a.18.18,0,0,1,.18.18.18.18,0,1,1-.36,0,.18.18,0,0,1,.18-.18Z"/><path id="_Path_35" data-name="&lt;Path&gt;" class="cls-6" d="M6.29,6.4a.18.18,0,0,1,.18.18.18.18,0,1,1-.36,0,.18.18,0,0,1,.18-.18Z"/><path id="_Path_36" data-name="&lt;Path&gt;" class="cls-6" d="M6.6,6.2a.19.19,0,0,1,.19.18.2.2,0,0,1-.19.19.19.19,0,0,1-.18-.19A.18.18,0,0,1,6.6,6.2Z"/><path id="_Path_37" data-name="&lt;Path&gt;" class="cls-6" d="M7,6a.18.18,0,0,1,.18.18.18.18,0,1,1-.36,0A.18.18,0,0,1,7,6Z"/><path id="_Path_38" data-name="&lt;Path&gt;" class="cls-6" d="M6.05,6.7a.18.18,0,0,1,.18.18.18.18,0,1,1-.36,0,.18.18,0,0,1,.18-.18Z"/><polygon id="_Path_39" data-name="&lt;Path&gt;" class="cls-4" points="11 9.88 10.33 10.22 9.65 9.88 10.33 9.54 11 9.88"/><path id="_Path_40" data-name="&lt;Path&gt;" class="cls-7" d="M10.33,9.67c.17,0,.3.09.3.21s-.13.2-.3.2S10,10,10,9.88s.14-.21.31-.21Z"/><polygon id="_Path_41" data-name="&lt;Path&gt;" class="cls-4" points="9.5 9.88 8.85 10.27 8.15 9.97 8.8 9.58 9.5 9.88"/><path id="_Path_42" data-name="&lt;Path&gt;" class="cls-8" d="M8.81,9.72c.17,0,.31.07.32.18s-.13.22-.29.23-.31-.08-.32-.19.12-.21.29-.22Z"/><path id="_Path_43" data-name="&lt;Path&gt;" class="cls-4" d="M7.36,9.69l.71.27-.58.4c-.15,0-.27-.57-.13-.67Z"/><path id="_Path_44" data-name="&lt;Path&gt;" class="cls-7" d="M7.38,9.82c.16,0,.31.06.32.18s-.11.22-.28.23a.18.18,0,0,1-.19-.18.19.19,0,0,1,.15-.23Z"/><path id="_Path_45" data-name="&lt;Path&gt;" class="cls-6" d="M9.59,10a.09.09,0,0,1,.1.09.09.09,0,0,1-.1.1.09.09,0,0,1-.09-.1A.09.09,0,0,1,9.59,10Z"/><path id="_Path_46" data-name="&lt;Path&gt;" class="cls-6" d="M8.15,10.09a.09.09,0,0,1,.09.1.09.09,0,0,1-.09.09.09.09,0,0,1-.1-.09.09.09,0,0,1,.1-.1Z"/><path id="_Path_47" data-name="&lt;Path&gt;" class="cls-6" d="M8.09,9.65a.09.09,0,0,1,.1.09.1.1,0,0,1-.1.1A.1.1,0,0,1,8,9.74a.09.09,0,0,1,.09-.09Z"/><path id="_Path_48" data-name="&lt;Path&gt;" class="cls-6" d="M9.59,9.58a.11.11,0,0,1,.1.1.1.1,0,0,1-.1.09.09.09,0,0,1-.09-.09.1.1,0,0,1,.09-.1Z"/><path id="_Path_49" data-name="&lt;Path&gt;" class="cls-4" d="M7,8.72c.08,0,.19.14.21.14a.66.66,0,0,0-.16-.49C7,8.35,7,8.29,7,8.16s-.08,0-.08.05a.32.32,0,0,0,0,.17s0,0,0,.07A.22.22,0,0,1,7,8.72Z"/><path id="_Path_50" data-name="&lt;Path&gt;" class="cls-4" d="M7,8.16a.25.25,0,0,0,0,.1.17.17,0,0,0,0,.1.31.31,0,0,0,.09.07.23.23,0,0,1,.07.09.3.3,0,0,1,0,.12c0,.11,0,.2.08.22h.07a.36.36,0,0,0,0-.07.25.25,0,0,1,0-.11.32.32,0,0,1,0-.1s0-.05,0-.08,0-.18-.12-.18S7,8.32,7,8.22s0,0,0-.06Z"/><path id="_Path_51" data-name="&lt;Path&gt;" class="cls-4" d="M6.7,8.42l.06,0a.2.2,0,0,1,.11,0c.17,0,.24.35.06.42,0,0-.07,0-.1-.1a.78.78,0,0,0-.12-.21s0-.06,0-.07Z"/><path id="_Path_52" data-name="&lt;Path&gt;" class="cls-4" d="M6.78,8.44c.16-.07.28.24.13.3s-.09-.07-.1-.13-.18-.11,0-.17Z"/><path id="_Path_53" data-name="&lt;Path&gt;" class="cls-9" d="M6.8,8.48c.08,0,.18.15.09.2a.1.1,0,0,1-.14-.07.09.09,0,0,1,0-.13Z"/><polygon id="_Path_54" data-name="&lt;Path&gt;" class="cls-4" points="11.16 9.88 11.81 10.27 12.51 9.97 11.85 9.58 11.16 9.88"/><path id="_Path_55" data-name="&lt;Path&gt;" class="cls-4" d="M13.29,9.69l-.7.27.58.4c.15,0,.27-.57.12-.67Z"/><path id="_Path_56" data-name="&lt;Path&gt;" class="cls-8" d="M11.84,9.72c-.16,0-.3.07-.31.18s.12.22.29.23.31-.08.32-.19-.13-.21-.3-.22Z"/><path id="_Path_57" data-name="&lt;Path&gt;" class="cls-7" d="M13.28,9.82c-.17,0-.31.06-.32.18s.11.22.28.23.17-.08.19-.18a.2.2,0,0,0-.15-.23Z"/><path id="_Path_58" data-name="&lt;Path&gt;" class="cls-6" d="M11.06,10a.09.09,0,0,0-.09.09.09.09,0,0,0,.09.1.1.1,0,0,0,.1-.1.1.1,0,0,0-.1-.09Z"/><path id="_Path_59" data-name="&lt;Path&gt;" class="cls-6" d="M12.51,10.09a.09.09,0,0,0-.09.1.09.09,0,0,0,.18,0,.09.09,0,0,0-.09-.1Z"/><path id="_Path_60" data-name="&lt;Path&gt;" class="cls-6" d="M12.56,9.65a.09.09,0,0,0-.09.09.1.1,0,0,0,.09.1.11.11,0,0,0,.1-.1.1.1,0,0,0-.1-.09Z"/><path id="_Path_61" data-name="&lt;Path&gt;" class="cls-6" d="M11.07,9.58a.1.1,0,0,0-.1.1.09.09,0,0,0,.1.09.09.09,0,0,0,.09-.09.1.1,0,0,0-.09-.1Z"/><path id="_Path_62" data-name="&lt;Path&gt;" class="cls-6" d="M7.89,7a.2.2,0,0,1,.19.19.19.19,0,0,1-.19.19.18.18,0,0,1-.19-.19A.19.19,0,0,1,7.89,7Z"/><path id="_Path_63" data-name="&lt;Path&gt;" class="cls-6" d="M7.75,6.68a.19.19,0,0,1,.19.19.19.19,0,0,1-.19.2.2.2,0,0,1-.19-.2.2.2,0,0,1,.19-.19Z"/><path id="_Path_64" data-name="&lt;Path&gt;" class="cls-6" d="M8.2,5.56a.19.19,0,0,1,.19.19.18.18,0,0,1-.19.18A.18.18,0,0,1,8,5.75a.19.19,0,0,1,.18-.19Z"/><path id="_Path_65" data-name="&lt;Path&gt;" class="cls-6" d="M7.9,5.7a.2.2,0,0,1,.19.19.2.2,0,0,1-.19.2.19.19,0,0,1-.19-.2A.19.19,0,0,1,7.9,5.7Z"/><path id="_Path_66" data-name="&lt;Path&gt;" class="cls-6" d="M7.67,6a.19.19,0,0,1,.19.19.19.19,0,0,1-.19.2.2.2,0,0,1-.19-.2A.2.2,0,0,1,7.67,6Z"/><path id="_Path_67" data-name="&lt;Path&gt;" class="cls-6" d="M7.64,6.31a.19.19,0,0,1,.18.2.19.19,0,1,1-.37,0,.19.19,0,0,1,.19-.2Z"/><path id="_Path_68" data-name="&lt;Path&gt;" class="cls-4" d="M10.42,4.17a.09.09,0,0,0,.09-.09.11.11,0,0,0-.09-.1.09.09,0,0,0-.18,0,.11.11,0,0,0-.09.1.09.09,0,0,0,.09.09v.19h-.17a.09.09,0,0,0-.18,0,.09.09,0,0,0-.09.1.09.09,0,0,0,.09.09.09.09,0,1,0,.18,0h.17v.64h.18V4.55h.16a.11.11,0,0,0,.1.09.09.09,0,0,0,.09-.09.09.09,0,0,0,.09-.09.09.09,0,0,0-.09-.1.09.09,0,0,0-.09-.09.1.1,0,0,0-.1.09h-.16Z"/><path id="_Path_69" data-name="&lt;Path&gt;" class="cls-7" d="M10.33,4.77a.52.52,0,0,1,.51.52.51.51,0,1,1-1,0,.52.52,0,0,1,.51-.52Z"/><path id="_Path_70" data-name="&lt;Path&gt;" class="cls-4" d="M10.33,4.77h.09v.41h-.18V4.78Z"/><path id="_Path_71" data-name="&lt;Path&gt;" class="cls-4" d="M10.83,5.19s0,.06,0,.1a.17.17,0,0,1,0,.07h-1V5.29a.31.31,0,0,1,0-.1h1Z"/><path id="_Path_72" data-name="&lt;Path&gt;" class="cls-4" d="M9.93,5.61c-.11-.06-.12,0-.12.15A4.81,4.81,0,0,1,9.79,7c0,.19-.11.3,0,.34s.25.18.22.23.18.08.37,0,.31,0,.36,0,.05-.14.22-.23,0-.15,0-.34a4.4,4.4,0,0,1,0-1.25c0-.11,0-.21-.13-.15a.8.8,0,0,1-.79,0Z"/><path id="_Path_73" data-name="&lt;Path&gt;" class="cls-6" d="M10.33,7.1a.2.2,0,0,1,.2.21.2.2,0,0,1-.4,0,.2.2,0,0,1,.2-.21Z"/><path id="_Path_74" data-name="&lt;Path&gt;" class="cls-6" d="M10.33,6.74a.21.21,0,0,1,.2.21.2.2,0,0,1-.4,0,.21.21,0,0,1,.2-.21Z"/><path id="_Path_75" data-name="&lt;Path&gt;" class="cls-6" d="M10.33,6.4a.2.2,0,0,1,.2.21.2.2,0,1,1-.4,0,.2.2,0,0,1,.2-.21Z"/><path id="_Path_76" data-name="&lt;Path&gt;" class="cls-6" d="M10.33,5.43a.2.2,0,0,1,.2.21.2.2,0,1,1-.4,0,.2.2,0,0,1,.2-.21Z"/><path id="_Path_77" data-name="&lt;Path&gt;" class="cls-6" d="M10.33,5.73a.2.2,0,0,1,.2.21.2.2,0,0,1-.4,0,.2.2,0,0,1,.2-.21Z"/><path id="_Path_78" data-name="&lt;Path&gt;" class="cls-6" d="M10.33,6.06a.2.2,0,0,1,.2.21.2.2,0,0,1-.4,0,.2.2,0,0,1,.2-.21Z"/><path id="_Path_79" data-name="&lt;Path&gt;" class="cls-4" d="M10.47,7.47s0,.06,0,.08h.11c.15,0,.13.07.06.18a1.17,1.17,0,0,1-.16.15s0,.08-.06.09h-.27a.43.43,0,0,0-.06-.09S10,7.79,10,7.74s-.1-.21.06-.18h.1s0,0,0-.08l.07-.07s.05,0,.08,0a.21.21,0,0,1,.08,0l.06.07Z"/><path id="_Path_80" data-name="&lt;Path&gt;" class="cls-5" d="M10.3,8h0a.56.56,0,0,0-.13-.28A.39.39,0,0,1,10.3,8Z"/><path id="_Path_81" data-name="&lt;Path&gt;" class="cls-5" d="M10.35,8h0a.49.49,0,0,1,.13-.28.44.44,0,0,0-.16.29Z"/><path id="_Path_82" data-name="&lt;Path&gt;" class="cls-4" d="M10.69,7.56a.53.53,0,0,1-.06.1c-.05,0-.12,0-.2,0l-.1,0-.11,0c-.07.07-.15.1-.19,0a.27.27,0,0,1-.06-.1h.17s0,0,0-.08l.07-.07s.05,0,.08,0a.21.21,0,0,1,.08,0l.06.07s0,.06,0,.08h.18Z"/><path id="_Path_83" data-name="&lt;Path&gt;" class="cls-4" d="M9.62,8c.05,0,.06,0,.07,0a.15.15,0,0,0,0-.1c0-.16.07-.14.17-.07S10,8,10,8s.09,0,.1.06v.14h0v.13s-.05,0-.1.07-.1.12-.15.16-.2.09-.17-.07a.2.2,0,0,0,0-.11s0,0-.07,0l-.07-.06a.21.21,0,0,1,0-.08s0-.06,0-.08L9.62,8Z"/><path id="_Path_84" data-name="&lt;Path&gt;" class="cls-5" d="M10.13,8.21v0a.51.51,0,0,0-.29.13.46.46,0,0,1,.29-.16Z"/><path id="_Path_85" data-name="&lt;Path&gt;" class="cls-5" d="M10.13,8.16v0A.59.59,0,0,1,9.84,8a.41.41,0,0,0,.29.15Z"/><path id="_Path_86" data-name="&lt;Path&gt;" class="cls-4" d="M9.7,7.82a.39.39,0,0,1,.11.06s0,.13-.05.2a.2.2,0,0,0,0,.11.15.15,0,0,0,0,.1c.06.08.09.15.05.2a.24.24,0,0,1-.11.06.2.2,0,0,1,0-.07.2.2,0,0,0,0-.11s0,0-.07,0l-.07-.06a.21.21,0,0,1,0-.08s0-.06,0-.08L9.62,8c.05,0,.06,0,.07,0a.15.15,0,0,0,0-.1.25.25,0,0,1,0-.08Z"/><path id="_Path_87" data-name="&lt;Path&gt;" class="cls-4" d="M11,8.33l-.07,0a.14.14,0,0,0,0,.11c0,.16-.07.13-.18.07s-.1-.12-.15-.16-.08-.05-.09-.07V8.19h0V8.05s.05,0,.09-.06.1-.12.15-.16.2-.09.18.07A.11.11,0,0,0,11,8L11,8a.16.16,0,0,1,.07.07s0,.05,0,.08a.12.12,0,0,1,0,.08.22.22,0,0,1-.07.06Z"/><path id="_Path_88" data-name="&lt;Path&gt;" class="cls-5" d="M10.52,8.16v0A.56.56,0,0,0,10.81,8a.38.38,0,0,1-.29.15Z"/><path id="_Path_89" data-name="&lt;Path&gt;" class="cls-5" d="M10.52,8.21v0a.49.49,0,0,1,.28.13.41.41,0,0,0-.29-.16Z"/><path id="_Path_90" data-name="&lt;Path&gt;" class="cls-4" d="M11,8.55a.27.27,0,0,1-.1-.06c0-.05,0-.12,0-.2a.15.15,0,0,0,0-.1.18.18,0,0,0,0-.11c-.06-.07-.09-.15,0-.2a.53.53,0,0,1,.1-.06V7.9A.11.11,0,0,0,11,8L11,8a.16.16,0,0,1,.07.07s0,.05,0,.08a.12.12,0,0,1,0,.08.22.22,0,0,1-.07.06l-.07,0a.14.14,0,0,0,0,.11v.07Z"/><path id="_Path_91" data-name="&lt;Path&gt;" class="cls-4" d="M10.33,8a.23.23,0,1,1-.23.23A.23.23,0,0,1,10.33,8Z"/><path id="_Path_92" data-name="&lt;Path&gt;" class="cls-4" d="M10.33,8a.17.17,0,0,1,.17.17.18.18,0,0,1-.17.17.17.17,0,0,1-.17-.17A.16.16,0,0,1,10.33,8Z"/><path id="_Path_93" data-name="&lt;Path&gt;" class="cls-7" d="M10.33,8.08a.11.11,0,0,1,0,.22.11.11,0,0,1,0-.22Z"/><path id="_Path_94" data-name="&lt;Path&gt;" class="cls-5" d="M6.73,8.39h0a.18.18,0,0,1,0-.18s0,.12,0,.19Z"/><path id="_Path_95" data-name="&lt;Path&gt;" class="cls-4" d="M8.21,7.6c0,.06,0,.07,0,.08a.12.12,0,0,0,.1,0c.15-.06.15.06.11.19a1.6,1.6,0,0,1-.11.19s0,.09,0,.11l-.11,0H8.09s0,0-.08-.09A1.15,1.15,0,0,1,7.84,8c-.09-.1-.14-.2,0-.2s.07,0,.09,0,0,0,0-.09a.19.19,0,0,1,0-.09s0,0,.07,0,0,0,.08,0l.08.06Z"/><path id="_Path_96" data-name="&lt;Path&gt;" class="cls-5" d="M8.19,8.19h0A.64.64,0,0,0,8,7.9a.56.56,0,0,1,.22.29Z"/><path id="_Path_97" data-name="&lt;Path&gt;" class="cls-5" d="M8.23,8.18h0a.58.58,0,0,1,0-.32.48.48,0,0,0-.06.33Z"/><path id="_Path_98" data-name="&lt;Path&gt;" class="cls-4" d="M8.43,7.67a.35.35,0,0,1,0,.13c0,.06-.11,0-.19,0a.2.2,0,0,0-.11,0s-.07,0-.08,0-.11.12-.16.07a.25.25,0,0,1-.08-.1h.06s.07,0,.09,0,0,0,0-.09a.19.19,0,0,1,0-.09s0,0,.07,0,0,0,.08,0l.08.06c0,.06,0,.07,0,.08a.12.12,0,0,0,.1,0Z"/><path id="_Path_99" data-name="&lt;Path&gt;" class="cls-4" d="M7.64,8.24s0,0,0,0a.19.19,0,0,0,0-.09C7.58,8,7.66,8,7.76,8l.08.06.08.07.1.05.05.12h0l0,.12s0,0,0,.06,0,.11-.06.14-.07.08-.1.08-.05-.05-.05-.13a.31.31,0,0,0,0-.1l-.06,0a.18.18,0,0,1-.07-.05.36.36,0,0,1,0-.07s0,0,0-.07a.14.14,0,0,1,0-.06Z"/><path id="_Path_100" data-name="&lt;Path&gt;" class="cls-5" d="M8.08,8.39v0A.19.19,0,0,0,8,8.47a.22.22,0,0,0-.07.09.16.16,0,0,1,0-.11.23.23,0,0,1,.12-.06Z"/><path id="_Path_101" data-name="&lt;Path&gt;" class="cls-5" d="M8.06,8.34v0a.37.37,0,0,1-.14,0,.46.46,0,0,1-.13-.08.32.32,0,0,0,.13.1l.15.05Z"/><path id="_Path_102" data-name="&lt;Path&gt;" class="cls-4" d="M7.63,8a.18.18,0,0,1,.08.05.13.13,0,0,1,0,.09.49.49,0,0,1,0,.12.14.14,0,0,0,0,.1.23.23,0,0,0,.05.11c.08.07.13.15.11.2a.12.12,0,0,1,0,.05s0,0,0-.06a.37.37,0,0,0,0-.11s0,0-.07-.06l-.07,0c0-.05-.09-.16,0-.21a.12.12,0,0,0,0-.17.11.11,0,0,1,0-.07Z"/><path id="_Path_103" data-name="&lt;Path&gt;" class="cls-4" d="M8.9,8.39s-.05,0-.06,0a.12.12,0,0,0,0,.1c0,.14,0,.13-.15.07a1.83,1.83,0,0,1-.16-.13s-.08,0-.09-.05a1.3,1.3,0,0,0,0-.13h0s0-.07,0-.13,0,0,.07-.07a1,1,0,0,1,.1-.18c.09-.09.17-.13.18,0a.18.18,0,0,0,0,.11s0,0,.07,0a.28.28,0,0,1,.08.06s0,.05,0,.08a.22.22,0,0,1,0,.08l0,.07Z"/><path id="_Path_104" data-name="&lt;Path&gt;" class="cls-5" d="M8.42,8.28v0a.48.48,0,0,0,.23-.17.37.37,0,0,1-.23.19Z"/><path id="_Path_105" data-name="&lt;Path&gt;" class="cls-5" d="M8.43,8.33v0a.45.45,0,0,1,.27.1.38.38,0,0,0-.28-.12Z"/><path id="_Path_106" data-name="&lt;Path&gt;" class="cls-4" d="M8.86,8.6l-.1,0s0-.12,0-.19a.2.2,0,0,0,0-.11.15.15,0,0,0,0-.1C8.66,8.09,8.62,8,8.65,8l.09-.08s0,0,0,.08a.18.18,0,0,0,0,.11s0,0,.07,0a.28.28,0,0,1,.08.06s0,.05,0,.08a.22.22,0,0,1,0,.08l0,.07s-.05,0-.06,0a.12.12,0,0,0,0,.1s0,0,0,.06Z"/><path id="_Path_107" data-name="&lt;Path&gt;" class="cls-4" d="M8.2,8.1a.25.25,0,0,1,.25.23.19.19,0,0,1-.18.23A.26.26,0,0,1,8,8.34.19.19,0,0,1,8.2,8.1Z"/><path id="_Path_108" data-name="&lt;Path&gt;" class="cls-4" d="M8.21,8.16a.2.2,0,0,1,.19.17.15.15,0,0,1-.14.17.2.2,0,0,1-.18-.16.15.15,0,0,1,.13-.18Z"/><path id="_Path_109" data-name="&lt;Path&gt;" class="cls-7" d="M8.22,8.23a.12.12,0,0,1,.12.1c0,.06,0,.11-.09.11a.13.13,0,0,1-.11-.1.09.09,0,0,1,.08-.11Z"/><path id="_Path_110" data-name="&lt;Path&gt;" class="cls-6" d="M12.62,7.31a.2.2,0,0,0-.19.2.2.2,0,0,0,.19.19.19.19,0,0,0,.19-.19.19.19,0,0,0-.19-.2Z"/><path id="_Path_111" data-name="&lt;Path&gt;" class="cls-6" d="M14.23,7.72a.17.17,0,0,0-.17.17.18.18,0,0,0,.17.18.18.18,0,0,0,.18-.18.17.17,0,0,0-.18-.17Z"/><path id="_Path_112" data-name="&lt;Path&gt;" class="cls-6" d="M14.4,7.39a.18.18,0,0,0,0,.36.18.18,0,0,0,0-.36Z"/><path id="_Path_113" data-name="&lt;Path&gt;" class="cls-6" d="M14.56,7.06a.18.18,0,0,0,0,.36.18.18,0,0,0,0-.36Z"/><path id="_Path_114" data-name="&lt;Path&gt;" class="cls-4" d="M11.45,7.67c-.1,0-.07.18,0,.22s0,.05.08,0,.08-.21,0-.22Z"/><path id="_Path_115" data-name="&lt;Path&gt;" class="cls-6" d="M11.45,7.77c-.24,0-.18.41-.14.51s.12.13.2,0,.18-.5-.06-.52Z"/><path id="_Path_116" data-name="&lt;Path&gt;" class="cls-4" d="M13.37,7.93c-.1,0-.11.15-.1.2s0,.06.08,0,.12-.19,0-.22Z"/><path id="_Path_117" data-name="&lt;Path&gt;" class="cls-6" d="M13.34,8c-.23-.07-.27.36-.25.47s.09.15.19.06.29-.45.06-.53Z"/><path id="_Path_118" data-name="&lt;Path&gt;" class="cls-4" d="M10.86,5.75A3.4,3.4,0,0,1,12.42,6c.43.18.39.69-.14,1.4a1.06,1.06,0,0,1,.08.34h-.15a.28.28,0,0,0-.05-.26s0,0,0-.1c.32-.44.53-.84.4-1.07s-.73-.44-1.71-.42V5.76Z"/><path id="_Path_119" data-name="&lt;Path&gt;" class="cls-6" d="M13.35,5.9a.19.19,0,0,0-.19.18.2.2,0,0,0,.19.19.19.19,0,0,0,.18-.19.18.18,0,0,0-.18-.18Z"/><path id="_Path_120" data-name="&lt;Path&gt;" class="cls-6" d="M13,5.78a.18.18,0,0,0-.18.18.18.18,0,1,0,.36,0A.18.18,0,0,0,13,5.78Z"/><path id="_Path_121" data-name="&lt;Path&gt;" class="cls-4" d="M14.08,8.11v.06a.82.82,0,0,0,.21,0c-.1-.1-.17-.12-.22-.08Z"/><path id="_Path_122" data-name="&lt;Path&gt;" class="cls-4" d="M14.09,8,14,8a.12.12,0,0,1-.1,0c-.12-.07-.12,0-.07.15a.24.24,0,0,1,0,.2c0,.07,0,.1,0,.12l0,0s.05,0,.06,0,.15-.16.18-.25.23-.18,0-.23Z"/><path id="_Path_123" data-name="&lt;Path&gt;" class="cls-4" d="M14,8c-.1,0-.11,0-.17,0,0,.16.05.24.21.15a.19.19,0,0,1,.22.08s.06,0,.07-.07S14.18,7.93,14,8Z"/><path id="_Path_124" data-name="&lt;Path&gt;" class="cls-6" d="M11,5.35a.19.19,0,0,0-.18.19.18.18,0,0,0,.36,0A.19.19,0,0,0,11,5.35Z"/><path id="_Path_125" data-name="&lt;Path&gt;" class="cls-6" d="M11.39,5.35a.19.19,0,0,0-.18.19.18.18,0,0,0,.36,0,.19.19,0,0,0-.18-.19Z"/><path id="_Path_126" data-name="&lt;Path&gt;" class="cls-6" d="M11.77,5.38a.19.19,0,0,0-.19.19.18.18,0,0,0,.19.18A.18.18,0,0,0,12,5.57a.19.19,0,0,0-.18-.19Z"/><path id="_Path_127" data-name="&lt;Path&gt;" class="cls-6" d="M12.11,5.45a.18.18,0,0,0-.18.18.18.18,0,1,0,.36,0,.18.18,0,0,0-.18-.18Z"/><path id="_Path_128" data-name="&lt;Path&gt;" class="cls-6" d="M14.36,6.4a.18.18,0,0,0-.18.18.19.19,0,1,0,.37,0,.18.18,0,0,0-.19-.18Z"/><path id="_Path_129" data-name="&lt;Path&gt;" class="cls-6" d="M14.05,6.2a.18.18,0,0,0-.18.18.18.18,0,1,0,.36,0,.18.18,0,0,0-.18-.18Z"/><path id="_Path_130" data-name="&lt;Path&gt;" class="cls-6" d="M13.7,6a.19.19,0,0,0-.19.18.2.2,0,0,0,.19.19.19.19,0,0,0,.18-.19A.18.18,0,0,0,13.7,6Z"/><path id="_Path_131" data-name="&lt;Path&gt;" class="cls-6" d="M14.61,6.7a.19.19,0,0,0-.19.18.2.2,0,0,0,.19.19.19.19,0,0,0,.18-.19.18.18,0,0,0-.18-.18Z"/><path id="_Path_132" data-name="&lt;Path&gt;" class="cls-4" d="M13.63,8.72c-.07,0-.18.14-.21.14a.73.73,0,0,1,.17-.49c.08,0,.09-.08.11-.21s.08,0,.08.05a.47.47,0,0,1,0,.17.06.06,0,0,0,0,.07c-.13.06-.16.12-.16.27Z"/><path id="_Path_133" data-name="&lt;Path&gt;" class="cls-4" d="M13.7,8.16a.87.87,0,0,1,0,.1.13.13,0,0,1,0,.1.22.22,0,0,1-.09.07.23.23,0,0,0-.06.09.34.34,0,0,0,0,.12c0,.11,0,.2-.07.22h-.07s0,0,0-.07a.54.54,0,0,0,.05-.11.32.32,0,0,0,0-.1s0-.05,0-.08.06-.18.13-.18.1,0,.14-.1,0,0,0-.06Z"/><path id="_Path_134" data-name="&lt;Path&gt;" class="cls-4" d="M14,8.42l-.06,0a.24.24,0,0,0-.12,0c-.16,0-.24.35,0,.42,0,0,.06,0,.1-.1A.78.78,0,0,1,14,8.49s0-.06,0-.07Z"/><path id="_Path_135" data-name="&lt;Path&gt;" class="cls-4" d="M13.87,8.44c-.16-.07-.27.24-.12.3s.08-.07.1-.13.18-.11,0-.17Z"/><path id="_Path_136" data-name="&lt;Path&gt;" class="cls-7" d="M13.86,8.48c-.08,0-.19.15-.09.2a.1.1,0,0,0,.14-.07.1.1,0,0,0-.05-.13Z"/><path id="_Path_137" data-name="&lt;Path&gt;" class="cls-6" d="M12.77,7a.19.19,0,0,0-.19.19.18.18,0,0,0,.19.19A.19.19,0,0,0,13,7.19.2.2,0,0,0,12.77,7Z"/><path id="_Path_138" data-name="&lt;Path&gt;" class="cls-6" d="M12.9,6.68a.19.19,0,0,0-.18.19.19.19,0,1,0,.18-.19Z"/><path id="_Path_139" data-name="&lt;Path&gt;" class="cls-6" d="M12.45,5.56a.19.19,0,0,0-.18.19.18.18,0,0,0,.36,0,.19.19,0,0,0-.18-.19Z"/><path id="_Path_140" data-name="&lt;Path&gt;" class="cls-6" d="M12.76,5.7a.19.19,0,0,0-.19.19.19.19,0,0,0,.19.2.2.2,0,0,0,.19-.2.2.2,0,0,0-.19-.19Z"/><path id="_Path_141" data-name="&lt;Path&gt;" class="cls-6" d="M13,6a.2.2,0,0,0-.19.19.2.2,0,0,0,.19.2.19.19,0,0,0,.19-.2A.19.19,0,0,0,13,6Z"/><path id="_Path_142" data-name="&lt;Path&gt;" class="cls-6" d="M13,6.31a.2.2,0,0,0-.19.2.19.19,0,0,0,.38,0,.2.2,0,0,0-.19-.2Z"/><path id="_Path_143" data-name="&lt;Path&gt;" class="cls-4" d="M12.45,7.6c0,.06,0,.07-.06.08s-.06,0-.1,0-.14.06-.1.19a.86.86,0,0,0,.11.19s0,.09,0,.11l.12,0h.12a.76.76,0,0,1,.07-.09A1.24,1.24,0,0,0,12.82,8c.09-.1.14-.2,0-.2s-.07,0-.09,0,0,0,0-.09a.13.13,0,0,0,0-.09s0,0-.07,0,0,0-.07,0a.21.21,0,0,0-.08.06Z"/><path id="_Path_144" data-name="&lt;Path&gt;" class="cls-5" d="M12.47,8.19h0a.73.73,0,0,1,.19-.29.61.61,0,0,0-.21.29Z"/><path id="_Path_145" data-name="&lt;Path&gt;" class="cls-5" d="M12.43,8.18h0a.59.59,0,0,0-.05-.32.48.48,0,0,1,.07.33Z"/><path id="_Path_146" data-name="&lt;Path&gt;" class="cls-4" d="M12.23,7.67a.35.35,0,0,0,0,.13c0,.06.11,0,.19,0a.17.17,0,0,1,.1,0,.13.13,0,0,1,.09,0c0,.08.1.12.16.07a.39.39,0,0,0,.08-.1h-.06s-.07,0-.09,0,0,0,0-.09a.13.13,0,0,0,0-.09s0,0-.07,0,0,0-.07,0a.21.21,0,0,0-.08.06c0,.06,0,.07-.06.08s-.06,0-.1,0Z"/><path id="_Path_147" data-name="&lt;Path&gt;" class="cls-4" d="M13,8.24s0,0,0,0,0-.06,0-.09S13,8,12.9,8l-.09.06-.08.07-.09.05-.05.12h0a.87.87,0,0,0-.05.12l.06.06s0,.11.06.14.07.08.1.08,0-.05.05-.13a.18.18,0,0,1,0-.1s0,0,.07,0A.18.18,0,0,0,13,8.44a.36.36,0,0,0,0-.07.19.19,0,0,0,0-.07.09.09,0,0,0,0-.06Z"/><path id="_Path_148" data-name="&lt;Path&gt;" class="cls-5" d="M12.58,8.39v0a.22.22,0,0,1,.11.05.22.22,0,0,1,.07.09.22.22,0,0,0-.17-.17Z"/><path id="_Path_149" data-name="&lt;Path&gt;" class="cls-5" d="M12.59,8.34l0,0a.43.43,0,0,0,.14,0l.13-.08a.41.41,0,0,1-.13.1l-.16.05Z"/><path id="_Path_150" data-name="&lt;Path&gt;" class="cls-4" d="M13,8l-.09.05a.13.13,0,0,0,0,.09.25.25,0,0,0,0,.12.58.58,0,0,1,0,.1.23.23,0,0,1-.06.11c-.07.07-.12.15-.1.2a.07.07,0,0,0,0,.05s0,0,0-.06a.22.22,0,0,1,0-.11.11.11,0,0,1,.06-.06l.07,0c0-.05.09-.16,0-.21a.13.13,0,0,1,0-.17A.64.64,0,0,1,13,8Z"/><path id="_Path_151" data-name="&lt;Path&gt;" class="cls-4" d="M11.76,8.39l.05,0s0,.06,0,.1,0,.13.14.07a.7.7,0,0,0,.16-.13l.1-.05a.83.83,0,0,0,0-.13h0a.63.63,0,0,0,0-.13s0,0-.07-.07a1.08,1.08,0,0,0-.11-.18c-.08-.09-.17-.13-.17,0a.18.18,0,0,1,0,.11s0,0-.08,0l-.07.06a.11.11,0,0,0,0,.08.11.11,0,0,0,0,.08.19.19,0,0,0,.06.07Z"/><path id="_Path_152" data-name="&lt;Path&gt;" class="cls-5" d="M12.24,8.28v0A.44.44,0,0,1,12,8.09a.32.32,0,0,0,.23.19Z"/><path id="_Path_153" data-name="&lt;Path&gt;" class="cls-5" d="M12.23,8.33v0a.45.45,0,0,0-.27.1.38.38,0,0,1,.28-.12Z"/><path id="_Path_154" data-name="&lt;Path&gt;" class="cls-4" d="M11.8,8.6l.1,0s0-.12,0-.19a.2.2,0,0,1,0-.11.23.23,0,0,1,0-.1C12,8.09,12,8,12,8a.3.3,0,0,0-.08-.08.19.19,0,0,0,0,.08.18.18,0,0,1,0,.11s0,0-.08,0l-.07.06a.11.11,0,0,0,0,.08.11.11,0,0,0,0,.08.19.19,0,0,0,.06.07l.05,0s0,.06,0,.1a.13.13,0,0,0,0,.06Z"/><path id="_Path_155" data-name="&lt;Path&gt;" class="cls-4" d="M12.46,8.1a.27.27,0,0,0-.26.23.2.2,0,0,0,.18.23.27.27,0,0,0,.25-.22.19.19,0,0,0-.17-.24Z"/><path id="_Path_156" data-name="&lt;Path&gt;" class="cls-4" d="M12.45,8.16a.19.19,0,0,0-.19.17.14.14,0,0,0,.13.17.18.18,0,0,0,.18-.16.14.14,0,0,0-.12-.18Z"/><path id="_Path_157" data-name="&lt;Path&gt;" class="cls-7" d="M12.44,8.23a.11.11,0,0,0-.12.1.09.09,0,0,0,.08.11.13.13,0,0,0,.12-.1.09.09,0,0,0-.08-.11Z"/><path id="_Path_158" data-name="&lt;Path&gt;" class="cls-4" d="M13.15,10.4s.09,0,.08.09,0,.07-.08.08H13.1a32,32,0,0,1-5.54,0h0c-.06,0-.09-.05-.09-.08a.1.1,0,0,1,.09-.09h0a34.16,34.16,0,0,1,5.54,0Z"/><path id="_Path_159" data-name="&lt;Path&gt;" class="cls-8" d="M5.35,10.6v8.06a5.37,5.37,0,0,0,1.46,3.7,4.85,4.85,0,0,0,3.52,1.54h0a4.86,4.86,0,0,0,3.52-1.54,5.37,5.37,0,0,0,1.46-3.7V10.6Z"/><path id="_Path_160" data-name="&lt;Path&gt;" class="cls-10" d="M12.21,22.1c.22.18.42-.23.23-.76s-.85-.24-.46.29c0,0,0,0,0,0s.05-.18.15-.16c.3.06.31.61,0,.49-.06,0,0,.11.05.15Z"/><path id="_Path_161" data-name="&lt;Path&gt;" class="cls-10" d="M12.93,22.1c-.22.18-.42-.23-.23-.76s.85-.24.46.29c0,0,0,0,0,0s0-.18-.15-.16c-.3.06-.3.61,0,.49.06,0,0,.11-.05.15Z"/><polygon id="_Path_162" data-name="&lt;Path&gt;" class="cls-6" points="5.31 10.56 5.31 18.66 5.32 18.8 5.32 18.93 5.33 19.07 5.34 19.2 5.35 19.33 5.37 19.46 5.39 19.59 5.42 19.72 5.44 19.85 5.47 19.98 5.5 20.1 5.54 20.23 5.58 20.35 5.62 20.47 5.66 20.59 5.71 20.71 5.76 20.83 5.81 20.94 5.86 21.06 5.92 21.17 5.98 21.28 6.04 21.39 6.11 21.5 6.17 21.61 6.24 21.71 6.31 21.81 6.38 21.91 6.46 22.01 6.54 22.11 6.62 22.2 6.7 22.3 6.79 22.39 6.83 22.34 6.75 22.25 6.67 22.16 6.59 22.06 6.52 21.97 6.44 21.87 6.37 21.77 6.3 21.67 6.23 21.57 6.17 21.46 6.1 21.36 6.04 21.25 5.98 21.14 5.93 21.03 5.87 20.91 5.82 20.8 5.77 20.68 5.73 20.57 5.68 20.45 5.64 20.33 5.61 20.21 5.57 20.08 5.54 19.96 5.51 19.83 5.49 19.71 5.46 19.58 5.44 19.45 5.42 19.32 5.41 19.19 5.4 19.06 5.39 18.93 5.38 18.79 5.38 18.66 5.38 10.63 15.27 10.63 15.27 18.66 15.27 18.79 15.27 18.93 15.26 19.06 15.25 19.19 15.23 19.32 15.21 19.45 15.2 19.58 15.17 19.71 15.14 19.83 15.12 19.96 15.08 20.08 15.05 20.21 15.01 20.33 14.97 20.45 14.93 20.57 14.88 20.68 14.83 20.8 14.78 20.91 14.73 21.03 14.67 21.14 14.62 21.25 14.55 21.36 14.49 21.46 14.43 21.57 14.36 21.67 14.29 21.77 14.21 21.87 14.14 21.97 14.06 22.06 13.98 22.16 13.9 22.25 13.82 22.34 13.74 22.43 13.65 22.51 13.56 22.59 13.47 22.67 13.38 22.75 13.28 22.83 13.19 22.9 13.09 22.98 12.99 23.04 12.89 23.11 12.79 23.17 12.68 23.23 12.57 23.29 12.47 23.35 12.36 23.4 12.25 23.45 12.14 23.5 12.03 23.55 11.91 23.59 11.79 23.63 11.68 23.67 11.56 23.7 11.44 23.73 11.32 23.76 11.2 23.78 11.08 23.8 10.96 23.82 10.83 23.84 10.71 23.85 10.58 23.86 10.46 23.86 10.33 23.86 10.33 23.93 10.46 23.93 10.59 23.93 10.71 23.92 10.84 23.91 10.97 23.89 11.09 23.88 11.21 23.85 11.34 23.83 11.46 23.8 11.58 23.77 11.7 23.73 11.82 23.7 11.94 23.66 12.05 23.61 12.16 23.57 12.28 23.52 12.39 23.47 12.5 23.41 12.61 23.36 12.71 23.3 12.82 23.23 12.93 23.17 13.03 23.1 13.13 23.03 13.23 22.96 13.33 22.88 13.42 22.81 13.52 22.73 13.61 22.65 13.7 22.56 13.79 22.48 13.87 22.39 13.96 22.3 14.04 22.2 14.12 22.11 14.2 22.01 14.27 21.91 14.35 21.81 14.42 21.71 14.48 21.61 14.55 21.5 14.62 21.39 14.68 21.28 14.74 21.17 14.79 21.06 14.85 20.94 14.9 20.83 14.95 20.71 14.99 20.59 15.04 20.47 15.08 20.35 15.12 20.23 15.15 20.1 15.19 19.98 15.21 19.85 15.24 19.72 15.27 19.59 15.29 19.46 15.3 19.33 15.32 19.2 15.33 19.07 15.34 18.93 15.34 18.8 15.34 18.66 15.34 10.56 5.31 10.56"/><polygon id="_Path_163" data-name="&lt;Path&gt;" class="cls-6" points="6.83 22.34 6.79 22.39 6.87 22.48 6.96 22.56 7.05 22.65 7.14 22.73 7.24 22.81 7.33 22.88 7.43 22.96 7.53 23.03 7.63 23.1 7.73 23.17 7.83 23.23 7.94 23.3 8.05 23.36 8.16 23.41 8.27 23.47 8.38 23.52 8.49 23.57 8.61 23.61 8.72 23.66 8.84 23.7 8.96 23.73 9.08 23.77 9.2 23.8 9.32 23.83 9.44 23.85 9.57 23.88 9.69 23.89 9.82 23.91 9.94 23.92 10.07 23.93 10.2 23.93 10.33 23.93 10.33 23.93 10.33 23.86 10.33 23.86 10.33 23.86 10.33 23.86 10.2 23.86 10.07 23.86 9.95 23.85 9.82 23.84 9.7 23.82 9.58 23.8 9.46 23.78 9.33 23.76 9.21 23.73 9.1 23.7 8.98 23.67 8.86 23.63 8.75 23.59 8.63 23.55 8.52 23.5 8.41 23.46 8.3 23.41 8.19 23.35 8.08 23.29 7.98 23.24 7.87 23.17 7.77 23.11 7.67 23.04 7.57 22.98 7.47 22.9 7.37 22.83 7.28 22.75 7.19 22.67 7.1 22.59 7.01 22.51 6.92 22.43 6.83 22.34 6.83 22.34"/><path id="_Path_164" data-name="&lt;Path&gt;" class="cls-6" d="M10.37,23s.11,0,.16,0,0-.27,0-.41c0-.7-.06-1.87-.09-3.52h-.28c0,1.65-.07,2.82-.1,3.52,0,.14,0,.36,0,.41s.12,0,.16,0Z"/><path id="_Path_165" data-name="&lt;Path&gt;" class="cls-6" d="M10.81,23a.24.24,0,0,1-.16,0c-.08,0-.08-.26-.09-.4,0-.7-.1-1.87-.21-3.52h.16c.26,1.63.36,2.78.54,3.48,0,.1.08.34,0,.42a.37.37,0,0,1-.16.05Z"/><path id="_Path_166" data-name="&lt;Path&gt;" class="cls-6" d="M11.32,22.93a.22.22,0,0,1-.16,0c-.08,0-.07-.27-.11-.4-.18-.7-.28-1.85-.54-3.49l.14,0h0a31,31,0,0,0,.87,3.39c0,.1.11.35,0,.44a.26.26,0,0,1-.15.07Z"/><path id="_Path_167" data-name="&lt;Path&gt;" class="cls-6" d="M11.84,22.79s-.11,0-.17,0-.09-.27-.15-.4A28.88,28.88,0,0,1,10.65,19a.38.38,0,0,1,.13,0l.09,0A15.81,15.81,0,0,0,12,22.28a.48.48,0,0,1,.08.4.28.28,0,0,1-.14.09l-.08,0Z"/><path id="_Path_168" data-name="&lt;Path&gt;" class="cls-6" d="M9.85,23A.24.24,0,0,0,10,23c.07,0,.08-.26.09-.4,0-.7.09-1.87.21-3.52h-.16c-.27,1.63-.36,2.78-.54,3.48,0,.1-.08.34,0,.42a.37.37,0,0,0,.16.05Z"/><path id="_Path_169" data-name="&lt;Path&gt;" class="cls-6" d="M9.33,22.93a.25.25,0,0,0,.17,0c.07,0,.07-.27.11-.4.18-.7.27-1.85.54-3.49L10,19h0a29.32,29.32,0,0,1-.86,3.39c0,.1-.12.35,0,.44a.29.29,0,0,0,.15.07Z"/><path id="_Path_170" data-name="&lt;Path&gt;" class="cls-6" d="M8.82,22.79s.1,0,.17,0,.09-.27.15-.4A31.06,31.06,0,0,0,10,19a.51.51,0,0,0-.14,0l-.08,0a15.7,15.7,0,0,1-1.12,3.35c-.07.11-.13.33-.08.4s.11.07.15.09l.08,0Z"/><path id="_Path_171" data-name="&lt;Path&gt;" class="cls-6" d="M11.57,21.6s-.1,0-.15,0-.13-.25-.17-.38a28.26,28.26,0,0,1-1.12-3.4.27.27,0,0,1,.12,0,.35.35,0,0,1,.12,0,13.08,13.08,0,0,0,1.28,3.36.5.5,0,0,1,.11.4s-.09,0-.12.07Z"/><path id="_Path_172" data-name="&lt;Path&gt;" class="cls-6" d="M11.15,21.68s-.1,0-.15,0-.1-.26-.13-.39q-.19-1-.72-3.48l.12,0,.13,0a17.64,17.64,0,0,0,.89,3.45.52.52,0,0,1,.06.41s-.1,0-.13.06Z"/><path id="_Path_173" data-name="&lt;Path&gt;" class="cls-6" d="M10.72,21.73s-.1,0-.15,0-.06-.27-.07-.4c-.06-.7-.17-1.87-.33-3.52h.26c.22,1.64.35,2.83.49,3.5,0,.14.07.35,0,.41s-.1,0-.13,0Z"/><path id="_Path_174" data-name="&lt;Path&gt;" class="cls-6" d="M9.09,21.6a.27.27,0,0,0,.15,0c.08,0,.13-.25.17-.38a28.26,28.26,0,0,0,1.12-3.4l-.12,0a.35.35,0,0,0-.12,0A12.66,12.66,0,0,1,9,21.11a.55.55,0,0,0-.11.4s.1,0,.13.07l.07,0Z"/><path id="_Path_175" data-name="&lt;Path&gt;" class="cls-6" d="M9.51,21.68a.21.21,0,0,0,.15,0c.07,0,.1-.26.12-.39.14-.69.38-1.85.73-3.48l-.13,0-.12,0a18.41,18.41,0,0,1-.89,3.45.49.49,0,0,0-.07.41s.1,0,.14.06Z"/><path id="_Path_176" data-name="&lt;Path&gt;" class="cls-6" d="M9.94,21.73s.09,0,.14,0,.07-.27.08-.4c.05-.7.16-1.87.32-3.52h-.25c-.22,1.64-.35,2.83-.49,3.5,0,.14-.07.35,0,.41s.11,0,.14,0Z"/><path id="_Path_177" data-name="&lt;Path&gt;" class="cls-6" d="M10.37,21.74s.09,0,.14,0,0-.27,0-.4c0-.7,0-1.88-.08-3.53H10.2c0,1.65-.06,2.83-.08,3.53,0,.13,0,.35,0,.4s.1,0,.14,0Z"/><path id="_Path_178" data-name="&lt;Path&gt;" class="cls-6" d="M11.28,20.64a.17.17,0,0,1-.12,0c-.06,0-.1-.25-.13-.38-.25-.65-.48-1.8-.86-3.4l.1,0a.19.19,0,0,1,.09,0,16,16,0,0,0,1,3.36.63.63,0,0,1,.09.4c0,.05-.07.05-.1.07Z"/><path id="_Path_179" data-name="&lt;Path&gt;" class="cls-6" d="M11,20.72a.18.18,0,0,1-.12,0c-.05,0-.07-.26-.09-.39-.11-.69-.29-1.85-.56-3.48l.1,0,.09,0a22.38,22.38,0,0,0,.69,3.45.67.67,0,0,1,0,.41s-.07,0-.1.06Z"/><path id="_Path_180" data-name="&lt;Path&gt;" class="cls-6" d="M10.63,20.77s-.07,0-.11,0-.06-.27-.06-.4c0-.7-.13-1.87-.25-3.52h.1a.13.13,0,0,1,.09,0c.17,1.64.27,2.83.38,3.5a1,1,0,0,1,0,.41s-.08,0-.1.05Z"/><path id="_Path_181" data-name="&lt;Path&gt;" class="cls-6" d="M9.38,20.64a.17.17,0,0,0,.12,0c.05,0,.09-.25.12-.38a31.15,31.15,0,0,0,.86-3.4.16.16,0,0,0-.09,0,.24.24,0,0,0-.09,0,15.24,15.24,0,0,1-1,3.36.68.68,0,0,0-.08.4c0,.05.07.05.09.07Z"/><path id="_Path_182" data-name="&lt;Path&gt;" class="cls-6" d="M9.7,20.72a.19.19,0,0,0,.12,0s.07-.26.09-.39c.1-.69.29-1.85.55-3.48l-.09,0-.1,0a21.5,21.5,0,0,1-.68,3.45.77.77,0,0,0-.05.41s.08,0,.1.06Z"/><path id="_Path_183" data-name="&lt;Path&gt;" class="cls-6" d="M10,20.77s.07,0,.11,0,0-.27.06-.4c0-.7.12-1.87.25-3.52h-.1a.16.16,0,0,0-.1,0c-.17,1.64-.27,2.83-.37,3.5a.84.84,0,0,0,0,.41.21.21,0,0,0,.11.05Z"/><path id="_Path_184" data-name="&lt;Path&gt;" class="cls-6" d="M10.36,20.78s.07,0,.11,0a1,1,0,0,0,0-.4c0-.7,0-1.88-.06-3.53h-.2c0,1.65,0,2.83-.06,3.53,0,.13,0,.35,0,.4s.08,0,.11,0Z"/><path id="_Path_185" data-name="&lt;Path&gt;" class="cls-10" d="M8.4,18.89c-.09,0-.2.05-.51.33a5,5,0,0,1-.47.81l-.17.09a3.29,3.29,0,0,1-.46,0c-.13-.12-.32,0-.26.08s.06.22.15.15.36,0,.45,0-.29.14-.46.15-.15.17-.08.29,0,0,0,0,.22.1.23,0,.38-.25.43-.33c-.07.16-.22.32-.3.48s-.14.1,0,.27c.12,0,.13,0,.2,0s.2-.07.17-.2a.89.89,0,0,1,.13-.46,1.13,1.13,0,0,1,.07-.18c.06-.07.35-.21.42-.17s.24,0,.26-.1,0-.22-.11-.23a.22.22,0,0,0-.19.07c-.11.09-.16.14-.2.13s.16-.14.38-.43a1.08,1.08,0,0,0,.31-.74Z"/><path id="_Path_186" data-name="&lt;Path&gt;" class="cls-10" d="M8.45,22.1c-.22.18-.42-.23-.23-.76s.85-.24.46.29c0,0,0,0,0,0a.13.13,0,0,0-.16-.16c-.29.06-.3.61,0,.49.06,0,0,.11-.05.15Z"/><path id="_Path_187" data-name="&lt;Path&gt;" class="cls-10" d="M6.55,20.27c-.11-.07-.17-.07-.21,0s-.06,0,0,0,.19-.19.3-.11l.07.07s-.1.06-.12.09Z"/><path id="_Path_188" data-name="&lt;Path&gt;" class="cls-10" d="M8.14,20.11c.11-.08.22-.1.28-.05s.07,0,0,0-.26-.18-.37-.08L8,20a.41.41,0,0,0,.13.08Z"/><path id="_Path_189" data-name="&lt;Path&gt;" class="cls-10" d="M7.21,21.09a.3.3,0,0,0-.07-.19L7,21a.3.3,0,0,0,.07.47s.06,0,0-.05,0-.18.08-.32Z"/><path id="_Path_190" data-name="&lt;Path&gt;" class="cls-10" d="M6.75,20.72a.17.17,0,0,0-.14.18s0,.05,0,0c-.13-.31,0-.36.21-.35a.37.37,0,0,1,0,.17Z"/><path id="_Path_191" data-name="&lt;Path&gt;" class="cls-10" d="M9.18,12.61a1.3,1.3,0,0,1-.49.07c-.41,0-.65-.11-.7-.38a.52.52,0,0,0,.54.23A2.41,2.41,0,0,1,9,12.42s.1.09.14.19Z"/><path id="_Path_192" data-name="&lt;Path&gt;" class="cls-6" d="M10.13,18.19c0,.11,0,.25,0,.38h0l-.29.06c0,.13.33,1.53.5,1.53s.5-1.4.5-1.53l-.3-.06h0v-.38a2.3,2.3,0,0,0-.2.22,2.3,2.3,0,0,0-.2-.22Z"/><path id="_Path_193" data-name="&lt;Path&gt;" class="cls-6" d="M9.79,18.78l-.26-.15a.46.46,0,0,0,0,.61,1.92,1.92,0,0,1,.38.76.61.61,0,0,0,.12-.67,3.28,3.28,0,0,1-.24-.55Z"/><path id="_Path_194" data-name="&lt;Path&gt;" class="cls-6" d="M10,18.57l-.26-.15c-.11.08-.34.36-.15.6a2.8,2.8,0,0,1,.54.77.61.61,0,0,0,.13-.67,4.55,4.55,0,0,1-.26-.55Z"/><path id="_Path_195" data-name="&lt;Path&gt;" class="cls-6" d="M10.87,18.78l.26-.15a.46.46,0,0,1,0,.61,1.79,1.79,0,0,0-.38.76.61.61,0,0,1-.13-.67,3.82,3.82,0,0,0,.25-.55Z"/><path id="_Path_196" data-name="&lt;Path&gt;" class="cls-6" d="M10.65,18.57l.26-.15c.11.08.34.36.16.6a2.59,2.59,0,0,0-.54.77.61.61,0,0,1-.13-.67,3.82,3.82,0,0,0,.25-.55Z"/><path id="_Path_197" data-name="&lt;Path&gt;" class="cls-6" d="M9.43,18.46l-.27-.15a.48.48,0,0,0,0,.62,1.8,1.8,0,0,1,.39.75A.61.61,0,0,0,9.67,19a2.18,2.18,0,0,1-.24-.55Z"/><path id="_Path_198" data-name="&lt;Path&gt;" class="cls-6" d="M11.23,18.46l.26-.15a.48.48,0,0,1,0,.62,1.8,1.8,0,0,0-.39.75A.61.61,0,0,1,11,19a2.68,2.68,0,0,0,.24-.55Z"/><path id="_Path_199" data-name="&lt;Path&gt;" class="cls-6" d="M8.22,15.7c0,.24,0,1.84-.06,2.06a.65.65,0,0,1-.21.47,1,1,0,0,1-.17-.53c0-.11,0-1.62,0-1.93.18-.47.31-.49.42-.07Z"/><path id="_Path_200" data-name="&lt;Path&gt;" class="cls-6" d="M7.18,15.31l-.07,2.2a6,6,0,0,0,.37,1.58c.34-.15.42-.94.35-1.7a5.62,5.62,0,0,1,.06-1.57c0-.17,0-.35,0-.53l-.69,0Z"/><path id="_Path_201" data-name="&lt;Path&gt;" class="cls-6" d="M6.77,15.67l.05,2.19a6,6,0,0,0,.45,1.56c.35-.27.28-1.37.23-1.7a6.38,6.38,0,0,1-.06-1.56,5.15,5.15,0,0,0,0-.56l-.65.07Z"/><path id="_Path_202" data-name="&lt;Path&gt;" class="cls-6" d="M6.47,16.19h.58a5.94,5.94,0,0,0,.09,1.54c.09.54.22,1.91-.33,2.25-.35-.73-.08-1.44-.26-2.07a4.86,4.86,0,0,1-.08-1.71Z"/><path id="_Path_203" data-name="&lt;Path&gt;" class="cls-6" d="M8.67,15.3c0,.24-.09,1.83-.11,2.06a.61.61,0,0,1-.23.45.92.92,0,0,1-.15-.53c0-.11.06-1.62.08-1.93.19-.46.32-.48.41,0Z"/><path id="_Path_204" data-name="&lt;Path&gt;" class="cls-6" d="M7.65,14c0,.51,0,1.63,0,1.72a1.46,1.46,0,0,0,.18.63.66.66,0,0,0,.24-.46c0-.18,0-1.09,0-1.54a2.78,2.78,0,0,1-.33-.27L7.65,14Z"/><path id="_Path_205" data-name="&lt;Path&gt;" class="cls-6" d="M8.06,14.33c0,.55,0,1.43,0,1.5a1.07,1.07,0,0,0,.15.53.65.65,0,0,0,.25-.46c0-.14,0-.73,0-1.19-.15,0-.33-.28-.45-.38Z"/><path id="_Path_206" data-name="&lt;Path&gt;" class="cls-6" d="M7.71,14l-.39-.56a10.67,10.67,0,0,0-.07,2.44,1,1,0,0,0,.18.53.45.45,0,0,0,.22-.46,14.22,14.22,0,0,1,.06-2Z"/><path id="_Path_207" data-name="&lt;Path&gt;" class="cls-6" d="M6.9,15.21c0,.31,0,.52,0,.63a.92.92,0,0,0,.15.53.5.5,0,0,0,.23-.45,12.38,12.38,0,0,1,.15-2.47c-.09-.07-.25-.14-.34-.21a5.91,5.91,0,0,0-.17,2Z"/><path id="_Path_208" data-name="&lt;Path&gt;" class="cls-6" d="M6.51,15.78l.11.4a1,1,0,0,0,.23.53A.44.44,0,0,0,7,16.27a7.71,7.71,0,0,1,.17-3.18c-.61.42-.89,1.29-.69,2.69Z"/><path id="_Path_209" data-name="&lt;Path&gt;" class="cls-6" d="M6.54,16.18,6,16a8.39,8.39,0,0,0,.19,2.18,4.8,4.8,0,0,1,0,1.82c.59-.08.84-.84.54-2.29a6.58,6.58,0,0,1-.14-1.52Z"/><path id="_Path_210" data-name="&lt;Path&gt;" class="cls-6" d="M6.52,12.9l.37.06c0,.08-.12.56-.13.64a7.22,7.22,0,0,0-.13,2.32,2.5,2.5,0,0,0,.21.79c-.4-.05-.66-.44-.63-1.12a6.2,6.2,0,0,1,.09-1.91,8,8,0,0,1,.22-.78Z"/><path id="_Path_211" data-name="&lt;Path&gt;" class="cls-6" d="M6.3,13l.18.21c-.05,0,0,.19,0,.5a5.69,5.69,0,0,0-.16.6,5.61,5.61,0,0,0,.15,2.23c-.4,0-.54-.4-.55-1.09a9.8,9.8,0,0,1,.13-2A.7.7,0,0,1,6.3,13Z"/><path id="_Path_212" data-name="&lt;Path&gt;" class="cls-6" d="M7.3,13.52l-.37,0c-.07.35-.12.6-.13.72a1.17,1.17,0,0,0,.13.64c.14-.08.2-.26.26-.52s.07-.52.11-.8Z"/><path id="_Path_213" data-name="&lt;Path&gt;" class="cls-6" d="M8.26,14.31H7.93c0,.3,0,.5,0,.61a1,1,0,0,0,.15.52A.62.62,0,0,0,8.28,15c0-.22,0-.45,0-.69Z"/><path id="_Path_214" data-name="&lt;Path&gt;" class="cls-6" d="M8.61,14.47H8.29c0,.31,0,.51,0,.62a1.1,1.1,0,0,0,.17.51.64.64,0,0,0,.2-.46c0-.22,0-.45-.05-.68Z"/><path id="_Path_215" data-name="&lt;Path&gt;" class="cls-6" d="M7.93,14.14l-.33,0c0,.3-.06.5-.07.61a1.19,1.19,0,0,0,.11.53.63.63,0,0,0,.25-.43c0-.22,0-.45,0-.69Z"/><path id="_Path_216" data-name="&lt;Path&gt;" class="cls-6" d="M7.62,13.79l-.36-.15a3.2,3.2,0,0,0,0,1.38.68.68,0,0,0,.28-.47c0-.25.06-.5.08-.76Z"/><path id="_Path_217" data-name="&lt;Path&gt;" class="cls-6" d="M7.14,13.39l-.57,0a4.11,4.11,0,0,0-.26.89.62.62,0,0,0,.53-.42,1.27,1.27,0,0,1,.3-.52Z"/><path id="_Path_218" data-name="&lt;Path&gt;" class="cls-10" d="M7.73,22.1c.22.18.42-.23.22-.76s-.85-.24-.45.29c0,0,0,0,0,0s0-.18.15-.16c.29.06.3.61,0,.49,0,0,0,.11.06.15Z"/><path id="_Path_219" data-name="&lt;Path&gt;" class="cls-10" d="M8.06,20.39h0a.88.88,0,0,1-.21.29.35.35,0,0,0,0,.45.84.84,0,0,1,.16.35,1.5,1.5,0,0,1,0,.43.3.3,0,0,1-.14.21s0,.08.12.16a.18.18,0,0,1,.06.09s0,0,.06,0a.14.14,0,0,1,.05-.09c.11-.08.15-.13.12-.16a.3.3,0,0,1-.14-.21,1.11,1.11,0,0,1,0-.43.64.64,0,0,1,.16-.35.36.36,0,0,0,0-.45.93.93,0,0,1-.22-.29h0s0,0,0,0,0,0,0,0Z"/><path id="_Path_220" data-name="&lt;Path&gt;" class="cls-10" d="M7.93,21.67h.32a.09.09,0,0,1,.09.1.09.09,0,0,1-.09.09H7.93a.09.09,0,0,1-.1-.09.09.09,0,0,1,.1-.1Z"/><path id="_Path_221" data-name="&lt;Path&gt;" class="cls-10" d="M12.55,20.39h0a1.11,1.11,0,0,1-.22.29.35.35,0,0,0,0,.45.73.73,0,0,1,.16.35,1.19,1.19,0,0,1,0,.43.29.29,0,0,1-.13.21s0,.08.11.16a.14.14,0,0,1,.06.09.06.06,0,0,0,.06,0,.14.14,0,0,1,.06-.09c.1-.08.15-.13.11-.16a.29.29,0,0,1-.13-.21,1.19,1.19,0,0,1,0-.43.73.73,0,0,1,.16-.35.35.35,0,0,0,0-.45,1.11,1.11,0,0,1-.22-.29h0s0,0,0,0,0,0,0,0Z"/><path id="_Path_222" data-name="&lt;Path&gt;" class="cls-10" d="M12.41,21.67h.32a.1.1,0,0,1,.1.1.1.1,0,0,1-.1.09h-.32a.1.1,0,0,1-.1-.09.1.1,0,0,1,.1-.1Z"/><path id="_Path_223" data-name="&lt;Path&gt;" class="cls-6" d="M12.44,15.7c0,.24,0,1.84.05,2.06a.62.62,0,0,0,.22.47,1,1,0,0,0,.17-.53c0-.11,0-1.62,0-1.93-.18-.47-.31-.49-.42-.07Z"/><path id="_Path_224" data-name="&lt;Path&gt;" class="cls-6" d="M13.48,15.31l.07,2.2a6.43,6.43,0,0,1-.37,1.58c-.35-.15-.42-.94-.36-1.7a5.24,5.24,0,0,0-.06-1.57c0-.17,0-.35,0-.53l.69,0Z"/><path id="_Path_225" data-name="&lt;Path&gt;" class="cls-6" d="M13.88,15.67l0,2.19a6,6,0,0,1-.45,1.56c-.35-.27-.28-1.37-.23-1.7a5.73,5.73,0,0,0,.05-1.56c0-.18,0-.39,0-.56l.65.07Z"/><path id="_Path_226" data-name="&lt;Path&gt;" class="cls-6" d="M14.19,16.19h-.58a5.94,5.94,0,0,1-.09,1.54c-.09.54-.22,1.91.33,2.25.34-.73.08-1.44.25-2.07a4.66,4.66,0,0,0,.09-1.71Z"/><path id="_Path_227" data-name="&lt;Path&gt;" class="cls-6" d="M12,15.3c0,.24.1,1.83.12,2.06a.61.61,0,0,0,.23.45,1,1,0,0,0,.15-.53c0-.11-.06-1.62-.08-1.93-.19-.46-.32-.48-.42,0Z"/><path id="_Path_228" data-name="&lt;Path&gt;" class="cls-6" d="M13,14c0,.51,0,1.63,0,1.72a1.34,1.34,0,0,1-.19.63.65.65,0,0,1-.23-.46c0-.18,0-1.09,0-1.54a2.24,2.24,0,0,0,.34-.27L13,14Z"/><path id="_Path_229" data-name="&lt;Path&gt;" class="cls-6" d="M12.59,14.33c0,.55,0,1.43,0,1.5a1,1,0,0,1-.16.53.64.64,0,0,1-.24-.46c0-.14,0-.73,0-1.19.14,0,.33-.28.44-.38Z"/><path id="_Path_230" data-name="&lt;Path&gt;" class="cls-6" d="M13,14l.39-.56a10.1,10.1,0,0,1,.06,2.44.93.93,0,0,1-.17.53A.47.47,0,0,1,13,15.9,12.77,12.77,0,0,0,13,14Z"/><path id="_Path_231" data-name="&lt;Path&gt;" class="cls-6" d="M13.75,15.21q0,.46,0,.63a1,1,0,0,1-.15.53.53.53,0,0,1-.24-.45,11.68,11.68,0,0,0-.15-2.47c.1-.07.25-.14.35-.21a5.79,5.79,0,0,1,.16,2Z"/><path id="_Path_232" data-name="&lt;Path&gt;" class="cls-6" d="M14.15,15.78l-.11.4a1.07,1.07,0,0,1-.23.53.44.44,0,0,1-.18-.44,7.71,7.71,0,0,0-.17-3.18c.61.42.89,1.29.69,2.69Z"/><path id="_Path_233" data-name="&lt;Path&gt;" class="cls-6" d="M14.11,16.18l.56-.19a8.39,8.39,0,0,1-.19,2.18,4.56,4.56,0,0,0,0,1.82c-.59-.08-.84-.84-.55-2.29a6.06,6.06,0,0,0,.14-1.52Z"/><path id="_Path_234" data-name="&lt;Path&gt;" class="cls-6" d="M14.14,12.9l-.37.06c0,.08.11.56.13.64A7,7,0,0,1,14,15.92a2.52,2.52,0,0,1-.2.79c.4-.05.66-.44.62-1.12a5.63,5.63,0,0,0-.09-1.91c0-.14-.16-.67-.21-.78Z"/><path id="_Path_235" data-name="&lt;Path&gt;" class="cls-6" d="M14.36,13l-.18.21c.05,0,0,.19,0,.5a5.83,5.83,0,0,1,.15.6,5.44,5.44,0,0,1-.14,2.23c.4,0,.53-.4.55-1.09a9.8,9.8,0,0,0-.13-2,.74.74,0,0,0-.26-.45Z"/><path id="_Path_236" data-name="&lt;Path&gt;" class="cls-6" d="M13.36,13.52l.37,0c.06.35.12.6.13.72a1.26,1.26,0,0,1-.13.64c-.14-.08-.21-.26-.26-.52s-.07-.52-.11-.8Z"/><path id="_Path_237" data-name="&lt;Path&gt;" class="cls-6" d="M12.4,14.31h.32c0,.3,0,.5,0,.61a1,1,0,0,1-.15.52.62.62,0,0,1-.21-.45,5.4,5.4,0,0,1,0-.69Z"/><path id="_Path_238" data-name="&lt;Path&gt;" class="cls-6" d="M12,14.47h.33c0,.31,0,.51,0,.62a1,1,0,0,1-.17.51.68.68,0,0,1-.19-.46c0-.22,0-.45,0-.68Z"/><path id="_Path_239" data-name="&lt;Path&gt;" class="cls-6" d="M12.73,14.14l.33,0c0,.3.06.5.06.61a1,1,0,0,1-.11.53.66.66,0,0,1-.24-.43c0-.22,0-.45,0-.69Z"/><path id="_Path_240" data-name="&lt;Path&gt;" class="cls-6" d="M13,13.79l.36-.15a3.06,3.06,0,0,1,0,1.38.68.68,0,0,1-.28-.47c0-.25,0-.5-.07-.76Z"/><path id="_Path_241" data-name="&lt;Path&gt;" class="cls-6" d="M13.51,13.39l.58,0a4.11,4.11,0,0,1,.26.89.61.61,0,0,1-.53-.42,1.15,1.15,0,0,0-.31-.52Z"/><path id="_Path_242" data-name="&lt;Path&gt;" class="cls-6" d="M11.82,14.21l.14,0a1.83,1.83,0,0,1-.6-.61c-.21-.32.1-.91.22-1.21a1.45,1.45,0,0,0,.59-.86c0-.2-.53-.13-.91,0a1.73,1.73,0,0,1-.7.2c-.06.29.07.31.19.3a2.9,2.9,0,0,0-.42,1.42A2.9,2.9,0,0,0,9.91,12c.12,0,.24,0,.19-.3a1.7,1.7,0,0,1-.7-.2c-.39-.18-.94-.25-.91,0a1.44,1.44,0,0,0,.58.86c.13.3.43.89.22,1.21a1.82,1.82,0,0,1-.59.61l.13,0a.72.72,0,0,1-.33.11,4.46,4.46,0,0,1-.59-.7c-.51-.57-.76-1-.67-1.37s.58-.81,0-.74-1.09.9-1.25,1.88c-.06.37-.09.68-.13.93a1,1,0,0,0,.56-.38,3.56,3.56,0,0,0-.09.39.62.62,0,0,0,.53-.42.87.87,0,0,1,.1-.24.47.47,0,0,0,.31,0c0,.12.42.53.62.83a1.54,1.54,0,0,0,.66.61c.06,0,.08-.11.06-.28.59,0,1.17,0,1.74,0s1.15,0,1.73,0c0,.17,0,.29.06.28a1.54,1.54,0,0,0,.67-.61c.2-.3.56-.71.61-.83a.51.51,0,0,0,.32,0,1.33,1.33,0,0,1,.1.24.61.61,0,0,0,.53.42,3.56,3.56,0,0,0-.09-.39,1,1,0,0,0,.56.38c0-.25-.08-.56-.14-.93-.15-1-.65-1.8-1.25-1.88s-.14.36,0,.74-.16.8-.66,1.37a5.07,5.07,0,0,1-.59.7.76.76,0,0,1-.34-.11Z"/><path id="_Path_243" data-name="&lt;Path&gt;" class="cls-10" d="M11.47,12.61a1.41,1.41,0,0,0,.5.07c.41,0,.64-.11.7-.38a.54.54,0,0,1-.55.23,2.51,2.51,0,0,0-.5-.11.34.34,0,0,0-.15.19Z"/><path id="_Path_244" data-name="&lt;Path&gt;" class="cls-10" d="M12.43,11.53c.46.05.44.35,0,.78-.08.08-.11.08-.13,0s-.19-.23-.28-.12,0,.12-.24.09c-.24.21-.44.35-.12.34.14,0,.25.08.43.07,0,.1-.06.12-.09.13-.18,0-.37-.08-.55-.05-.39.08.63-1.06.62-1.11s.25-.32.35-.12Z"/><path id="_Compound_Path_" data-name="&lt;Compound Path&gt;" class="cls-5" d="M8.6,11.63v0h0Zm.42.1v0H8.6v0H9Zm.25.08v0H9v0h.25Zm0,0v0h0Z"/><path id="_Compound_Path_2" data-name="&lt;Compound Path&gt;" class="cls-5" d="M8.93,11.92l0,0H8.78v0l0,0h0v0h0l0,0h.21Zm.21-.14,0,0h0v0H8.91l0,0h.21Z"/><path id="_Path_245" data-name="&lt;Path&gt;" class="cls-5" d="M8.88,11.9l-.06-.06s0-.09,0-.15l.12.05a.24.24,0,0,1-.11.16Z"/><path id="_Compound_Path_3" data-name="&lt;Compound Path&gt;" class="cls-5" d="M11.72,11.92h.22l0,0h-.24Zm-.21-.14h.21l0,0H11.5v0h0Z"/><path id="_Path_246" data-name="&lt;Path&gt;" class="cls-5" d="M11.78,11.9l.06-.06s0-.09-.05-.15l-.12.05a.24.24,0,0,0,.11.16Z"/><path id="_Compound_Path_4" data-name="&lt;Compound Path&gt;" class="cls-5" d="M12.05,11.63h0Zm-.42.1h.42v0h-.4Zm-.24.08h.24l0,0h-.27Zm0,0h0v0Z"/><path id="_Path_247" data-name="&lt;Path&gt;" class="cls-10" d="M8.23,11.53c-.46.05-.44.35,0,.78.08.08.11.08.13,0s.19-.23.28-.12,0,.12.23.09c.25.21.45.35.13.34-.14,0-.25.08-.44.07.06.1.07.12.1.13s.36-.08.54-.05c.4.08-.63-1.06-.61-1.11s-.25-.32-.35-.12Z"/><path id="_Path_248" data-name="&lt;Path&gt;" class="cls-6" d="M8.54,18.74v-.3a.47.47,0,0,0-.55.28,1.75,1.75,0,0,1-.49.69.61.61,0,0,0,.65-.2,2.19,2.19,0,0,1,.38-.47Z"/><path id="_Path_249" data-name="&lt;Path&gt;" class="cls-6" d="M8.76,18.78l-.33-.14c-.13.27-.22.46-.26.56a1,1,0,0,0-.06.53.61.61,0,0,0,.39-.32c.1-.19.17-.42.26-.63Z"/><path id="_Path_250" data-name="&lt;Path&gt;" class="cls-6" d="M8.85,18.78l-.35-.05q-.09.43-.12.6a.91.91,0,0,0,.08.53.58.58,0,0,0,.29-.4c.06-.22.06-.45.1-.68Z"/><path id="_Path_251" data-name="&lt;Path&gt;" class="cls-6" d="M8.9,18.3h.21a.47.47,0,0,1,.1.61,1.89,1.89,0,0,0-.26.81.61.61,0,0,1-.22-.65,4.26,4.26,0,0,0,.17-.77Z"/><path id="_Path_252" data-name="&lt;Path&gt;" class="cls-6" d="M9,18.16,8.66,18l-.23.57a1,1,0,0,0,0,.54.59.59,0,0,0,.39-.32c.09-.2.13-.45.21-.67Z"/><path id="_Path_253" data-name="&lt;Path&gt;" class="cls-6" d="M8.77,17.93l-.07-.45c-.08,0-.18.15-.28.26l-.07.07a.85.85,0,0,0-.09.22,1.79,1.79,0,0,1-.36.76.6.6,0,0,0,.6-.33,2.51,2.51,0,0,1,.27-.53Z"/><path id="_Path_254" data-name="&lt;Path&gt;" class="cls-10" d="M12.26,18.89c.09,0,.19.05.51.33a5,5,0,0,0,.47.81l.17.09a3.37,3.37,0,0,0,.46,0c.13-.12.32,0,.25.08s-.06.22-.14.15-.36,0-.45,0,.28.14.46.15.15.17.08.29,0,0,0,0-.22.1-.23,0-.38-.25-.44-.33c.07.16.23.32.31.48s.14.1,0,.27c-.13,0-.13,0-.21,0s-.19-.07-.16-.2a.89.89,0,0,0-.13-.46.61.61,0,0,0-.08-.18c-.06-.07-.34-.21-.42-.17s-.24,0-.25-.1,0-.22.1-.23a.21.21,0,0,1,.19.07c.11.09.17.14.21.13s-.16-.14-.38-.43-.33-.61-.31-.74Z"/><path id="_Path_255" data-name="&lt;Path&gt;" class="cls-10" d="M14.1,20.27c.11-.07.18-.07.22,0s0,0,0,0-.19-.19-.3-.11l-.08.07s.11.06.12.09Z"/><path id="_Path_256" data-name="&lt;Path&gt;" class="cls-10" d="M12.52,20.11c-.12-.08-.22-.1-.29-.05s-.06,0,0,0,.26-.18.37-.08l.08.09a.41.41,0,0,1-.13.08Z"/><path id="_Path_257" data-name="&lt;Path&gt;" class="cls-10" d="M13.44,21.09a.41.41,0,0,1,.08-.19l.12.09a.32.32,0,0,1-.07.47s-.07,0-.05-.05,0-.18-.08-.32Z"/><path id="_Path_258" data-name="&lt;Path&gt;" class="cls-10" d="M13.9,20.72c.11,0,.15.1.14.18s0,.05.05,0c.13-.31,0-.36-.21-.35a.65.65,0,0,0,0,.17Z"/><path id="_Path_259" data-name="&lt;Path&gt;" class="cls-6" d="M12.12,18.74v-.3a.45.45,0,0,1,.54.28,1.86,1.86,0,0,0,.5.69.62.62,0,0,1-.66-.2c-.2-.27-.3-.44-.37-.47Z"/><path id="_Path_260" data-name="&lt;Path&gt;" class="cls-6" d="M11.9,18.78l.32-.14c.14.27.23.46.27.56a1,1,0,0,1,.06.53.56.56,0,0,1-.39-.32c-.1-.19-.17-.42-.26-.63Z"/><path id="_Path_261" data-name="&lt;Path&gt;" class="cls-6" d="M11.81,18.78l.34-.05a5,5,0,0,1,.12.6.91.91,0,0,1-.07.53.59.59,0,0,1-.3-.4c-.05-.22-.06-.45-.09-.68Z"/><path id="_Path_262" data-name="&lt;Path&gt;" class="cls-6" d="M11.75,18.3h-.2a.47.47,0,0,0-.11.61,1.79,1.79,0,0,1,.27.81.63.63,0,0,0,.22-.65,4.6,4.6,0,0,1-.18-.77Z"/><path id="_Path_263" data-name="&lt;Path&gt;" class="cls-6" d="M11.66,18.16,12,18c.12.28.2.47.23.57a.85.85,0,0,1,0,.54.58.58,0,0,1-.38-.32,6.56,6.56,0,0,1-.21-.67Z"/><path id="_Path_264" data-name="&lt;Path&gt;" class="cls-6" d="M11.89,17.93l.07-.45c.08,0,.18.15.28.26l.07.07a.85.85,0,0,1,.09.22,1.59,1.59,0,0,0,.36.76.6.6,0,0,1-.6-.33,3.16,3.16,0,0,0-.27-.53Z"/><path id="_Path_265" data-name="&lt;Path&gt;" class="cls-11" d="M12.18,14.41v3a2,2,0,0,1-.55,1.37,1.78,1.78,0,0,1-1.3.57h0A1.82,1.82,0,0,1,9,18.77a2,2,0,0,1-.54-1.37v-3Z"/><path id="_Path_266" data-name="&lt;Path&gt;" class="cls-6" d="M11,15.93V14.85c.24-.07.81-.3.84.2,0,.24-.28.39-.37.18a.14.14,0,0,1,.06-.18c.07,0,.13,0,.11.1.24-.13-.22-.4-.43-.05-.06.1.1.21.11.29s-.16.19-.11.28c.21.35.67.09.43,0a.08.08,0,0,1-.11.1.15.15,0,0,1-.06-.19c.09-.21.39,0,.37.18,0,.5-.6.27-.84.21Z"/><path id="_Path_267" data-name="&lt;Path&gt;" class="cls-6" d="M12.18,16.24V17H10.71V19.3a1.58,1.58,0,0,1-.38,0h0a1.72,1.72,0,0,1-.39,0V17H8.48v-.77H9.94V14.41h.77v1.83Z"/><path id="_Path_268" data-name="&lt;Path&gt;" class="cls-6" d="M9.69,15.93V14.85c-.23-.07-.81-.3-.84.2,0,.24.29.39.37.18a.12.12,0,0,0-.06-.18c-.06,0-.12,0-.1.1-.25-.13.22-.4.42-.05.06.1-.1.21-.1.29s.16.19.1.28c-.21.35-.67.09-.42,0a.08.08,0,0,0,.1.1.13.13,0,0,0,.06-.19c-.08-.21-.38,0-.37.18,0,.5.61.27.84.21Z"/><path id="_Path_269" data-name="&lt;Path&gt;" class="cls-6" d="M9.69,18.41V17.33c-.23-.07-.81-.29-.84.21,0,.23.29.38.37.18s0-.17-.06-.19a.08.08,0,0,0-.1.1c-.25-.13.22-.4.42-.05.06.11-.1.21-.1.29s.16.19.1.29c-.21.35-.67.08-.42-.05a.08.08,0,0,0,.1.1c.06,0,.1-.09.06-.19s-.38-.05-.37.18c0,.5.61.28.84.21Z"/><path id="_Path_270" data-name="&lt;Path&gt;" class="cls-6" d="M11,18.41V17.33c.24-.07.81-.29.84.21,0,.23-.28.38-.37.18a.15.15,0,0,1,.06-.19.08.08,0,0,1,.11.1c.24-.13-.22-.4-.43-.05-.06.11.1.21.11.29s-.16.19-.11.29c.21.35.67.08.43-.05a.08.08,0,0,1-.11.1.15.15,0,0,1-.06-.19c.09-.2.39-.05.37.18,0,.5-.6.28-.84.21Z"/></g></svg>