<svg id="Layer_1" data-name="Layer 1" xmlns="http://www.w3.org/2000/svg" viewBox="0 0 32 32"><defs><style>.cls-1{fill:#e70013;fill-rule:evenodd;}.cls-2{fill:#fff;}</style></defs><title>Tunisia</title><g id="_Group_" data-name="&lt;Group&gt;"><path id="_Path_" data-name="&lt;Path&gt;" class="cls-1" d="M16.08,32a16,16,0,1,0-16-16A16,16,0,0,0,16.08,32Z"/><path id="_Compound_Path_" data-name="&lt;Compound Path&gt;" class="cls-2" d="M22.22,15.14a6.21,6.21,0,0,0-6.35-5.33,6.2,6.2,0,1,0,6.35,5.33Zm-2.64,2.5L17.66,17c-.41.55-.79,1.1-1.2,1.64v-2L14.54,16l1.92-.63v-2c.41.54.79,1.09,1.2,1.63l1.92-.62c-.39.54-.78,1.09-1.18,1.63C18.77,16.55,19.19,17.08,19.58,17.64Zm-4.13-4.85a3.72,3.72,0,1,0,4.4,5.93,4.64,4.64,0,1,1,0-5.45A3.73,3.73,0,0,0,15.45,12.79Z"/></g></svg>