<svg id="Layer_1" data-name="Layer 1" xmlns="http://www.w3.org/2000/svg" viewBox="0 0 32 32"><defs><style>.cls-1{fill:#0038a8;fill-rule:evenodd;}.cls-2{fill:#fff;}.cls-3{fill:#fcd116;}</style></defs><title>Uruguay</title><path id="_Path_" data-name="&lt;Path&gt;" class="cls-1" d="M.1,17.78a16.09,16.09,0,0,0,.82,3.55H31.08a15.55,15.55,0,0,0,.82-3.55Z"/><g id="_Group_" data-name="&lt;Group&gt;"><path id="_Path_2" data-name="&lt;Path&gt;" class="cls-2" d="M31.9,17.78A17.53,17.53,0,0,0,32,16a17.53,17.53,0,0,0-.1-1.78H16V10.67H31.09a15.7,15.7,0,0,0-1.75-3.5H16V3.62H26.13A16,16,0,0,0,0,16a17.53,17.53,0,0,0,.1,1.78Z"/><path id="_Path_3" data-name="&lt;Path&gt;" class="cls-2" d="M5.94,28.44a16,16,0,0,0,20.12,0Z"/><path id="_Path_4" data-name="&lt;Path&gt;" class="cls-2" d="M.91,21.33A15.84,15.84,0,0,0,2.7,24.89H29.3a15.84,15.84,0,0,0,1.79-3.56Z"/></g><g id="_Group_2" data-name="&lt;Group&gt;"><path id="_Path_5" data-name="&lt;Path&gt;" class="cls-1" d="M6,28.44H26a15.9,15.9,0,0,0,3.25-3.55H2.71A16.14,16.14,0,0,0,6,28.44Z"/><path id="_Path_6" data-name="&lt;Path&gt;" class="cls-1" d="M31.08,10.67a15.55,15.55,0,0,1,.82,3.55H16V10.67Z"/><path id="_Path_7" data-name="&lt;Path&gt;" class="cls-1" d="M26.1,3.61h0a16.29,16.29,0,0,1,3.22,3.56H16V3.62H26.1Z"/></g><circle id="_Path_8" data-name="&lt;Path&gt;" class="cls-3" cx="9.21" cy="10.49" r="1.6"/><path id="_Path_9" data-name="&lt;Path&gt;" class="cls-3" d="M10.74,6.85A.85.85,0,0,1,11,6a.94.94,0,0,0-.63.79A2.44,2.44,0,0,1,9.68,8l0,.05V8L9.21,5.74,8.64,8.89a1.55,1.55,0,0,1,1.17,0l.7-.49A2.53,2.53,0,0,0,10.74,6.85Z"/><path id="_Path_10" data-name="&lt;Path&gt;" class="cls-3" d="M5.85,7.13,7.67,9.76a1.7,1.7,0,0,1,.84-.83l.16-.83a2.56,2.56,0,0,0-1-1.27.83.83,0,0,1-.44-.76,1,1,0,0,0,.11,1,2.4,2.4,0,0,1,.39,1.32v.08l-.07,0Z"/><path id="_Path_11" data-name="&lt;Path&gt;" class="cls-3" d="M7.51,10.49a1.61,1.61,0,0,1,.11-.61l-.49-.7A2.5,2.5,0,0,0,5.57,9a.87.87,0,0,1-.85-.23.94.94,0,0,0,.79.62A2.52,2.52,0,0,1,6.72,10l0,.06H6.7l-2.24.41,3.15.57A1.63,1.63,0,0,1,7.51,10.49Z"/><path id="_Path_12" data-name="&lt;Path&gt;" class="cls-3" d="M5.85,13.84,8.48,12a1.7,1.7,0,0,1-.83-.84L6.82,11A2.62,2.62,0,0,0,5.55,12a.84.84,0,0,1-.76.45.94.94,0,0,0,1-.12,2.41,2.41,0,0,1,1.33-.39h.07l0,.06Z"/><path id="_Path_13" data-name="&lt;Path&gt;" class="cls-3" d="M8.07,14.18A2.52,2.52,0,0,1,8.74,13l0-.05V13l.41,2.25.57-3.15a1.66,1.66,0,0,1-1.18,0l-.7.49a2.59,2.59,0,0,0-.22,1.56.89.89,0,0,1-.23.86A.94.94,0,0,0,8.07,14.18Z"/><path id="_Path_14" data-name="&lt;Path&gt;" class="cls-3" d="M12.57,13.84l-1.82-2.62A1.78,1.78,0,0,1,9.9,12l-.15.84a2.63,2.63,0,0,0,.94,1.26.87.87,0,0,1,.45.77,1,1,0,0,0-.12-1,2.4,2.4,0,0,1-.39-1.32V12.5l.06.05Z"/><path id="_Path_15" data-name="&lt;Path&gt;" class="cls-3" d="M10.91,10.49a1.77,1.77,0,0,1-.11.6l.48.7a2.54,2.54,0,0,0,1.56.23l.28,0a.8.8,0,0,1,.58.26.94.94,0,0,0-.79-.63A2.46,2.46,0,0,1,11.69,11l0-.05.07,0,2.25-.4-3.15-.58A1.65,1.65,0,0,1,10.91,10.49Z"/><path id="_Path_16" data-name="&lt;Path&gt;" class="cls-3" d="M12.57,7.13,9.94,9a1.68,1.68,0,0,1,.82.84l.84.15A2.63,2.63,0,0,0,12.86,9a.87.87,0,0,1,.77-.45,1,1,0,0,0-1,.12,2.4,2.4,0,0,1-1.32.39h-.07l0-.06Z"/></svg>