<?xml version="1.0" encoding="utf-8"?>
<!-- Generator: Adobe Illustrator 22.1.0, SVG Export Plug-In . SVG Version: 6.00 Build 0)  -->
<svg version="1.1" id="Layer_1" xmlns="http://www.w3.org/2000/svg" xmlns:xlink="http://www.w3.org/1999/xlink" x="0px" y="0px"
	 viewBox="0 0 491.1 491.1" style="enable-background:new 0 0 491.1 491.1;" xml:space="preserve">
<style type="text/css">
	.st0{fill:#FFFFFF;stroke:#000000;stroke-miterlimit:10;}
	.st1{fill:#2B2829;stroke:#000000;stroke-miterlimit:10;}
</style>
<g>
	<g>
		<g>
			<path class="st0" d="M490.6,245.6c0,1,0,2,0,3c-0.6,51.6-17.2,99.4-45,138.6c-30.7,43.3-75.2,76.3-127.1,92.4
				c-23,7.2-47.5,11.1-73,11.1c-25.4,0-49.9-3.9-72.9-11c-51.9-16.1-96.3-49.1-127.1-92.4c-27.9-39.2-44.4-87-45-138.6c0-1,0-2,0-3
				c0-54.9,18.1-105.6,48.6-146.5c29.5-39.4,70.4-69.7,118-85.8c24.7-8.3,51-12.8,78.5-12.8s53.9,4.5,78.6,12.9
				c47.5,16.1,88.5,46.3,117.9,85.7C472.6,140,490.6,190.7,490.6,245.6z"/>
		</g>
		<path class="st1" d="M490.6,245.6c0-54.9-18.1-105.6-48.6-146.5h-29.3l-0.4-1.2l-77.9-56.6h-1.3l-9.1-27.9
			C299.5,5,273,0.5,245.6,0.5S191.7,5,167,13.3l-9.1,28h-1.3L78.8,97.9l-0.4,1.2H49.1C18.6,140,0.5,190.7,0.5,245.6c0,1,0,2,0,3
			l23.7,17.2l-0.4,1.2l29.8,91.6l1,0.7l-9.1,27.9c30.7,43.4,75.2,76.3,127.1,92.4l23.8-17.3l0.5,0.4l0.5,0.4h96.3l1-0.7l23.8,17.2
			c51.9-16.1,96.3-49.1,127.1-92.4l-9.1-27.9l0.5-0.4l0.5-0.4l29.8-91.6l-0.4-1.2l23.7-17.2C490.6,247.6,490.6,246.6,490.6,245.6z
			 M409.1,100.3l0.6,1.9l-32,98.4l-45.9,14.7l-84.3-61.2V106l83.6-60.8h2L409.1,100.3z M157.9,45.2h2l83.6,60.8v48.2l-84.2,61.2
			l-46-14.7l-32-98.4l0.6-1.9L157.9,45.2z M27.9,267l0.6-1.9l83.6-60.7L158,219l32.3,99.5L162,357.4H58.6l-1.7-1.2L27.9,267z
			 M198.7,459.2L197,458l-31.9-98.3l28.5-39.1h104.2l28.4,38.9l-32,98.5l-1.7,1.2H198.7z M434.2,356.2l-1.6,1.2H329.3l-28.5-39
			l32.3-99.3l45.9-14.7l83.6,60.7l0.6,1.9L434.2,356.2z"/>
	</g>
</g>
</svg>
