<?xml version="1.0" encoding="utf-8"?>
<!-- Generator: Adobe Illustrator 22.1.0, SVG Export Plug-In . SVG Version: 6.00 Build 0)  -->
<svg version="1.1"
     id="matches-svg"
     xmlns="http://www.w3.org/2000/svg" xmlns:xlink="http://www.w3.org/1999/xlink"
     x="0px"
	 y="0px"
     viewBox="0 0 765 765"
     style="enable-background:new 0 0 765.3 683.2;"
     xml:space="preserve">
<style type="text/css">
	.st0{fill:none;stroke:#292929;stroke-linecap:round;stroke-miterlimit:10;stroke-dasharray:0.5,5;}
	.st1{opacity:1;fill:none;stroke:#353535;stroke-miterlimit:10;enable-background:new    ;}
	.st2{fill:#353535;}
	.st3{font-family:'ArialMT';}
	.st4{font-size:12px;}
	.st5{fill:#3182BD;}
	.st6{fill:#FFFFFF;}
	.st7{font-size:14px;}
	.st8{font-size:13.9984px;}
	.st9{font-size:13.9988px;}
	.st10{fill:#6BAED6;}
	.st11{font-size:14.0012px;}
	.st12{fill:#6DA154;}
	.st13{font-size:11.9976px;}
	.st14{fill:#465C42;}
	.st15{font-size:13.999px;}
	.st16{fill:#FFC400;}
	.st17{font-size:13.9986px;}
	.st18{fill:#FF9100;}
	.st19{font-size:14.001px;}
	.st20{fill:#961A1A;}
	.st21{fill:#DB1A1A;}
	.st22{font-size:14.0014px;}
	.st23{fill:#444444;}
</style>
<g id="circulos-ronda">
	<circle class="st0" cx="382.7" cy="311.2" r="220"/>
	<circle class="st0" cx="382.7" cy="311.2" r="259.9"/>
	<circle class="st0" cx="382.8" cy="311.2" r="122.8"/>
	<circle class="st0" cx="382.7" cy="311.2" r="171.6"/>
</g>
<g id="lineas">
	<g id="lineas-octavos">
		<path class="st1" d="M210.2,174.7c21.2,17.2-32.9,104.1,0.9,113.4"/>
		<path class="st1" d="M215.7,112.8c19.5,24.2,13.1,75.7,31.3,90.7"/>
		<path class="st1" d="M170.9,250.7c23.8,8.8,55.8-64.3,76.1-47.2"/>
		<path class="st1" d="M123.9,292.7c33.2,0.8,49.1-15.1,87.2-4.6"/>
		<path class="st1" d="M209,446.2c17.7-14.9,90.4,57.1,103.8,22.2"/>
		<path class="st1" d="M150.2,427.3c28.8-11.8,72.7-5,92.3-18.1"/>
		<path class="st1" d="M275,503.3c13.3-20.5-60.9-73.9-32.5-94.1"/>
		<path class="st1" d="M304.9,559c8.3-27.8-4-70.3,7.9-90.7"/>
		<path class="st1" d="M555.3,174.7c-21.2,17.2,32.9,104.1-0.9,113.4"/>
		<path class="st1" d="M549.7,112.8c-19.5,24.2-13.1,75.7-31.3,90.7"/>
		<path class="st1" d="M594.8,252.3c-23.8,8.8-56-65.9-76.3-48.8"/>
		<path class="st1" d="M641.9,292.7c-33.2,0.8-49.5-15.1-87.6-4.6"/>
		<path class="st1" d="M556.1,446.7c-17.7-14.9-89.9,56.6-103.4,21.6"/>
		<path class="st1" d="M615.2,427.5c-28.8-11.8-72.6-5.1-92.2-18.3"/>
		<path class="st1" d="M490.4,503.3c-13.3-20.5,60.9-73.9,32.5-94.1"/>
		<path class="st1" d="M460.6,559c-8.3-27.8,4-70.3-7.9-90.7"/>
	</g>
	<g id="lineas-cuartos">
		<path class="st1" d="M247,204c20,16.8-19.3,78.7,12.3,112.7"/>
		<path class="st1" d="M211.1,288.1c23.4,6.4,23,125.2,102.1,125.2"/>
		<path class="st1" d="M242.5,409.2c19.2-10.6-13.2-92,19.7-92.8"/>
		<path class="st1" d="M312.8,468.3c10-20.4-7.7-36.2,3-57"/>
		<path class="st1" d="M518.4,204c-20,16.8,19.3,78.7-12.3,112.7"/>
		<path class="st1" d="M554.4,288.1c-23.4,6.4-23,125.2-102.1,125.2"/>
		<path class="st1" d="M522.9,409.2c-19.2-10.6,13.2-92-19.7-92.8"/>
		<path class="st1" d="M452.7,468.3c-10-20.4,7.7-36.2-3-57"/>
	</g>
	<g id="lineas-semis">
		<path class="st1" d="M262.2,316.4c21.9-2.7,45.2,56.8,70.9,36.5"/>
		<path class="st1" d="M313.2,413.3c19-32.5,87.8-5.9,119.2-60.4"/>
		<path class="st1" d="M503.3,316.4c-21.9-2.7-45.2,56.8-70.9,36.5"/>
		<path class="st1" d="M452.2,413.3c-19-32.5-87.8-5.9-119.2-60.4"/>
	</g>
	<g id="lineas-final">
		<path class="st1" d="M333.1,352.9c16.6-13.7,49.6-32.5,49.6-78.7"/>
		<path class="st1" d="M432.4,352.9c-16.7-13.7-49.7-32.5-49.7-78.7"/>
	</g>
</g>
<g id="group-a">
	<text transform="matrix(0.5477 0.8367 -0.8367 0.5477 190.594 14.9366)" class="st2 st3 st4">GRUPO A</text>
	<path class="st5" d="M214.8,89.1c-4.1,3.1-10.4,1.7-13.9-3.1l-52.2-64.2c-3.6-4.8-2.1-11.9,3.3-15.9l4.5-3.3
		c5.4-4,12.6-3.4,16.2,1.4l46.7,68.3c3.6,4.8,3.1,11.2-1,14.2L214.8,89.1z"/>
	<g>
		<text transform="matrix(0.5977 0.8017 -0.8017 0.5977 156.6014 13.9734)" class="st6 st3 st7">Arabia Saud.</text>
	</g>
	<path class="st5" d="M192.5,107.9c-3.8,3.5-10.1,2.8-14.2-1.6l-58.6-58.4c-4-4.4-3.3-11.6,1.6-16.2l4.1-3.8
		c4.9-4.5,12.2-4.7,16.2-0.3l53.5,63.1c4,4.4,4.3,10.8,0.5,14.3L192.5,107.9z"/>
	<g>
		<text transform="matrix(0.6782 0.7348 -0.7348 0.6782 155.4113 70.1388)" class="st6 st3 st8">Egipto</text>
	</g>
	<path class="st5" d="M172.3,128.9c-3.4,3.9-9.8,3.8-14.3-0.1l-64.4-52c-4.5-3.9-4.5-11.2-0.1-16.2l3.7-4.2c4.4-5,11.6-5.9,16.1-2
		l59.8,57.1c4.5,3.9,5.4,10.3,2,14.1L172.3,128.9z"/>
	<g>
		<text transform="matrix(0.7513 0.6599 -0.6599 0.7513 135.2771 98.5609)" class="st6 st3 st9">Rusia</text>
	</g>
	<g>
		<path id="Uruguay-bg" class="st5" d="M154.4,151.8c-3,4.2-9.3,4.8-14.2,1.4l-69.4-45c-4.9-3.4-5.7-10.7-1.8-16.1l3.2-4.6
			c3.9-5.5,11-7.1,15.8-3.7l65.5,50.6c4.9,3.4,6.4,9.6,3.4,13.9L154.4,151.8z"/>
		<text transform="matrix(0.8162 0.5778 -0.5778 0.8162 98.554 113.9802)" class="st6 st3 st7">Uruguay</text>
	</g>
</g>
<g id="group-b">
	<text transform="matrix(0.9409 0.3386 -0.3386 0.9409 50.9338 189.7677)" class="st2 st3 st4">GRUPO B</text>
	<path class="st10" d="M114.9,234.9c-1.4,4.9-7.3,7.6-13,5.9l-80.2-19.9c-5.7-1.7-8.8-8.2-7-14.7l1.6-5.4c1.9-6.4,8-10.3,13.8-8.6
		l78.4,26.5c5.7,1.7,9.2,7,7.7,12L114.9,234.9z"/>
	<g>
		<text transform="matrix(0.9598 0.2806 -0.2806 0.9598 57.2178 220.1904)" class="st3 st7">España</text>
	</g>
	<path class="st10" d="M108.4,263.3c-0.9,5.1-6.4,8.3-12.3,7.3l-81.9-11.4c-5.9-1.1-9.7-7.3-8.5-13.9l1-5.5
		c1.2-6.6,6.9-11.1,12.8-10l80.7,18.1c5.9,1.1,9.9,6,9,11.1L108.4,263.3z"/>
	<g>
		<text transform="matrix(0.9839 0.1787 -0.1787 0.9839 70.951 258.6363)" class="st3 st7">Irán</text>
	</g>
	<path class="st10" d="M104.9,292.2c-0.4,5.1-5.5,8.9-11.5,8.5l-82.7-2.8c-5.9-0.4-10.4-6.2-9.9-12.9l0.4-5.6
		c0.5-6.7,5.7-11.7,11.7-11.3l82.2,9.6c5.9,0.4,10.5,5,10.1,10.1L104.9,292.2z"/>
	<g>
		<text transform="matrix(0.9972 7.490000e-02 -7.490000e-02 0.9972 22.3669 287.5234)" class="st3 st7">Marruecos</text>
	</g>
	<path class="st10" d="M104.4,321.3c0.2,5.2-4.6,9.5-10.5,9.7l-82.5,5.9c-6,0.2-11-5.1-11.2-11.8L0,319.5
		c-0.2-6.7,4.5-12.3,10.4-12.4l82.7,1c6-0.2,10.9,3.9,11.1,9L104.4,321.3z"/>
	<g>
		<text transform="matrix(0.9996 -2.979738e-02 2.979738e-02 0.9996 35.7335 325.1058)" class="st3 st11">Portugal</text>
	</g>
</g>
<g id="group-c">
	<path class="st12" d="M134.8,438c2.3,4.6-0.1,10.5-5.5,13.2L57,491.4c-5.3,2.7-12.1,0-15.1-6l-2.5-5c-3-6-1.1-13,4.2-15.7
		l75.4-34.1c5.3-2.7,11.5-1.1,13.8,3.5L134.8,438z"/>
	<path class="st12" d="M149.4,463.2c2.8,4.3,1,10.5-4,13.7l-67.7,47.6c-5,3.2-12,1.3-15.6-4.4l-3-4.7c-3.6-5.6-2.5-12.8,2.5-16
		l71.4-41.8c5-3.2,11.3-2.3,14.1,2L149.4,463.2z"/>
	<g>
		<text transform="matrix(0.8415 -0.5403 0.5403 0.8415 100.9346 497.5319)" class="st3 st7">Francia</text>
	</g>
	<text transform="matrix(0.9552 -0.2958 0.2958 0.9552 44.3469 413.5413)" class="st2 st3 st13">GRUPO C</text>
	<path class="st12" d="M122.9,411.4c1.8,4.8-1.2,10.4-6.8,12.6L40,456.4c-5.6,2.1-12-1.3-14.4-7.5l-2-5.2
		c-2.4-6.3,0.2-13.1,5.8-15.2l78.5-26c5.6-2.1,11.6,0.1,13.4,4.9L122.9,411.4z"/>
	<g>
		<text transform="matrix(0.9354 -0.3536 0.3536 0.9354 59.3393 437.8316)" class="st3 st7">Australia</text>
	</g>
	<g>
		<text transform="matrix(0.8933 -0.4494 0.4494 0.8933 61.361 477.706)" class="st3 st7">Dinamarca</text>
	</g>
	<path class="st12" d="M166.6,486.8c3.2,4,2.1,10.3-2.6,14l-62.4,54.4c-4.7,3.7-11.8,2.5-16-2.7l-3.5-4.4
		c-4.2-5.2-3.8-12.5,0.8-16.2l66.7-49c4.7-3.7,11-3.5,14.3,0.5L166.6,486.8z"/>
	<g>
		<text transform="matrix(0.7804 -0.6253 0.6253 0.7804 134.5334 515.4936)" class="st3 st7">Perú</text>
	</g>
</g>
<g id="group-d">
	<text transform="matrix(0.5849 -0.8111 0.8111 0.5849 174.2499 596.157)" class="st2 st3 st4">GRUPO D</text>
	<path class="st14" d="M235.5,547.6c4.4,2.8,5.3,9.1,2.1,14.1l-41.3,71.7c-3.2,5-10.4,6.2-16,2.7l-4.7-3c-5.7-3.6-7.7-10.6-4.5-15.6
		l47.1-68c3.2-5,9.3-6.9,13.7-4.1L235.5,547.6z"/>
	<g>
		<text transform="matrix(0.5343 -0.8453 0.8453 0.5343 195.6466 612.7521)" class="st6 st3 st7">Argentina</text>
	</g>
	<path class="st14" d="M261,561.7c4.6,2.3,6.2,8.5,3.6,13.8l-33.5,75.6c-2.6,5.3-9.6,7.3-15.7,4.3l-5-2.5c-6-3-8.7-9.7-6.1-15.1
		l39.7-72.6c2.6-5.3,8.5-7.8,13.2-5.6L261,561.7z"/>
	<g>
		<text transform="matrix(0.443 -0.8965 0.8965 0.443 234.7036 617.24)" class="st6 st3 st7">Croacia</text>
	</g>
	<path class="st14" d="M287.9,573c4.8,1.8,7.1,7.8,5,13.4l-25.5,78.7c-2.1,5.6-8.8,8.2-15.1,5.9l-5.2-1.9c-6.3-2.3-9.7-8.7-7.6-14.3
		l31.9-76.3c2.1-5.6,7.7-8.7,12.5-6.9L287.9,573z"/>
	<g>
		<text transform="matrix(0.3468 -0.9379 0.9379 0.3468 267.5567 632.3373)" class="st6 st3 st15">Islandia</text>
	</g>
	<path class="st14" d="M315.7,581.5c5,1.3,7.9,7,6.4,12.8L305,675.2c-1.5,5.8-7.9,9.1-14.4,7.5l-5.4-1.4c-6.5-1.7-10.6-7.7-9.1-13.5
		l23.7-79.2c1.5-5.8,6.7-9.4,11.7-8.2L315.7,581.5z"/>
	<g>
		<text transform="matrix(0.2469 -0.969 0.969 0.2469 303.695 638.8351)" class="st6 st3 st9">Nigeria</text>
	</g>
</g>
<g id="group-h">
	<text transform="matrix(0.5368 -0.8437 0.8437 0.5368 541.2666 63.9447)" class="st2 st3 st4">GRUPO H</text>
	<path class="st16" d="M547.1,86.5c-4.1-3.1-4.6-9.5-1-14.2L592.7,4c3.6-4.8,10.8-5.4,16.2-1.4l4.5,3.3c5.4,4,6.8,11.1,3.3,15.9
		L564.6,86c-3.6,4.8-9.8,6.2-13.9,3.1L547.1,86.5z"/>
	<g>
		<text transform="matrix(0.6105 -0.792 0.792 0.6105 559.7703 81.3608)" class="st3 st7">Colombia</text>
	</g>
	<path class="st16" d="M569.7,104.9c-3.8-3.5-3.6-9.9,0.5-14.3l53.5-63.1c4-4.4,11.3-4.3,16.2,0.3l4.1,3.8
		c4.9,4.5,5.6,11.8,1.6,16.2L587,106.2c-4,4.4-10.4,5.1-14.2,1.6L569.7,104.9z"/>
	<g>
		<text transform="matrix(0.6899 -0.7239 0.7239 0.6899 582.9919 101.2211)" class="st3 st7">Japón</text>
	</g>
	<path class="st16" d="M590.2,125.6c-3.4-3.9-2.5-10.2,1.9-14.1l59.8-57.1c4.5-3.9,11.7-3.1,16.1,2l3.7,4.2c4.4,5,4.4,12.3-0.1,16.2
		l-64.3,52c-4.5,3.9-10.9,4-14.3,0.1L590.2,125.6z"/>
	<g>
		<text transform="matrix(0.7618 -0.6478 0.6478 0.7618 603.8544 123.3042)" class="st3 st7">Polonia</text>
	</g>
	<path class="st16" d="M608.5,148.3c-3-4.2-1.4-10.4,3.4-13.9l65.5-50.6c4.9-3.4,11.9-1.8,15.8,3.6l3.2,4.6
		c3.9,5.5,3.1,12.7-1.8,16.1l-69.4,45c-4.9,3.4-11.2,2.8-14.2-1.4L608.5,148.3z"/>
	<g>
		<text transform="matrix(0.8253 -0.5646 0.5646 0.8253 622.2312 147.366)" class="st3 st17">Senegal</text>
	</g>
</g>
<g id="group-g">
	<text transform="matrix(0.9365 -0.3507 0.3507 0.9365 658.2488 209.207)" class="st2 st3 st4">GRUPO G</text>
	<path class="st18" d="M649.2,230.7c-1.4-4.9,2-10.3,7.7-12l78.4-26.5c5.7-1.7,11.9,2.2,13.8,8.6l1.6,5.4c1.9,6.4-1.2,13-7,14.7
		l-80.3,19.9c-5.7,1.7-11.5-1-13-5.9L649.2,230.7z"/>
	<g>
		<text transform="matrix(0.9642 -0.2652 0.2652 0.9642 662.4812 234.3213)" class="st3 st7">Bélgica</text>
	</g>
	<path class="st18" d="M656.2,259c-0.9-5.1,3.1-10.1,9-11.1l80.7-18.2c5.9-1.1,11.6,3.4,12.8,10l1,5.5c1.2,6.6-2.6,12.8-8.5,13.9
		l-81.9,11.4c-5.9,1.1-11.4-2.2-12.3-7.3L656.2,259z"/>
	<g>
		<text transform="matrix(0.9866 -0.1629 0.1629 0.9866 669.0576 263.8641)" class="st3 st9">Inglaterra*</text>
	</g>
	<path class="st18" d="M660.2,287.9c-0.4-5.1,4.1-9.7,10.1-10.1l82.2-9.6c5.9-0.4,11.2,4.6,11.7,11.3l0.4,5.6
		c0.5,6.7-3.9,12.5-9.9,12.9l-82.7,2.8c-5.9,0.4-11.1-3.4-11.5-8.5L660.2,287.9z"/>
	<g>
		<text transform="matrix(0.9983 -5.889576e-02 5.889576e-02 0.9983 672.3768 294.0941)" class="st3 st19">Panamá</text>
	</g>
	<path class="st18" d="M661.1,317c0.2-5.2,5.1-9.2,11.1-9l82.7-1c6,0.2,10.6,5.7,10.4,12.4l-0.2,5.6c-0.2,6.7-5.2,12-11.2,11.8
		l-82.5-5.9c-6-0.2-10.7-4.5-10.5-9.7L661.1,317z"/>
	<g>
		<text transform="matrix(0.999 4.569591e-02 -4.569591e-02 0.999 672.575 324.4626)" class="st3 st11">Túnez</text>
	</g>
</g>
<g id="group-f">
	<text transform="matrix(0.959 0.2835 -0.2835 0.959 664.213 395.5333)" class="st2 st3 st4">GRUPO F</text>
	<path class="st20" d="M644,407.3c1.8-4.8,7.8-7,13.4-4.9l78.5,26c5.6,2.1,8.2,8.9,5.8,15.2l-2,5.2c-2.4,6.3-8.8,9.6-14.4,7.5
		l-76.1-32.4c-5.6-2.1-8.6-7.7-6.8-12.6L644,407.3z"/>
	<g>
		<text transform="matrix(0.9296 0.3685 -0.3685 0.9296 652.5016 418.0881)" class="st6 st3 st7">Alemania</text>
	</g>
	<path class="st20" d="M632.6,434.1c2.3-4.6,8.5-6.2,13.8-3.5l75.4,34.1c5.3,2.7,7.2,9.7,4.2,15.7l-2.5,5c-3,6-9.8,8.7-15.1,6
		l-72.3-40.2c-5.3-2.7-7.8-8.6-5.5-13.2L632.6,434.1z"/>
	<g>
		<text transform="matrix(0.886 0.4636 -0.4636 0.886 639.8047 445.7159)" class="st6 st3 st9">México</text>
	</g>
	<path class="st20" d="M618.4,459.5c2.8-4.3,9.1-5.2,14.1-2l71.4,41.8c5,3.2,6.2,10.4,2.5,16l-3,4.7c-3.6,5.6-10.6,7.6-15.6,4.4
		l-67.7-47.5c-5-3.2-6.8-9.4-4-13.7L618.4,459.5z"/>
	<g>
		<text transform="matrix(0.8327 0.5537 -0.5537 0.8327 624.4208 471.9697)" class="st6 st3 st7">Rep. Corea</text>
	</g>
	<path class="st20" d="M601.6,483.3c3.2-4,9.6-4.3,14.3-0.5l66.7,49c4.7,3.7,5,11,0.9,16.2l-3.5,4.4c-4.2,5.2-11.4,6.4-16,2.7
		l-62.4-54.3c-4.7-3.7-5.8-10-2.6-14L601.6,483.3z"/>
	<g>
		<text transform="matrix(0.7703 0.6377 -0.6377 0.7703 606.2919 496.3653)" class="st6 st3 st7">Suecia</text>
	</g>
</g>
<g id="group-e">
	<text transform="matrix(0.5953 0.8035 -0.8035 0.5953 556.8024 547.8458)" class="st2 st3 st4">GRUPO E</text>
	<path class="st21" d="M533.6,545.2c4.4-2.8,10.5-0.9,13.7,4.1l47.1,68c3.2,5,1.2,12-4.5,15.6l-4.7,3c-5.7,3.6-12.8,2.4-16-2.6
		l-41.3-71.7c-3.2-5-2.2-11.4,2.1-14.1L533.6,545.2z"/>
	<g>
		<text transform="matrix(0.5207 0.8538 -0.8538 0.5207 533.846 559.006)" class="st6 st3 st22">Brasil</text>
	</g>
	<path class="st21" d="M508.3,559.7c4.6-2.3,10.5,0.2,13.2,5.5l39.7,72.6c2.6,5.3-0.1,12.1-6.1,15.1l-5,2.5c-6,3-13,1-15.7-4.3
		l-33.6-75.6c-2.6-5.3-1-11.5,3.6-13.8L508.3,559.7z"/>
	<g>
		<text transform="matrix(0.4286 0.9035 -0.9035 0.4286 507.1299 573.5067)" class="st6 st3 st7">Costa Rica</text>
	</g>
	<path class="st21" d="M481.7,571.5c4.8-1.8,10.4,1.3,12.5,6.9l31.9,76.3c2.1,5.6-1.3,12-7.6,14.3l-5.2,1.9
		c-6.3,2.3-13.1-0.3-15.1-5.9l-25.5-78.7c-2.1-5.6,0.2-11.6,5-13.4L481.7,571.5z"/>
	<g>
		<text transform="matrix(0.3318 0.9434 -0.9434 0.3318 479.0401 585.0608)" class="st6 st3 st22">Serbia</text>
	</g>
	<path class="st21" d="M453.9,580.4c5-1.3,10.2,2.4,11.7,8.2l23.8,79.2c1.5,5.8-2.6,11.8-9.1,13.5l-5.4,1.4
		c-6.5,1.7-12.9-1.7-14.4-7.5l-17.1-80.9c-1.5-5.8,1.4-11.5,6.4-12.8L453.9,580.4z"/>
	<g>
		<text transform="matrix(0.2314 0.9729 -0.9729 0.2314 449.9648 593.6212)" class="st6 st3 st11">Suiza</text>
	</g>
</g>
<g id="knockout-16">
	<circle id="H2" class="st16" cx="555.8" cy="174.7" r="10" />
	<circle id="H1" class="st16" cx="549.8" cy="112.8" r="10"/>
	<circle id="G2" class="st18" cx="594.8" cy="253" r="10"/>
	<circle id="G1" class="st18" cx="641.9" cy="292.8" r="10"/>
	<circle id="F2" class="st20" cx="556.4" cy="447.7" r="10"/>
	<circle id="F1" class="st20" cx="616.3" cy="427.5" r="10"/>
	<circle id="E2" class="st21" cx="490.4" cy="503.3" r="10"/>
	<circle id="E1" class="st21" cx="460.6" cy="559" r="10"/>
	<circle id="D2" class="st14" cx="275" cy="503.3" r="10"/>
	<circle id="D1" class="st14" cx="304.9" cy="559" r="10"/>
	<circle id="C2" class="st12" cx="205.6" cy="447.4" r="10"/>
	<circle id="C1" class="st12" cx="149.2" cy="427.7" r="10"/>
	<circle id="B2" class="st10" cx="171.6" cy="251.2" r="10"/>
	<circle id="B1" class="st10" cx="123.1" cy="292.9" r="10"/>
	<circle id="A2" class="st5" cx="210.2" cy="174.7" r="10"/>
	<circle id="A1" class="st5" cx="215.7" cy="112.8" r="10"/>
</g>
<g id="knockout-8">
	<circle id="g16" class="st2" cx="248.4" cy="204" r="12.5"/>
	<circle id="g20" class="st2" cx="212.4" cy="288.5" r="12.5"/>
	<circle id="g17" class="st2" cx="242.5" cy="409.7" r="12.5"/>
	<circle id="g21" class="st2" cx="312.1" cy="468.8" r="12.5"/>
	<circle id="g23" class="st2" cx="517" cy="204" r="12.5"/>
	<circle id="g19" class="st2" cx="553.1" cy="288.5" r="12.5"/>
	<circle id="g22" class="st2" cx="523.9" cy="409.3" r="12.5"/>
	<circle id="g18" class="st2" cx="452.3" cy="468.8" r="12.5"/>
</g>
<g id="knockout-4">
	<circle id="g24" class="st2" cx="260.1" cy="316.7" r="15"/>
	<circle id="g26" class="st2" cx="314.6" cy="413.3" r="15"/>
	<circle id="g27" class="st2" cx="506.1" cy="316" r="15" />
	<circle id="g25" class="st2" cx="451" cy="413.3" r="15"/>
</g>
<g id="knockout-2">
	<circle id="g28" class="st23" cx="333.1" cy="352.9" r="20"/>
	<circle id="g29" class="st23" cx="437.5" cy="354.3" r="20"/>
</g>
<g id="knockout-1">
    <circle id="g30" class="st23" cx="382.7" cy="269.2" r="30"/>
	<image x="352.7" y ="239.2" width="60" height="60" xlink:href="/assets/images/balon.svg" />
</g>

<g id="stage-texts">
	<polygon points="415.2,107.1 350.2,107.1 341.3,37.7 424.2,37.7 	"/>
	<text transform="matrix(1 0 0 1 354.7859 56.921)" class="st6 st3 st4">1er lugar</text>
	<text transform="matrix(1 0 0 1 358.7262 92.8521)" class="st6 st3 st4">2º lugar</text>
	<text transform="matrix(1 0 0 1 312.3474 28.7462)" class="st3 st7">Ganadores de grupo</text>
	<text transform="matrix(1 0 0 1 354.4976 134.8005)" class="st3 st7">Octavos</text>
	<text transform="matrix(1 0 0 1 355.4101 182.8005)" class="st3 st7">Cuartos</text>
	<text transform="matrix(1 0 0 1 352.6617 234.0051)" class="st3 st7">Ganador</text>
</g>
<defs  xmlns="http://www.w3.org/1999/xhtml"></defs>
</svg>
