<?xml version="1.0" encoding="utf-8"?>
<!-- Generator: Adobe Illustrator 22.1.0, SVG Export Plug-In . SVG Version: 6.00 Build 0)  -->
<svg version="1.1" id="Layer_1" xmlns="http://www.w3.org/2000/svg" xmlns:xlink="http://www.w3.org/1999/xlink" x="0px" y="0px"
	 viewBox="0 0 89.8 89.8" style="enable-background:new 0 0 89.8 89.8;" xml:space="preserve">
<style type="text/css">
	.st0{fill:#FF0084;}
	.st1{fill:#F1F2F2;}
</style>
<g>
	<path class="st0" d="M44.9,89.8c24.8,0,44.9-20.1,44.9-44.9C89.8,20.1,69.7,0,44.9,0C20.1,0,0,20.1,0,44.9
		C0,69.7,20.1,89.8,44.9,89.8"/>
	<path class="st1" d="M67.4,44.9c0,5.5-4.4,9.9-9.9,9.9c-5.5,0-9.9-4.4-9.9-9.9c0-5.5,4.4-9.9,9.9-9.9C63,35,67.4,39.4,67.4,44.9
		L67.4,44.9z M67.4,44.9"/>
	<path class="st1" d="M42.2,44.9c0,5.5-4.4,9.9-9.9,9.9c-5.5,0-9.9-4.4-9.9-9.9c0-5.5,4.4-9.9,9.9-9.9C37.8,35,42.2,39.4,42.2,44.9
		L42.2,44.9z M42.2,44.9"/>
</g>
</svg>
