<?xml version="1.0" encoding="utf-8"?>
<!-- Generator: Adobe Illustrator 22.1.0, SVG Export Plug-In . SVG Version: 6.00 Build 0)  -->
<svg version="1.1" id="Layer_1" xmlns="http://www.w3.org/2000/svg" xmlns:xlink="http://www.w3.org/1999/xlink" x="0px" y="0px"
	 viewBox="0 0 89.8 89.8" style="enable-background:new 0 0 89.8 89.8;" xml:space="preserve">
<style type="text/css">
	.st0{fill:#69B4E5;}
	.st1{fill:#FFFFFF;}
</style>
<g>
	<path class="st0" d="M89.8,44.9c0,24.8-20.1,44.9-44.9,44.9S0,69.7,0,44.9C0,20.1,20.1,0,44.9,0S89.8,20.1,89.8,44.9L89.8,44.9z
		 M89.8,44.9"/>
	<path class="st1" d="M67.8,25.9c-1.2-1.3-3-2-5.2-2.1c-6.3-0.2-10.8,3.2-13.3,10c-0.1,0.4-0.1,0.8,0.2,1c0.3,0.3,0.6,0.4,1,0.3
		c0.7-0.2,1.4-0.3,2.1-0.3c0.9,0,2.2,0.2,2.8,1c0.5,0.6,0.5,1.6,0.2,2.8c-0.3,1-1.8,3.8-3.6,6.7c-2.3,3.5-3.5,5.1-3.9,5.1
		c-1.2,0-5.5-19-5.6-19.4c-1.2-4.4-1.8-6.6-5.9-6.6c-3.1,0-9.9,5.6-15.4,10.4c-0.3,0.3-0.6,0.5-0.9,0.7c-0.5,0.5-0.6,1.3-0.2,1.8
		l1,1.3c0.4,0.6,1.2,0.7,1.8,0.3l0.1,0c1.8-1.3,3.5-2.5,4.8-2.6c1.4-0.1,2.6,2.1,4.1,7.3c2.8,10.1,7,22.2,11.3,22.2
		c4.5,0,9.9-3.8,16.8-12.8c6.3-8.2,9.6-14.6,9.9-19.4l0,0C70,30.2,69.3,27.5,67.8,25.9z"/>
</g>
</svg>
